<?xml version="1.0" encoding="UTF-8"?>
<svg id="Capa_1" data-name="Capa 1" xmlns="http://www.w3.org/2000/svg" xmlns:xlink="http://www.w3.org/1999/xlink" viewBox="0 0 1080 1080">
  <defs>
    <style>
      .cls-1 {
        fill: #70d560;
      }

      .cls-2 {
        fill: url(#Degradado_sin_nombre_11-7);
      }

      .cls-3 {
        fill: url(#Degradado_sin_nombre_11-5);
      }

      .cls-4 {
        fill: url(#Degradado_sin_nombre_11-4);
      }

      .cls-5 {
        fill: #ff9597;
      }

      .cls-6 {
        fill: #a9e6a0;
      }

      .cls-7 {
        fill: #fff;
        opacity: .5;
      }

      .cls-8 {
        fill: url(#Degradado_sin_nombre_11);
      }

      .cls-9 {
        fill: url(#Degradado_sin_nombre_5-2);
      }

      .cls-10 {
        fill: url(#Degradado_sin_nombre_11-3);
      }

      .cls-11 {
        stroke-width: 2px;
      }

      .cls-11, .cls-12, .cls-13 {
        fill: none;
      }

      .cls-11, .cls-13 {
        stroke: #000;
        stroke-miterlimit: 10;
      }

      .cls-14 {
        fill: url(#Degradado_sin_nombre_11-6);
      }

      .cls-15 {
        fill: #fcfdef;
      }

      .cls-16 {
        fill: url(#Degradado_sin_nombre_5);
      }

      .cls-17 {
        fill: #c55569;
      }

      .cls-18 {
        fill: #d76682;
      }

      .cls-19 {
        fill: #da7386;
      }

      .cls-20 {
        fill: #fbd5c8;
      }

      .cls-21 {
        fill: #17412d;
      }

      .cls-22 {
        fill: #fd9385;
      }

      .cls-23 {
        fill: #ffebe6;
      }

      .cls-24 {
        fill: url(#Degradado_sin_nombre_11-2);
      }

      .cls-13 {
        stroke-width: .5px;
      }

      .cls-25 {
        fill: #d88da2;
      }
    </style>
    <linearGradient id="Degradado_sin_nombre_5" data-name="Degradado sin nombre 5" x1="619.69" y1="318.98" x2="755.93" y2="472.37" gradientUnits="userSpaceOnUse">
      <stop offset="0" stop-color="#c4cad6"/>
      <stop offset="1" stop-color="#302a44"/>
    </linearGradient>
    <linearGradient id="Degradado_sin_nombre_5-2" data-name="Degradado sin nombre 5" x1="327.86" y1="344.84" x2="464.28" y2="498.43" xlink:href="#Degradado_sin_nombre_5"/>
    <linearGradient id="Degradado_sin_nombre_11" data-name="Degradado sin nombre 11" x1="798.99" y1="346.45" x2="800" y2="442.32" gradientUnits="userSpaceOnUse">
      <stop offset="0" stop-color="#70d560"/>
      <stop offset="1" stop-color="#326d3c"/>
    </linearGradient>
    <linearGradient id="Degradado_sin_nombre_11-2" data-name="Degradado sin nombre 11" x1="682.31" y1="256.81" x2="684.83" y2="525.75" xlink:href="#Degradado_sin_nombre_11"/>
    <linearGradient id="Degradado_sin_nombre_11-3" data-name="Degradado sin nombre 11" x1="463.91" y1="264.34" x2="469.96" y2="556.99" xlink:href="#Degradado_sin_nombre_11"/>
    <linearGradient id="Degradado_sin_nombre_11-4" data-name="Degradado sin nombre 11" x1="374.14" y1="266.19" x2="380.19" y2="558.85" xlink:href="#Degradado_sin_nombre_11"/>
    <linearGradient id="Degradado_sin_nombre_11-5" data-name="Degradado sin nombre 11" x1="533.54" y1="344.6" x2="535.11" y2="420.56" xlink:href="#Degradado_sin_nombre_11"/>
    <linearGradient id="Degradado_sin_nombre_11-6" data-name="Degradado sin nombre 11" x1="681.04" y1="336.09" x2="682.55" y2="463.75" xlink:href="#Degradado_sin_nombre_11"/>
    <linearGradient id="Degradado_sin_nombre_11-7" data-name="Degradado sin nombre 11" x1="605.53" y1="256.04" x2="607.05" y2="383.7" gradientTransform="translate(-251.03 186.69) rotate(-7.51)" xlink:href="#Degradado_sin_nombre_11"/>
  </defs>
  <g>
    <path class="cls-20" d="m794.87,412.2l-10.72-12.88-2.14,8.84-22.2,51.47-8.83,7.82-68.99,9.33-55.39-3.53,1.51,20.94-10.09,21.44-16.4,15.14-53.99,14.13-40.87,1.51-23.46-3.78-26.11-18.42-8.7-15.39-.5-19.93-59.29,12.11-22.96.76-32.29.76-17.66-8.33-18.17-31.03-7.93-22.86-19.57,17.5-4.29,11.73-3.53,21.12v42.89l8.58,34.56,12.87,37.34,24.22,31.79,44.15,33.55,64.59,29.77,49.45,12.69,60.8,4.47,68.37-4.47,48.94-12.44,52.73-17.16,55-33.3,33.81-34.82,22.96-36.83,11.86-39.86,1.77-36.58s-1.01-39.11-1.01-42.89-14-35.83-14-35.83l-12.49-11.35Z"/>
    <path class="cls-20" d="m540,206.83l60.22,6.06,25.86,9.08,20.18-16.15,45.42-22.71s34.55-13.12,37.33-13.12,45.16-4.54,45.92-4.04c.76.5,30.02,3.53,30.78,4.04.76.5,19.43,36.33,19.43,36.33l9.08,21.95,12.61,25.73,8.79,22.2,5.34,18.17-2.02,12.11.25,7.57-6.18,27.63-11.48,18.92s-12.24,12.87-12.74,13.25-18.17,8.45-18.17,8.45c0,0-22.48-17.53-22.86-18.04s0-25.57,0-25.57l-25.79-15.64-68.62-13.29-43.23,2.19-40.53,9.59-14.97,10.6-10.09,10.76-5.89,21.54-43.41-4.72-47.62,12.28-15.94-26.57-34.65-14.3-47.27,1.85-46.24,8.41-27.58,9.92-25.23,16.13-12.45,12.29,2.52,23.04s-11.77-1.85-12.45-1.85-28.59-19.05-28.59-19.05l-19.17-28.38,2.19-30.95,13.62-56.01,11.27-34.31,34.15-11.44,33.97-5.72,43.23-1.35,37.34,7.06,30.11,14.97s40.87-17.92,41.38-17.71c.5.22,72.19-11.22,72.19-11.22Z"/>
    <path class="cls-20" d="m493.54,405.41c-.78.2.72,13.35.72,13.35l33.93-10.09,50.38,4.67-.8-13.5-40.75-5.8-43.48,11.38Z"/>
    <polygon class="cls-5" points="451.72 483.08 450.55 514.01 467.18 536.32 509.77 546.3 556.95 543.89 594.38 532.66 615.49 519.88 626.28 502.94 626.59 473.25 621.7 465.36 606.34 438.94 591.27 423.42 560.23 408.92 527.94 406.58 487.62 423.09 470.5 440.71 456.72 459.47 451.72 483.08"/>
    <path class="cls-25" d="m271.81,462.93s-17.4,163.41,158.5,204.08c175.89,40.66,278.03-29.77,298.21-46.42,20.18-16.65,77.34-71.3,82.3-183.84l6.56,12.97,2.8,14.67,2.19,44.35-2.52,29.43-9.86,36.37-20.92,40.16-32.32,30.75-34.15,20.05-58.67,32.63-46.76,12.78-78.66,6.06-72.72-2.69-59.2-17.32-36.23-15.98-42.94-28.93-20.09-15.61-22.85-31.61-12.74-29.27-5.93-21.57-3.53-51.34,5.42-27.88,4.11-11.83"/>
    <path class="cls-25" d="m388.56,262.54s-61.42,66.07-69.13,87.51l-.81-17.75,10.26-42.22,11.94-15.47,13.12-10.13s16.15-2.66,17.16-3.16c1.01-.5,17.46,1.21,17.46,1.21Z"/>
    <path class="cls-25" d="m273,457.73s-.63,42.64,52.22,52.73c52.86,10.09,123.17-4.57,123.17-4.57v-18.68l-59.97,15.81s-51.97-.84-53.82-.84-13.26-5.36-13.26-5.36l-19.8-26.92-11.68-30.96-12.95,10.76-3.91,8.03Z"/>
    <path class="cls-25" d="m613.09,535.19s22.83-14.76,25.48-44.15c0,0,56.98,5.09,96.33-4.84,39.36-9.92,63.49-31.52,70.05-57.99l-10.85-19.93-9.97-6.56-7.82,30.78-21.7,33.81-42.2,6.35-64.04,1.98-23.31-.38,2.65,20.94-8.45,20.06-15.39,10.97-6.18,4.42,5.68,4.54h9.71Z"/>
    <path class="cls-25" d="m820.34,197.16s-7.82,19.77-3.02,61.9c4.79,42.13-18.42,44.4-31.28,29.01l-8.83-24.98-18.67-24.72-20.06-14.51s-9.21-9.08-32.17.25c-22.96,9.33-22.45,25.99-29.01,27.75-6.56,1.77-60.63-31.24-60.63-31.24l-17.49-3.36s21.36,7.91,63.24,39.19c41.88,31.28,51.47,36.83,69.97,57.35l34.81,12.41,21.87,12.48-1.29,25.57,24.34,19.51,20.69-10.76,19.17-32.13,6.66-24.25,2.34-23.35-8.53-25.14-16.11-30.53-15.98-40.45Z"/>
    <path class="cls-19" d="m232.82,281.18s-3.01,95.92,45.44,98.56l3.54,23.04-10.25-1.42-19.61-10.23-24.22-23.69-8.07-18.57,2.14-34.31,11.03-33.38"/>
    <path class="cls-15" d="m631.47,220.96s34.82-19.85,67.95-22.03c33.13-2.19,30.44-18.5,56.68-20.02,26.24-1.51,51.97-2.19,51.97-2.19l-12.28-9.42-59.92,2.12-47.21,15.2-47.1,22.2-10.09,14.13Z"/>
    <path class="cls-15" d="m743.63,187.23c1.25.19,2.48.51,3.68,1,2.82,1.14,5.2,3.37,3.8,6.6-2.78,6.39-11.44,6.64-15.39,5.05-3.95-1.6-8.16-11.69,0-12.61,2.63-.3,5.31-.44,7.91-.03Z"/>
    <path class="cls-15" d="m240.83,259.64s9-17.24,14.72-20.18,14.55-6.98,35.99-7.23c21.44-.25,44.75,7.91,62.05,4.37,17.3-3.53,57.43-4.15,65.49-2.65l-23.84-12.61-33.05-5.8-19.8-2.78-54.62,3.66-34.82,11.98-6.13,6.37-5.98,24.88Z"/>
    <path class="cls-15" d="m320.63,240.47c-1.29.95-2.27,2.3-2.75,4.21-.48,1.89-.01,3.75,1.42,5.1,2.04,1.93,5.02,1.42,7.33.3,1.49-.72,2.88-1.68,4.08-2.82,1.73-1.65,1.94-3.81,1.02-5.95s-2.75-3.18-4.97-2.91c-2.3.28-4.47.85-6.12,2.07Z"/>
    <path class="cls-15" d="m439.84,258.97s-7.29,2.64-3.31,6.28c3.98,3.64,9.42-2.24,9.59-4.09.17-1.85-3.08-3.42-6.28-2.19Z"/>
    <path class="cls-15" d="m614.23,246.27s5.13,2.02,2.48,5.97c-2.65,3.95-8.83-.04-8.12-2.44.71-2.4,1.09-4.42,5.63-3.53Z"/>
    <path class="cls-15" d="m572.68,219.53s19.17,4.96,19.59,18.42c.42,13.46-25.15,7.06-25.15,7.06,0,0-14.55-4.63-17.16-15.22-2.61-10.6,10.85-14.97,22.71-10.26Z"/>
    <path class="cls-15" d="m496.78,220.71s-45.79,7.95-44.4,22.96c1.39,15.01,12.74,13.94,20.69,10.25,7.95-3.69,35.83-10.37,54.87-9.24,19.05,1.14,20.94-10.47,15.64-18.04-5.3-7.57-28.76-9.46-46.8-5.93Z"/>
    <path class="cls-18" d="m456.8,468.46s-15.45,62.06,60.52,55.25c75.97-6.81,108.71-22.5,104.48-52.39l5.3,10.76-3.56,28.51-30.24,24.6-58.05,11.12h-44.38l-20.36-9.2-16.4-18.33-5.7-19.8,8.4-30.52Z"/>
    <path class="cls-23" d="m450.55,481.49s31.52-62.65,81.81-67.28c50.29-4.62,82.96,42.55,92.89,67.28l-11.37-30.5-28.09-30.14-28.83-11.35-22.92-2.48-15.74,4.58-32.74,13.61-18.38,19.75-14.61,22.22-2.02,14.31Z"/>
    <path class="cls-16" d="m761.14,370.96l-.52,3.55-2.03,13.96-2.93,20.2-15.04,25.23-10.63,7.97-8.2,6.15-.6.1-9.17,1.54-6.18,1.04-12.31,2.07s-2.2.02-5.51.05c-9.83.09-29.48.22-30.48-.05-.95-.26-15.84-5.53-24.5-8.59-3.59-1.27-6.11-2.17-6.11-2.17l-.65-.78-3.51-4.26-10.12-12.26-4.36-5.28s-2.49-13.27-3.92-21.54c-.58-3.36-.99-5.89-.99-6.38,0-1.68,5.38-24.82,6.39-25.53,1.01-.71,10.09-15.51,10.09-15.51l12.09-4.05,7.42-2.49,17.5-1.76,17.63-1.77,6.12-.61,4.16-.42,4.16.47,36.55,4.1,18.3,4.8.2.05,11.68,8.41.11.28,2.4,6.03,2.96,7.45Z"/>
    <path class="cls-7" d="m631.95,346.42l-27.58,51.47c-.58-3.36-.99-5.89-.99-6.38,0-1.68,5.38-24.82,6.39-25.53,1.01-.71,10.09-15.51,10.09-15.51l12.09-4.05Z"/>
    <polygon class="cls-7" points="674.5 340.4 622.77 436.97 612.65 424.71 656.87 342.17 674.5 340.4"/>
    <path class="cls-7" d="m755.78,357.48l-49.94,93.22-12.31,2.07s-2.2.02-5.51.05l55.76-104.08.2.05,11.68,8.41.11.28Z"/>
    <polygon class="cls-7" points="761.14 370.96 760.63 374.51 721.19 448.12 712.02 449.66 758.18 363.51 761.14 370.96"/>
    <path class="cls-7" d="m688.94,339.83l-55.9,104.34c-3.59-1.27-6.11-2.17-6.11-2.17l-.65-.78,54.35-101.44,4.16-.42,4.16.47Z"/>
    <polygon class="cls-7" points="758.6 388.47 755.67 408.66 740.62 433.89 729.99 441.87 758.6 388.47"/>
    <polygon class="cls-9" points="470.5 438.94 460.41 449.73 443.26 463.68 433.04 467.18 426.36 469.47 416.14 472.97 409.25 475.33 405.92 476.47 391.54 477.26 366.22 478.65 343.35 473.25 337.14 467.51 331.57 462.35 329.89 460.8 328.14 457.94 320.81 445.91 319.66 442.62 312.74 422.66 311.62 415.35 309.71 402.78 311.39 391.39 325.18 378.9 332.16 377.01 358.65 369.86 360.7 369.31 377.18 366.41 383.57 365.29 392.78 363.68 408.61 360.9 440.57 364.44 449.23 369.58 452.57 371.56 458.78 382.89 461.63 388.08 463.44 391.39 464.7 397.92 466.14 405.41 467.48 412.36 468.05 417.4 470.5 438.94"/>
    <polygon class="cls-7" points="332.16 377.01 311.62 415.35 309.71 402.78 311.39 391.39 325.18 378.9 332.16 377.01"/>
    <polygon class="cls-7" points="377.18 366.41 328.14 457.94 320.81 445.91 319.66 442.62 358.65 369.86 360.7 369.31 377.18 366.41"/>
    <polygon class="cls-7" points="458.78 382.89 409.25 475.33 405.92 476.47 391.54 477.26 449.23 369.58 452.57 371.56 458.78 382.89"/>
    <polygon class="cls-7" points="464.7 397.92 426.36 469.47 416.14 472.97 461.63 388.08 463.44 391.39 464.7 397.92"/>
    <polygon class="cls-7" points="392.78 363.68 337.14 467.51 331.57 462.35 383.57 365.29 392.78 363.68"/>
    <polygon class="cls-7" points="468.05 417.4 443.26 463.68 433.04 467.18 466.14 405.41 467.48 412.36 468.05 417.4"/>
    <polygon class="cls-8" points="787.77 367.44 785.95 397.48 806.85 423.09 811.6 411.1 813.03 390.58 801.11 374.85 787.77 367.44"/>
    <path class="cls-24" d="m771.4,326.59l-49.5-11.4-49.42-4.36-15.62,2.48s-36.6,5.72-37.74,5.99c-1.14.27-26.01,12.51-26.01,12.51l-12.95,20.35-2.52,45.46,1.18,19.93,23.21,14.51,14.3,22.87,8.91,17.32,36.81,3.27,58.22-2.76,34.35-6.43,14.96-23.31,9.13-19.91,5.43-28.84,3.49-32.34,1.43-23.21-17.66-12.11Zm-11.77,56.18l-3.47,22.49-9.99,23.43-9.59,10.26-18.67,9.92-21.7,3.96-28.93.11-31.12-4.74-20.35-14.3-10.43-24.72v-30.27l6.56-20.19,24.22-12.29,29.1-4.86,42.72-.34,33.13,7.51s16.15,5.77,16.15,6.28,2.36,7.91,2.36,9.43v18.33Z"/>
    <path class="cls-10" d="m468.09,443.8l-.04.38s-.32.29-.87.79l.92-1.17Z"/>
    <path class="cls-4" d="m492.62,415.59l-1.76,7.83-16.91,12.87-5.86,7.5,1.45-13.27-4.85-32.61-8.91-25.77s-10.51-9.24-12.87-8.48c-2.35.76-26.99.59-28.51-.04-1.51-.63-46.42,2.78-46.42,2.78,0,0-33.37,9.94-34.08,10.13-.7.19-21.17,9.67-21.17,9.67l-3.03,14.38,3.03,22.07,10.4,27.07,4.99,11.41,16.4,11.83,8.4,2.54s11.53,5.06,13.05,5.06,36.33-2.58,37.09-1.92c.76.66,25.23-4.19,26.24-5.68,1.01-1.48,17.51-12.33,19.1-12.33,1.38,0,15.15-12.38,18.78-15.67l-10.13,12.97-6.5,30.7-21,3.54-46.43,10.76-31.01-.86-21.55-.91-18.97-14.11-9.45-19.88-11.94-27.36-16.31,9.9-2.92,7.3-8.68-20.06,1.26-16.11,18.09-19.13-3.96-23.59,9.08-10.69,27.62-11.51s21.83-8.07,22.59-8.33c.76-.25,29.51-10.4,29.51-10.4l36.84-6.51s21.92-.76,23.46,0c1.54.76,33.3,5.15,33.3,5.15l13.48,12.69,9.73,12.35,7.57,32.36,1.76,22.34Z"/>
    <polygon class="cls-3" points="488.71 370.82 529.36 361.23 579.37 366.55 578.65 399.96 537.02 394.03 490.1 406.31 488.71 370.82"/>
    <path class="cls-6" d="m487.62,374.62l1.37,3.41c-.01-.38,36.81-19.32,87.77-6.7l.88-5.35-24.22-4.74-41.88,2.27-23.93,11.11Z"/>
    <path class="cls-6" d="m785.95,338.78l-.84,3.95s-7.15-4.96-14.3-8.75c-7.15-3.78-30.25-14.38-58.79-15.39,0,0-31.44-3.03-60.58-1.01-29.14,2.02-47.56,14.63-47.56,14.63,0,0-18.29,12.99-22.08,25.48l7.69-23.46,23.15-13.42,36.77-9.41h50.58l35.7,5.42,49.23,19.03,1.02,2.92Z"/>
    <path class="cls-6" d="m278.93,377.6l2.07,4.99s7.4-7.79,12.05-11.16c4.65-3.36,11.45-7.86,21.31-11.89,0,0,25.33-10.6,43.27-14.58,17.94-3.98,33.49-8.29,58.5-9.05,25.01-.76,42.63,6.02,42.63,6.02l11.72,3.74-25.82-13.33-41.5.63-35.47,4.02-31.38,9.48-24.83,7.67-32.57,23.46Z"/>
    <path class="cls-6" d="m318.67,449.53s.63,24.09,35.83,32.92c35.19,8.83,87.54-7.19,98.07-18.42,10.54-11.23-.48-1.54-.48-1.54l-6.31,2.19-20.62,6.29-34.72,7.67-31.79,1.5-25.73-12.28-14.25-18.33Z"/>
    <path class="cls-6" d="m605.4,422.37s3.62,17.07,19.85,26.15c12.09,6.77,36.33,12.55,64.81,9.6,9.36-.97,19.1-1.1,28.54-3.72,37-10.26,37.57-49.16,37.57-49.16l-20.42,34.36-27.42,12.28-36.67,2.69-28.09-4.92-22.03-7.79-16.15-19.5Z"/>
    <path class="cls-21" d="m610.19,356.94c5.38-17.16,45.42-22.39,45.42-22.39,24.09-2.96,59.96.11,77.53,3.89,17.58,3.78,27.54,11.56,27.54,11.56,4.63,4.04,2.14,18.67,2.14,18.67l-8.2-14.38s-30.15-8.96-30.65-9.46-31.54-3.03-33.43-3.03-31.54-.59-31.54-.59l-36.08,8.54-12.74,7.19Z"/>
    <path class="cls-21" d="m459.79,374.63s-5.9-16.01-16.37-17.16c-10.47-1.16-25.1-2.54-36.33-1.66-11.23.88-31.03,1.01-52.1,7.19-21.07,6.18-41,14.3-47.18,20.77-6.18,6.48.76,31.24.76,31.24l4.29-27.79,27.37-13.12,55.88-10.42s38.1.08,38.98.08,24.7,10.88,24.7,10.88Z"/>
    <path class="cls-21" d="m492.96,397.89s41.8-18.58,83.93-4.72v4.44l-16.74-2.07-48.69,3.03-18.5,4.2v-4.89Z"/>
    <path d="m763.71,365.2c-.07-3.96-.73-7.04-2.1-9.68-2.54-4.93-7.18-7.21-10.45-8.49-16.27-6.39-35.07-10.03-55.87-10.83-6.52-.25-11.84-.36-16.74-.34-12.36.06-22.42.91-31.68,2.68-11.67,2.24-21.58,5.89-30.31,11.16-7.2,4.35-12.12,13.76-14.65,27.99-1.73,9.78-1.69,18.38-1.68,19.22,0,.96-.01,10.6,3.48,21.65,2.15,6.79,5.19,12.72,9.03,17.63,4.89,6.25,11.06,10.82,18.35,13.59,11.95,4.54,23.01,7.01,34.83,7.77,2.79.18,5.53.26,8.23.26,7.36,0,14.41-.56,21.3-1.11,2.61-.21,5.3-.42,7.99-.61,11.22-.76,20.7-3.76,28.97-9.14,7.02-4.57,13.17-10.83,19.35-19.7,11.04-15.83,12.23-45.67,11.95-62.04Zm-18.57,57.43c-11.72,16.8-23.96,24.16-42.25,25.41-2.73.19-5.45.4-8.08.61-18.69,1.49-36.34,2.9-60.85-6.41-10.71-4.07-18.27-12.78-22.48-25.89-3.26-10.17-3.18-19.27-3.18-19.35v-.06s0-.06,0-.06c0-.08-.09-8.43,1.56-17.76,2.07-11.67,5.83-19.45,10.87-22.49,18.37-11.09,40.57-12.6,57.85-12.68,4.79-.02,10,.08,16.4.33,19.9.76,37.81,4.22,53.23,10.28,3.26,1.28,5.24,2.77,6.23,4.68.78,1.5,1.16,3.45,1.2,6.12.21,12.4-.4,42.8-10.5,57.29Zm18.57-57.43c-.07-3.96-.73-7.04-2.1-9.68-2.54-4.93-7.18-7.21-10.45-8.49-16.27-6.39-35.07-10.03-55.87-10.83-6.52-.25-11.84-.36-16.74-.34-12.36.06-22.42.91-31.68,2.68-11.67,2.24-21.58,5.89-30.31,11.16-7.2,4.35-12.12,13.76-14.65,27.99-1.73,9.78-1.69,18.38-1.68,19.22,0,.96-.01,10.6,3.48,21.65,2.15,6.79,5.19,12.72,9.03,17.63,4.89,6.25,11.06,10.82,18.35,13.59,11.95,4.54,23.01,7.01,34.83,7.77,2.79.18,5.53.26,8.23.26,7.36,0,14.41-.56,21.3-1.11,2.61-.21,5.3-.42,7.99-.61,11.22-.76,20.7-3.76,28.97-9.14,7.02-4.57,13.17-10.83,19.35-19.7,11.04-15.83,12.23-45.67,11.95-62.04Zm-18.57,57.43c-11.72,16.8-23.96,24.16-42.25,25.41-2.73.19-5.45.4-8.08.61-18.69,1.49-36.34,2.9-60.85-6.41-10.71-4.07-18.27-12.78-22.48-25.89-3.26-10.17-3.18-19.27-3.18-19.35v-.06s0-.06,0-.06c0-.08-.09-8.43,1.56-17.76,2.07-11.67,5.83-19.45,10.87-22.49,18.37-11.09,40.57-12.6,57.85-12.68,4.79-.02,10,.08,16.4.33,19.9.76,37.81,4.22,53.23,10.28,3.26,1.28,5.24,2.77,6.23,4.68.78,1.5,1.16,3.45,1.2,6.12.21,12.4-.4,42.8-10.5,57.29Zm-231.04,42.22c-4.99-14.82-13.69-11.83-13.69-11.83-.45.19-.89.4-1.31.67-2.65,1.71-3.93,4.99-5.08,7.77-3.04,7.34-6.69,15.89-6.39,23.85.13,3.31.47,6.89,1.43,10.07,1.31,4.33,2.69,8.07,7.1,9,4.56.96,10.7-2.63,13.79-5.97,8.75-9.46,9.13-18.74,4.15-33.55Zm71.06,15.33c-.42-3.29-1.57-6.7-2.81-9.77-2.98-7.39-7.8-13.94-13.58-19.39-2.19-2.07-4.7-4.54-7.82-5.01-.48-.07-.98-.09-1.47-.08,0,0-9.17.84-7.65,16.4,1.51,15.56,4.12,24.56,15.98,29.6,4.19,1.78,8.87,1.78,12.64-.97,3.64-2.66,5.29-6.29,4.71-10.78Zm178.55-114.97c-.07-3.96-.73-7.04-2.1-9.68-2.54-4.93-7.18-7.21-10.45-8.49-16.27-6.39-35.07-10.03-55.87-10.83-6.52-.25-11.84-.36-16.74-.34-12.36.06-22.42.91-31.68,2.68-11.67,2.24-21.58,5.89-30.31,11.16-7.2,4.35-12.12,13.76-14.65,27.99-1.73,9.78-1.69,18.38-1.68,19.22,0,.96-.01,10.6,3.48,21.65,2.15,6.79,5.19,12.72,9.03,17.63,4.89,6.25,11.06,10.82,18.35,13.59,11.95,4.54,23.01,7.01,34.83,7.77,2.79.18,5.53.26,8.23.26,7.36,0,14.41-.56,21.3-1.11,2.61-.21,5.3-.42,7.99-.61,11.22-.76,20.7-3.76,28.97-9.14,7.02-4.57,13.17-10.83,19.35-19.7,11.04-15.83,12.23-45.67,11.95-62.04Zm-18.57,57.43c-11.72,16.8-23.96,24.16-42.25,25.41-2.73.19-5.45.4-8.08.61-18.69,1.49-36.34,2.9-60.85-6.41-10.71-4.07-18.27-12.78-22.48-25.89-3.26-10.17-3.18-19.27-3.18-19.35v-.06s0-.06,0-.06c0-.08-.09-8.43,1.56-17.76,2.07-11.67,5.83-19.45,10.87-22.49,18.37-11.09,40.57-12.6,57.85-12.68,4.79-.02,10,.08,16.4.33,19.9.76,37.81,4.22,53.23,10.28,3.26,1.28,5.24,2.77,6.23,4.68.78,1.5,1.16,3.45,1.2,6.12.21,12.4-.4,42.8-10.5,57.29Zm18.57-57.43c-.07-3.96-.73-7.04-2.1-9.68-2.54-4.93-7.18-7.21-10.45-8.49-16.27-6.39-35.07-10.03-55.87-10.83-6.52-.25-11.84-.36-16.74-.34-12.36.06-22.42.91-31.68,2.68-11.67,2.24-21.58,5.89-30.31,11.16-7.2,4.35-12.12,13.76-14.65,27.99-1.73,9.78-1.69,18.38-1.68,19.22,0,.96-.01,10.6,3.48,21.65,2.15,6.79,5.19,12.72,9.03,17.63,4.89,6.25,11.06,10.82,18.35,13.59,11.95,4.54,23.01,7.01,34.83,7.77,2.79.18,5.53.26,8.23.26,7.36,0,14.41-.56,21.3-1.11,2.61-.21,5.3-.42,7.99-.61,11.22-.76,20.7-3.76,28.97-9.14,7.02-4.57,13.17-10.83,19.35-19.7,11.04-15.83,12.23-45.67,11.95-62.04Zm-18.57,57.43c-11.72,16.8-23.96,24.16-42.25,25.41-2.73.19-5.45.4-8.08.61-18.69,1.49-36.34,2.9-60.85-6.41-10.71-4.07-18.27-12.78-22.48-25.89-3.26-10.17-3.18-19.27-3.18-19.35v-.06s0-.06,0-.06c0-.08-.09-8.43,1.56-17.76,2.07-11.67,5.83-19.45,10.87-22.49,18.37-11.09,40.57-12.6,57.85-12.68,4.79-.02,10,.08,16.4.33,19.9.76,37.81,4.22,53.23,10.28,3.26,1.28,5.24,2.77,6.23,4.68.78,1.5,1.16,3.45,1.2,6.12.21,12.4-.4,42.8-10.5,57.29Zm-159.98,57.54c-.42-3.29-1.57-6.7-2.81-9.77-2.98-7.39-7.8-13.94-13.58-19.39-2.19-2.07-4.7-4.54-7.82-5.01-.48-.07-.98-.09-1.47-.08,0,0-9.17.84-7.65,16.4,1.51,15.56,4.12,24.56,15.98,29.6,4.19,1.78,8.87,1.78,12.64-.97,3.64-2.66,5.29-6.29,4.71-10.78Zm-71.06-15.33c-4.99-14.82-13.69-11.83-13.69-11.83-.45.19-.89.4-1.31.67-2.65,1.71-3.93,4.99-5.08,7.77-3.04,7.34-6.69,15.89-6.39,23.85.13,3.31.47,6.89,1.43,10.07,1.31,4.33,2.69,8.07,7.1,9,4.56.96,10.7-2.63,13.79-5.97,8.75-9.46,9.13-18.74,4.15-33.55Zm0,0c-4.99-14.82-13.69-11.83-13.69-11.83-.45.19-.89.4-1.31.67-2.65,1.71-3.93,4.99-5.08,7.77-3.04,7.34-6.69,15.89-6.39,23.85.13,3.31.47,6.89,1.43,10.07,1.31,4.33,2.69,8.07,7.1,9,4.56.96,10.7-2.63,13.79-5.97,8.75-9.46,9.13-18.74,4.15-33.55Zm71.06,15.33c-.42-3.29-1.57-6.7-2.81-9.77-2.98-7.39-7.8-13.94-13.58-19.39-2.19-2.07-4.7-4.54-7.82-5.01-.48-.07-.98-.09-1.47-.08,0,0-9.17.84-7.65,16.4,1.51,15.56,4.12,24.56,15.98,29.6,4.19,1.78,8.87,1.78,12.64-.97,3.64-2.66,5.29-6.29,4.71-10.78Zm178.55-114.97c-.07-3.96-.73-7.04-2.1-9.68-2.54-4.93-7.18-7.21-10.45-8.49-16.27-6.39-35.07-10.03-55.87-10.83-6.52-.25-11.84-.36-16.74-.34-12.36.06-22.42.91-31.68,2.68-11.67,2.24-21.58,5.89-30.31,11.16-7.2,4.35-12.12,13.76-14.65,27.99-1.73,9.78-1.69,18.38-1.68,19.22,0,.96-.01,10.6,3.48,21.65,2.15,6.79,5.19,12.72,9.03,17.63,4.89,6.25,11.06,10.82,18.35,13.59,11.95,4.54,23.01,7.01,34.83,7.77,2.79.18,5.53.26,8.23.26,7.36,0,14.41-.56,21.3-1.11,2.61-.21,5.3-.42,7.99-.61,11.22-.76,20.7-3.76,28.97-9.14,7.02-4.57,13.17-10.83,19.35-19.7,11.04-15.83,12.23-45.67,11.95-62.04Zm-18.57,57.43c-11.72,16.8-23.96,24.16-42.25,25.41-2.73.19-5.45.4-8.08.61-18.69,1.49-36.34,2.9-60.85-6.41-10.71-4.07-18.27-12.78-22.48-25.89-3.26-10.17-3.18-19.27-3.18-19.35v-.06s0-.06,0-.06c0-.08-.09-8.43,1.56-17.76,2.07-11.67,5.83-19.45,10.87-22.49,18.37-11.09,40.57-12.6,57.85-12.68,4.79-.02,10,.08,16.4.33,19.9.76,37.81,4.22,53.23,10.28,3.26,1.28,5.24,2.77,6.23,4.68.78,1.5,1.16,3.45,1.2,6.12.21,12.4-.4,42.8-10.5,57.29Zm18.57-57.43c-.07-3.96-.73-7.04-2.1-9.68-2.54-4.93-7.18-7.21-10.45-8.49-16.27-6.39-35.07-10.03-55.87-10.83-6.52-.25-11.84-.36-16.74-.34-12.36.06-22.42.91-31.68,2.68-11.67,2.24-21.58,5.89-30.31,11.16-7.2,4.35-12.12,13.76-14.65,27.99-1.73,9.78-1.69,18.38-1.68,19.22,0,.96-.01,10.6,3.48,21.65,2.15,6.79,5.19,12.72,9.03,17.63,4.89,6.25,11.06,10.82,18.35,13.59,11.95,4.54,23.01,7.01,34.83,7.77,2.79.18,5.53.26,8.23.26,7.36,0,14.41-.56,21.3-1.11,2.61-.21,5.3-.42,7.99-.61,11.22-.76,20.7-3.76,28.97-9.14,7.02-4.57,13.17-10.83,19.35-19.7,11.04-15.83,12.23-45.67,11.95-62.04Zm-18.57,57.43c-11.72,16.8-23.96,24.16-42.25,25.41-2.73.19-5.45.4-8.08.61-18.69,1.49-36.34,2.9-60.85-6.41-10.71-4.07-18.27-12.78-22.48-25.89-3.26-10.17-3.18-19.27-3.18-19.35v-.06s0-.06,0-.06c0-.08-.09-8.43,1.56-17.76,2.07-11.67,5.83-19.45,10.87-22.49,18.37-11.09,40.57-12.6,57.85-12.68,4.79-.02,10,.08,16.4.33,19.9.76,37.81,4.22,53.23,10.28,3.26,1.28,5.24,2.77,6.23,4.68.78,1.5,1.16,3.45,1.2,6.12.21,12.4-.4,42.8-10.5,57.29Zm-159.98,57.54c-.42-3.29-1.57-6.7-2.81-9.77-2.98-7.39-7.8-13.94-13.58-19.39-2.19-2.07-4.7-4.54-7.82-5.01-.48-.07-.98-.09-1.47-.08,0,0-9.17.84-7.65,16.4,1.51,15.56,4.12,24.56,15.98,29.6,4.19,1.78,8.87,1.78,12.64-.97,3.64-2.66,5.29-6.29,4.71-10.78Zm-71.06-15.33c-4.99-14.82-13.69-11.83-13.69-11.83-.45.19-.89.4-1.31.67-2.65,1.71-3.93,4.99-5.08,7.77-3.04,7.34-6.69,15.89-6.39,23.85.13,3.31.47,6.89,1.43,10.07,1.31,4.33,2.69,8.07,7.1,9,4.56.96,10.7-2.63,13.79-5.97,8.75-9.46,9.13-18.74,4.15-33.55Zm0,0c-4.99-14.82-13.69-11.83-13.69-11.83-.45.19-.89.4-1.31.67-2.65,1.71-3.93,4.99-5.08,7.77-3.04,7.34-6.69,15.89-6.39,23.85.13,3.31.47,6.89,1.43,10.07,1.31,4.33,2.69,8.07,7.1,9,4.56.96,10.7-2.63,13.79-5.97,8.75-9.46,9.13-18.74,4.15-33.55Zm71.06,15.33c-.42-3.29-1.57-6.7-2.81-9.77-2.98-7.39-7.8-13.94-13.58-19.39-2.19-2.07-4.7-4.54-7.82-5.01-.48-.07-.98-.09-1.47-.08,0,0-9.17.84-7.65,16.4,1.51,15.56,4.12,24.56,15.98,29.6,4.19,1.78,8.87,1.78,12.64-.97,3.64-2.66,5.29-6.29,4.71-10.78Zm178.55-114.97c-.07-3.96-.73-7.04-2.1-9.68-2.54-4.93-7.18-7.21-10.45-8.49-16.27-6.39-35.07-10.03-55.87-10.83-6.52-.25-11.84-.36-16.74-.34-12.36.06-22.42.91-31.68,2.68-11.67,2.24-21.58,5.89-30.31,11.16-7.2,4.35-12.12,13.76-14.65,27.99-1.73,9.78-1.69,18.38-1.68,19.22,0,.96-.01,10.6,3.48,21.65,2.15,6.79,5.19,12.72,9.03,17.63,4.89,6.25,11.06,10.82,18.35,13.59,11.95,4.54,23.01,7.01,34.83,7.77,2.79.18,5.53.26,8.23.26,7.36,0,14.41-.56,21.3-1.11,2.61-.21,5.3-.42,7.99-.61,11.22-.76,20.7-3.76,28.97-9.14,7.02-4.57,13.17-10.83,19.35-19.7,11.04-15.83,12.23-45.67,11.95-62.04Zm-18.57,57.43c-11.72,16.8-23.96,24.16-42.25,25.41-2.73.19-5.45.4-8.08.61-18.69,1.49-36.34,2.9-60.85-6.41-10.71-4.07-18.27-12.78-22.48-25.89-3.26-10.17-3.18-19.27-3.18-19.35v-.06s0-.06,0-.06c0-.08-.09-8.43,1.56-17.76,2.07-11.67,5.83-19.45,10.87-22.49,18.37-11.09,40.57-12.6,57.85-12.68,4.79-.02,10,.08,16.4.33,19.9.76,37.81,4.22,53.23,10.28,3.26,1.28,5.24,2.77,6.23,4.68.78,1.5,1.16,3.45,1.2,6.12.21,12.4-.4,42.8-10.5,57.29Zm18.57-57.43c-.07-3.96-.73-7.04-2.1-9.68-2.54-4.93-7.18-7.21-10.45-8.49-16.27-6.39-35.07-10.03-55.87-10.83-6.52-.25-11.84-.36-16.74-.34-12.36.06-22.42.91-31.68,2.68-11.67,2.24-21.58,5.89-30.31,11.16-7.2,4.35-12.12,13.76-14.65,27.99-1.73,9.78-1.69,18.38-1.68,19.22,0,.96-.01,10.6,3.48,21.65,2.15,6.79,5.19,12.72,9.03,17.63,4.89,6.25,11.06,10.82,18.35,13.59,11.95,4.54,23.01,7.01,34.83,7.77,2.79.18,5.53.26,8.23.26,7.36,0,14.41-.56,21.3-1.11,2.61-.21,5.3-.42,7.99-.61,11.22-.76,20.7-3.76,28.97-9.14,7.02-4.57,13.17-10.83,19.35-19.7,11.04-15.83,12.23-45.67,11.95-62.04Zm-18.57,57.43c-11.72,16.8-23.96,24.16-42.25,25.41-2.73.19-5.45.4-8.08.61-18.69,1.49-36.34,2.9-60.85-6.41-10.71-4.07-18.27-12.78-22.48-25.89-3.26-10.17-3.18-19.27-3.18-19.35v-.06s0-.06,0-.06c0-.08-.09-8.43,1.56-17.76,2.07-11.67,5.83-19.45,10.87-22.49,18.37-11.09,40.57-12.6,57.85-12.68,4.79-.02,10,.08,16.4.33,19.9.76,37.81,4.22,53.23,10.28,3.26,1.28,5.24,2.77,6.23,4.68.78,1.5,1.16,3.45,1.2,6.12.21,12.4-.4,42.8-10.5,57.29Zm-159.98,57.54c-.42-3.29-1.57-6.7-2.81-9.77-2.98-7.39-7.8-13.94-13.58-19.39-2.19-2.07-4.7-4.54-7.82-5.01-.48-.07-.98-.09-1.47-.08,0,0-9.17.84-7.65,16.4,1.51,15.56,4.12,24.56,15.98,29.6,4.19,1.78,8.87,1.78,12.64-.97,3.64-2.66,5.29-6.29,4.71-10.78Zm-71.06-15.33c-4.99-14.82-13.69-11.83-13.69-11.83-.45.19-.89.4-1.31.67-2.65,1.71-3.93,4.99-5.08,7.77-3.04,7.34-6.69,15.89-6.39,23.85.13,3.31.47,6.89,1.43,10.07,1.31,4.33,2.69,8.07,7.1,9,4.56.96,10.7-2.63,13.79-5.97,8.75-9.46,9.13-18.74,4.15-33.55Zm0,0c-4.99-14.82-13.69-11.83-13.69-11.83-.45.19-.89.4-1.31.67-2.65,1.71-3.93,4.99-5.08,7.77-3.04,7.34-6.69,15.89-6.39,23.85.13,3.31.47,6.89,1.43,10.07,1.31,4.33,2.69,8.07,7.1,9,4.56.96,10.7-2.63,13.79-5.97,8.75-9.46,9.13-18.74,4.15-33.55Zm71.06,15.33c-.42-3.29-1.57-6.7-2.81-9.77-2.98-7.39-7.8-13.94-13.58-19.39-2.19-2.07-4.7-4.54-7.82-5.01-.48-.07-.98-.09-1.47-.08,0,0-9.17.84-7.65,16.4,1.51,15.56,4.12,24.56,15.98,29.6,4.19,1.78,8.87,1.78,12.64-.97,3.64-2.66,5.29-6.29,4.71-10.78Zm178.55-114.97c-.07-3.96-.73-7.04-2.1-9.68-2.54-4.93-7.18-7.21-10.45-8.49-16.27-6.39-35.07-10.03-55.87-10.83-6.52-.25-11.84-.36-16.74-.34-12.36.06-22.42.91-31.68,2.68-11.67,2.24-21.58,5.89-30.31,11.16-7.2,4.35-12.12,13.76-14.65,27.99-1.73,9.78-1.69,18.38-1.68,19.22,0,.96-.01,10.6,3.48,21.65,2.15,6.79,5.19,12.72,9.03,17.63,4.89,6.25,11.06,10.82,18.35,13.59,11.95,4.54,23.01,7.01,34.83,7.77,2.79.18,5.53.26,8.23.26,7.36,0,14.41-.56,21.3-1.11,2.61-.21,5.3-.42,7.99-.61,11.22-.76,20.7-3.76,28.97-9.14,7.02-4.57,13.17-10.83,19.35-19.7,11.04-15.83,12.23-45.67,11.95-62.04Zm-18.57,57.43c-11.72,16.8-23.96,24.16-42.25,25.41-2.73.19-5.45.4-8.08.61-18.69,1.49-36.34,2.9-60.85-6.41-10.71-4.07-18.27-12.78-22.48-25.89-3.26-10.17-3.18-19.27-3.18-19.35v-.06s0-.06,0-.06c0-.08-.09-8.43,1.56-17.76,2.07-11.67,5.83-19.45,10.87-22.49,18.37-11.09,40.57-12.6,57.85-12.68,4.79-.02,10,.08,16.4.33,19.9.76,37.81,4.22,53.23,10.28,3.26,1.28,5.24,2.77,6.23,4.68.78,1.5,1.16,3.45,1.2,6.12.21,12.4-.4,42.8-10.5,57.29Zm18.57-57.43c-.07-3.96-.73-7.04-2.1-9.68-2.54-4.93-7.18-7.21-10.45-8.49-16.27-6.39-35.07-10.03-55.87-10.83-6.52-.25-11.84-.36-16.74-.34-12.36.06-22.42.91-31.68,2.68-11.67,2.24-21.58,5.89-30.31,11.16-7.2,4.35-12.12,13.76-14.65,27.99-1.73,9.78-1.69,18.38-1.68,19.22,0,.96-.01,10.6,3.48,21.65,2.15,6.79,5.19,12.72,9.03,17.63,4.89,6.25,11.06,10.82,18.35,13.59,11.95,4.54,23.01,7.01,34.83,7.77,2.79.18,5.53.26,8.23.26,7.36,0,14.41-.56,21.3-1.11,2.61-.21,5.3-.42,7.99-.61,11.22-.76,20.7-3.76,28.97-9.14,7.02-4.57,13.17-10.83,19.35-19.7,11.04-15.83,12.23-45.67,11.95-62.04Zm-18.57,57.43c-11.72,16.8-23.96,24.16-42.25,25.41-2.73.19-5.45.4-8.08.61-18.69,1.49-36.34,2.9-60.85-6.41-10.71-4.07-18.27-12.78-22.48-25.89-3.26-10.17-3.18-19.27-3.18-19.35v-.06s0-.06,0-.06c0-.08-.09-8.43,1.56-17.76,2.07-11.67,5.83-19.45,10.87-22.49,18.37-11.09,40.57-12.6,57.85-12.68,4.79-.02,10,.08,16.4.33,19.9.76,37.81,4.22,53.23,10.28,3.26,1.28,5.24,2.77,6.23,4.68.78,1.5,1.16,3.45,1.2,6.12.21,12.4-.4,42.8-10.5,57.29Zm-159.98,57.54c-.42-3.29-1.57-6.7-2.81-9.77-2.98-7.39-7.8-13.94-13.58-19.39-2.19-2.07-4.7-4.54-7.82-5.01-.48-.07-.98-.09-1.47-.08,0,0-9.17.84-7.65,16.4,1.51,15.56,4.12,24.56,15.98,29.6,4.19,1.78,8.87,1.78,12.64-.97,3.64-2.66,5.29-6.29,4.71-10.78Zm-84.75-27.16c-.45.19-.89.4-1.31.67-2.65,1.71-3.93,4.99-5.08,7.77-3.04,7.34-6.69,15.89-6.39,23.85.13,3.31.47,6.89,1.43,10.07,1.31,4.33,2.69,8.07,7.1,9,4.56.96,10.7-2.63,13.79-5.97,8.75-9.46,9.13-18.74,4.15-33.55-4.99-14.82-13.69-11.83-13.69-11.83Zm361.44-170.71c-5.41-17.36-14.09-33.44-22.59-49.42-7.43-14.35-13.46-29.28-18.88-44.51-.66-1.76-1.41-3.87-2.12-5.59l-.47-1.14c-.15-.38-.33-.78-.51-1.17l-.53-1.18-.18-.41-.09-.2c-.03-.07-.06-.15-.09-.22l-.18-.45c-.76-1.96-1.31-3.74-2.51-5.61-.65-1.05-1.46-2-2.35-2.86-.05-.05-.11-.1-.16-.14l-.33-.28c-.22-.18-.44-.37-.66-.55l-.68-.48-.34-.24c-.12-.08-.23-.16-.34-.22l-.69-.39-.34-.19c-.12-.06-.23-.13-.34-.18-.45-.21-.91-.43-1.36-.63l-1.34-.51c-.11-.04-.22-.09-.33-.12l-.33-.1-.66-.2-.66-.2c-.22-.07-.43-.11-.65-.17l-1.29-.32c-.43-.1-.84-.18-1.27-.26l-.63-.13c-.21-.04-.42-.08-.63-.12l-1.25-.2c-1.18-.19-2.51-.35-3.7-.48l-2.44-.23c-12.66-.92-25.34-.34-37.95.29l-4.69.28-1.17.07-.59.04s-.58.04-.6.04c-42.31,3.12-81.88,22.55-115.22,47.94-1.73,1.34-3.46,2.73-5.16,4.14-14.08-5.07-28.66-8.89-43.44-11.26-49.5-7.95-101.16-.11-146.66,20.69-3.04,1.42-6.07,2.9-9.04,4.49-.8-.53-1.6-1.04-2.41-1.55-21.36-13.08-46.38-19.86-71.35-20.5-1.66-.03-3.58-.03-5.24-.03-3.05.06-6.55.2-9.59.37-5.55.26-11.95.66-17.48,1.12-9.59.76-19.71,1.85-29.19,3.51-16.2,2.68-32.37,7.73-46.71,15.93-.36.75-1.03,2.15-1.36,2.87-5.6,12.28-10.05,25.08-13.93,37.99-5.38,18.12-9.37,36.68-11.96,55.41-.78,5.77-1.46,11.8-1.98,17.6-.15,1.96.06,3.89.34,5.82.56,3.52,1.64,6.98,2.97,10.27l.31.74.31.74.34.73c.46,1.06,1.26,2.57,1.77,3.58.89,1.62,1.81,3.19,2.82,4.77,5.9,9.12,13.54,16.92,21.88,23.8,4.74,3.93,9.9,7.59,15.02,11l.38.16.24.1.19.08.36.14c.46.18.92.34,1.38.5,1.97.66,3.97,1.2,6,1.62-1.57,1.43-3.06,2.95-4.45,4.56-3.06,3.56-5.65,7.64-7.01,12.17-.99,3.26-1.1,6.87-.73,10.14,1.11,8.85,4.85,16.94,9.34,24.46,0,0,.06.09.09.14-1.03,3.81-2.93,11.44-4.62,21.4-2.23,13.13-4.47,32.93-2.52,52.67,2.52,25.46,8.47,47.57,18.19,67.59,13.66,28.16,34.66,51.25,62.4,68.64,77.86,48.81,140.59,52.91,176.11,52.91,3.94,0,7.55-.05,10.8-.1,1.73-.02,3.37-.05,4.9-.06,1.39.04,16.1.45,36.74-.98,19.64-1.36,48.45-4.72,74.21-13.01,25.35-8.16,52.36-17.64,78.06-31.58,29.92-16.23,53.02-35.75,70.62-59.69,9.42-12.81,16.68-25.67,22.2-39.33,4.92-12.19,8.31-24.67,10.35-38.16,3.64-24,2.38-47.05.52-72.53-.69-9.36-3.16-18.98-7.35-28.6-1.79-4.12-3.9-8.24-6.31-12.34,3.02-3.76,5.15-8.79,6.24-14.72,1.08-5.91,1.12-12.69.1-19.1-.27-1.67-.9-3.44-1.9-5.32,10.32-3.51,19.14-9.42,26.26-17.63,6.57-7.57,11.69-17.08,15.21-28.24,4.67-14.84,5.26-28.51,5.29-33.95.11-.14.21-.28.31-.42,1.1-1.48,1.83-3.45,2.06-5.25.85-6.07-1.05-12.53-2.79-18.02Zm-596.29,113.11c-5.37-3.61-10.68-7.49-15.55-11.73-6.84-5.91-13.2-12.67-18-20.33-.34-.54-.73-1.23-1.06-1.75l-.66-1.19-.33-.59c-.21-.41-.7-1.38-.92-1.81l-.56-1.22-.28-.61c-.58-1.36-1.2-2.91-1.64-4.33-.8-2.56-1.41-5.22-1.46-7.9,0-.09,0-.17,0-.24,0-.07,0-.16,0-.19l.27-2.72c.24-2.69.65-6,.95-8.68,1.43-11.53,3.4-23.01,5.92-34.35,2.19-9.88,4.84-19.8,7.86-29.47,3.46-10.94,7.35-21.79,12.1-32.23,6.08-3.21,12.36-5.92,18.91-8.03,17.89-5.69,37.07-7.67,55.77-8.99,3.6-.22,7.77-.51,11.46-.66,3.18-.16,6.72-.34,9.9-.35h1.4s1.4.01,1.4.01h.7s.35,0,.35,0h.35s2.79.12,2.79.12c.46.02.93.03,1.39.06,2.59.15,5.79.41,8.34.7l1.39.18,1.38.18c.46.06.92.11,1.38.19,17.02,2.52,33.73,8.09,48.5,16.96-11,7.05-21.66,14.64-31.91,22.74-2.19-.93-8.9-3.39-17.46-3-9.49.43-23.16,4.53-34.39,21.59-4.73,7.18-8.8,15.61-12.1,25.04-2.62,7.49-4.77,15.64-6.38,24.21-1.98,10.51-2.66,19-2.89,23.1-1.96.83-3.89,1.69-5.8,2.57-11.83,5.43-22.55,13.12-30.99,22.23-1.67,1.81-2.36,4.32-1.83,6.72l3.56,16.36c-4.05-.32-8.07-1.15-11.87-2.59Zm309.07-18.86c.05,3.31.2,10.34.38,17.64-9.05-2.81-18.6-4.37-28.47-4.64-9.51-.26-19.34.66-29.22,2.75-10.05,2.12-18.04,5-22.94,7.01-.24-2.54-.52-5.34-.85-8.4-.62-5.74-1.57-10.96-2.66-15.58,4.16-1.91,12.73-5.43,24.17-7.96,14.47-3.2,36.35-5.32,59.83,2.1-.2,2.36-.28,4.69-.24,7.09Zm.58,26.2c.07,2.9.14,5.61.19,7.9-.8-.36-1.59-.72-2.4-1.06-11.1-4.7-22.73-6.97-34.56-6.73-14.58.29-29.31,4.52-42.9,12.14-.09-1.94-.23-4.32-.45-7.21,4-1.77,12.71-5.26,24.13-7.65,13.88-2.9,34.63-4.71,55.98,2.61Zm-36.6,8.18c.52,0,1.05-.01,1.56-.01,25.09,0,43.75,12.25,55.07,22.65,13.72,12.61,24.12,29.76,27.15,44.77,4.97,24.66-7.41,35.45-14.06,41.25-.83.72-1.55,1.35-2.18,1.96-2.39,2.29-12.76,8.63-29.53,13.65-12.07,3.62-30.46,7.44-54.3,7.44-5.85,0-12.03-.23-18.52-.75-13.91-1.11-24.79-4.27-33.26-9.66-12.71-8.08-19.77-23.33-17.57-37.94.25-1.66.56-3.31.9-5.05.09-.44.17-.88.25-1.32.11-.57.22-1.15.32-1.73.88-4.66,1.78-9.48,2.98-14.07,2.44-9.37,7.31-18.52,14.3-26.98.41-.32.76-.73,1.03-1.22,3.02-3.52,6.4-6.92,10.14-10.16,16.51-14.32,36.3-22.43,55.71-22.82Zm48.83-61.51c3.24-10.59,13.37-17.5,13.77-17.77,24.16-15.33,50.47-18.97,108.24-14.96,28.21,1.96,47.39,8.55,58.52,13.74,8.65,4.03,13.9,7.86,16.18,9.7l-1.58,22.95h0l-2.39,28.19c-.15,1.26-3.05,25.39-10.8,43.74-6.22,14.72-13.58,23.72-16.45,26.9-.39.43-.89.77-1.44.97-17.97,6.47-37.24,7.55-57.05,8.15-17.65.54-33.24.32-47.65-.65-6.41-.43-13.05-1.32-18.95-2.53-1.87-5.36-4.44-10.85-7.63-16.22-5.18-8.74-11.93-17.05-19.51-24.01-5.37-4.94-11.1-9.19-17.12-12.72-.19-7.52-.78-31.45-.88-38.48-.12-8.11,1.12-15.18,4.74-27.02Zm-158.11,116.77c-9.12,3.76-15.62,4.92-15.68,4.93l-.13.02c-.29.06-28.89,5.92-46.93,4.3-17.79-1.59-32.79-10.29-39.15-22.71-7.08-13.82-12.94-37.23-13.06-52.18-.02-2.38-.05-6.81,1.36-9.15,1.62-2.69,6.3-4.88,9.1-6.18,10.38-4.85,20.05-8.54,29.59-11.28,15.56-4.48,32.78-6.94,54.21-7.75,7.2-.27,15.66-.43,23.88.45,5.28.56,10.7,1.53,14.64,4.7,3.22,2.6,6.28,6.77,9.33,12.77,4.39,8.63,6.86,19.12,7.53,32.08.82,15.82,1.08,21.88,1.16,24.21-1.41,1.73-2.75,3.48-4,5.27-11.3,10.78-23.53,17.11-31.83,20.53Zm48.28-38.54c-1.64,1.42-3.22,2.87-4.73,4.35-.2-4.18-.47-9.61-.81-16.23-.73-14.11-3.48-25.67-8.39-35.32-3.58-7.03-7.33-12.06-11.45-15.39-5.56-4.48-12.34-5.74-18.84-6.44-8.73-.94-17.56-.77-25.04-.49-22.1.83-39.93,3.39-56.13,8.06-9.95,2.86-20.01,6.7-30.77,11.72-3.87,1.81-9.71,4.54-12.6,9.33-2.38,3.96-2.55,8.98-2.51,13.38.06,7.94,1.58,18.17,4.27,28.79,2.63,10.37,6.06,19.96,9.67,27.01,7.62,14.87,25.09,25.24,45.62,27.07,2.43.22,5.01.31,7.68.31,18.13,0,39.92-4.41,41.55-4.74.83-.15,7.61-1.44,17.06-5.31,5.37-2.2,12.27-5.53,19.56-10.34-.82,2.21-1.52,4.43-2.11,6.67-1.26,4.84-2.19,9.77-3.08,14.54-1.28.41-2.68.84-3.58,1.11-5.9,1.69-11.98,3.15-17.97,4.49-11.11,2.47-22.3,4.68-33.52,6.57-1.94.32-3.89.48-5.86.62-2.97.18-6.39.45-9.32.59-12.86.67-25.77,1.37-38.57.7-1.36-.1-3-.22-4.32-.42l-.67-.11-.33-.05c-.51-.11-1.19-.24-1.67-.41l-.26-.1-.26-.09c-.09-.03-.18-.08-.27-.11l-.54-.23-.55-.28-.28-.14-.28-.16-.56-.32-.55-.35c-7.63-4.95-16.52-16.69-20.39-25-.75-1.79-1.51-3.7-2.18-5.57-4.21-11.5-8.02-23.35-11.86-35.01l-10.93-50.14c7.7-8.25,17.46-15.22,28.25-20.17,21.59-9.91,46.3-17.17,75.54-22.2,14.85-2.55,27.9-3.48,39.9-2.85,15.88.84,35.64,3.62,47.63,17.72.88,1.03,1.51,1.88,1.99,2.67.37.66,8.06,14.52,10.4,36.4,1.75,16.33,2.08,24.72,2.12,28.15-3.44,2.35-6.79,4.93-10.02,7.73Zm-210.26-1.98c1.58-4.51,4.73-8.27,8.19-11.51,1.44-1.33,2.98-2.6,4.58-3.78l5.34,24.49c-4.25,3.01-8.22,6.39-11.75,10.25-.7.77-1.37,1.56-2.02,2.37-3.18-6.47-6.47-15.39-4.34-21.82Zm549.33,40.8c3.18,43.39,6.78,92.57-31.52,144.65-37.17,50.53-94.16,72.11-144.65,88.37-24.95,8.03-53.03,11.3-72.19,12.63-20.85,1.45-35.95.97-36.1.97h-.08s-.08,0-.08,0c-1.58.01-3.25.04-5.03.06-31.82.45-98.04,1.37-182.52-51.58-45.24-28.36-71.09-72.16-76.84-130.19-1.86-18.8.29-37.78,2.42-50.39,1.46-8.62,3.11-15.53,4.14-19.5.75-1.52,1.4-2.84,1.4-2.84.85-1.72,1.9-3.35,3.1-4.89,2.62-3.32,5.7-6.28,9.02-8.93,3,8.95,6.05,17.89,9.43,26.71,1.17,3.15,2.75,6.27,4.52,9.11,5.37,8.64,13.91,19.44,23.08,24.19l.85.42.9.39c.15.06.3.13.45.19l.48.17.48.17c.16.06.32.11.49.15l1.01.27c.32.07.62.13.93.19l.46.09.44.07c2.32.4,5.24.57,7.53.69,14.84.5,29.53-.47,44.3-1.45,2.48-.21,3.71-.22,6.41-.52,4.25-.49,8.47-1.39,12.67-2.17,11.34-2.2,22.67-4.6,33.88-7.44,2.91-.73,5.92-1.55,8.89-2.44-1.2,8.62.17,17.46,3.96,25.59,3.83,8.21,9.82,15.07,17.33,19.85,4.81,3.06,10.24,5.48,16.39,7.29-4.78.32-25.24.92-40.31-10.31.7-2.12.42-4.24-.93-5.6-2.19-2.19-6.37-1.55-9.33,1.41-2.97,2.97-3.6,7.15-1.42,9.34,1.19,1.19,2.96,1.54,4.81,1.14,2.14,2.05,14.49,12.92,36.53,14.06,0,0-4.96,48.73,38.6,74.64,43.56,25.9,80.4-3.7,80.4-3.7,0,0,22.54-15.98,26.74-44.07,4.2-28.09-1.35-43.06-1.35-43.06,0,0,26-6.87,36.97-24.07,2.13-.2,3.89-1.23,4.62-2.92,1.22-2.84-.92-6.49-4.78-8.14-3.86-1.65-7.98-.69-9.19,2.15-.66,1.54-.33,3.31.71,4.88-3.61,4.67-17.78,17.74-40.7,20.6,3.94-2.21,6.51-4.11,7.76-5.3.5-.48,1.16-1.05,1.92-1.71,3.68-3.21,9.24-8.06,13.25-15.9,4.79-9.38,5.94-20.49,3.41-33.03-.01-.07-.03-.14-.04-.21,5.14.89,10.56,1.54,15.99,1.91,9.43.64,19.35.95,29.99.95,5.91,0,12.05-.1,18.44-.29,20.49-.62,40.45-1.75,59.54-8.62,1.79-.64,3.41-1.73,4.69-3.15,3.15-3.49,11.2-13.32,17.9-29.17,4.65-11.01,7.61-23.65,9.35-32.91,3.18,3.37,7.41,8.21,11.69,14.19,7.81,10.89,17.42,27.89,18.82,47.04Zm-28.89-71.07c.27-1.9.4-3.07.43-3.28v-.05s1.8-21.11,1.8-21.11c2.01,1.56,4.37,3.47,6.73,5.55,10.67,9.39,12.44,14.24,12.7,15.89,1.32,8.29.72,18.45-3.07,25.14-.68-.99-1.37-1.98-2.08-2.97-6.89-9.57-13.52-16.3-16.51-19.15Zm61.44-57.69c-6.94,21.86-19.93,35.7-38.62,41.18-2.29-2.64-5.15-5.47-8.6-8.5-4.49-3.95-8.84-7.22-11.23-8.95l1.7-24.62-1.32-1.3c-.25-.24-6.19-6.01-19.26-12.17-7.01-3.31-14.79-6.13-23.16-8.41-1.2-2.02-2.45-4.01-3.75-5.95-8.24-12.21-18.22-23.16-29.11-33.06-7.62-6.9-15.67-13.34-24.17-19.12,1.74-3.48,4.02-6.69,6.58-9.61,7.16-8.12,17.07-13.52,27.6-15.86,12.77-2.85,24.75,4.96,33.11,14.03,4.34,4.61,8.38,10.25,11.38,15.52,2.88,6.28,5.35,12.79,7.44,19.38,1.32,4.26,2.48,8.67,3.25,13.02.17,1.05.48,2.99.64,3.99.32,1.87.72,3.73,1.24,5.57,2.5,9.14,7.65,17.15,14.59,23.57,5.96,5.56,12.95,9.86,20.09,13.39,1.52.73,3.22,1.08,4.9.97,2.31-.12,4.59-1.1,6.26-2.72.27-.24.58-.59.83-.86,2.22-2.47,4.03-5.16,5.92-7.67,4.48-5.78,11.8-9,17.41-13.96.27-.23.54-.47.81-.71-.57,6.2-1.82,14.38-4.51,22.84Zm6.39-39.51l-.04.43c-.02.46-.11.88-.27,1.25-.11.22-.3.5-.49.71-2.47,2.83-5.05,5.62-7.86,8.06-4.64,4.05-10.37,6.95-15,11.39-3.53,3.15-6,7.68-9.05,11.12l-.33.36s-.02.02-.03.03c-.02.03-.05.05-.08.08-.23.18-.59.23-.88.12-.02,0-.05-.02-.07-.03,0,0-.07-.03-.1-.05l-.5-.25-1-.5c-7.26-3.71-13.91-8.11-19.34-14.04-5.55-6.06-9.06-13.45-10.3-21.57-.69-4.35-1.56-8.83-2.79-13.02-1.71-6.14-3.88-12.21-6.29-18.09-1.04-2.48-2.06-4.95-3.25-7.37-6.77-11.7-16.37-23.05-28.39-29.61-8.42-4.62-18.56-6.16-27.86-3.36-4.01,1.08-7.91,2.51-11.65,4.36-11.29,5.53-20.83,14.81-26.16,26.25l-.27.59-.26.61-.25.63-.13.33-.07.18-.08.22-1.04,2.97c10.29,6.43,20.08,13.68,29.54,21.27,12.31,9.9,24.01,20.63,34.63,32.33.24.27.48.54.72.81-11.27-2.91-23.6-4.85-36.65-5.75-30.14-2.09-51-2.02-67.64.21-17.82,2.39-31.86,7.33-45.52,16.01l-.04.03c-.53.34-12.92,8.57-17.08,22.17-1.68,5.49-2.89,10.11-3.71,14.32-10.31-3.13-21.09-4.82-32.1-5.02-10.09-.18-20.39.87-30.62,3.13-11.14,2.46-19.72,5.8-24.58,7.95-3.11-9.99-6.41-15.76-6.64-16.14l-.03-.06c-.71-1.18-1.6-2.38-2.78-3.77-6.13-7.21-14.51-12.56-24.92-15.92-7.92-2.55-16.95-4.03-28.43-4.63-12.6-.67-26.24.3-41.69,2.95-23.78,4.09-44.67,9.64-63.4,16.87.37-4.43,1.1-10.9,2.51-18.37,2.41-12.76,7.36-31.12,17.26-46.16,7.44-11.29,16.75-17.33,27.69-17.94,3.93-.22,7.4.32,9.98.96-10.01,8.33-19.61,17.16-28.71,26.47-5.91,6.04-11.8,12.65-17.18,19.16-.85,1.05-2.82,3.51-3.71,4.62l2.67-2.92c1.43-1.6,3.94-4.19,5.42-5.75,6.81-6.97,14.2-13.85,21.61-20.18,20.49-17.32,42.68-32.72,66.34-45.39.51.38,1.07.8,1.07.8l2.99-1.72.6-.35c3.41-1.91,6.91-3.64,10.45-5.29,47-21.48,100.92-28.64,151.62-17.95,11.36,2.38,22.54,5.65,33.42,9.69l2.84,1.05c2.93-2.63,6.13-5.32,9.23-7.72,31.17-23.83,68.05-42.24,107.48-45.92l2.25-.17.56-.04.58-.04,1.16-.07,4.62-.29c12.17-.65,24.52-1.25,36.63-.4,1.19.1,3.23.3,4.37.46,2.2.29,4.43.69,6.53,1.37.36.11.9.32,1.28.47,1.3.56,2.13,1.08,2.83,1.92.54.65.86,1.41,1.22,2.3.38.98.81,2.15,1.22,3.11.41.93.9,1.96,1.29,2.9l.42,1.02.21.51c.56,1.47,1.28,3.3,1.82,4.8,5.83,16.26,12.43,32.36,20.58,47.63,6.53,12.14,13.14,24.36,18.06,37.25,1.08,2.83,2.08,5.67,3.01,8.55,1.36,4.24,2.54,8.04,2.62,12.21,0,.3-.02.6-.03.89Zm-251.89,120.35c2.15,6.79,5.19,12.72,9.03,17.63,4.89,6.25,11.06,10.82,18.35,13.59,11.95,4.54,23.01,7.01,34.83,7.77,2.79.18,5.53.26,8.23.26,7.36,0,14.41-.56,21.3-1.11,2.61-.21,5.3-.42,7.99-.61,11.22-.76,20.7-3.76,28.97-9.14,7.02-4.57,13.17-10.83,19.35-19.7,11.04-15.83,12.23-45.67,11.95-62.04-.07-3.96-.73-7.04-2.1-9.68-2.54-4.93-7.18-7.21-10.45-8.49-16.27-6.39-35.07-10.03-55.87-10.83-6.52-.25-11.84-.36-16.74-.34-12.36.06-22.42.91-31.68,2.68-11.67,2.24-21.58,5.89-30.31,11.16-7.2,4.35-12.12,13.76-14.65,27.99-1.73,9.78-1.69,18.38-1.68,19.22,0,.96-.01,10.6,3.48,21.65Zm6.15-39.46c2.07-11.67,5.83-19.45,10.87-22.49,18.37-11.09,40.57-12.6,57.85-12.68,4.79-.02,10,.08,16.4.33,19.9.76,37.81,4.22,53.23,10.28,3.26,1.28,5.24,2.77,6.23,4.68.78,1.5,1.16,3.45,1.2,6.12.21,12.4-.4,42.8-10.5,57.29-11.72,16.8-23.96,24.16-42.25,25.41-2.73.19-5.45.4-8.08.61-18.69,1.49-36.34,2.9-60.85-6.41-10.71-4.07-18.27-12.78-22.48-25.89-3.26-10.17-3.18-19.27-3.18-19.35v-.06s0-.06,0-.06c0-.08-.09-8.43,1.56-17.76Zm-42.05,112.81c4.19,1.78,8.87,1.78,12.64-.97,3.64-2.66,5.29-6.29,4.71-10.78-.42-3.29-1.57-6.7-2.81-9.77-2.98-7.39-7.8-13.94-13.58-19.39-2.19-2.07-4.7-4.54-7.82-5.01-.48-.07-.98-.09-1.47-.08,0,0-9.17.84-7.65,16.4,1.51,15.56,4.12,24.56,15.98,29.6Zm-78.76,3.45c1.31,4.33,2.69,8.07,7.1,9,4.56.96,10.7-2.63,13.79-5.97,8.75-9.46,9.13-18.74,4.15-33.55-4.99-14.82-13.69-11.83-13.69-11.83-.45.19-.89.4-1.31.67-2.65,1.71-3.93,4.99-5.08,7.77-3.04,7.34-6.69,15.89-6.39,23.85.13,3.31.47,6.89,1.43,10.07Zm25.05-30.53c-4.99-14.82-13.69-11.83-13.69-11.83-.45.19-.89.4-1.31.67-2.65,1.71-3.93,4.99-5.08,7.77-3.04,7.34-6.69,15.89-6.39,23.85.13,3.31.47,6.89,1.43,10.07,1.31,4.33,2.69,8.07,7.1,9,4.56.96,10.7-2.63,13.79-5.97,8.75-9.46,9.13-18.74,4.15-33.55Zm71.06,15.33c-.42-3.29-1.57-6.7-2.81-9.77-2.98-7.39-7.8-13.94-13.58-19.39-2.19-2.07-4.7-4.54-7.82-5.01-.48-.07-.98-.09-1.47-.08,0,0-9.17.84-7.65,16.4,1.51,15.56,4.12,24.56,15.98,29.6,4.19,1.78,8.87,1.78,12.64-.97,3.64-2.66,5.29-6.29,4.71-10.78Zm178.55-114.97c-.07-3.96-.73-7.04-2.1-9.68-2.54-4.93-7.18-7.21-10.45-8.49-16.27-6.39-35.07-10.03-55.87-10.83-6.52-.25-11.84-.36-16.74-.34-12.36.06-22.42.91-31.68,2.68-11.67,2.24-21.58,5.89-30.31,11.16-7.2,4.35-12.12,13.76-14.65,27.99-1.73,9.78-1.69,18.38-1.68,19.22,0,.96-.01,10.6,3.48,21.65,2.15,6.79,5.19,12.72,9.03,17.63,4.89,6.25,11.06,10.82,18.35,13.59,11.95,4.54,23.01,7.01,34.83,7.77,2.79.18,5.53.26,8.23.26,7.36,0,14.41-.56,21.3-1.11,2.61-.21,5.3-.42,7.99-.61,11.22-.76,20.7-3.76,28.97-9.14,7.02-4.57,13.17-10.83,19.35-19.7,11.04-15.83,12.23-45.67,11.95-62.04Zm-18.57,57.43c-11.72,16.8-23.96,24.16-42.25,25.41-2.73.19-5.45.4-8.08.61-18.69,1.49-36.34,2.9-60.85-6.41-10.71-4.07-18.27-12.78-22.48-25.89-3.26-10.17-3.18-19.27-3.18-19.35v-.06s0-.06,0-.06c0-.08-.09-8.43,1.56-17.76,2.07-11.67,5.83-19.45,10.87-22.49,18.37-11.09,40.57-12.6,57.85-12.68,4.79-.02,10,.08,16.4.33,19.9.76,37.81,4.22,53.23,10.28,3.26,1.28,5.24,2.77,6.23,4.68.78,1.5,1.16,3.45,1.2,6.12.21,12.4-.4,42.8-10.5,57.29Zm18.57-57.43c-.07-3.96-.73-7.04-2.1-9.68-2.54-4.93-7.18-7.21-10.45-8.49-16.27-6.39-35.07-10.03-55.87-10.83-6.52-.25-11.84-.36-16.74-.34-12.36.06-22.42.91-31.68,2.68-11.67,2.24-21.58,5.89-30.31,11.16-7.2,4.35-12.12,13.76-14.65,27.99-1.73,9.78-1.69,18.38-1.68,19.22,0,.96-.01,10.6,3.48,21.65,2.15,6.79,5.19,12.72,9.03,17.63,4.89,6.25,11.06,10.82,18.35,13.59,11.95,4.54,23.01,7.01,34.83,7.77,2.79.18,5.53.26,8.23.26,7.36,0,14.41-.56,21.3-1.11,2.61-.21,5.3-.42,7.99-.61,11.22-.76,20.7-3.76,28.97-9.14,7.02-4.57,13.17-10.83,19.35-19.7,11.04-15.83,12.23-45.67,11.95-62.04Zm-18.57,57.43c-11.72,16.8-23.96,24.16-42.25,25.41-2.73.19-5.45.4-8.08.61-18.69,1.49-36.34,2.9-60.85-6.41-10.71-4.07-18.27-12.78-22.48-25.89-3.26-10.17-3.18-19.27-3.18-19.35v-.06s0-.06,0-.06c0-.08-.09-8.43,1.56-17.76,2.07-11.67,5.83-19.45,10.87-22.49,18.37-11.09,40.57-12.6,57.85-12.68,4.79-.02,10,.08,16.4.33,19.9.76,37.81,4.22,53.23,10.28,3.26,1.28,5.24,2.77,6.23,4.68.78,1.5,1.16,3.45,1.2,6.12.21,12.4-.4,42.8-10.5,57.29Zm-159.98,57.54c-.42-3.29-1.57-6.7-2.81-9.77-2.98-7.39-7.8-13.94-13.58-19.39-2.19-2.07-4.7-4.54-7.82-5.01-.48-.07-.98-.09-1.47-.08,0,0-9.17.84-7.65,16.4,1.51,15.56,4.12,24.56,15.98,29.6,4.19,1.78,8.87,1.78,12.64-.97,3.64-2.66,5.29-6.29,4.71-10.78Zm-71.06-15.33c-4.99-14.82-13.69-11.83-13.69-11.83-.45.19-.89.4-1.31.67-2.65,1.71-3.93,4.99-5.08,7.77-3.04,7.34-6.69,15.89-6.39,23.85.13,3.31.47,6.89,1.43,10.07,1.31,4.33,2.69,8.07,7.1,9,4.56.96,10.7-2.63,13.79-5.97,8.75-9.46,9.13-18.74,4.15-33.55Zm0,0c-4.99-14.82-13.69-11.83-13.69-11.83-.45.19-.89.4-1.31.67-2.65,1.71-3.93,4.99-5.08,7.77-3.04,7.34-6.69,15.89-6.39,23.85.13,3.31.47,6.89,1.43,10.07,1.31,4.33,2.69,8.07,7.1,9,4.56.96,10.7-2.63,13.79-5.97,8.75-9.46,9.13-18.74,4.15-33.55Zm71.06,15.33c-.42-3.29-1.57-6.7-2.81-9.77-2.98-7.39-7.8-13.94-13.58-19.39-2.19-2.07-4.7-4.54-7.82-5.01-.48-.07-.98-.09-1.47-.08,0,0-9.17.84-7.65,16.4,1.51,15.56,4.12,24.56,15.98,29.6,4.19,1.78,8.87,1.78,12.64-.97,3.64-2.66,5.29-6.29,4.71-10.78Zm178.55-114.97c-.07-3.96-.73-7.04-2.1-9.68-2.54-4.93-7.18-7.21-10.45-8.49-16.27-6.39-35.07-10.03-55.87-10.83-6.52-.25-11.84-.36-16.74-.34-12.36.06-22.42.91-31.68,2.68-11.67,2.24-21.58,5.89-30.31,11.16-7.2,4.35-12.12,13.76-14.65,27.99-1.73,9.78-1.69,18.38-1.68,19.22,0,.96-.01,10.6,3.48,21.65,2.15,6.79,5.19,12.72,9.03,17.63,4.89,6.25,11.06,10.82,18.35,13.59,11.95,4.54,23.01,7.01,34.83,7.77,2.79.18,5.53.26,8.23.26,7.36,0,14.41-.56,21.3-1.11,2.61-.21,5.3-.42,7.99-.61,11.22-.76,20.7-3.76,28.97-9.14,7.02-4.57,13.17-10.83,19.35-19.7,11.04-15.83,12.23-45.67,11.95-62.04Zm-18.57,57.43c-11.72,16.8-23.96,24.16-42.25,25.41-2.73.19-5.45.4-8.08.61-18.69,1.49-36.34,2.9-60.85-6.41-10.71-4.07-18.27-12.78-22.48-25.89-3.26-10.17-3.18-19.27-3.18-19.35v-.06s0-.06,0-.06c0-.08-.09-8.43,1.56-17.76,2.07-11.67,5.83-19.45,10.87-22.49,18.37-11.09,40.57-12.6,57.85-12.68,4.79-.02,10,.08,16.4.33,19.9.76,37.81,4.22,53.23,10.28,3.26,1.28,5.24,2.77,6.23,4.68.78,1.5,1.16,3.45,1.2,6.12.21,12.4-.4,42.8-10.5,57.29Zm18.57-57.43c-.07-3.96-.73-7.04-2.1-9.68-2.54-4.93-7.18-7.21-10.45-8.49-16.27-6.39-35.07-10.03-55.87-10.83-6.52-.25-11.84-.36-16.74-.34-12.36.06-22.42.91-31.68,2.68-11.67,2.24-21.58,5.89-30.31,11.16-7.2,4.35-12.12,13.76-14.65,27.99-1.73,9.78-1.69,18.38-1.68,19.22,0,.96-.01,10.6,3.48,21.65,2.15,6.79,5.19,12.72,9.03,17.63,4.89,6.25,11.06,10.82,18.35,13.59,11.95,4.54,23.01,7.01,34.83,7.77,2.79.18,5.53.26,8.23.26,7.36,0,14.41-.56,21.3-1.11,2.61-.21,5.3-.42,7.99-.61,11.22-.76,20.7-3.76,28.97-9.14,7.02-4.57,13.17-10.83,19.35-19.7,11.04-15.83,12.23-45.67,11.95-62.04Zm-18.57,57.43c-11.72,16.8-23.96,24.16-42.25,25.41-2.73.19-5.45.4-8.08.61-18.69,1.49-36.34,2.9-60.85-6.41-10.71-4.07-18.27-12.78-22.48-25.89-3.26-10.17-3.18-19.27-3.18-19.35v-.06s0-.06,0-.06c0-.08-.09-8.43,1.56-17.76,2.07-11.67,5.83-19.45,10.87-22.49,18.37-11.09,40.57-12.6,57.85-12.68,4.79-.02,10,.08,16.4.33,19.9.76,37.81,4.22,53.23,10.28,3.26,1.28,5.24,2.77,6.23,4.68.78,1.5,1.16,3.45,1.2,6.12.21,12.4-.4,42.8-10.5,57.29Zm-159.98,57.54c-.42-3.29-1.57-6.7-2.81-9.77-2.98-7.39-7.8-13.94-13.58-19.39-2.19-2.07-4.7-4.54-7.82-5.01-.48-.07-.98-.09-1.47-.08,0,0-9.17.84-7.65,16.4,1.51,15.56,4.12,24.56,15.98,29.6,4.19,1.78,8.87,1.78,12.64-.97,3.64-2.66,5.29-6.29,4.71-10.78Zm-71.06-15.33c-4.99-14.82-13.69-11.83-13.69-11.83-.45.19-.89.4-1.31.67-2.65,1.71-3.93,4.99-5.08,7.77-3.04,7.34-6.69,15.89-6.39,23.85.13,3.31.47,6.89,1.43,10.07,1.31,4.33,2.69,8.07,7.1,9,4.56.96,10.7-2.63,13.79-5.97,8.75-9.46,9.13-18.74,4.15-33.55Zm0,0c-4.99-14.82-13.69-11.83-13.69-11.83-.45.19-.89.4-1.31.67-2.65,1.71-3.93,4.99-5.08,7.77-3.04,7.34-6.69,15.89-6.39,23.85.13,3.31.47,6.89,1.43,10.07,1.31,4.33,2.69,8.07,7.1,9,4.56.96,10.7-2.63,13.79-5.97,8.75-9.46,9.13-18.74,4.15-33.55Zm71.06,15.33c-.42-3.29-1.57-6.7-2.81-9.77-2.98-7.39-7.8-13.94-13.58-19.39-2.19-2.07-4.7-4.54-7.82-5.01-.48-.07-.98-.09-1.47-.08,0,0-9.17.84-7.65,16.4,1.51,15.56,4.12,24.56,15.98,29.6,4.19,1.78,8.87,1.78,12.64-.97,3.64-2.66,5.29-6.29,4.71-10.78Zm178.55-114.97c-.07-3.96-.73-7.04-2.1-9.68-2.54-4.93-7.18-7.21-10.45-8.49-16.27-6.39-35.07-10.03-55.87-10.83-6.52-.25-11.84-.36-16.74-.34-12.36.06-22.42.91-31.68,2.68-11.67,2.24-21.58,5.89-30.31,11.16-7.2,4.35-12.12,13.76-14.65,27.99-1.73,9.78-1.69,18.38-1.68,19.22,0,.96-.01,10.6,3.48,21.65,2.15,6.79,5.19,12.72,9.03,17.63,4.89,6.25,11.06,10.82,18.35,13.59,11.95,4.54,23.01,7.01,34.83,7.77,2.79.18,5.53.26,8.23.26,7.36,0,14.41-.56,21.3-1.11,2.61-.21,5.3-.42,7.99-.61,11.22-.76,20.7-3.76,28.97-9.14,7.02-4.57,13.17-10.83,19.35-19.7,11.04-15.83,12.23-45.67,11.95-62.04Zm-18.57,57.43c-11.72,16.8-23.96,24.16-42.25,25.41-2.73.19-5.45.4-8.08.61-18.69,1.49-36.34,2.9-60.85-6.41-10.71-4.07-18.27-12.78-22.48-25.89-3.26-10.17-3.18-19.27-3.18-19.35v-.06s0-.06,0-.06c0-.08-.09-8.43,1.56-17.76,2.07-11.67,5.83-19.45,10.87-22.49,18.37-11.09,40.57-12.6,57.85-12.68,4.79-.02,10,.08,16.4.33,19.9.76,37.81,4.22,53.23,10.28,3.26,1.28,5.24,2.77,6.23,4.68.78,1.5,1.16,3.45,1.2,6.12.21,12.4-.4,42.8-10.5,57.29Zm18.57-57.43c-.07-3.96-.73-7.04-2.1-9.68-2.54-4.93-7.18-7.21-10.45-8.49-16.27-6.39-35.07-10.03-55.87-10.83-6.52-.25-11.84-.36-16.74-.34-12.36.06-22.42.91-31.68,2.68-11.67,2.24-21.58,5.89-30.31,11.16-7.2,4.35-12.12,13.76-14.65,27.99-1.73,9.78-1.69,18.38-1.68,19.22,0,.96-.01,10.6,3.48,21.65,2.15,6.79,5.19,12.72,9.03,17.63,4.89,6.25,11.06,10.82,18.35,13.59,11.95,4.54,23.01,7.01,34.83,7.77,2.79.18,5.53.26,8.23.26,7.36,0,14.41-.56,21.3-1.11,2.61-.21,5.3-.42,7.99-.61,11.22-.76,20.7-3.76,28.97-9.14,7.02-4.57,13.17-10.83,19.35-19.7,11.04-15.83,12.23-45.67,11.95-62.04Zm-18.57,57.43c-11.72,16.8-23.96,24.16-42.25,25.41-2.73.19-5.45.4-8.08.61-18.69,1.49-36.34,2.9-60.85-6.41-10.71-4.07-18.27-12.78-22.48-25.89-3.26-10.17-3.18-19.27-3.18-19.35v-.06s0-.06,0-.06c0-.08-.09-8.43,1.56-17.76,2.07-11.67,5.83-19.45,10.87-22.49,18.37-11.09,40.57-12.6,57.85-12.68,4.79-.02,10,.08,16.4.33,19.9.76,37.81,4.22,53.23,10.28,3.26,1.28,5.24,2.77,6.23,4.68.78,1.5,1.16,3.45,1.2,6.12.21,12.4-.4,42.8-10.5,57.29Zm-159.98,57.54c-.42-3.29-1.57-6.7-2.81-9.77-2.98-7.39-7.8-13.94-13.58-19.39-2.19-2.07-4.7-4.54-7.82-5.01-.48-.07-.98-.09-1.47-.08,0,0-9.17.84-7.65,16.4,1.51,15.56,4.12,24.56,15.98,29.6,4.19,1.78,8.87,1.78,12.64-.97,3.64-2.66,5.29-6.29,4.71-10.78Zm-71.06-15.33c-4.99-14.82-13.69-11.83-13.69-11.83-.45.19-.89.4-1.31.67-2.65,1.71-3.93,4.99-5.08,7.77-3.04,7.34-6.69,15.89-6.39,23.85.13,3.31.47,6.89,1.43,10.07,1.31,4.33,2.69,8.07,7.1,9,4.56.96,10.7-2.63,13.79-5.97,8.75-9.46,9.13-18.74,4.15-33.55Zm249.61-99.64c-.07-3.96-.73-7.04-2.1-9.68-2.54-4.93-7.18-7.21-10.45-8.49-16.27-6.39-35.07-10.03-55.87-10.83-6.52-.25-11.84-.36-16.74-.34-12.36.06-22.42.91-31.68,2.68-11.67,2.24-21.58,5.89-30.31,11.16-7.2,4.35-12.12,13.76-14.65,27.99-1.73,9.78-1.69,18.38-1.68,19.22,0,.96-.01,10.6,3.48,21.65,2.15,6.79,5.19,12.72,9.03,17.63,4.89,6.25,11.06,10.82,18.35,13.59,11.95,4.54,23.01,7.01,34.83,7.77,2.79.18,5.53.26,8.23.26,7.36,0,14.41-.56,21.3-1.11,2.61-.21,5.3-.42,7.99-.61,11.22-.76,20.7-3.76,28.97-9.14,7.02-4.57,13.17-10.83,19.35-19.7,11.04-15.83,12.23-45.67,11.95-62.04Zm-18.57,57.43c-11.72,16.8-23.96,24.16-42.25,25.41-2.73.19-5.45.4-8.08.61-18.69,1.49-36.34,2.9-60.85-6.41-10.71-4.07-18.27-12.78-22.48-25.89-3.26-10.17-3.18-19.27-3.18-19.35v-.06s0-.06,0-.06c0-.08-.09-8.43,1.56-17.76,2.07-11.67,5.83-19.45,10.87-22.49,18.37-11.09,40.57-12.6,57.85-12.68,4.79-.02,10,.08,16.4.33,19.9.76,37.81,4.22,53.23,10.28,3.26,1.28,5.24,2.77,6.23,4.68.78,1.5,1.16,3.45,1.2,6.12.21,12.4-.4,42.8-10.5,57.29Zm18.57-57.43c-.07-3.96-.73-7.04-2.1-9.68-2.54-4.93-7.18-7.21-10.45-8.49-16.27-6.39-35.07-10.03-55.87-10.83-6.52-.25-11.84-.36-16.74-.34-12.36.06-22.42.91-31.68,2.68-11.67,2.24-21.58,5.89-30.31,11.16-7.2,4.35-12.12,13.76-14.65,27.99-1.73,9.78-1.69,18.38-1.68,19.22,0,.96-.01,10.6,3.48,21.65,2.15,6.79,5.19,12.72,9.03,17.63,4.89,6.25,11.06,10.82,18.35,13.59,11.95,4.54,23.01,7.01,34.83,7.77,2.79.18,5.53.26,8.23.26,7.36,0,14.41-.56,21.3-1.11,2.61-.21,5.3-.42,7.99-.61,11.22-.76,20.7-3.76,28.97-9.14,7.02-4.57,13.17-10.83,19.35-19.7,11.04-15.83,12.23-45.67,11.95-62.04Zm-18.57,57.43c-11.72,16.8-23.96,24.16-42.25,25.41-2.73.19-5.45.4-8.08.61-18.69,1.49-36.34,2.9-60.85-6.41-10.71-4.07-18.27-12.78-22.48-25.89-3.26-10.17-3.18-19.27-3.18-19.35v-.06s0-.06,0-.06c0-.08-.09-8.43,1.56-17.76,2.07-11.67,5.83-19.45,10.87-22.49,18.37-11.09,40.57-12.6,57.85-12.68,4.79-.02,10,.08,16.4.33,19.9.76,37.81,4.22,53.23,10.28,3.26,1.28,5.24,2.77,6.23,4.68.78,1.5,1.16,3.45,1.2,6.12.21,12.4-.4,42.8-10.5,57.29Z"/>
    <path class="cls-17" d="m610.52,590.94l-6.39,12.24c-38.22-28.76-52.86-1.52-52.86-1.52-26.74-19.68-48.73,17.62-48.73,17.62l-9.88-10.13c59.04-70.14,117.86-18.21,117.86-18.21Z"/>
    <path class="cls-22" d="m604.13,603.18c-45.16,62.82-101.59,16.1-101.59,16.1,0,0,21.99-37.3,48.73-17.62,0,0,14.63-27.25,52.86,1.52Z"/>
    <path class="cls-11" d="m441.93,544.51c2.02,1.93,13.62,12.15,34.34,13.22,0,0-4.66,45.82,36.29,70.17,40.95,24.35,75.58-3.48,75.58-3.48,0,0,21.19-15.02,25.14-41.43,3.95-26.41-1.26-40.48-1.26-40.48,0,0,24.45-6.46,34.75-22.63"/>
    <g>
      <path class="cls-14" d="m709.13,404.1c-.37-1.63-.95-3.06-1.75-4.31-.8-1.24-1.63-2.36-2.49-3.34-.86-.98-1.96-1.86-3.31-2.64-1.35-.77-2.55-1.42-3.59-1.96-1.04-.54-2.39-1.05-4.05-1.54-1.66-.49-2.97-.86-3.96-1.09-.01,0-.03,0-.04,0v-11.31c3.28.94,6.58,2.61,9.92,4.99l8.59-12.41c-5.67-4.38-11.84-7.12-18.5-8.24v-9.69h-5.23v9.15c-.59-.02-1.19-.04-1.79-.04-.19,0-.37,0-.56,0v-9.12h-5.23v9.49c-2.73.37-5.27,1.02-7.62,1.94-3.95,1.54-7.14,3.98-9.57,7.3-2.43,3.32-3.65,7.32-3.65,11.99,0,1.72.17,3.32.52,4.82.35,1.5.77,2.82,1.26,3.95.49,1.14,1.2,2.22,2.12,3.25.92,1.03,1.78,1.9,2.58,2.61s1.85,1.39,3.16,2.06c1.31.67,2.41,1.19,3.31,1.57.9.39,2.11.81,3.62,1.25,1.51.45,2.69.78,3.53,1,.23.06.48.12.75.19v12.45c-5.21-.78-9.99-3.1-14.34-6.97l-8.53,12.41c6.68,5.76,14.3,9.07,22.87,9.93v8.13h5.23v-7.91c.8,0,1.58-.04,2.35-.09v7.99h5.23v-8.67c4.53-.91,8.48-2.64,11.85-5.18,5.25-3.97,7.88-9.51,7.88-16.62,0-1.93-.18-3.71-.55-5.34Zm-31.98-18.59c-.15-.08-.29-.17-.41-.25-.57-.39-1.06-.88-1.47-1.48-.41-.6-.61-1.26-.61-1.99,0-1.63.83-2.84,2.49-3.63,0,0,0,0,.01,0v7.37Zm5.23-8.52c.38-.02.77-.03,1.17-.03s.78,0,1.18.03v10.96c-.94-.23-1.72-.42-2.35-.56v-10.4Zm0,39.69v-11.44c.88.23,1.61.43,2.18.59.05.01.11.03.16.05v10.56c-.73.11-1.51.19-2.35.23Zm7.57-2.32v-6.09c.25.21.45.43.62.65.51.69.77,1.48.77,2.38,0,1.21-.46,2.23-1.39,3.05Z"/>
      <path class="cls-6" d="m656.56,386.66s1.03-19.6,21.04-24.08h-3.76l-7.49,2.92-6.72,6.23-2.35,4.83-1.38,7.11.65,3Z"/>
      <path class="cls-6" d="m681.98,353.4s-3.22.3-3.44.73-.63,8.6-.63,8.6l-.64-10.2,4.72.87Z"/>
      <path class="cls-6" d="m689.68,353.25s-3.22.3-3.44.73-.63,8.6-.63,8.6l-.64-10.2,4.72.87Z"/>
      <path class="cls-21" d="m656.93,385.71c.17-.23,2.73,13.96,21.07,16.56l-.03,2.06-12.03-4.37-6.82-6.05-2.29-5.82.1-2.38Z"/>
      <polygon class="cls-21" points="681.56 404.44 681.56 402.55 685.58 403.59 685.52 405.91 681.56 404.44"/>
      <path class="cls-21" d="m655.9,419.93s9.76,7.51,22.05,9.13v2.18h-.8l-8.76-1.3-7.78-3.53-6.33-3.95,1.62-2.53Z"/>
      <path class="cls-21" d="m685.52,429.22v2.02h-3.95v-1.89c1.3.04,2.62,0,3.95-.13Z"/>
      <path class="cls-21" d="m708.86,413.54l-2.11,7.16-5.29,5.37-5.05,2.94-6.46,2.22h-.79v-2.6c3.69.58,13.87-2.79,19.7-15.1Z"/>
      <path class="cls-13" d="m709.13,404.1c-.37-1.63-.95-3.06-1.75-4.31-.8-1.24-1.63-2.36-2.49-3.34-.86-.98-1.96-1.86-3.31-2.64-1.35-.77-2.55-1.42-3.59-1.96-1.04-.54-2.39-1.05-4.05-1.54-1.66-.49-2.97-.86-3.96-1.09-.01,0-.03,0-.04,0v-11.31c3.28.94,6.58,2.61,9.92,4.99l8.59-12.41c-5.67-4.38-11.84-7.12-18.5-8.24v-9.69h-5.23v9.15c-.59-.02-1.19-.04-1.79-.04-.19,0-.37,0-.56,0v-9.12h-5.23v9.49c-2.73.37-5.27,1.02-7.62,1.94-3.95,1.54-7.14,3.98-9.57,7.3-2.43,3.32-3.65,7.32-3.65,11.99,0,1.72.17,3.32.52,4.82.35,1.5.77,2.82,1.26,3.95.49,1.14,1.2,2.22,2.12,3.25.92,1.03,1.78,1.9,2.58,2.61s1.85,1.39,3.16,2.06c1.31.67,2.41,1.19,3.31,1.57.9.39,2.11.81,3.62,1.25,1.51.45,2.69.78,3.53,1,.23.06.48.12.75.19v12.45c-5.21-.78-9.99-3.1-14.34-6.97l-8.53,12.41c6.68,5.76,14.3,9.07,22.87,9.93v8.13h5.23v-7.91c.8,0,1.58-.04,2.35-.09v7.99h5.23v-8.67c4.53-.91,8.48-2.64,11.85-5.18,5.25-3.97,7.88-9.51,7.88-16.62,0-1.93-.18-3.71-.55-5.34Zm-31.98-18.59c-.15-.08-.29-.17-.41-.25-.57-.39-1.06-.88-1.47-1.48-.41-.6-.61-1.26-.61-1.99,0-1.63.83-2.84,2.49-3.63,0,0,0,0,.01,0v7.37Zm5.23-8.52c.38-.02.77-.03,1.17-.03s.78,0,1.18.03v10.96c-.94-.23-1.72-.42-2.35-.56v-10.4Zm0,39.69v-11.44c.88.23,1.61.43,2.18.59.05.01.11.03.16.05v10.56c-.73.11-1.51.19-2.35.23Zm7.57-2.32v-6.09c.25.21.45.43.62.65.51.69.77,1.48.77,2.38,0,1.21-.46,2.23-1.39,3.05Z"/>
    </g>
    <g>
      <path class="cls-2" d="m419.49,425.19c-.58-1.57-1.34-2.91-2.3-4.04-.95-1.13-1.92-2.12-2.9-2.99-.98-.86-2.19-1.59-3.63-2.18-1.44-.59-2.71-1.08-3.82-1.48-1.1-.39-2.51-.73-4.21-1-1.71-.27-3.06-.46-4.06-.57-.01,0-.03,0-.04,0l-1.48-11.22c3.37.51,6.86,1.72,10.48,3.65l6.89-13.43c-6.19-3.6-12.67-5.52-19.42-5.75l-1.27-9.61-5.18.68,1.2,9.08c-.59.05-1.18.12-1.78.2-.18.02-.37.05-.55.08l-1.19-9.04-5.18.68,1.24,9.41c-2.66.72-5.09,1.7-7.3,2.92-3.71,2.05-6.56,4.88-8.53,8.49-1.98,3.61-2.66,7.74-2.05,12.37.22,1.7.61,3.27,1.15,4.71.54,1.44,1.13,2.7,1.76,3.76.64,1.06,1.48,2.04,2.52,2.94,1.05.9,2.01,1.65,2.9,2.25.88.6,2.02,1.14,3.4,1.63,1.38.49,2.55.86,3.49,1.13.94.27,2.19.52,3.75.77,1.56.25,2.77.42,3.63.53.23.03.49.06.77.09l1.63,12.34c-5.27-.09-10.31-1.77-15.13-5.04l-6.83,13.42c7.37,4.84,15.36,7.13,23.97,6.86l1.06,8.06,5.18-.68-1.03-7.84c.79-.11,1.56-.24,2.31-.39l1.04,7.92,5.18-.68-1.13-8.6c4.38-1.5,8.07-3.72,11.07-6.68,4.69-4.62,6.57-10.46,5.64-17.51-.25-1.91-.67-3.65-1.24-5.22Zm-34.13-14.25c-.16-.06-.31-.13-.44-.2-.62-.31-1.17-.73-1.65-1.28-.48-.54-.77-1.17-.87-1.9-.21-1.61.45-2.92,1.99-3.93,0,0,0,0,.01,0l.96,7.3Zm4.07-9.13c.37-.07.76-.13,1.16-.18s.78-.09,1.17-.12l1.43,10.87c-.96-.1-1.76-.19-2.4-.25l-1.36-10.31Zm5.18,39.35l-1.49-11.34c.9.11,1.65.22,2.24.3.06,0,.11.02.17.03l1.38,10.47c-.71.21-1.48.39-2.3.53Zm7.2-3.29l-.8-6.03c.27.18.51.37.7.57.6.61.95,1.37,1.07,2.26.16,1.2-.17,2.27-.98,3.21Z"/>
      <path class="cls-6" d="m365.09,414.77s-1.54-19.56,17.72-26.62l-3.72.49-7.04,3.87-5.85,7.05-1.7,5.09-.44,7.23,1.04,2.89Z"/>
      <path class="cls-6" d="m385.95,378.48s-3.15.71-3.32,1.17.5,8.61.5,8.61l-1.97-10.03,4.79.24Z"/>
      <path class="cls-6" d="m393.56,377.32s-3.15.71-3.32,1.17.5,8.61.5,8.61l-1.97-10.03,4.79.24Z"/>
      <path class="cls-21" d="m365.33,413.78c.14-.25,4.53,13.48,23.05,13.66l.24,2.04-12.49-2.76-7.56-5.11-3.03-5.47-.22-2.37Z"/>
      <polygon class="cls-21" points="392.2 429.13 391.95 427.26 396.08 427.76 396.32 430.07 392.2 429.13"/>
      <path class="cls-21" d="m368.79,447.84s10.66,6.17,23.05,6.17l.29,2.16-.8.1-8.85-.14-8.17-2.49-6.79-3.09,1.28-2.72Z"/>
      <path class="cls-21" d="m399.36,453.18l.26,2.01-3.92.52-.25-1.87c1.29-.13,2.6-.35,3.9-.65Z"/>
      <path class="cls-21" d="m420.45,434.59l-1.16,7.37-4.54,6.02-4.62,3.58-6.12,3.05-.78.1-.34-2.58c3.74.09,13.39-4.58,17.56-17.54Z"/>
      <path class="cls-13" d="m419.49,425.19c-.58-1.57-1.34-2.91-2.3-4.04-.95-1.13-1.92-2.12-2.9-2.99-.98-.86-2.19-1.59-3.63-2.18-1.44-.59-2.71-1.08-3.82-1.48-1.1-.39-2.51-.73-4.21-1-1.71-.27-3.06-.46-4.06-.57-.01,0-.03,0-.04,0l-1.48-11.22c3.37.51,6.86,1.72,10.48,3.65l6.89-13.43c-6.19-3.6-12.67-5.52-19.42-5.75l-1.27-9.61-5.18.68,1.2,9.08c-.59.05-1.18.12-1.78.2-.18.02-.37.05-.55.08l-1.19-9.04-5.18.68,1.24,9.41c-2.66.72-5.09,1.7-7.3,2.92-3.71,2.05-6.56,4.88-8.53,8.49-1.98,3.61-2.66,7.74-2.05,12.37.22,1.7.61,3.27,1.15,4.71.54,1.44,1.13,2.7,1.76,3.76.64,1.06,1.48,2.04,2.52,2.94,1.05.9,2.01,1.65,2.9,2.25.88.6,2.02,1.14,3.4,1.63,1.38.49,2.55.86,3.49,1.13.94.27,2.19.52,3.75.77,1.56.25,2.77.42,3.63.53.23.03.49.06.77.09l1.63,12.34c-5.27-.09-10.31-1.77-15.13-5.04l-6.83,13.42c7.37,4.84,15.36,7.13,23.97,6.86l1.06,8.06,5.18-.68-1.03-7.84c.79-.11,1.56-.24,2.31-.39l1.04,7.92,5.18-.68-1.13-8.6c4.38-1.5,8.07-3.72,11.07-6.68,4.69-4.62,6.57-10.46,5.64-17.51-.25-1.91-.67-3.65-1.24-5.22Zm-34.13-14.25c-.16-.06-.31-.13-.44-.2-.62-.31-1.17-.73-1.65-1.28-.48-.54-.77-1.17-.87-1.9-.21-1.61.45-2.92,1.99-3.93,0,0,0,0,.01,0l.96,7.3Zm4.07-9.13c.37-.07.76-.13,1.16-.18s.78-.09,1.17-.12l1.43,10.87c-.96-.1-1.76-.19-2.4-.25l-1.36-10.31Zm5.18,39.35l-1.49-11.34c.9.11,1.65.22,2.24.3.06,0,.11.02.17.03l1.38,10.47c-.71.21-1.48.39-2.3.53Zm7.2-3.29l-.8-6.03c.27.18.51.37.7.57.6.61.95,1.37,1.07,2.26.16,1.2-.17,2.27-.98,3.21Z"/>
      <line class="cls-12" x1="392.13" y1="456.18" x2="391.84" y2="454.01"/>
      <line class="cls-12" x1="395.71" y1="455.7" x2="395.46" y2="453.83"/>
      <line class="cls-12" x1="399.63" y1="455.19" x2="399.36" y2="453.18"/>
      <line class="cls-12" x1="403.24" y1="454.71" x2="402.9" y2="452.13"/>
    </g>
  </g>
  <g>
    <path class="cls-5" d="m147.44,811.55c-2.68-.33-5.54-.39-8.49-.12-3.64.3-7.53,1.08-11.5,2.29-6.2,1.9-11.86,5.66-16.86,11.11-5.3,5.84-11.53,14.75-11.17,24.11.33,7.65,4.37,14.6,10.33,17.7,3.61,1.87,8.13,2.71,12.52,3.55l1.81.33c14,2.68,39.2,2.74,51.33-8.22,3.01-2.71,4.94-6.59,5.45-10.93,2.23-18.48-16.86-37.66-33.42-39.83Zm-17.55,31.16c-1.23,12.1-12.1,10.72-14,9.15-1.11-.93-1.36-3.01-1.51-4.37-.24-2.2-.21-4.67.33-6.83.75-2.86,2.17-5.51,3.88-7.92,1.42-1.93,3.61-5.39,6.5-4.33,0,0,6.02,2.2,4.79,14.3Zm34.29,3.4c-.09,1.11-.3,2.26-.91,3.22-1.63,2.53-6.35,2.17-8.79,1.14-3.67-1.48-5.51-5.15-6.08-8.91-1.9-11.98,3.97-14.51,3.97-14.51,2.83-1.23,5.24,2.11,6.71,3.97,3.52,4.27,5.57,9.48,5.09,15.08Zm-16.74-34.56c-2.68-.33-5.54-.39-8.49-.12-3.64.3-7.53,1.08-11.5,2.29-6.2,1.9-11.86,5.66-16.86,11.11-5.3,5.84-11.53,14.75-11.17,24.11.33,7.65,4.37,14.6,10.33,17.7,3.61,1.87,8.13,2.71,12.52,3.55l1.81.33c14,2.68,39.2,2.74,51.33-8.22,3.01-2.71,4.94-6.59,5.45-10.93,2.23-18.48-16.86-37.66-33.42-39.83Zm-17.55,31.16c-1.23,12.1-12.1,10.72-14,9.15-1.11-.93-1.36-3.01-1.51-4.37-.24-2.2-.21-4.67.33-6.83.75-2.86,2.17-5.51,3.88-7.92,1.42-1.93,3.61-5.39,6.5-4.33,0,0,6.02,2.2,4.79,14.3Zm34.29,3.4c-.09,1.11-.3,2.26-.91,3.22-1.63,2.53-6.35,2.17-8.79,1.14-3.67-1.48-5.51-5.15-6.08-8.91-1.9-11.98,3.97-14.51,3.97-14.51,2.83-1.23,5.24,2.11,6.71,3.97,3.52,4.27,5.57,9.48,5.09,15.08Zm40.1-41.82c-6.59-11.26-15.66-20.11-27.18-26.55-11.53-6.41-24.33-9.63-38.38-9.63-10.57,0-20.53,1.9-29.9,5.66-9.33,3.76-17.34,8.91-23.99,15.44-6.65,6.53-11.92,14.33-15.75,23.45-3.82,9.12-5.75,18.85-5.75,29.2s1.93,20.11,5.75,29.23c3.82,9.09,9.09,16.92,15.75,23.45,6.65,6.53,14.66,11.68,23.99,15.47,9.36,3.82,19.33,5.72,29.9,5.72s20.47-1.9,29.8-5.72c9.3-3.79,17.31-8.94,24.03-15.47,6.68-6.53,11.95-14.36,15.83-23.45,3.85-9.12,5.78-18.88,5.78-29.23,0-13.79-3.28-26.31-9.88-37.57Zm-14.21,48.17c-.78,6.56-3.79,12.49-8.49,16.74-10.35,9.33-26.82,12.04-40.73,12.04-7.29,0-13.85-.75-18.52-1.66l-1.78-.33c-4.79-.9-10.21-1.93-15.05-4.43-8.85-4.58-14.87-14.6-15.32-25.53-.48-12.49,7.1-23.57,13.55-30.68,6.14-6.74,13.19-11.35,21.01-13.73,4.61-1.41,9.12-2.32,13.43-2.68,1.51-.15,3.01-.21,4.49-.21,2.05,0,4.03.12,5.96.39,23.57,3.04,44.07,27.85,41.45,50.06Zm-42.63-40.91c-2.68-.33-5.54-.39-8.49-.12-3.64.3-7.53,1.08-11.5,2.29-6.2,1.9-11.86,5.66-16.86,11.11-5.3,5.84-11.53,14.75-11.17,24.11.33,7.65,4.37,14.6,10.33,17.7,3.61,1.87,8.13,2.71,12.52,3.55l1.81.33c14,2.68,39.2,2.74,51.33-8.22,3.01-2.71,4.94-6.59,5.45-10.93,2.23-18.48-16.86-37.66-33.42-39.83Zm-17.55,31.16c-1.23,12.1-12.1,10.72-14,9.15-1.11-.93-1.36-3.01-1.51-4.37-.24-2.2-.21-4.67.33-6.83.75-2.86,2.17-5.51,3.88-7.92,1.42-1.93,3.61-5.39,6.5-4.33,0,0,6.02,2.2,4.79,14.3Zm34.29,3.4c-.09,1.11-.3,2.26-.91,3.22-1.63,2.53-6.35,2.17-8.79,1.14-3.67-1.48-5.51-5.15-6.08-8.91-1.9-11.98,3.97-14.51,3.97-14.51,2.83-1.23,5.24,2.11,6.71,3.97,3.52,4.27,5.57,9.48,5.09,15.08Zm-16.74-34.56c-2.68-.33-5.54-.39-8.49-.12-3.64.3-7.53,1.08-11.5,2.29-6.2,1.9-11.86,5.66-16.86,11.11-5.3,5.84-11.53,14.75-11.17,24.11.33,7.65,4.37,14.6,10.33,17.7,3.61,1.87,8.13,2.71,12.52,3.55l1.81.33c14,2.68,39.2,2.74,51.33-8.22,3.01-2.71,4.94-6.59,5.45-10.93,2.23-18.48-16.86-37.66-33.42-39.83Zm-17.55,31.16c-1.23,12.1-12.1,10.72-14,9.15-1.11-.93-1.36-3.01-1.51-4.37-.24-2.2-.21-4.67.33-6.83.75-2.86,2.17-5.51,3.88-7.92,1.42-1.93,3.61-5.39,6.5-4.33,0,0,6.02,2.2,4.79,14.3Zm34.29,3.4c-.09,1.11-.3,2.26-.91,3.22-1.63,2.53-6.35,2.17-8.79,1.14-3.67-1.48-5.51-5.15-6.08-8.91-1.9-11.98,3.97-14.51,3.97-14.51,2.83-1.23,5.24,2.11,6.71,3.97,3.52,4.27,5.57,9.48,5.09,15.08Zm-16.74-34.56c-2.68-.33-5.54-.39-8.49-.12-3.64.3-7.53,1.08-11.5,2.29-6.2,1.9-11.86,5.66-16.86,11.11-5.3,5.84-11.53,14.75-11.17,24.11.33,7.65,4.37,14.6,10.33,17.7,3.61,1.87,8.13,2.71,12.52,3.55l1.81.33c14,2.68,39.2,2.74,51.33-8.22,3.01-2.71,4.94-6.59,5.45-10.93,2.23-18.48-16.86-37.66-33.42-39.83Zm-17.55,31.16c-1.23,12.1-12.1,10.72-14,9.15-1.11-.93-1.36-3.01-1.51-4.37-.24-2.2-.21-4.67.33-6.83.75-2.86,2.17-5.51,3.88-7.92,1.42-1.93,3.61-5.39,6.5-4.33,0,0,6.02,2.2,4.79,14.3Zm34.29,3.4c-.09,1.11-.3,2.26-.91,3.22-1.63,2.53-6.35,2.17-8.79,1.14-3.67-1.48-5.51-5.15-6.08-8.91-1.9-11.98,3.97-14.51,3.97-14.51,2.83-1.23,5.24,2.11,6.71,3.97,3.52,4.27,5.57,9.48,5.09,15.08Z"/>
    <path class="cls-5" d="m261.03,762.65c-3.58-3.49-8.07-5.24-13.46-5.24s-9.66,1.75-13.22,5.24c-3.58,3.52-5.36,7.89-5.36,13.13s1.78,9.72,5.36,13.28c3.55,3.52,7.98,5.3,13.22,5.3s9.88-1.78,13.46-5.3c3.61-3.55,5.42-7.95,5.42-13.28s-1.81-9.6-5.42-13.13Zm-28.48,45.22v105.34h30.16v-105.34h-30.16Z"/>
    <path class="cls-5" d="m378.02,816.3c-7.37-7.32-17.13-10.96-29.26-10.96-12.82,0-23.48,4.33-31.97,13.01v-10.48h-30.16v105.34h30.16v-57.2c0-6.47,1.99-11.68,5.99-15.59,4-3.94,9.24-5.9,15.71-5.9s11.14,1.9,14.87,5.75c3.73,3.82,5.6,8.94,5.6,15.32v57.62h30.17v-67.8c0-12.13-3.7-21.83-11.11-29.11Z"/>
    <path class="cls-5" d="m470.44,856.4l44.62-48.53h-39.05l-34.71,39.26v-82.76h-30.17v148.84h30.17v-25.44l7.86-8.46,27.67,33.9h39.65l-46.03-56.81Z"/>
    <path class="cls-1" d="m635.39,851.65c-4.22-6.83-9.63-11.56-16.32-14.12,4.64-2.95,8.43-7.17,11.35-12.61,2.95-5.45,4.4-11.35,4.4-17.76,0-10.54-3.65-19.27-10.93-26.16-7.31-6.89-16.35-10.36-27.09-10.36h-69.03v142.58h73.55c11.59,0,21.19-3.64,28.87-10.9,7.68-7.26,11.5-16.53,11.5-27.76,0-8.4-2.11-16.05-6.29-22.91Zm-76.65-52.05h29.98c3.76,0,6.89,1.26,9.42,3.79,2.53,2.5,3.79,5.72,3.79,9.63s-1.29,7.01-3.85,9.57c-2.56,2.56-5.69,3.85-9.36,3.85h-29.98v-26.85Zm45.67,80.26c-2.92,2.92-6.59,4.4-10.96,4.4h-34.71v-30.77h34.71c4.3,0,7.95,1.48,10.9,4.49,2.95,2.98,4.42,6.68,4.42,11.05s-1.45,7.92-4.37,10.84Z"/>
    <path class="cls-1" d="m735.82,807.87v10.48c-8.46-8.67-19.09-13.01-31.88-13.01-14.45,0-26.55,5.27-36.28,15.84-9.72,10.57-14.57,23.69-14.57,39.35s4.85,28.81,14.57,39.35c9.73,10.57,21.83,15.87,36.28,15.87,12.79,0,23.42-4.33,31.88-13.04v10.51h30.16v-105.34h-30.16Zm-7.38,71.23c-4.91,4.97-11.05,7.47-18.45,7.47s-13.43-2.5-18.3-7.47c-4.88-4.97-7.31-11.17-7.31-18.58s2.44-13.58,7.31-18.55c4.88-5,10.99-7.47,18.3-7.47s13.55,2.47,18.45,7.47c4.91,4.97,7.38,11.17,7.38,18.55s-2.47,13.61-7.38,18.58Z"/>
    <path class="cls-1" d="m881.32,816.3c-7.41-7.32-17.16-10.96-29.26-10.96-12.85,0-23.51,4.33-31.97,13.01v-10.48h-30.16v105.34h30.16v-57.2c0-6.47,1.99-11.68,5.99-15.59,4-3.94,9.24-5.9,15.68-5.9s11.17,1.9,14.9,5.75c3.73,3.82,5.6,8.94,5.6,15.32v57.62h30.16v-67.8c0-12.13-3.7-21.83-11.11-29.11Z"/>
    <path class="cls-1" d="m970.67,860.5l44.59-48.53h-39.05l-34.71,39.26v-82.76h-30.17v148.84h30.17v-25.44l7.89-8.46,27.64,33.9h39.65l-46-56.81Z"/>
  </g>
</svg>