<?xml version="1.0" encoding="UTF-8"?>
<svg id="Capa_1" data-name="Capa 1" xmlns="http://www.w3.org/2000/svg" viewBox="0 0 1080 1080">
  <defs>
    <style>
      .cls-1 {
        fill: #17412d;
      }
    </style>
  </defs>
  <path class="cls-1" d="m290.3,339.2c-5.37-.66-11.11-.78-17.02-.24-7.3.6-15.09,2.17-23.05,4.59-12.44,3.8-23.79,11.35-33.81,22.27-10.62,11.71-23.12,29.58-22.39,48.35.67,15.33,8.75,29.28,20.71,35.49,7.24,3.74,16.29,5.43,25.11,7.12l3.62.66c28.07,5.37,78.59,5.49,102.92-16.48,6.04-5.43,9.9-13.22,10.93-21.91,4.46-37.06-33.81-75.51-67.01-79.86Zm-35.19,62.48c-2.48,24.27-24.26,21.49-28.07,18.35-2.23-1.87-2.72-6.04-3.02-8.75-.48-4.41-.42-9.36.66-13.7,1.51-5.73,4.35-11.05,7.79-15.88,2.84-3.86,7.24-10.8,13.04-8.69,0,0,12.07,4.41,9.6,28.67Zm68.76,6.82c-.18,2.23-.61,4.53-1.82,6.46-3.26,5.07-12.73,4.35-17.63,2.29-7.36-2.96-11.05-10.32-12.19-17.87-3.8-24.03,7.97-29.1,7.97-29.1,5.67-2.48,10.5,4.23,13.46,7.97,7.06,8.57,11.16,19.01,10.2,30.24Zm-33.57-69.3c-5.37-.66-11.11-.78-17.02-.24-7.3.6-15.09,2.17-23.05,4.59-12.44,3.8-23.79,11.35-33.81,22.27-10.62,11.71-23.12,29.58-22.39,48.35.67,15.33,8.75,29.28,20.71,35.49,7.24,3.74,16.29,5.43,25.11,7.12l3.62.66c28.07,5.37,78.59,5.49,102.92-16.48,6.04-5.43,9.9-13.22,10.93-21.91,4.46-37.06-33.81-75.51-67.01-79.86Zm-35.19,62.48c-2.48,24.27-24.26,21.49-28.07,18.35-2.23-1.87-2.72-6.04-3.02-8.75-.48-4.41-.42-9.36.66-13.7,1.51-5.73,4.35-11.05,7.79-15.88,2.84-3.86,7.24-10.8,13.04-8.69,0,0,12.07,4.41,9.6,28.67Zm68.76,6.82c-.18,2.23-.61,4.53-1.82,6.46-3.26,5.07-12.73,4.35-17.63,2.29-7.36-2.96-11.05-10.32-12.19-17.87-3.8-24.03,7.97-29.1,7.97-29.1,5.67-2.48,10.5,4.23,13.46,7.97,7.06,8.57,11.16,19.01,10.2,30.24Zm80.4-83.84c-13.22-22.58-31.39-40.32-54.5-53.24-23.12-12.86-48.77-19.32-76.96-19.32-21.19,0-41.17,3.8-59.94,11.35-18.71,7.55-34.77,17.87-48.11,30.97-13.34,13.1-23.9,28.73-31.57,47.02-7.66,18.29-11.52,37.79-11.52,58.55s3.86,40.32,11.52,58.61c7.67,18.23,18.23,33.92,31.57,47.02,13.34,13.1,29.4,23.42,48.11,31.03,18.78,7.67,38.75,11.47,59.94,11.47s41.05-3.8,59.76-11.47c18.65-7.61,34.71-17.93,48.17-31.03,13.4-13.1,23.96-28.79,31.75-47.02,7.73-18.29,11.59-37.85,11.59-58.61,0-27.65-6.58-52.76-19.8-75.33Zm-28.49,96.58c-1.57,13.16-7.6,25.05-17.02,33.56-20.76,18.71-53.78,24.15-81.67,24.15-14.61,0-27.77-1.51-37.13-3.32l-3.56-.66c-9.6-1.81-20.47-3.86-30.18-8.87-17.75-9.18-29.82-29.28-30.72-51.19-.97-25.05,14.24-47.26,27.16-61.51,12.31-13.52,26.44-22.76,42.13-27.53,9.24-2.84,18.29-4.65,26.92-5.37,3.02-.3,6.04-.42,9-.42,4.1,0,8.09.24,11.95.79,47.26,6.1,88.37,55.84,83.12,100.38Zm-85.48-82.03c-5.37-.66-11.11-.78-17.02-.24-7.3.6-15.09,2.17-23.05,4.59-12.44,3.8-23.79,11.35-33.81,22.27-10.62,11.71-23.12,29.58-22.39,48.35.67,15.33,8.75,29.28,20.71,35.49,7.24,3.74,16.29,5.43,25.11,7.12l3.62.66c28.07,5.37,78.59,5.49,102.92-16.48,6.04-5.43,9.9-13.22,10.93-21.91,4.46-37.06-33.81-75.51-67.01-79.86Zm-35.19,62.48c-2.48,24.27-24.26,21.49-28.07,18.35-2.23-1.87-2.72-6.04-3.02-8.75-.48-4.41-.42-9.36.66-13.7,1.51-5.73,4.35-11.05,7.79-15.88,2.84-3.86,7.24-10.8,13.04-8.69,0,0,12.07,4.41,9.6,28.67Zm68.76,6.82c-.18,2.23-.61,4.53-1.82,6.46-3.26,5.07-12.73,4.35-17.63,2.29-7.36-2.96-11.05-10.32-12.19-17.87-3.8-24.03,7.97-29.1,7.97-29.1,5.67-2.48,10.5,4.23,13.46,7.97,7.06,8.57,11.16,19.01,10.2,30.24Zm-33.57-69.3c-5.37-.66-11.11-.78-17.02-.24-7.3.6-15.09,2.17-23.05,4.59-12.44,3.8-23.79,11.35-33.81,22.27-10.62,11.71-23.12,29.58-22.39,48.35.67,15.33,8.75,29.28,20.71,35.49,7.24,3.74,16.29,5.43,25.11,7.12l3.62.66c28.07,5.37,78.59,5.49,102.92-16.48,6.04-5.43,9.9-13.22,10.93-21.91,4.46-37.06-33.81-75.51-67.01-79.86Zm-35.19,62.48c-2.48,24.27-24.26,21.49-28.07,18.35-2.23-1.87-2.72-6.04-3.02-8.75-.48-4.41-.42-9.36.66-13.7,1.51-5.73,4.35-11.05,7.79-15.88,2.84-3.86,7.24-10.8,13.04-8.69,0,0,12.07,4.41,9.6,28.67Zm68.76,6.82c-.18,2.23-.61,4.53-1.82,6.46-3.26,5.07-12.73,4.35-17.63,2.29-7.36-2.96-11.05-10.32-12.19-17.87-3.8-24.03,7.97-29.1,7.97-29.1,5.67-2.48,10.5,4.23,13.46,7.97,7.06,8.57,11.16,19.01,10.2,30.24Zm-33.57-69.3c-5.37-.66-11.11-.78-17.02-.24-7.3.6-15.09,2.17-23.05,4.59-12.44,3.8-23.79,11.35-33.81,22.27-10.62,11.71-23.12,29.58-22.39,48.35.67,15.33,8.75,29.28,20.71,35.49,7.24,3.74,16.29,5.43,25.11,7.12l3.62.66c28.07,5.37,78.59,5.49,102.92-16.48,6.04-5.43,9.9-13.22,10.93-21.91,4.46-37.06-33.81-75.51-67.01-79.86Zm-35.19,62.48c-2.48,24.27-24.26,21.49-28.07,18.35-2.23-1.87-2.72-6.04-3.02-8.75-.48-4.41-.42-9.36.66-13.7,1.51-5.73,4.35-11.05,7.79-15.88,2.84-3.86,7.24-10.8,13.04-8.69,0,0,12.07,4.41,9.6,28.67Zm68.76,6.82c-.18,2.23-.61,4.53-1.82,6.46-3.26,5.07-12.73,4.35-17.63,2.29-7.36-2.96-11.05-10.32-12.19-17.87-3.8-24.03,7.97-29.1,7.97-29.1,5.67-2.48,10.5,4.23,13.46,7.97,7.06,8.57,11.16,19.01,10.2,30.24Z"/>
  <path class="cls-1" d="m518.05,241.17c-7.19-7-16.18-10.5-26.99-10.5s-19.38,3.5-26.5,10.5c-7.19,7.06-10.75,15.82-10.75,26.32s3.56,19.5,10.75,26.62c7.12,7.06,16,10.62,26.5,10.62s19.8-3.56,26.99-10.62c7.24-7.12,10.86-15.94,10.86-26.62s-3.63-19.26-10.86-26.32Zm-57.1,90.67v211.21h60.48v-211.21h-60.48Z"/>
  <path class="cls-1" d="m752.62,348.73c-14.78-14.67-34.34-21.97-58.67-21.97-25.71,0-47.08,8.69-64.11,26.08v-21.01h-60.48v211.21h60.48v-114.69c0-12.98,3.98-23.42,12.01-31.27,8.03-7.91,18.53-11.83,31.51-11.83s22.34,3.8,29.82,11.53c7.49,7.67,11.22,17.93,11.22,30.73v115.54h60.49v-135.94c0-24.33-7.43-43.76-22.28-58.37Z"/>
  <path class="cls-1" d="m937.94,429.14l89.46-97.31h-78.29l-69.6,78.71v-165.94h-60.49v298.44h60.49v-51.01l15.75-16.96,55.48,67.97h79.5l-92.3-113.91Z"/>
  <path class="cls-1" d="m265.56,717.67c-8.45-13.7-19.32-23.18-32.72-28.31,9.3-5.92,16.9-14.37,22.75-25.29,5.92-10.93,8.82-22.76,8.82-35.62,0-21.13-7.31-38.63-21.92-52.46-14.67-13.82-32.78-20.76-54.33-20.76H49.77v285.88h147.47c23.24,0,42.5-7.3,57.89-21.85,15.39-14.55,23.05-33.14,23.05-55.65,0-16.84-4.23-32.17-12.61-45.94Zm-153.68-104.37h60.12c7.55,0,13.82,2.54,18.89,7.61,5.07,5.01,7.6,11.47,7.6,19.32s-2.59,14.06-7.72,19.2c-5.13,5.13-11.41,7.73-18.78,7.73h-60.12v-53.84Zm91.57,160.93c-5.85,5.86-13.22,8.81-21.97,8.81h-69.6v-61.69h69.6c8.63,0,15.93,2.96,21.85,8.99,5.91,5.98,8.87,13.4,8.87,22.15s-2.9,15.88-8.75,21.73Z"/>
  <path class="cls-1" d="m466.94,629.91v21.01c-16.97-17.38-38.27-26.08-63.92-26.08-28.98,0-53.24,10.56-72.74,31.75-19.49,21.19-29.21,47.51-29.21,78.89s9.72,57.77,29.21,78.89c19.5,21.19,43.76,31.81,72.74,31.81,25.65,0,46.96-8.69,63.92-26.14v21.07h60.48v-211.21h-60.48Zm-14.79,142.82c-9.84,9.96-22.15,14.97-37,14.97s-26.92-5.01-36.7-14.97c-9.78-9.96-14.67-22.4-14.67-37.24s4.89-27.22,14.67-37.18c9.78-10.02,22.03-14.97,36.7-14.97s27.16,4.95,37,14.97c9.84,9.96,14.79,22.39,14.79,37.18s-4.95,27.28-14.79,37.24Z"/>
  <path class="cls-1" d="m758.67,646.81c-14.85-14.67-34.41-21.97-58.68-21.97-25.77,0-47.14,8.69-64.11,26.08v-21.01h-60.48v211.21h60.48v-114.69c0-12.98,3.98-23.42,12.01-31.27,8.03-7.91,18.53-11.83,31.45-11.83s22.39,3.8,29.88,11.53c7.49,7.67,11.23,17.93,11.23,30.73v115.54h60.48v-135.94c0-24.33-7.42-43.76-22.27-58.37Z"/>
  <path class="cls-1" d="m937.82,735.43l89.4-97.31h-78.29l-69.6,78.71v-165.94h-60.49v298.44h60.49v-51.01l15.82-16.96,55.41,67.97h79.5l-92.24-113.91Z"/>
</svg>