<?xml version="1.0" encoding="UTF-8"?>
<svg id="Capa_1" data-name="Capa 1" xmlns="http://www.w3.org/2000/svg" viewBox="0 0 1080 1080">
  <defs>
    <style>
      .cls-1 {
        fill: #70d560;
      }

      .cls-2 {
        fill: #ff9597;
      }
    </style>
  </defs>
  <path class="cls-2" d="m286.82,336.4c-5.45-.67-11.26-.8-17.26-.24-7.41.61-15.3,2.2-23.38,4.65-12.61,3.86-24.12,11.51-34.28,22.58-10.77,11.87-23.44,29.99-22.71,49.03.68,15.55,8.88,29.68,21,35.99,7.34,3.8,16.52,5.51,25.46,7.22l3.67.67c28.46,5.45,79.69,5.57,104.35-16.71,6.12-5.51,10.04-13.4,11.08-22.22,4.52-37.58-34.28-76.57-67.94-80.97Zm-35.68,63.35c-2.51,24.6-24.6,21.79-28.46,18.61-2.27-1.9-2.76-6.12-3.06-8.87-.49-4.47-.43-9.49.67-13.89,1.53-5.81,4.41-11.2,7.9-16.1,2.88-3.92,7.35-10.96,13.22-8.81,0,0,12.24,4.47,9.73,29.07Zm69.72,6.92c-.19,2.26-.62,4.59-1.84,6.55-3.31,5.14-12.91,4.41-17.87,2.33-7.47-3-11.2-10.47-12.36-18.12-3.86-24.36,8.08-29.5,8.08-29.5,5.75-2.51,10.65,4.28,13.65,8.08,7.16,8.69,11.32,19.28,10.35,30.66Zm-34.03-70.26c-5.45-.67-11.26-.8-17.26-.24-7.41.61-15.3,2.2-23.38,4.65-12.61,3.86-24.12,11.51-34.28,22.58-10.77,11.87-23.44,29.99-22.71,49.03.68,15.55,8.88,29.68,21,35.99,7.34,3.8,16.52,5.51,25.46,7.22l3.67.67c28.46,5.45,79.69,5.57,104.35-16.71,6.12-5.51,10.04-13.4,11.08-22.22,4.52-37.58-34.28-76.57-67.94-80.97Zm-35.68,63.35c-2.51,24.6-24.6,21.79-28.46,18.61-2.27-1.9-2.76-6.12-3.06-8.87-.49-4.47-.43-9.49.67-13.89,1.53-5.81,4.41-11.2,7.9-16.1,2.88-3.92,7.35-10.96,13.22-8.81,0,0,12.24,4.47,9.73,29.07Zm69.72,6.92c-.19,2.26-.62,4.59-1.84,6.55-3.31,5.14-12.91,4.41-17.87,2.33-7.47-3-11.2-10.47-12.36-18.12-3.86-24.36,8.08-29.5,8.08-29.5,5.75-2.51,10.65,4.28,13.65,8.08,7.16,8.69,11.32,19.28,10.35,30.66Zm81.52-85.01c-13.4-22.89-31.83-40.88-55.26-53.98-23.44-13.04-49.45-19.59-78.04-19.59-21.49,0-41.74,3.86-60.78,11.51-18.97,7.65-35.25,18.12-48.78,31.4-13.53,13.28-24.24,29.13-32.01,47.68-7.77,18.55-11.69,38.31-11.69,59.37s3.91,40.89,11.69,59.43c7.78,18.48,18.49,34.4,32.01,47.68,13.53,13.28,29.81,23.75,48.78,31.46,19.04,7.77,39.29,11.63,60.78,11.63s41.62-3.86,60.59-11.63c18.91-7.71,35.19-18.18,48.84-31.46,13.59-13.28,24.3-29.19,32.19-47.68,7.84-18.55,11.75-38.38,11.75-59.43,0-28.03-6.67-53.49-20.08-76.38Zm-28.89,97.93c-1.59,13.34-7.71,25.4-17.26,34.03-21.05,18.97-54.53,24.48-82.81,24.48-14.81,0-28.16-1.53-37.64-3.37l-3.61-.67c-9.73-1.84-20.75-3.92-30.6-9-18-9.3-30.24-29.68-31.15-51.9-.98-25.4,14.44-47.92,27.54-62.37,12.49-13.71,26.81-23.07,42.72-27.91,9.37-2.88,18.55-4.71,27.3-5.45,3.06-.31,6.12-.43,9.12-.43,4.16,0,8.2.25,12.12.8,47.92,6.18,89.6,56.61,84.28,101.78Zm-86.67-83.18c-5.45-.67-11.26-.8-17.26-.24-7.41.61-15.3,2.2-23.38,4.65-12.61,3.86-24.12,11.51-34.28,22.58-10.77,11.87-23.44,29.99-22.71,49.03.68,15.55,8.88,29.68,21,35.99,7.34,3.8,16.52,5.51,25.46,7.22l3.67.67c28.46,5.45,79.69,5.57,104.35-16.71,6.12-5.51,10.04-13.4,11.08-22.22,4.52-37.58-34.28-76.57-67.94-80.97Zm-35.68,63.35c-2.51,24.6-24.6,21.79-28.46,18.61-2.27-1.9-2.76-6.12-3.06-8.87-.49-4.47-.43-9.49.67-13.89,1.53-5.81,4.41-11.2,7.9-16.1,2.88-3.92,7.35-10.96,13.22-8.81,0,0,12.24,4.47,9.73,29.07Zm69.72,6.92c-.19,2.26-.62,4.59-1.84,6.55-3.31,5.14-12.91,4.41-17.87,2.33-7.47-3-11.2-10.47-12.36-18.12-3.86-24.36,8.08-29.5,8.08-29.5,5.75-2.51,10.65,4.28,13.65,8.08,7.16,8.69,11.32,19.28,10.35,30.66Zm-34.03-70.26c-5.45-.67-11.26-.8-17.26-.24-7.41.61-15.3,2.2-23.38,4.65-12.61,3.86-24.12,11.51-34.28,22.58-10.77,11.87-23.44,29.99-22.71,49.03.68,15.55,8.88,29.68,21,35.99,7.34,3.8,16.52,5.51,25.46,7.22l3.67.67c28.46,5.45,79.69,5.57,104.35-16.71,6.12-5.51,10.04-13.4,11.08-22.22,4.52-37.58-34.28-76.57-67.94-80.97Zm-35.68,63.35c-2.51,24.6-24.6,21.79-28.46,18.61-2.27-1.9-2.76-6.12-3.06-8.87-.49-4.47-.43-9.49.67-13.89,1.53-5.81,4.41-11.2,7.9-16.1,2.88-3.92,7.35-10.96,13.22-8.81,0,0,12.24,4.47,9.73,29.07Zm69.72,6.92c-.19,2.26-.62,4.59-1.84,6.55-3.31,5.14-12.91,4.41-17.87,2.33-7.47-3-11.2-10.47-12.36-18.12-3.86-24.36,8.08-29.5,8.08-29.5,5.75-2.51,10.65,4.28,13.65,8.08,7.16,8.69,11.32,19.28,10.35,30.66Zm-34.03-70.26c-5.45-.67-11.26-.8-17.26-.24-7.41.61-15.3,2.2-23.38,4.65-12.61,3.86-24.12,11.51-34.28,22.58-10.77,11.87-23.44,29.99-22.71,49.03.68,15.55,8.88,29.68,21,35.99,7.34,3.8,16.52,5.51,25.46,7.22l3.67.67c28.46,5.45,79.69,5.57,104.35-16.71,6.12-5.51,10.04-13.4,11.08-22.22,4.52-37.58-34.28-76.57-67.94-80.97Zm-35.68,63.35c-2.51,24.6-24.6,21.79-28.46,18.61-2.27-1.9-2.76-6.12-3.06-8.87-.49-4.47-.43-9.49.67-13.89,1.53-5.81,4.41-11.2,7.9-16.1,2.88-3.92,7.35-10.96,13.22-8.81,0,0,12.24,4.47,9.73,29.07Zm69.72,6.92c-.19,2.26-.62,4.59-1.84,6.55-3.31,5.14-12.91,4.41-17.87,2.33-7.47-3-11.2-10.47-12.36-18.12-3.86-24.36,8.08-29.5,8.08-29.5,5.75-2.51,10.65,4.28,13.65,8.08,7.16,8.69,11.32,19.28,10.35,30.66Z"/>
  <path class="cls-2" d="m517.75,237c-7.29-7.1-16.41-10.65-27.36-10.65s-19.65,3.55-26.87,10.65c-7.29,7.16-10.9,16.04-10.9,26.69s3.61,19.77,10.9,26.99c7.22,7.16,16.22,10.77,26.87,10.77s20.08-3.61,27.36-10.77c7.34-7.22,11.02-16.16,11.02-26.99s-3.68-19.52-11.02-26.69Zm-57.9,91.93v214.16h61.32v-214.16h-61.32Z"/>
  <path class="cls-2" d="m755.59,346.07c-14.99-14.87-34.82-22.28-59.49-22.28-26.07,0-47.74,8.81-65,26.44v-21.3h-61.32v214.16h61.32v-116.29c0-13.16,4.04-23.75,12.18-31.7,8.14-8.02,18.79-12,31.95-12s22.65,3.86,30.24,11.69c7.59,7.77,11.38,18.18,11.38,31.15v117.15h61.33v-137.83c0-24.67-7.53-44.37-22.59-59.19Z"/>
  <path class="cls-2" d="m943.49,427.59l90.71-98.66h-79.38l-70.57,79.81v-168.25h-61.33v302.6h61.33v-51.72l15.97-17.2,56.25,68.92h80.61l-93.58-115.49Z"/>
  <path class="cls-1" d="m261.74,720.15c-8.57-13.89-19.59-23.5-33.17-28.7,9.43-6,17.14-14.57,23.07-25.64,6-11.08,8.94-23.07,8.94-36.11,0-21.42-7.41-39.17-22.22-53.19-14.87-14.02-33.23-21.05-55.08-21.05H42.93v289.87h149.52c23.57,0,43.09-7.41,58.7-22.16,15.61-14.75,23.38-33.6,23.38-56.43,0-17.08-4.29-32.62-12.79-46.58Zm-155.83-105.82h60.96c7.65,0,14.02,2.57,19.16,7.71,5.14,5.08,7.71,11.63,7.71,19.59s-2.63,14.26-7.83,19.46c-5.21,5.2-11.57,7.83-19.04,7.83h-60.96v-54.6Zm92.85,163.17c-5.94,5.94-13.4,8.94-22.28,8.94h-70.57v-62.55h70.57c8.75,0,16.16,3,22.16,9.12,5.99,6.06,9,13.59,9,22.46s-2.94,16.1-8.88,22.03Z"/>
  <path class="cls-1" d="m465.92,631.16v21.3c-17.2-17.63-38.8-26.44-64.82-26.44-29.38,0-53.98,10.71-73.76,32.19-19.77,21.48-29.62,48.17-29.62,79.99s9.86,58.57,29.62,79.99c19.77,21.48,44.37,32.26,73.76,32.26,26.01,0,47.61-8.81,64.82-26.5v21.36h61.32v-214.16h-61.32Zm-15,144.81c-9.98,10.1-22.46,15.18-37.52,15.18s-27.3-5.08-37.21-15.18c-9.92-10.1-14.87-22.71-14.87-37.76s4.95-27.6,14.87-37.7c9.92-10.16,22.34-15.18,37.21-15.18s27.54,5.02,37.52,15.18c9.98,10.1,15,22.71,15,37.7s-5.02,27.66-15,37.76Z"/>
  <path class="cls-1" d="m761.72,648.3c-15.06-14.87-34.89-22.28-59.5-22.28-26.13,0-47.8,8.81-65,26.44v-21.3h-61.32v214.16h61.32v-116.29c0-13.16,4.04-23.75,12.18-31.7,8.14-8.02,18.79-12,31.89-12s22.71,3.86,30.3,11.69c7.59,7.77,11.39,18.18,11.39,31.15v117.15h61.32v-137.83c0-24.67-7.53-44.37-22.58-59.19Z"/>
  <path class="cls-1" d="m943.37,738.16l90.65-98.66h-79.38l-70.57,79.81v-168.25h-61.33v302.6h61.33v-51.72l16.04-17.2,56.18,68.92h80.61l-93.52-115.49Z"/>
</svg>