<svg xmlns="http://www.w3.org/2000/svg" version="1.1" xmlns:xlink="http://www.w3.org/1999/xlink" xmlns:svgjs="http://svgjs.dev/svgjs" width="1080" height="1080"><svg id="SvgjsSvg1046" data-name="Capa 1" xmlns="http://www.w3.org/2000/svg" xmlns:xlink="http://www.w3.org/1999/xlink" viewBox="0 0 1080 1080">
  <defs>
    <style>
      .cls-1 {
        fill: url(#Degradado_sin_nombre_11-7);
      }

      .cls-2 {
        fill: url(#Degradado_sin_nombre_11-5);
      }

      .cls-3 {
        fill: url(#Degradado_sin_nombre_11-4);
      }

      .cls-4 {
        fill: #ff9597;
      }

      .cls-5 {
        fill: #a9e6a0;
      }

      .cls-6 {
        fill: #fff;
        opacity: .5;
      }

      .cls-7 {
        fill: url(#Degradado_sin_nombre_11);
      }

      .cls-8 {
        fill: url(#Degradado_sin_nombre_5-2);
      }

      .cls-9 {
        fill: url(#Degradado_sin_nombre_11-3);
      }

      .cls-10 {
        stroke-width: 2px;
      }

      .cls-10, .cls-11, .cls-12 {
        fill: none;
      }

      .cls-10, .cls-12 {
        stroke: #000;
        stroke-miterlimit: 10;
      }

      .cls-13 {
        fill: url(#Degradado_sin_nombre_11-6);
      }

      .cls-14 {
        fill: #fcfdef;
      }

      .cls-15 {
        fill: url(#Degradado_sin_nombre_5);
      }

      .cls-16 {
        fill: #c55569;
      }

      .cls-17 {
        fill: #d76682;
      }

      .cls-18 {
        fill: #da7386;
      }

      .cls-19 {
        fill: #fbd5c8;
      }

      .cls-20 {
        fill: #17412d;
      }

      .cls-21 {
        fill: #fd9385;
      }

      .cls-22 {
        fill: #ffebe6;
      }

      .cls-23 {
        fill: url(#Degradado_sin_nombre_11-2);
      }

      .cls-12 {
        stroke-width: .5px;
      }

      .cls-24 {
        fill: #d88da2;
      }
    </style>
    <linearGradient id="SvgjsLinearGradient1045" data-name="Degradado sin nombre 5" x1="662.58" y1="350.76" x2="872.14" y2="586.71" gradientUnits="userSpaceOnUse">
      <stop offset="0" stop-color="#c4cad6"></stop>
      <stop offset="1" stop-color="#302a44"></stop>
    </linearGradient>
    <linearGradient id="SvgjsLinearGradient1044" data-name="Degradado sin nombre 5" x1="213.69" y1="390.54" x2="423.53" y2="626.8" xlink:href="#Degradado_sin_nombre_5"></linearGradient>
    <linearGradient id="SvgjsLinearGradient1043" data-name="Degradado sin nombre 11" x1="938.38" y1="393.01" x2="939.93" y2="540.48" gradientUnits="userSpaceOnUse">
      <stop offset="0" stop-color="#70d560"></stop>
      <stop offset="1" stop-color="#326d3c"></stop>
    </linearGradient>
    <linearGradient id="SvgjsLinearGradient1042" data-name="Degradado sin nombre 11" x1="758.9" y1="255.13" x2="762.78" y2="668.82" xlink:href="#Degradado_sin_nombre_11"></linearGradient>
    <linearGradient id="SvgjsLinearGradient1041" data-name="Degradado sin nombre 11" x1="422.96" y1="266.71" x2="432.27" y2="716.88" xlink:href="#Degradado_sin_nombre_11"></linearGradient>
    <linearGradient id="SvgjsLinearGradient1040" data-name="Degradado sin nombre 11" x1="284.87" y1="269.56" x2="294.18" y2="719.73" xlink:href="#Degradado_sin_nombre_11"></linearGradient>
    <linearGradient id="SvgjsLinearGradient1039" data-name="Degradado sin nombre 11" x1="530.06" y1="390.17" x2="532.48" y2="507.01" xlink:href="#Degradado_sin_nombre_11"></linearGradient>
    <linearGradient id="SvgjsLinearGradient1038" data-name="Degradado sin nombre 11" x1="756.95" y1="377.08" x2="759.28" y2="573.45" xlink:href="#Degradado_sin_nombre_11"></linearGradient>
    <linearGradient id="SvgjsLinearGradient1037" data-name="Degradado sin nombre 11" x1="-60.26" y1="261.44" x2="-57.94" y2="457.81" gradientTransform="translate(323.72 148.99) rotate(-7.51)" xlink:href="#Degradado_sin_nombre_11"></linearGradient>
  </defs>
  <path class="cls-19" d="m932.04,494.15l-16.49-19.81-3.3,13.6-34.15,79.17-13.58,12.03-106.12,14.35-85.21-5.42,2.33,32.21-15.52,32.99-25.23,23.28-83.05,21.73-62.87,2.33-36.09-5.81-40.17-28.34-13.39-23.67-.78-30.66-91.2,18.63-35.32,1.16-49.67,1.16-27.17-12.81-27.94-47.73-12.2-35.16-30.1,26.92-6.6,18.05-5.43,32.49v65.97l13.19,53.17,19.79,57.44,37.26,48.9,67.91,51.61,99.35,45.79,76.06,19.52,93.53,6.87,105.17-6.87,75.29-19.13,81.11-26.39,84.6-51.23,52-53.55,35.32-56.66,18.24-61.32,2.72-56.27s-1.55-60.15-1.55-65.97-21.54-55.11-21.54-55.11l-19.21-17.46Z"></path>
  <path class="cls-19" d="m540,178.25l92.64,9.31,39.78,13.97,31.05-24.84,69.87-34.93s53.15-20.18,57.42-20.18,69.47-6.99,70.63-6.21c1.16.78,46.18,5.43,47.35,6.21,1.16.78,29.88,55.88,29.88,55.88l13.97,33.76,19.4,39.58,13.52,34.15,8.21,27.94-3.1,18.63.39,11.64-9.51,42.49-17.66,29.11s-18.82,19.79-19.6,20.37c-.78.58-27.94,13-27.94,13,0,0-34.57-26.97-35.17-27.75s0-39.33,0-39.33l-39.66-24.06-105.56-20.44-66.49,3.36-62.35,14.75-23.03,16.3-15.52,16.56-9.06,33.13-66.78-7.26-73.25,18.89-24.51-40.88-53.3-21.99-72.72,2.85-71.13,12.94-42.43,15.26-38.81,24.82-19.15,18.91,3.88,35.44s-18.11-2.85-19.15-2.85-43.98-29.3-43.98-29.3l-29.49-43.65,3.36-47.6,20.96-86.15,17.33-52.78,52.53-17.59,52.25-8.8,66.49-2.07,57.44,10.87,46.31,23.03s62.87-27.57,63.64-27.24c.78.33,111.04-17.26,111.04-17.26Z"></path>
  <path class="cls-19" d="m468.54,483.7c-1.2.31,1.1,20.53,1.1,20.53l52.2-15.52,77.49,7.19-1.23-20.77-62.68-8.93-66.88,17.5Z"></path>
  <polygon class="cls-4" points="404.21 603.19 402.4 650.75 427.98 685.08 493.5 700.43 566.08 696.72 623.65 679.45 656.11 659.78 672.71 633.72 673.19 588.06 665.67 575.92 642.05 535.28 618.86 511.41 571.13 489.1 521.45 485.51 459.42 510.9 433.1 538 411.9 566.86 404.21 603.19"></polygon>
  <path class="cls-24" d="m127.47,572.19s-26.76,251.36,243.8,313.91c270.56,62.55,427.66-45.79,458.71-71.41,31.05-25.61,118.97-109.67,126.6-282.78l10.09,19.96,4.31,22.56,3.36,68.22-3.88,45.28-15.17,55.94-32.18,61.78-49.71,47.29-52.52,30.84-90.25,50.19-71.92,19.66-120.99,9.31-111.86-4.14-91.07-26.65-55.72-24.58-66.05-44.5-30.91-24.01-35.15-48.63-19.6-45.02-9.12-33.18-5.43-78.97,8.34-42.88,6.32-18.2"></path>
  <path class="cls-24" d="m307.05,263.94s-94.47,101.62-106.33,134.61l-1.25-27.3,15.78-64.94,18.37-23.8,20.18-15.58s24.84-4.09,26.39-4.86c1.55-.78,26.86,1.87,26.86,1.87Z"></path>
  <path class="cls-24" d="m129.3,564.19s-.97,65.59,80.33,81.11c81.3,15.52,189.46-7.03,189.46-7.03v-28.74l-92.25,24.32s-79.94-1.29-82.79-1.29-20.4-8.25-20.4-8.25l-30.45-41.41-17.97-47.62-19.92,16.56-6.02,12.35Z"></path>
  <path class="cls-24" d="m652.43,683.33s35.12-22.7,39.2-67.91c0,0,87.64,7.83,148.18-7.44,60.54-15.26,97.67-48.49,107.76-89.19l-16.69-30.66-15.33-10.09-12.03,47.35-33.37,52-64.91,9.76-98.51,3.04-35.86-.58,4.07,32.21-13,30.85-23.67,16.88-9.51,6.79,8.73,6.99h14.94Z"></path>
  <path class="cls-24" d="m971.23,163.37s-12.03,30.4-4.65,95.21c7.37,64.81-28.33,68.3-48.12,44.63l-13.58-38.42-28.72-38.03-30.85-22.31s-14.16-13.97-49.48.39c-35.32,14.36-34.54,39.97-44.63,42.69-10.09,2.72-93.27-48.06-93.27-48.06l-26.91-5.17s32.86,12.16,97.28,60.28c64.42,48.12,79.17,56.66,107.63,88.22l53.54,19.09,33.65,19.2-1.99,39.33,37.43,30.01,31.82-16.56,29.49-49.42,10.24-37.31,3.6-35.91-13.13-38.68-24.77-46.96-24.58-62.23Z"></path>
  <path class="cls-18" d="m67.49,292.61s-4.64,147.54,69.9,151.6l5.44,35.44-15.77-2.18-30.16-15.74-37.26-36.44-12.42-28.57,3.3-52.78,16.97-51.35"></path>
  <path class="cls-14" d="m680.69,199.98s53.55-30.53,104.52-33.89c50.97-3.36,46.83-28.46,87.19-30.79,40.36-2.33,79.94-3.36,79.94-3.36l-18.89-14.49-92.16,3.26-72.63,23.39-72.46,34.15-15.52,21.73Z"></path>
  <path class="cls-14" d="m853.23,148.11c1.92.3,3.81.79,5.66,1.54,4.34,1.75,7.99,5.18,5.84,10.15-4.27,9.83-17.59,10.22-23.67,7.76-6.08-2.46-12.55-17.98,0-19.4,4.04-.46,8.16-.67,12.17-.05Z"></path>
  <path class="cls-14" d="m79.82,259.49s13.84-26.52,22.64-31.05c8.8-4.53,22.38-10.74,55.37-11.12,32.99-.39,68.83,12.16,95.44,6.73,26.61-5.43,88.34-6.39,100.73-4.07l-36.67-19.4-50.84-8.93-30.46-4.27-84.02,5.63-53.55,18.43-9.43,9.79-9.19,38.26Z"></path>
  <path class="cls-14" d="m202.56,229.99c-1.99,1.46-3.49,3.53-4.23,6.47-.73,2.91-.02,5.76,2.18,7.85,3.13,2.96,7.72,2.18,11.28.46,2.3-1.11,4.42-2.58,6.28-4.34,2.66-2.53,2.98-5.86,1.56-9.16-1.35-3.13-4.23-4.89-7.65-4.47-3.53.43-6.87,1.31-9.42,3.19Z"></path>
  <path class="cls-14" d="m385.93,258.45s-11.21,4.05-5.09,9.66c6.12,5.61,14.49-3.45,14.75-6.3.26-2.85-4.74-5.26-9.66-3.36Z"></path>
  <path class="cls-14" d="m654.17,238.92s7.89,3.1,3.82,9.18c-4.07,6.08-13.58-.06-12.48-3.75,1.1-3.69,1.68-6.79,8.67-5.43Z"></path>
  <path class="cls-14" d="m590.27,197.78s29.49,7.63,30.14,28.33c.65,20.7-38.68,10.87-38.68,10.87,0,0-22.38-7.11-26.39-23.41-4.01-16.3,16.69-23.03,34.93-15.78Z"></path>
  <path class="cls-14" d="m473.52,199.59s-70.44,12.22-68.3,35.32c2.13,23.09,19.6,21.44,31.82,15.76,12.22-5.67,55.11-15.96,84.41-14.21,29.3,1.75,32.21-16.11,24.06-27.75-8.15-11.64-44.24-14.55-71.99-9.12Z"></path>
  <path class="cls-17" d="m412.01,580.69s-23.77,95.47,93.09,84.99c116.86-10.48,167.22-34.62,160.71-80.59l8.15,16.55-5.48,43.85-46.52,37.84-89.29,17.1h-68.26l-31.31-14.15-25.23-28.19-8.77-30.46,12.92-46.94Z"></path>
  <path class="cls-22" d="m402.4,600.74s48.49-96.37,125.84-103.49c77.36-7.11,127.61,65.45,142.88,103.49l-17.49-46.91-43.21-46.36-44.34-17.46-35.25-3.82-24.22,7.05-50.37,20.93-28.27,30.39-22.47,34.17-3.11,22.01Z"></path>
  <path class="cls-15" d="m880.17,430.72l-.79,5.45-3.12,21.47-4.51,31.07-23.14,38.81-16.35,12.27-12.62,9.47-.92.15-14.1,2.37-9.51,1.6-18.93,3.18s-3.38.04-8.48.08c-15.13.13-45.34.34-46.89-.08-1.46-.4-24.37-8.5-37.68-13.21-5.53-1.96-9.4-3.33-9.4-3.33l-1-1.21-5.4-6.55-15.56-18.86-6.7-8.12s-3.83-20.41-6.03-33.13c-.9-5.17-1.53-9.07-1.53-9.81,0-2.59,8.28-38.18,9.83-39.27,1.55-1.09,15.52-23.86,15.52-23.86l18.59-6.23,11.42-3.83,26.92-2.71,27.12-2.73,9.42-.94,6.4-.64,6.39.72,56.22,6.3,28.14,7.39.31.08,17.97,12.93.17.44,3.69,9.27,4.56,11.46Z"></path>
  <path class="cls-6" d="m681.43,392.97l-42.42,79.17c-.9-5.17-1.53-9.07-1.53-9.81,0-2.59,8.28-38.18,9.83-39.27,1.55-1.09,15.52-23.86,15.52-23.86l18.59-6.23Z"></path>
  <polygon class="cls-6" points="746.89 383.71 667.31 532.25 651.75 513.39 719.77 386.43 746.89 383.71"></polygon>
  <path class="cls-6" d="m871.91,409.98l-76.82,143.39-18.93,3.18s-3.38.04-8.48.08l85.78-160.1.31.08,17.97,12.93.17.44Z"></path>
  <polygon class="cls-6" points="880.17 430.72 879.37 436.17 818.71 549.41 804.6 551.77 875.61 419.25 880.17 430.72"></polygon>
  <path class="cls-6" d="m769.1,382.84l-85.99,160.5c-5.53-1.96-9.4-3.33-9.4-3.33l-1-1.21,83.6-156.03,6.4-.64,6.39.72Z"></path>
  <polygon class="cls-6" points="876.25 457.64 871.74 488.71 848.6 527.52 832.25 539.79 876.25 457.64"></polygon>
  <polygon class="cls-8" points="433.1 535.28 417.58 551.88 391.19 573.34 375.47 578.73 365.2 582.25 349.48 587.63 338.88 591.26 333.75 593.02 311.63 594.23 272.69 596.36 237.51 588.06 227.97 579.23 219.39 571.3 216.81 568.92 214.12 564.5 202.84 546.01 201.08 540.95 190.42 510.23 188.71 499 185.76 479.66 188.35 462.14 209.57 442.93 220.3 440.03 261.04 429.03 264.2 428.17 289.54 423.72 299.37 422 313.54 419.51 337.89 415.24 387.05 420.68 400.37 428.59 405.51 431.64 415.06 449.06 419.44 457.05 422.23 462.14 424.17 472.18 426.38 483.7 428.44 494.4 429.33 502.16 433.1 535.28"></polygon>
  <polygon class="cls-6" points="220.3 440.03 188.71 499 185.76 479.66 188.35 462.14 209.57 442.93 220.3 440.03"></polygon>
  <polygon class="cls-6" points="289.54 423.72 214.12 564.5 202.84 546.01 201.08 540.95 261.04 429.03 264.2 428.17 289.54 423.72"></polygon>
  <polygon class="cls-6" points="415.06 449.06 338.88 591.26 333.75 593.02 311.63 594.23 400.37 428.59 405.51 431.64 415.06 449.06"></polygon>
  <polygon class="cls-6" points="424.17 472.18 365.2 582.25 349.48 587.63 419.44 457.05 422.23 462.14 424.17 472.18"></polygon>
  <polygon class="cls-6" points="313.54 419.51 227.97 579.23 219.39 571.3 299.37 422 313.54 419.51"></polygon>
  <polygon class="cls-6" points="429.33 502.16 391.19 573.34 375.47 578.73 426.38 483.7 428.44 494.4 429.33 502.16"></polygon>
  <polygon class="cls-7" points="921.12 425.3 918.33 471.51 950.47 510.9 957.78 492.46 959.98 460.9 941.64 436.7 921.12 425.3"></polygon>
  <path class="cls-23" d="m895.95,362.46l-76.15-17.54-76.01-6.71-24.03,3.81s-56.29,8.8-58.05,9.21c-1.76.42-40,19.25-40,19.25l-19.92,31.3-3.88,69.93,1.81,30.65,35.7,22.32,21.99,35.18,13.71,26.65,56.62,5.03,89.56-4.25,52.84-9.9,23.02-35.86,14.04-30.63,8.35-44.36,5.36-49.75,2.21-35.7-27.16-18.63Zm-18.11,86.41l-5.33,34.59-15.37,36.04-14.75,15.78-28.71,15.26-33.37,6.08-44.5.17-47.86-7.29-31.3-21.99-16.04-38.03v-46.56l10.09-31.06,37.25-18.91,44.76-7.48,65.72-.52,50.97,11.56s24.84,8.88,24.84,9.65,3.62,12.16,3.62,14.5v28.19Z"></path>
  <path class="cls-9" d="m429.39,542.75l-.06.58s-.49.45-1.35,1.22l1.41-1.8Z"></path>
  <path class="cls-3" d="m467.12,499.37l-2.71,12.04-26.01,19.8-9.01,11.54,2.23-20.41-7.46-50.15-13.71-39.63s-16.17-14.21-19.79-13.04c-3.62,1.17-41.52.9-43.85-.07-2.33-.97-71.41,4.28-71.41,4.28,0,0-51.34,15.29-52.42,15.58-1.08.29-32.56,14.87-32.56,14.87l-4.66,22.12,4.66,33.94,15.99,41.64,7.68,17.56,25.23,18.19,12.91,3.91s17.74,7.78,20.07,7.78,55.88-3.97,57.05-2.96c1.17,1.02,38.81-6.45,40.36-8.73,1.55-2.28,26.94-18.97,29.38-18.97,2.12,0,23.3-19.04,28.89-24.1l-15.58,19.95-10,47.23-32.31,5.44-71.42,16.54-47.69-1.32-33.15-1.4-29.18-21.7-14.54-30.57-18.37-42.09-25.09,15.24-4.49,11.23-13.36-30.86,1.94-24.78,27.83-29.43-6.1-36.28,13.97-16.45,42.48-17.7s33.58-12.42,34.74-12.81c1.16-.39,45.39-15.99,45.39-15.99l56.67-10.01s33.72-1.17,36.09,0c2.37,1.17,51.23,7.93,51.23,7.93l20.74,19.52,14.96,18.99,11.65,49.77,2.71,34.37Z"></path>
  <polygon class="cls-2" points="461.11 430.5 523.64 415.76 600.55 423.93 599.46 475.32 535.42 466.2 463.24 485.09 461.11 430.5"></polygon>
  <path class="cls-5" d="m459.42,436.35l2.11,5.24c-.02-.58,56.61-29.72,135.01-10.31l1.36-8.22-37.26-7.3-64.42,3.5-36.8,17.09Z"></path>
  <path class="cls-5" d="m918.33,381.21l-1.29,6.08s-11-7.63-21.99-13.45c-11-5.82-46.53-22.12-90.44-23.67,0,0-48.37-4.66-93.19-1.55-44.82,3.1-73.15,22.51-73.15,22.51,0,0-28.14,19.99-33.96,39.2l11.84-36.09,35.61-20.64,56.56-14.48h77.81l54.91,8.34,75.72,29.27,1.57,4.49Z"></path>
  <path class="cls-5" d="m138.42,440.94l3.19,7.68s11.38-11.99,18.54-17.16c7.16-5.17,17.62-12.08,32.78-18.29,0,0,38.97-16.3,66.57-22.43,27.6-6.12,51.52-12.75,89.99-13.92,38.47-1.16,65.58,9.27,65.58,9.27l18.03,5.75-39.71-20.51-63.84.97-54.56,6.18-48.28,14.58-38.19,11.8-50.09,36.08Z"></path>
  <path class="cls-5" d="m199.54,551.58s.97,37.06,55.11,50.64c54.14,13.58,134.65-11.06,150.86-28.33,16.21-17.27-.74-2.37-.74-2.37l-9.7,3.36-31.72,9.68-53.4,11.79-48.9,2.31-39.58-18.89-21.93-28.2Z"></path>
  <path class="cls-5" d="m640.59,509.8s5.56,26.26,30.53,40.23c18.6,10.41,55.88,19.31,99.69,14.77,14.4-1.49,29.38-1.69,43.9-5.72,56.92-15.78,57.8-75.63,57.8-75.63l-31.41,52.86-42.17,18.89-56.4,4.14-43.21-7.57-33.89-11.99-24.84-29.99Z"></path>
  <path class="cls-20" d="m647.96,409.16c8.28-26.39,69.86-34.44,69.86-34.44,37.05-4.56,92.22.16,119.26,5.98,27.04,5.82,42.37,17.79,42.37,17.79,7.12,6.21,3.3,28.72,3.3,28.72l-12.61-22.12s-46.38-13.78-47.15-14.55c-.78-.78-48.51-4.66-51.42-4.66s-48.51-.9-48.51-.9l-55.5,13.13-19.6,11.06Z"></path>
  <path class="cls-20" d="m416.63,436.36s-9.08-24.62-25.18-26.4c-16.11-1.78-38.61-3.91-55.88-2.55-17.27,1.36-47.73,1.55-80.14,11.06-32.4,9.51-63.06,21.99-72.57,31.95-9.51,9.96,1.16,48.05,1.16,48.05l6.6-42.74,42.11-20.18,85.96-16.04s58.6.12,59.96.12,37.99,16.73,37.99,16.73Z"></path>
  <path class="cls-20" d="m467.64,472.14s64.29-28.58,129.1-7.27v6.84l-25.74-3.18-74.9,4.66-28.46,6.47v-7.52Z"></path>
  <path d="m884.11,421.86c-.1-6.09-1.13-10.82-3.22-14.89-3.91-7.59-11.05-11.09-16.08-13.06-25.03-9.82-53.95-15.43-85.94-16.66-10.03-.39-18.21-.55-25.75-.52-19,.09-34.49,1.4-48.73,4.13-17.94,3.44-33.19,9.06-46.62,17.16-11.07,6.69-18.65,21.17-22.53,43.06-2.66,15.04-2.6,28.27-2.59,29.57-.02,1.48-.02,16.31,5.36,33.3,3.31,10.44,7.98,19.56,13.88,27.11,7.52,9.61,17.01,16.64,28.22,20.9,18.37,6.98,35.4,10.78,53.58,11.95,4.29.28,8.51.39,12.66.39,11.32,0,22.17-.86,32.76-1.71,4.01-.32,8.15-.65,12.29-.93,17.26-1.18,31.84-5.78,44.56-14.06,10.8-7.03,20.26-16.66,29.77-30.3,16.98-24.35,18.81-70.24,18.38-95.43Zm-28.57,88.33c-18.02,25.84-36.85,37.16-64.99,39.08-4.21.29-8.39.62-12.43.94-28.75,2.29-55.9,4.46-93.6-9.87-16.47-6.26-28.11-19.66-34.58-39.83-5.02-15.64-4.89-29.63-4.88-29.77v-.09s0-.09,0-.09c0-.13-.14-12.96,2.4-27.32,3.18-17.95,8.96-29.91,16.72-34.6,28.26-17.06,62.4-19.39,88.98-19.51,7.36-.03,15.38.13,25.22.51,30.6,1.18,58.15,6.49,81.89,15.81,5.02,1.97,8.07,4.26,9.58,7.19,1.19,2.31,1.78,5.3,1.85,9.42.32,19.07-.61,65.84-16.15,88.13Zm28.57-88.33c-.1-6.09-1.13-10.82-3.22-14.89-3.91-7.59-11.05-11.09-16.08-13.06-25.03-9.82-53.95-15.43-85.94-16.66-10.03-.39-18.21-.55-25.75-.52-19,.09-34.49,1.4-48.73,4.13-17.94,3.44-33.19,9.06-46.62,17.16-11.07,6.69-18.65,21.17-22.53,43.06-2.66,15.04-2.6,28.27-2.59,29.57-.02,1.48-.02,16.31,5.36,33.3,3.31,10.44,7.98,19.56,13.88,27.11,7.52,9.61,17.01,16.64,28.22,20.9,18.37,6.98,35.4,10.78,53.58,11.95,4.29.28,8.51.39,12.66.39,11.32,0,22.17-.86,32.76-1.71,4.01-.32,8.15-.65,12.29-.93,17.26-1.18,31.84-5.78,44.56-14.06,10.8-7.03,20.26-16.66,29.77-30.3,16.98-24.35,18.81-70.24,18.38-95.43Zm-28.57,88.33c-18.02,25.84-36.85,37.16-64.99,39.08-4.21.29-8.39.62-12.43.94-28.75,2.29-55.9,4.46-93.6-9.87-16.47-6.26-28.11-19.66-34.58-39.83-5.02-15.64-4.89-29.63-4.88-29.77v-.09s0-.09,0-.09c0-.13-.14-12.96,2.4-27.32,3.18-17.95,8.96-29.91,16.72-34.6,28.26-17.06,62.4-19.39,88.98-19.51,7.36-.03,15.38.13,25.22.51,30.6,1.18,58.15,6.49,81.89,15.81,5.02,1.97,8.07,4.26,9.58,7.19,1.19,2.31,1.78,5.3,1.85,9.42.32,19.07-.61,65.84-16.15,88.13Zm-355.39,64.94c-7.67-22.79-21.06-18.2-21.06-18.2-.69.29-1.38.62-2.01,1.03-4.08,2.63-6.05,7.68-7.82,11.96-4.67,11.29-10.3,24.44-9.83,36.69.2,5.09.72,10.59,2.2,15.48,2.02,6.66,4.14,12.41,10.93,13.84,7.01,1.48,16.46-4.05,21.21-9.19,13.47-14.55,14.05-28.82,6.38-51.61Zm109.3,23.58c-.65-5.07-2.42-10.31-4.33-15.03-4.59-11.37-12-21.44-20.88-29.83-3.37-3.18-7.22-6.98-12.03-7.71-.74-.11-1.5-.14-2.25-.12,0,0-14.1,1.29-11.77,25.23,2.33,23.93,6.34,37.77,24.58,45.53,6.44,2.74,13.65,2.74,19.44-1.48,5.6-4.09,8.13-9.68,7.25-16.59Zm274.65-176.85c-.1-6.09-1.13-10.82-3.22-14.89-3.91-7.59-11.05-11.09-16.08-13.06-25.03-9.82-53.95-15.43-85.94-16.66-10.03-.39-18.21-.55-25.75-.52-19,.09-34.49,1.4-48.73,4.13-17.94,3.44-33.19,9.06-46.62,17.16-11.07,6.69-18.65,21.17-22.53,43.06-2.66,15.04-2.6,28.27-2.59,29.57-.02,1.48-.02,16.31,5.36,33.3,3.31,10.44,7.98,19.56,13.88,27.11,7.52,9.61,17.01,16.64,28.22,20.9,18.37,6.98,35.4,10.78,53.58,11.95,4.29.28,8.51.39,12.66.39,11.32,0,22.17-.86,32.76-1.71,4.01-.32,8.15-.65,12.29-.93,17.26-1.18,31.84-5.78,44.56-14.06,10.8-7.03,20.26-16.66,29.77-30.3,16.98-24.35,18.81-70.24,18.38-95.43Zm-28.57,88.33c-18.02,25.84-36.85,37.16-64.99,39.08-4.21.29-8.39.62-12.43.94-28.75,2.29-55.9,4.46-93.6-9.87-16.47-6.26-28.11-19.66-34.58-39.83-5.02-15.64-4.89-29.63-4.88-29.77v-.09s0-.09,0-.09c0-.13-.14-12.96,2.4-27.32,3.18-17.95,8.96-29.91,16.72-34.6,28.26-17.06,62.4-19.39,88.98-19.51,7.36-.03,15.38.13,25.22.51,30.6,1.18,58.15,6.49,81.89,15.81,5.02,1.97,8.07,4.26,9.58,7.19,1.19,2.31,1.78,5.3,1.85,9.42.32,19.07-.61,65.84-16.15,88.13Zm28.57-88.33c-.1-6.09-1.13-10.82-3.22-14.89-3.91-7.59-11.05-11.09-16.08-13.06-25.03-9.82-53.95-15.43-85.94-16.66-10.03-.39-18.21-.55-25.75-.52-19,.09-34.49,1.4-48.73,4.13-17.94,3.44-33.19,9.06-46.62,17.16-11.07,6.69-18.65,21.17-22.53,43.06-2.66,15.04-2.6,28.27-2.59,29.57-.02,1.48-.02,16.31,5.36,33.3,3.31,10.44,7.98,19.56,13.88,27.11,7.52,9.61,17.01,16.64,28.22,20.9,18.37,6.98,35.4,10.78,53.58,11.95,4.29.28,8.51.39,12.66.39,11.32,0,22.17-.86,32.76-1.71,4.01-.32,8.15-.65,12.29-.93,17.26-1.18,31.84-5.78,44.56-14.06,10.8-7.03,20.26-16.66,29.77-30.3,16.98-24.35,18.81-70.24,18.38-95.43Zm-28.57,88.33c-18.02,25.84-36.85,37.16-64.99,39.08-4.21.29-8.39.62-12.43.94-28.75,2.29-55.9,4.46-93.6-9.87-16.47-6.26-28.11-19.66-34.58-39.83-5.02-15.64-4.89-29.63-4.88-29.77v-.09s0-.09,0-.09c0-.13-.14-12.96,2.4-27.32,3.18-17.95,8.96-29.91,16.72-34.6,28.26-17.06,62.4-19.39,88.98-19.51,7.36-.03,15.38.13,25.22.51,30.6,1.18,58.15,6.49,81.89,15.81,5.02,1.97,8.07,4.26,9.58,7.19,1.19,2.31,1.78,5.3,1.85,9.42.32,19.07-.61,65.84-16.15,88.13Zm-246.09,88.51c-.65-5.07-2.42-10.31-4.33-15.03-4.59-11.37-12-21.44-20.88-29.83-3.37-3.18-7.22-6.98-12.03-7.71-.74-.11-1.5-.14-2.25-.12,0,0-14.1,1.29-11.77,25.23,2.33,23.93,6.34,37.77,24.58,45.53,6.44,2.74,13.65,2.74,19.44-1.48,5.6-4.09,8.13-9.68,7.25-16.59Zm-109.3-23.58c-7.67-22.79-21.06-18.2-21.06-18.2-.69.29-1.38.62-2.01,1.03-4.08,2.63-6.05,7.68-7.82,11.96-4.67,11.29-10.3,24.44-9.83,36.69.2,5.09.72,10.59,2.2,15.48,2.02,6.66,4.14,12.41,10.93,13.84,7.01,1.48,16.46-4.05,21.21-9.19,13.47-14.55,14.05-28.82,6.38-51.61Zm0,0c-7.67-22.79-21.06-18.2-21.06-18.2-.69.29-1.38.62-2.01,1.03-4.08,2.63-6.05,7.68-7.82,11.96-4.67,11.29-10.3,24.44-9.83,36.69.2,5.09.72,10.59,2.2,15.48,2.02,6.66,4.14,12.41,10.93,13.84,7.01,1.48,16.46-4.05,21.21-9.19,13.47-14.55,14.05-28.82,6.38-51.61Zm109.3,23.58c-.65-5.07-2.42-10.31-4.33-15.03-4.59-11.37-12-21.44-20.88-29.83-3.37-3.18-7.22-6.98-12.03-7.71-.74-.11-1.5-.14-2.25-.12,0,0-14.1,1.29-11.77,25.23,2.33,23.93,6.34,37.77,24.58,45.53,6.44,2.74,13.65,2.74,19.44-1.48,5.6-4.09,8.13-9.68,7.25-16.59Zm274.65-176.85c-.1-6.09-1.13-10.82-3.22-14.89-3.91-7.59-11.05-11.09-16.08-13.06-25.03-9.82-53.95-15.43-85.94-16.66-10.03-.39-18.21-.55-25.75-.52-19,.09-34.49,1.4-48.73,4.13-17.94,3.44-33.19,9.06-46.62,17.16-11.07,6.69-18.65,21.17-22.53,43.06-2.66,15.04-2.6,28.27-2.59,29.57-.02,1.48-.02,16.31,5.36,33.3,3.31,10.44,7.98,19.56,13.88,27.11,7.52,9.61,17.01,16.64,28.22,20.9,18.37,6.98,35.4,10.78,53.58,11.95,4.29.28,8.51.39,12.66.39,11.32,0,22.17-.86,32.76-1.71,4.01-.32,8.15-.65,12.29-.93,17.26-1.18,31.84-5.78,44.56-14.06,10.8-7.03,20.26-16.66,29.77-30.3,16.98-24.35,18.81-70.24,18.38-95.43Zm-28.57,88.33c-18.02,25.84-36.85,37.16-64.99,39.08-4.21.29-8.39.62-12.43.94-28.75,2.29-55.9,4.46-93.6-9.87-16.47-6.26-28.11-19.66-34.58-39.83-5.02-15.64-4.89-29.63-4.88-29.77v-.09s0-.09,0-.09c0-.13-.14-12.96,2.4-27.32,3.18-17.95,8.96-29.91,16.72-34.6,28.26-17.06,62.4-19.39,88.98-19.51,7.36-.03,15.38.13,25.22.51,30.6,1.18,58.15,6.49,81.89,15.81,5.02,1.97,8.07,4.26,9.58,7.19,1.19,2.31,1.78,5.3,1.85,9.42.32,19.07-.61,65.84-16.15,88.13Zm28.57-88.33c-.1-6.09-1.13-10.82-3.22-14.89-3.91-7.59-11.05-11.09-16.08-13.06-25.03-9.82-53.95-15.43-85.94-16.66-10.03-.39-18.21-.55-25.75-.52-19,.09-34.49,1.4-48.73,4.13-17.94,3.44-33.19,9.06-46.62,17.16-11.07,6.69-18.65,21.17-22.53,43.06-2.66,15.04-2.6,28.27-2.59,29.57-.02,1.48-.02,16.31,5.36,33.3,3.31,10.44,7.98,19.56,13.88,27.11,7.52,9.61,17.01,16.64,28.22,20.9,18.37,6.98,35.4,10.78,53.58,11.95,4.29.28,8.51.39,12.66.39,11.32,0,22.17-.86,32.76-1.71,4.01-.32,8.15-.65,12.29-.93,17.26-1.18,31.84-5.78,44.56-14.06,10.8-7.03,20.26-16.66,29.77-30.3,16.98-24.35,18.81-70.24,18.38-95.43Zm-28.57,88.33c-18.02,25.84-36.85,37.16-64.99,39.08-4.21.29-8.39.62-12.43.94-28.75,2.29-55.9,4.46-93.6-9.87-16.47-6.26-28.11-19.66-34.58-39.83-5.02-15.64-4.89-29.63-4.88-29.77v-.09s0-.09,0-.09c0-.13-.14-12.96,2.4-27.32,3.18-17.95,8.96-29.91,16.72-34.6,28.26-17.06,62.4-19.39,88.98-19.51,7.36-.03,15.38.13,25.22.51,30.6,1.18,58.15,6.49,81.89,15.81,5.02,1.97,8.07,4.26,9.58,7.19,1.19,2.31,1.78,5.3,1.85,9.42.32,19.07-.61,65.84-16.15,88.13Zm-246.09,88.51c-.65-5.07-2.42-10.31-4.33-15.03-4.59-11.37-12-21.44-20.88-29.83-3.37-3.18-7.22-6.98-12.03-7.71-.74-.11-1.5-.14-2.25-.12,0,0-14.1,1.29-11.77,25.23,2.33,23.93,6.34,37.77,24.58,45.53,6.44,2.74,13.65,2.74,19.44-1.48,5.6-4.09,8.13-9.68,7.25-16.59Zm-109.3-23.58c-7.67-22.79-21.06-18.2-21.06-18.2-.69.29-1.38.62-2.01,1.03-4.08,2.63-6.05,7.68-7.82,11.96-4.67,11.29-10.3,24.44-9.83,36.69.2,5.09.72,10.59,2.2,15.48,2.02,6.66,4.14,12.41,10.93,13.84,7.01,1.48,16.46-4.05,21.21-9.19,13.47-14.55,14.05-28.82,6.38-51.61Zm0,0c-7.67-22.79-21.06-18.2-21.06-18.2-.69.29-1.38.62-2.01,1.03-4.08,2.63-6.05,7.68-7.82,11.96-4.67,11.29-10.3,24.44-9.83,36.69.2,5.09.72,10.59,2.2,15.48,2.02,6.66,4.14,12.41,10.93,13.84,7.01,1.48,16.46-4.05,21.21-9.19,13.47-14.55,14.05-28.82,6.38-51.61Zm109.3,23.58c-.65-5.07-2.42-10.31-4.33-15.03-4.59-11.37-12-21.44-20.88-29.83-3.37-3.18-7.22-6.98-12.03-7.71-.74-.11-1.5-.14-2.25-.12,0,0-14.1,1.29-11.77,25.23,2.33,23.93,6.34,37.77,24.58,45.53,6.44,2.74,13.65,2.74,19.44-1.48,5.6-4.09,8.13-9.68,7.25-16.59Zm274.65-176.85c-.1-6.09-1.13-10.82-3.22-14.89-3.91-7.59-11.05-11.09-16.08-13.06-25.03-9.82-53.95-15.43-85.94-16.66-10.03-.39-18.21-.55-25.75-.52-19,.09-34.49,1.4-48.73,4.13-17.94,3.44-33.19,9.06-46.62,17.16-11.07,6.69-18.65,21.17-22.53,43.06-2.66,15.04-2.6,28.27-2.59,29.57-.02,1.48-.02,16.31,5.36,33.3,3.31,10.44,7.98,19.56,13.88,27.11,7.52,9.61,17.01,16.64,28.22,20.9,18.37,6.98,35.4,10.78,53.58,11.95,4.29.28,8.51.39,12.66.39,11.32,0,22.17-.86,32.76-1.71,4.01-.32,8.15-.65,12.29-.93,17.26-1.18,31.84-5.78,44.56-14.06,10.8-7.03,20.26-16.66,29.77-30.3,16.98-24.35,18.81-70.24,18.38-95.43Zm-28.57,88.33c-18.02,25.84-36.85,37.16-64.99,39.08-4.21.29-8.39.62-12.43.94-28.75,2.29-55.9,4.46-93.6-9.87-16.47-6.26-28.11-19.66-34.58-39.83-5.02-15.64-4.89-29.63-4.88-29.77v-.09s0-.09,0-.09c0-.13-.14-12.96,2.4-27.32,3.18-17.95,8.96-29.91,16.72-34.6,28.26-17.06,62.4-19.39,88.98-19.51,7.36-.03,15.38.13,25.22.51,30.6,1.18,58.15,6.49,81.89,15.81,5.02,1.97,8.07,4.26,9.58,7.19,1.19,2.31,1.78,5.3,1.85,9.42.32,19.07-.61,65.84-16.15,88.13Zm28.57-88.33c-.1-6.09-1.13-10.82-3.22-14.89-3.91-7.59-11.05-11.09-16.08-13.06-25.03-9.82-53.95-15.43-85.94-16.66-10.03-.39-18.21-.55-25.75-.52-19,.09-34.49,1.4-48.73,4.13-17.94,3.44-33.19,9.06-46.62,17.16-11.07,6.69-18.65,21.17-22.53,43.06-2.66,15.04-2.6,28.27-2.59,29.57-.02,1.48-.02,16.31,5.36,33.3,3.31,10.44,7.98,19.56,13.88,27.11,7.52,9.61,17.01,16.64,28.22,20.9,18.37,6.98,35.4,10.78,53.58,11.95,4.29.28,8.51.39,12.66.39,11.32,0,22.17-.86,32.76-1.71,4.01-.32,8.15-.65,12.29-.93,17.26-1.18,31.84-5.78,44.56-14.06,10.8-7.03,20.26-16.66,29.77-30.3,16.98-24.35,18.81-70.24,18.38-95.43Zm-28.57,88.33c-18.02,25.84-36.85,37.16-64.99,39.08-4.21.29-8.39.62-12.43.94-28.75,2.29-55.9,4.46-93.6-9.87-16.47-6.26-28.11-19.66-34.58-39.83-5.02-15.64-4.89-29.63-4.88-29.77v-.09s0-.09,0-.09c0-.13-.14-12.96,2.4-27.32,3.18-17.95,8.96-29.91,16.72-34.6,28.26-17.06,62.4-19.39,88.98-19.51,7.36-.03,15.38.13,25.22.51,30.6,1.18,58.15,6.49,81.89,15.81,5.02,1.97,8.07,4.26,9.58,7.19,1.19,2.31,1.78,5.3,1.85,9.42.32,19.07-.61,65.84-16.15,88.13Zm-246.09,88.51c-.65-5.07-2.42-10.31-4.33-15.03-4.59-11.37-12-21.44-20.88-29.83-3.37-3.18-7.22-6.98-12.03-7.71-.74-.11-1.5-.14-2.25-.12,0,0-14.1,1.29-11.77,25.23,2.33,23.93,6.34,37.77,24.58,45.53,6.44,2.74,13.65,2.74,19.44-1.48,5.6-4.09,8.13-9.68,7.25-16.59Zm-109.3-23.58c-7.67-22.79-21.06-18.2-21.06-18.2-.69.29-1.38.62-2.01,1.03-4.08,2.63-6.05,7.68-7.82,11.96-4.67,11.29-10.3,24.44-9.83,36.69.2,5.09.72,10.59,2.2,15.48,2.02,6.66,4.14,12.41,10.93,13.84,7.01,1.48,16.46-4.05,21.21-9.19,13.47-14.55,14.05-28.82,6.38-51.61Zm0,0c-7.67-22.79-21.06-18.2-21.06-18.2-.69.29-1.38.62-2.01,1.03-4.08,2.63-6.05,7.68-7.82,11.96-4.67,11.29-10.3,24.44-9.83,36.69.2,5.09.72,10.59,2.2,15.48,2.02,6.66,4.14,12.41,10.93,13.84,7.01,1.48,16.46-4.05,21.21-9.19,13.47-14.55,14.05-28.82,6.38-51.61Zm109.3,23.58c-.65-5.07-2.42-10.31-4.33-15.03-4.59-11.37-12-21.44-20.88-29.83-3.37-3.18-7.22-6.98-12.03-7.71-.74-.11-1.5-.14-2.25-.12,0,0-14.1,1.29-11.77,25.23,2.33,23.93,6.34,37.77,24.58,45.53,6.44,2.74,13.65,2.74,19.44-1.48,5.6-4.09,8.13-9.68,7.25-16.59Zm274.65-176.85c-.1-6.09-1.13-10.82-3.22-14.89-3.91-7.59-11.05-11.09-16.08-13.06-25.03-9.82-53.95-15.43-85.94-16.66-10.03-.39-18.21-.55-25.75-.52-19,.09-34.49,1.4-48.73,4.13-17.94,3.44-33.19,9.06-46.62,17.16-11.07,6.69-18.65,21.17-22.53,43.06-2.66,15.04-2.6,28.27-2.59,29.57-.02,1.48-.02,16.31,5.36,33.3,3.31,10.44,7.98,19.56,13.88,27.11,7.52,9.61,17.01,16.64,28.22,20.9,18.37,6.98,35.4,10.78,53.58,11.95,4.29.28,8.51.39,12.66.39,11.32,0,22.17-.86,32.76-1.71,4.01-.32,8.15-.65,12.29-.93,17.26-1.18,31.84-5.78,44.56-14.06,10.8-7.03,20.26-16.66,29.77-30.3,16.98-24.35,18.81-70.24,18.38-95.43Zm-28.57,88.33c-18.02,25.84-36.85,37.16-64.99,39.08-4.21.29-8.39.62-12.43.94-28.75,2.29-55.9,4.46-93.6-9.87-16.47-6.26-28.11-19.66-34.58-39.83-5.02-15.64-4.89-29.63-4.88-29.77v-.09s0-.09,0-.09c0-.13-.14-12.96,2.4-27.32,3.18-17.95,8.96-29.91,16.72-34.6,28.26-17.06,62.4-19.39,88.98-19.51,7.36-.03,15.38.13,25.22.51,30.6,1.18,58.15,6.49,81.89,15.81,5.02,1.97,8.07,4.26,9.58,7.19,1.19,2.31,1.78,5.3,1.85,9.42.32,19.07-.61,65.84-16.15,88.13Zm28.57-88.33c-.1-6.09-1.13-10.82-3.22-14.89-3.91-7.59-11.05-11.09-16.08-13.06-25.03-9.82-53.95-15.43-85.94-16.66-10.03-.39-18.21-.55-25.75-.52-19,.09-34.49,1.4-48.73,4.13-17.94,3.44-33.19,9.06-46.62,17.16-11.07,6.69-18.65,21.17-22.53,43.06-2.66,15.04-2.6,28.27-2.59,29.57-.02,1.48-.02,16.31,5.36,33.3,3.31,10.44,7.98,19.56,13.88,27.11,7.52,9.61,17.01,16.64,28.22,20.9,18.37,6.98,35.4,10.78,53.58,11.95,4.29.28,8.51.39,12.66.39,11.32,0,22.17-.86,32.76-1.71,4.01-.32,8.15-.65,12.29-.93,17.26-1.18,31.84-5.78,44.56-14.06,10.8-7.03,20.26-16.66,29.77-30.3,16.98-24.35,18.81-70.24,18.38-95.43Zm-28.57,88.33c-18.02,25.84-36.85,37.16-64.99,39.08-4.21.29-8.39.62-12.43.94-28.75,2.29-55.9,4.46-93.6-9.87-16.47-6.26-28.11-19.66-34.58-39.83-5.02-15.64-4.89-29.63-4.88-29.77v-.09s0-.09,0-.09c0-.13-.14-12.96,2.4-27.32,3.18-17.95,8.96-29.91,16.72-34.6,28.26-17.06,62.4-19.39,88.98-19.51,7.36-.03,15.38.13,25.22.51,30.6,1.18,58.15,6.49,81.89,15.81,5.02,1.97,8.07,4.26,9.58,7.19,1.19,2.31,1.78,5.3,1.85,9.42.32,19.07-.61,65.84-16.15,88.13Zm-246.09,88.51c-.65-5.07-2.42-10.31-4.33-15.03-4.59-11.37-12-21.44-20.88-29.83-3.37-3.18-7.22-6.98-12.03-7.71-.74-.11-1.5-.14-2.25-.12,0,0-14.1,1.29-11.77,25.23,2.33,23.93,6.34,37.77,24.58,45.53,6.44,2.74,13.65,2.74,19.44-1.48,5.6-4.09,8.13-9.68,7.25-16.59Zm-130.37-41.78c-.69.29-1.38.62-2.01,1.03-4.08,2.63-6.05,7.68-7.82,11.96-4.67,11.29-10.3,24.44-9.83,36.69.2,5.09.72,10.59,2.2,15.48,2.02,6.66,4.14,12.41,10.93,13.84,7.01,1.48,16.46-4.05,21.21-9.19,13.47-14.55,14.05-28.82,6.38-51.61-7.67-22.79-21.06-18.2-21.06-18.2Zm555.97-262.59c-8.32-26.71-21.68-51.44-34.75-76.02-11.43-22.07-20.7-45.04-29.04-68.47-1.02-2.7-2.16-5.95-3.26-8.6l-.72-1.76c-.23-.58-.51-1.19-.78-1.8l-.81-1.81-.28-.63-.14-.31c-.05-.11-.09-.23-.14-.34l-.28-.7c-1.17-3.01-2.02-5.76-3.86-8.63-1-1.62-2.25-3.08-3.61-4.41-.08-.08-.17-.15-.25-.22l-.5-.43c-.34-.28-.68-.57-1.02-.84l-1.04-.73-.52-.36c-.18-.12-.35-.24-.53-.33l-1.05-.61-.53-.3c-.18-.1-.35-.2-.53-.28-.69-.33-1.39-.66-2.1-.98l-2.06-.79c-.17-.06-.34-.13-.51-.19l-.5-.16-1.01-.31-1.01-.31c-.34-.1-.66-.17-1-.26l-1.98-.5c-.66-.15-1.3-.27-1.95-.41l-.98-.2c-.32-.07-.65-.13-.97-.18l-1.92-.31c-1.82-.3-3.87-.54-5.7-.74l-3.75-.35c-19.47-1.42-38.98-.53-58.37.44l-7.21.43-1.8.11-.9.06s-.89.07-.92.07c-65.08,4.8-125.95,34.68-177.24,73.75-2.66,2.06-5.32,4.19-7.93,6.37-21.66-7.8-44.08-13.67-66.81-17.33-76.15-12.23-155.6-.17-225.59,31.82-4.68,2.18-9.34,4.46-13.91,6.91-1.22-.82-2.46-1.61-3.7-2.38-32.85-20.13-71.34-30.56-109.75-31.53-2.56-.05-5.5-.04-8.06-.05-4.69.09-10.08.31-14.76.56-8.53.41-18.37,1.02-26.89,1.72-14.75,1.17-30.32,2.85-44.89,5.4-24.91,4.12-49.79,11.89-71.85,24.5-.56,1.16-1.58,3.3-2.1,4.41-8.61,18.9-15.45,38.58-21.43,58.44-8.27,27.88-14.42,56.43-18.4,85.23-1.2,8.87-2.25,18.15-3.05,27.07-.23,3.01.1,5.99.53,8.95.86,5.42,2.52,10.73,4.56,15.8l.48,1.14.48,1.14.52,1.12c.71,1.64,1.94,3.96,2.73,5.51,1.38,2.49,2.78,4.91,4.33,7.34,9.08,14.03,20.83,26.03,33.66,36.61,7.3,6.05,15.23,11.67,23.11,16.91l.58.25.36.15.3.12.56.22c.71.28,1.42.52,2.13.76,3.03,1.01,6.11,1.84,9.23,2.49-2.41,2.2-4.71,4.54-6.85,7.02-4.71,5.47-8.68,11.75-10.79,18.72-1.52,5.01-1.69,10.57-1.12,15.59,1.7,13.62,7.46,26.06,14.36,37.63,0,0,.09.14.13.21-1.58,5.86-4.5,17.6-7.1,32.93-3.43,20.2-6.88,50.66-3.87,81.01,3.88,39.16,13.03,73.17,27.98,103.96,21.01,43.31,53.31,78.84,95.99,105.59,119.77,75.08,216.26,81.39,270.9,81.39,6.06,0,11.61-.08,16.62-.15,2.67-.04,5.19-.07,7.54-.09,2.14.07,24.77.69,56.51-1.5,30.2-2.09,74.52-7.26,114.14-20.01,39-12.55,80.53-27.13,120.07-48.58,46.02-24.97,81.56-55,108.63-91.81,14.49-19.7,25.66-39.49,34.14-60.5,7.57-18.75,12.78-37.95,15.92-58.7,5.59-36.91,3.67-72.37.8-111.57-1.06-14.39-4.86-29.19-11.3-44-2.76-6.34-6.01-12.68-9.71-18.98,4.64-5.78,7.93-13.52,9.6-22.65,1.67-9.09,1.72-19.52.15-29.38-.41-2.57-1.38-5.29-2.92-8.18,15.88-5.4,29.44-14.49,40.4-27.11,10.11-11.65,17.99-26.27,23.4-43.45,7.19-22.82,8.09-43.85,8.13-52.22.16-.21.32-.43.48-.65,1.69-2.28,2.81-5.3,3.17-8.08,1.31-9.34-1.62-19.27-4.3-27.71ZM117.83,468.33c-8.26-5.55-16.43-11.51-23.91-18.05-10.52-9.09-20.3-19.49-27.68-31.27-.52-.83-1.12-1.89-1.63-2.7l-1.02-1.83-.51-.91c-.33-.63-1.07-2.13-1.41-2.78l-.87-1.87-.43-.94c-.89-2.1-1.84-4.48-2.52-6.67-1.24-3.94-2.17-8.03-2.25-12.16,0-.13,0-.27,0-.37,0-.11,0-.24.01-.29l.41-4.19c.36-4.14,1-9.23,1.46-13.35,2.2-17.73,5.23-35.4,9.11-52.84,3.36-15.2,7.45-30.46,12.09-45.33,5.32-16.82,11.31-33.52,18.62-49.58,9.36-4.94,19.02-9.11,29.09-12.34,27.51-8.76,57.02-11.8,85.79-13.83,5.54-.34,11.95-.78,17.63-1.01,4.9-.24,10.34-.52,15.23-.54h2.15s2.15.02,2.15.02h1.07s.53,0,.53,0l.54.02,4.29.16c.71.03,1.43.04,2.15.09,3.98.24,8.91.64,12.83,1.08l2.13.27,2.13.27c.71.1,1.42.16,2.13.29,26.17,3.88,51.89,12.44,74.6,26.09-16.92,10.84-33.32,22.52-49.08,34.98-3.37-1.42-13.68-5.21-26.85-4.61-14.6.66-35.63,6.96-52.91,33.2-7.27,11.05-13.54,24.01-18.61,38.52-4.03,11.52-7.33,24.05-9.81,37.24-3.04,16.17-4.09,29.23-4.44,35.53-3.01,1.28-5.98,2.6-8.92,3.95-18.2,8.35-34.69,20.18-47.67,34.19-2.57,2.78-3.63,6.64-2.82,10.34l5.48,25.16c-6.23-.49-12.42-1.77-18.25-3.98Zm475.42-29.01c.08,5.09.31,15.9.58,27.14-13.92-4.32-28.61-6.72-43.8-7.14-14.63-.41-29.76,1.02-44.94,4.22-15.45,3.26-27.74,7.68-35.28,10.79-.37-3.91-.8-8.21-1.3-12.93-.95-8.83-2.41-16.86-4.1-23.97,6.39-2.94,19.58-8.36,37.17-12.25,22.25-4.92,55.91-8.18,92.03,3.24-.31,3.64-.42,7.22-.37,10.9Zm.89,40.3c.11,4.46.21,8.63.3,12.14-1.22-.56-2.45-1.1-3.69-1.63-17.08-7.24-34.96-10.72-53.16-10.35-22.42.45-45.08,6.95-65.99,18.68-.14-2.98-.36-6.65-.69-11.1,6.15-2.73,19.55-8.09,37.12-11.76,21.35-4.47,53.27-7.25,86.11,4.02Zm-56.3,12.58c.81-.02,1.61-.02,2.41-.02,38.6,0,67.3,18.85,84.71,34.85,21.1,19.4,37.11,45.78,41.76,68.86,7.65,37.93-11.39,54.53-21.62,63.46-1.28,1.11-2.38,2.08-3.36,3.01-3.68,3.52-19.63,13.27-45.42,21-18.57,5.57-46.86,11.44-83.52,11.44-9,0-18.5-.35-28.49-1.15-21.4-1.71-38.13-6.57-51.15-14.85-19.55-12.44-30.42-35.89-27.03-58.37.39-2.56.87-5.09,1.38-7.76.13-.68.26-1.36.39-2.04.17-.88.33-1.77.5-2.66,1.35-7.17,2.74-14.58,4.58-21.65,3.75-14.41,11.24-28.48,22-41.51.63-.5,1.17-1.12,1.58-1.88,4.64-5.42,9.85-10.64,15.6-15.63,25.4-22.03,55.83-34.5,85.69-35.1Zm75.12-94.62c4.99-16.29,20.56-26.92,21.18-27.33,37.16-23.58,77.63-29.18,166.5-23.01,43.39,3.01,72.9,13.15,90.02,21.13,13.31,6.2,21.39,12.09,24.89,14.93l-2.43,35.3h0l-3.68,43.37c-.23,1.94-4.69,39.05-16.62,67.28-9.56,22.64-20.89,36.48-25.31,41.38-.6.67-1.37,1.18-2.21,1.48-27.65,9.96-57.29,11.61-87.76,12.54-27.16.82-51.13.5-73.29-.99-9.87-.66-20.08-2.03-29.14-3.89-2.87-8.24-6.83-16.68-11.73-24.95-7.97-13.45-18.35-26.22-30.02-36.94-8.26-7.59-17.08-14.14-26.34-19.56-.29-11.57-1.19-48.37-1.36-59.18-.18-12.48,1.72-23.35,7.3-41.56Zm-243.2,179.62c-14.03,5.78-24.03,7.57-24.12,7.59l-.2.04c-.44.09-44.44,9.1-72.18,6.62-27.36-2.44-50.44-15.83-60.22-34.94-10.89-21.26-19.9-57.27-20.08-80.27-.03-3.66-.08-10.48,2.08-14.08,2.49-4.14,9.69-7.5,14-9.51,15.96-7.46,30.85-13.13,45.52-17.35,23.93-6.89,50.42-10.67,83.38-11.92,11.07-.42,24.09-.66,36.73.69,8.12.87,16.47,2.35,22.52,7.22,4.96,4,9.65,10.42,14.35,19.64,6.76,13.27,10.55,29.42,11.58,49.35,1.26,24.33,1.66,33.66,1.78,37.23-2.18,2.66-4.23,5.36-6.15,8.1-17.39,16.58-36.2,26.32-48.96,31.58Zm74.26-59.28c-2.52,2.18-4.95,4.42-7.28,6.69-.3-6.43-.72-14.78-1.25-24.97-1.12-21.71-5.35-39.48-12.91-54.34-5.5-10.81-11.27-18.55-17.62-23.67-8.54-6.89-18.98-8.83-28.98-9.9-13.42-1.44-27-1.19-38.52-.75-33.99,1.28-61.42,5.22-86.34,12.39-15.3,4.4-30.78,10.3-47.34,18.03-5.95,2.78-14.93,6.98-19.37,14.36-3.67,6.09-3.92,13.82-3.87,20.58.1,12.22,2.43,27.95,6.57,44.28,4.04,15.95,9.33,30.71,14.88,41.55,11.71,22.87,38.6,38.82,70.17,41.64,3.74.33,7.71.48,11.81.48,27.89,0,61.4-6.78,63.91-7.29,1.27-.23,11.7-2.22,26.25-8.17,8.26-3.38,18.87-8.5,30.09-15.9-1.26,3.39-2.34,6.81-3.24,10.26-1.93,7.44-3.36,15.02-4.74,22.36-1.97.63-4.13,1.3-5.51,1.7-9.07,2.6-18.42,4.85-27.65,6.91-17.08,3.79-34.3,7.2-51.56,10.11-2.98.49-5.99.73-9.02.96-4.56.28-9.82.7-14.34.91-19.78,1.04-39.64,2.11-59.33,1.08-2.09-.15-4.62-.34-6.65-.65l-1.02-.17-.51-.08c-.78-.16-1.82-.37-2.56-.63l-.4-.15-.4-.14c-.14-.05-.28-.12-.41-.17l-.83-.36-.84-.43-.42-.21-.43-.25-.85-.49-.85-.54c-11.73-7.61-25.41-25.67-31.37-38.45-1.15-2.75-2.32-5.69-3.35-8.57-6.48-17.7-12.34-35.92-18.25-53.86l-16.81-77.13c11.84-12.69,26.86-23.42,43.45-31.03,33.21-15.25,71.22-26.42,116.19-34.15,22.85-3.93,42.92-5.36,61.37-4.38,24.42,1.29,54.82,5.56,73.27,27.26,1.35,1.59,2.32,2.89,3.06,4.11.57,1.01,12.39,22.34,16,55.99,2.69,25.13,3.19,38.02,3.26,43.3-5.29,3.62-10.44,7.59-15.41,11.9Zm-323.43-3.04c2.43-6.93,7.28-12.72,12.6-17.7,2.21-2.05,4.59-4,7.05-5.82l8.21,37.68c-6.54,4.63-12.65,9.82-18.07,15.76-1.07,1.18-2.11,2.4-3.11,3.65-4.89-9.96-9.96-23.67-6.68-33.57Zm844.98,62.76c4.89,66.75,10.43,142.4-48.48,222.51-57.17,77.73-144.83,110.92-222.51,135.93-38.38,12.35-81.57,17.39-111.04,19.43-32.07,2.23-55.3,1.49-55.53,1.49h-.13s-.13,0-.13,0c-2.43.02-5.01.06-7.74.09-48.95.69-150.8,2.11-280.75-79.35-69.59-43.62-109.35-111-118.2-200.26-2.87-28.91.45-58.11,3.73-77.51,2.24-13.26,4.78-23.88,6.37-30,1.16-2.35,2.15-4.36,2.15-4.36,1.3-2.65,2.92-5.15,4.77-7.53,4.03-5.11,8.76-9.66,13.88-13.73,4.62,13.76,9.3,27.52,14.51,41.09,1.8,4.84,4.23,9.65,6.95,14.01,8.26,13.29,21.4,29.9,35.5,37.2l1.31.65,1.38.59c.23.09.46.2.7.29l.73.26.73.26c.24.09.49.17.75.24l1.55.42c.49.11.95.2,1.43.3l.71.14.68.11c3.57.61,8.05.88,11.59,1.06,22.83.78,45.42-.72,68.14-2.23,3.82-.32,5.71-.34,9.86-.81,6.53-.76,13.04-2.14,19.49-3.34,17.45-3.38,34.88-7.07,52.11-11.45,4.47-1.13,9.1-2.39,13.67-3.76-1.84,13.26.26,26.85,6.09,39.36,5.88,12.63,15.1,23.18,26.66,30.53,7.4,4.7,15.76,8.43,25.2,11.21-7.36.49-38.82,1.41-62-15.86,1.07-3.27.65-6.53-1.43-8.61-3.36-3.36-9.79-2.39-14.36,2.18-4.57,4.57-5.54,11-2.18,14.36,1.83,1.83,4.55,2.37,7.4,1.76,3.3,3.16,22.29,19.88,56.18,21.63,0,0-7.63,74.96,59.38,114.81,67.01,39.84,123.67-5.69,123.67-5.69,0,0,34.67-24.58,41.14-67.79,6.47-43.21-2.07-66.23-2.07-66.23,0,0,40-10.57,56.86-37.03,3.27-.3,5.99-1.88,7.11-4.5,1.87-4.37-1.42-9.98-7.35-12.52-5.94-2.54-12.27-1.06-14.14,3.31-1.01,2.37-.51,5.1,1.1,7.5-5.56,7.18-27.35,27.29-62.61,31.69,6.05-3.4,10.02-6.32,11.94-8.15.77-.74,1.78-1.62,2.95-2.63,5.66-4.93,14.21-12.4,20.38-24.46,7.37-14.42,9.14-31.52,5.25-50.81-.02-.11-.05-.22-.07-.33,7.9,1.37,16.25,2.37,24.6,2.94,14.51.98,29.76,1.46,46.13,1.46,9.09,0,18.53-.15,28.37-.45,31.51-.96,62.23-2.69,91.59-13.27,2.76-.99,5.25-2.67,7.22-4.84,4.85-5.37,17.23-20.49,27.53-44.87,7.15-16.93,11.71-36.38,14.38-50.62,4.88,5.18,11.4,12.63,17.99,21.83,12.02,16.75,26.79,42.91,28.95,72.36Zm-44.44-109.32c.41-2.92.62-4.72.66-5.05v-.08s2.76-32.48,2.76-32.48c3.1,2.4,6.72,5.33,10.36,8.53,16.42,14.44,19.13,21.9,19.53,24.44,2.03,12.75,1.11,28.38-4.72,38.67-1.04-1.53-2.11-3.05-3.2-4.57-10.59-14.72-20.8-25.07-25.39-29.46Zm94.51-88.73c-10.68,33.62-30.65,54.91-59.4,63.34-3.52-4.07-7.92-8.42-13.23-13.08-6.91-6.07-13.6-11.1-17.28-13.77l2.61-37.87-2.04-2c-.38-.37-9.52-9.24-29.62-18.72-10.78-5.09-22.75-9.43-35.62-12.93-1.84-3.11-3.77-6.17-5.77-9.16-12.67-18.77-28.03-35.63-44.77-50.85-11.72-10.61-24.1-20.52-37.18-29.41,2.67-5.35,6.18-10.3,10.12-14.78,11.01-12.49,26.26-20.79,42.46-24.39,19.65-4.38,38.07,7.63,50.93,21.58,6.67,7.09,12.88,15.76,17.5,23.87,4.43,9.66,8.23,19.68,11.44,29.8,2.04,6.55,3.82,13.34,5,20.03.27,1.62.74,4.59.98,6.14.49,2.88,1.1,5.74,1.9,8.58,3.85,14.06,11.76,26.38,22.44,36.25,9.17,8.55,19.92,15.16,30.9,20.59,2.33,1.12,4.95,1.66,7.54,1.5,3.55-.18,7.07-1.69,9.63-4.18.41-.37.89-.91,1.28-1.33,3.41-3.81,6.2-7.93,9.1-11.8,6.9-8.89,18.16-13.84,26.78-21.47.42-.36.83-.72,1.24-1.09-.88,9.54-2.8,22.12-6.94,35.14Zm9.82-60.78l-.06.66c-.03.71-.17,1.35-.41,1.92-.16.34-.47.77-.75,1.09-3.8,4.35-7.76,8.64-12.09,12.4-7.13,6.23-15.94,10.7-23.08,17.51-5.44,4.85-9.23,11.81-13.93,17.11l-.51.55s-.03.03-.05.04c-.04.05-.08.08-.12.12-.35.28-.91.35-1.35.18-.04-.02-.07-.04-.11-.05,0,0-.11-.05-.15-.07l-.77-.39-1.54-.77c-11.16-5.71-21.39-12.48-29.75-21.6-8.54-9.32-13.93-20.69-15.85-33.19-1.05-6.7-2.39-13.58-4.29-20.02-2.64-9.44-5.96-18.77-9.68-27.83-1.6-3.81-3.17-7.62-4.99-11.34-10.42-17.99-25.18-35.46-43.68-45.55-12.96-7.11-28.55-9.48-42.86-5.18-6.16,1.65-12.17,3.87-17.92,6.71-17.36,8.51-32.04,22.79-40.25,40.38l-.41.91-.4.93-.39.97-.19.51-.1.28-.12.34-1.6,4.57c15.83,9.89,30.88,21.04,45.44,32.71,18.93,15.23,36.93,31.73,53.26,49.73.36.41.74.83,1.1,1.24-17.34-4.48-36.3-7.46-56.38-8.85-46.37-3.21-78.45-3.11-104.04.32-27.41,3.68-49.01,11.28-70.02,24.63l-.07.04c-.81.53-19.87,13.18-26.28,34.1-2.59,8.45-4.45,15.55-5.71,22.02-15.86-4.82-32.43-7.41-49.37-7.72-15.52-.28-31.36,1.34-47.11,4.81-17.14,3.79-30.33,8.92-37.81,12.24-4.79-15.37-9.87-24.24-10.21-24.83l-.05-.09c-1.1-1.82-2.46-3.67-4.27-5.8-9.43-11.09-22.32-19.32-38.34-24.49-12.18-3.93-26.07-6.19-43.73-7.13-19.39-1.03-40.37.46-64.14,4.54-36.58,6.29-68.71,14.83-97.53,25.94.58-6.81,1.69-16.77,3.87-28.26,3.71-19.62,11.32-47.87,26.55-71,11.44-17.37,25.77-26.66,42.59-27.6,6.04-.34,11.38.5,15.35,1.48-15.4,12.81-30.16,26.4-44.17,40.71-9.08,9.29-18.16,19.45-26.43,29.48-1.3,1.62-4.33,5.41-5.71,7.11l4.1-4.49c2.2-2.46,6.06-6.44,8.34-8.84,10.47-10.72,21.84-21.31,33.24-31.04,31.52-26.63,65.66-50.33,102.04-69.81.78.58,1.65,1.23,1.65,1.23l4.6-2.64.93-.53c5.24-2.94,10.62-5.6,16.08-8.13,72.29-33.05,155.24-44.06,233.22-27.61,17.47,3.67,34.67,8.69,51.4,14.91l4.36,1.62c4.51-4.04,9.42-8.18,14.2-11.87,47.94-36.65,104.67-64.97,165.32-70.63l3.46-.27.86-.07.89-.06,1.78-.11,7.11-.44c18.71-.99,37.72-1.92,56.35-.62,1.83.15,4.97.47,6.73.7,3.38.45,6.81,1.06,10.05,2.11.55.16,1.39.5,1.97.72,2.01.87,3.28,1.67,4.35,2.95.83,1,1.33,2.18,1.88,3.53.59,1.5,1.24,3.31,1.87,4.79.63,1.43,1.39,3.01,1.99,4.47l.64,1.56.32.78c.87,2.26,1.97,5.07,2.8,7.38,8.97,25.01,19.13,49.78,31.66,73.26,10.05,18.68,20.21,37.47,27.77,57.3,1.66,4.35,3.2,8.72,4.63,13.15,2.09,6.52,3.91,12.36,4.03,18.78,0,.46-.03.92-.05,1.38Zm-387.46,185.13c3.31,10.44,7.98,19.56,13.88,27.11,7.52,9.61,17.01,16.64,28.22,20.9,18.37,6.98,35.4,10.78,53.58,11.95,4.29.28,8.51.39,12.66.39,11.32,0,22.17-.86,32.76-1.71,4.01-.32,8.15-.65,12.29-.93,17.26-1.18,31.84-5.78,44.56-14.06,10.8-7.03,20.26-16.66,29.77-30.3,16.98-24.35,18.81-70.24,18.38-95.43-.1-6.09-1.13-10.82-3.22-14.89-3.91-7.59-11.05-11.09-16.08-13.06-25.03-9.82-53.95-15.43-85.94-16.66-10.03-.39-18.21-.55-25.75-.52-19,.09-34.49,1.4-48.73,4.13-17.94,3.44-33.19,9.06-46.62,17.16-11.07,6.69-18.65,21.17-22.53,43.06-2.66,15.04-2.6,28.27-2.59,29.57-.02,1.48-.02,16.31,5.36,33.3Zm9.45-60.7c3.18-17.95,8.96-29.91,16.72-34.6,28.26-17.06,62.4-19.39,88.98-19.51,7.36-.03,15.38.13,25.22.51,30.6,1.18,58.15,6.49,81.89,15.81,5.02,1.97,8.07,4.26,9.58,7.19,1.19,2.31,1.78,5.3,1.85,9.42.32,19.07-.61,65.84-16.15,88.13-18.02,25.84-36.85,37.16-64.99,39.08-4.21.29-8.39.62-12.43.94-28.75,2.29-55.9,4.46-93.6-9.87-16.47-6.26-28.11-19.66-34.58-39.83-5.02-15.64-4.89-29.63-4.88-29.77v-.09s0-.09,0-.09c0-.13-.14-12.96,2.4-27.32Zm-64.68,173.53c6.44,2.74,13.65,2.74,19.44-1.48,5.6-4.09,8.13-9.68,7.25-16.59-.65-5.07-2.42-10.31-4.33-15.03-4.59-11.37-12-21.44-20.88-29.83-3.37-3.18-7.22-6.98-12.03-7.71-.74-.11-1.5-.14-2.25-.12,0,0-14.1,1.29-11.77,25.23,2.33,23.93,6.34,37.77,24.58,45.53Zm-121.14,5.3c2.02,6.66,4.14,12.41,10.93,13.84,7.01,1.48,16.46-4.05,21.21-9.19,13.47-14.55,14.05-28.82,6.38-51.61-7.67-22.79-21.06-18.2-21.06-18.2-.69.29-1.38.62-2.01,1.03-4.08,2.63-6.05,7.68-7.82,11.96-4.67,11.29-10.3,24.44-9.83,36.69.2,5.09.72,10.59,2.2,15.48Zm38.53-46.95c-7.67-22.79-21.06-18.2-21.06-18.2-.69.29-1.38.62-2.01,1.03-4.08,2.63-6.05,7.68-7.82,11.96-4.67,11.29-10.3,24.44-9.83,36.69.2,5.09.72,10.59,2.2,15.48,2.02,6.66,4.14,12.41,10.93,13.84,7.01,1.48,16.46-4.05,21.21-9.19,13.47-14.55,14.05-28.82,6.38-51.61Zm109.3,23.58c-.65-5.07-2.42-10.31-4.33-15.03-4.59-11.37-12-21.44-20.88-29.83-3.37-3.18-7.22-6.98-12.03-7.71-.74-.11-1.5-.14-2.25-.12,0,0-14.1,1.29-11.77,25.23,2.33,23.93,6.34,37.77,24.58,45.53,6.44,2.74,13.65,2.74,19.44-1.48,5.6-4.09,8.13-9.68,7.25-16.59Zm274.65-176.85c-.1-6.09-1.13-10.82-3.22-14.89-3.91-7.59-11.05-11.09-16.08-13.06-25.03-9.82-53.95-15.43-85.94-16.66-10.03-.39-18.21-.55-25.75-.52-19,.09-34.49,1.4-48.73,4.13-17.94,3.44-33.19,9.06-46.62,17.16-11.07,6.69-18.65,21.17-22.53,43.06-2.66,15.04-2.6,28.27-2.59,29.57-.02,1.48-.02,16.31,5.36,33.3,3.31,10.44,7.98,19.56,13.88,27.11,7.52,9.61,17.01,16.64,28.22,20.9,18.37,6.98,35.4,10.78,53.58,11.95,4.29.28,8.51.39,12.66.39,11.32,0,22.17-.86,32.76-1.71,4.01-.32,8.15-.65,12.29-.93,17.26-1.18,31.84-5.78,44.56-14.06,10.8-7.03,20.26-16.66,29.77-30.3,16.98-24.35,18.81-70.24,18.38-95.43Zm-28.57,88.33c-18.02,25.84-36.85,37.16-64.99,39.08-4.21.29-8.39.62-12.43.94-28.75,2.29-55.9,4.46-93.6-9.87-16.47-6.26-28.11-19.66-34.58-39.83-5.02-15.64-4.89-29.63-4.88-29.77v-.09s0-.09,0-.09c0-.13-.14-12.96,2.4-27.32,3.18-17.95,8.96-29.91,16.72-34.6,28.26-17.06,62.4-19.39,88.98-19.51,7.36-.03,15.38.13,25.22.51,30.6,1.18,58.15,6.49,81.89,15.81,5.02,1.97,8.07,4.26,9.58,7.19,1.19,2.31,1.78,5.3,1.85,9.42.32,19.07-.61,65.84-16.15,88.13Zm28.57-88.33c-.1-6.09-1.13-10.82-3.22-14.89-3.91-7.59-11.05-11.09-16.08-13.06-25.03-9.82-53.95-15.43-85.94-16.66-10.03-.39-18.21-.55-25.75-.52-19,.09-34.49,1.4-48.73,4.13-17.94,3.44-33.19,9.06-46.62,17.16-11.07,6.69-18.65,21.17-22.53,43.06-2.66,15.04-2.6,28.27-2.59,29.57-.02,1.48-.02,16.31,5.36,33.3,3.31,10.44,7.98,19.56,13.88,27.11,7.52,9.61,17.01,16.64,28.22,20.9,18.37,6.98,35.4,10.78,53.58,11.95,4.29.28,8.51.39,12.66.39,11.32,0,22.17-.86,32.76-1.71,4.01-.32,8.15-.65,12.29-.93,17.26-1.18,31.84-5.78,44.56-14.06,10.8-7.03,20.26-16.66,29.77-30.3,16.98-24.35,18.81-70.24,18.38-95.43Zm-28.57,88.33c-18.02,25.84-36.85,37.16-64.99,39.08-4.21.29-8.39.62-12.43.94-28.75,2.29-55.9,4.46-93.6-9.87-16.47-6.26-28.11-19.66-34.58-39.83-5.02-15.64-4.89-29.63-4.88-29.77v-.09s0-.09,0-.09c0-.13-.14-12.96,2.4-27.32,3.18-17.95,8.96-29.91,16.72-34.6,28.26-17.06,62.4-19.39,88.98-19.51,7.36-.03,15.38.13,25.22.51,30.6,1.18,58.15,6.49,81.89,15.81,5.02,1.97,8.07,4.26,9.58,7.19,1.19,2.31,1.78,5.3,1.85,9.42.32,19.07-.61,65.84-16.15,88.13Zm-246.09,88.51c-.65-5.07-2.42-10.31-4.33-15.03-4.59-11.37-12-21.44-20.88-29.83-3.37-3.18-7.22-6.98-12.03-7.71-.74-.11-1.5-.14-2.25-.12,0,0-14.1,1.29-11.77,25.23,2.33,23.93,6.34,37.77,24.58,45.53,6.44,2.74,13.65,2.74,19.44-1.48,5.6-4.09,8.13-9.68,7.25-16.59Zm-109.3-23.58c-7.67-22.79-21.06-18.2-21.06-18.2-.69.29-1.38.62-2.01,1.03-4.08,2.63-6.05,7.68-7.82,11.96-4.67,11.29-10.3,24.44-9.83,36.69.2,5.09.72,10.59,2.2,15.48,2.02,6.66,4.14,12.41,10.93,13.84,7.01,1.48,16.46-4.05,21.21-9.19,13.47-14.55,14.05-28.82,6.38-51.61Zm0,0c-7.67-22.79-21.06-18.2-21.06-18.2-.69.29-1.38.62-2.01,1.03-4.08,2.63-6.05,7.68-7.82,11.96-4.67,11.29-10.3,24.44-9.83,36.69.2,5.09.72,10.59,2.2,15.48,2.02,6.66,4.14,12.41,10.93,13.84,7.01,1.48,16.46-4.05,21.21-9.19,13.47-14.55,14.05-28.82,6.38-51.61Zm109.3,23.58c-.65-5.07-2.42-10.31-4.33-15.03-4.59-11.37-12-21.44-20.88-29.83-3.37-3.18-7.22-6.98-12.03-7.71-.74-.11-1.5-.14-2.25-.12,0,0-14.1,1.29-11.77,25.23,2.33,23.93,6.34,37.77,24.58,45.53,6.44,2.74,13.65,2.74,19.44-1.48,5.6-4.09,8.13-9.68,7.25-16.59Zm274.65-176.85c-.1-6.09-1.13-10.82-3.22-14.89-3.91-7.59-11.05-11.09-16.08-13.06-25.03-9.82-53.95-15.43-85.94-16.66-10.03-.39-18.21-.55-25.75-.52-19,.09-34.49,1.4-48.73,4.13-17.94,3.44-33.19,9.06-46.62,17.16-11.07,6.69-18.65,21.17-22.53,43.06-2.66,15.04-2.6,28.27-2.59,29.57-.02,1.48-.02,16.31,5.36,33.3,3.31,10.44,7.98,19.56,13.88,27.11,7.52,9.61,17.01,16.64,28.22,20.9,18.37,6.98,35.4,10.78,53.58,11.95,4.29.28,8.51.39,12.66.39,11.32,0,22.17-.86,32.76-1.71,4.01-.32,8.15-.65,12.29-.93,17.26-1.18,31.84-5.78,44.56-14.06,10.8-7.03,20.26-16.66,29.77-30.3,16.98-24.35,18.81-70.24,18.38-95.43Zm-28.57,88.33c-18.02,25.84-36.85,37.16-64.99,39.08-4.21.29-8.39.62-12.43.94-28.75,2.29-55.9,4.46-93.6-9.87-16.47-6.26-28.11-19.66-34.58-39.83-5.02-15.64-4.89-29.63-4.88-29.77v-.09s0-.09,0-.09c0-.13-.14-12.96,2.4-27.32,3.18-17.95,8.96-29.91,16.72-34.6,28.26-17.06,62.4-19.39,88.98-19.51,7.36-.03,15.38.13,25.22.51,30.6,1.18,58.15,6.49,81.89,15.81,5.02,1.97,8.07,4.26,9.58,7.19,1.19,2.31,1.78,5.3,1.85,9.42.32,19.07-.61,65.84-16.15,88.13Zm28.57-88.33c-.1-6.09-1.13-10.82-3.22-14.89-3.91-7.59-11.05-11.09-16.08-13.06-25.03-9.82-53.95-15.43-85.94-16.66-10.03-.39-18.21-.55-25.75-.52-19,.09-34.49,1.4-48.73,4.13-17.94,3.44-33.19,9.06-46.62,17.16-11.07,6.69-18.65,21.17-22.53,43.06-2.66,15.04-2.6,28.27-2.59,29.57-.02,1.48-.02,16.31,5.36,33.3,3.31,10.44,7.98,19.56,13.88,27.11,7.52,9.61,17.01,16.64,28.22,20.9,18.37,6.98,35.4,10.78,53.58,11.95,4.29.28,8.51.39,12.66.39,11.32,0,22.17-.86,32.76-1.71,4.01-.32,8.15-.65,12.29-.93,17.26-1.18,31.84-5.78,44.56-14.06,10.8-7.03,20.26-16.66,29.77-30.3,16.98-24.35,18.81-70.24,18.38-95.43Zm-28.57,88.33c-18.02,25.84-36.85,37.16-64.99,39.08-4.21.29-8.39.62-12.43.94-28.75,2.29-55.9,4.46-93.6-9.87-16.47-6.26-28.11-19.66-34.58-39.83-5.02-15.64-4.89-29.63-4.88-29.77v-.09s0-.09,0-.09c0-.13-.14-12.96,2.4-27.32,3.18-17.95,8.96-29.91,16.72-34.6,28.26-17.06,62.4-19.39,88.98-19.51,7.36-.03,15.38.13,25.22.51,30.6,1.18,58.15,6.49,81.89,15.81,5.02,1.97,8.07,4.26,9.58,7.19,1.19,2.31,1.78,5.3,1.85,9.42.32,19.07-.61,65.84-16.15,88.13Zm-246.09,88.51c-.65-5.07-2.42-10.31-4.33-15.03-4.59-11.37-12-21.44-20.88-29.83-3.37-3.18-7.22-6.98-12.03-7.71-.74-.11-1.5-.14-2.25-.12,0,0-14.1,1.29-11.77,25.23,2.33,23.93,6.34,37.77,24.58,45.53,6.44,2.74,13.65,2.74,19.44-1.48,5.6-4.09,8.13-9.68,7.25-16.59Zm-109.3-23.58c-7.67-22.79-21.06-18.2-21.06-18.2-.69.29-1.38.62-2.01,1.03-4.08,2.63-6.05,7.68-7.82,11.96-4.67,11.29-10.3,24.44-9.83,36.69.2,5.09.72,10.59,2.2,15.48,2.02,6.66,4.14,12.41,10.93,13.84,7.01,1.48,16.46-4.05,21.21-9.19,13.47-14.55,14.05-28.82,6.38-51.61Zm0,0c-7.67-22.79-21.06-18.2-21.06-18.2-.69.29-1.38.62-2.01,1.03-4.08,2.63-6.05,7.68-7.82,11.96-4.67,11.29-10.3,24.44-9.83,36.69.2,5.09.72,10.59,2.2,15.48,2.02,6.66,4.14,12.41,10.93,13.84,7.01,1.48,16.46-4.05,21.21-9.19,13.47-14.55,14.05-28.82,6.38-51.61Zm109.3,23.58c-.65-5.07-2.42-10.31-4.33-15.03-4.59-11.37-12-21.44-20.88-29.83-3.37-3.18-7.22-6.98-12.03-7.71-.74-.11-1.5-.14-2.25-.12,0,0-14.1,1.29-11.77,25.23,2.33,23.93,6.34,37.77,24.58,45.53,6.44,2.74,13.65,2.74,19.44-1.48,5.6-4.09,8.13-9.68,7.25-16.59Zm274.65-176.85c-.1-6.09-1.13-10.82-3.22-14.89-3.91-7.59-11.05-11.09-16.08-13.06-25.03-9.82-53.95-15.43-85.94-16.66-10.03-.39-18.21-.55-25.75-.52-19,.09-34.49,1.4-48.73,4.13-17.94,3.44-33.19,9.06-46.62,17.16-11.07,6.69-18.65,21.17-22.53,43.06-2.66,15.04-2.6,28.27-2.59,29.57-.02,1.48-.02,16.31,5.36,33.3,3.31,10.44,7.98,19.56,13.88,27.11,7.52,9.61,17.01,16.64,28.22,20.9,18.37,6.98,35.4,10.78,53.58,11.95,4.29.28,8.51.39,12.66.39,11.32,0,22.17-.86,32.76-1.71,4.01-.32,8.15-.65,12.29-.93,17.26-1.18,31.84-5.78,44.56-14.06,10.8-7.03,20.26-16.66,29.77-30.3,16.98-24.35,18.81-70.24,18.38-95.43Zm-28.57,88.33c-18.02,25.84-36.85,37.16-64.99,39.08-4.21.29-8.39.62-12.43.94-28.75,2.29-55.9,4.46-93.6-9.87-16.47-6.26-28.11-19.66-34.58-39.83-5.02-15.64-4.89-29.63-4.88-29.77v-.09s0-.09,0-.09c0-.13-.14-12.96,2.4-27.32,3.18-17.95,8.96-29.91,16.72-34.6,28.26-17.06,62.4-19.39,88.98-19.51,7.36-.03,15.38.13,25.22.51,30.6,1.18,58.15,6.49,81.89,15.81,5.02,1.97,8.07,4.26,9.58,7.19,1.19,2.31,1.78,5.3,1.85,9.42.32,19.07-.61,65.84-16.15,88.13Zm28.57-88.33c-.1-6.09-1.13-10.82-3.22-14.89-3.91-7.59-11.05-11.09-16.08-13.06-25.03-9.82-53.95-15.43-85.94-16.66-10.03-.39-18.21-.55-25.75-.52-19,.09-34.49,1.4-48.73,4.13-17.94,3.44-33.19,9.06-46.62,17.16-11.07,6.69-18.65,21.17-22.53,43.06-2.66,15.04-2.6,28.27-2.59,29.57-.02,1.48-.02,16.31,5.36,33.3,3.31,10.44,7.98,19.56,13.88,27.11,7.52,9.61,17.01,16.64,28.22,20.9,18.37,6.98,35.4,10.78,53.58,11.95,4.29.28,8.51.39,12.66.39,11.32,0,22.17-.86,32.76-1.71,4.01-.32,8.15-.65,12.29-.93,17.26-1.18,31.84-5.78,44.56-14.06,10.8-7.03,20.26-16.66,29.77-30.3,16.98-24.35,18.81-70.24,18.38-95.43Zm-28.57,88.33c-18.02,25.84-36.85,37.16-64.99,39.08-4.21.29-8.39.62-12.43.94-28.75,2.29-55.9,4.46-93.6-9.87-16.47-6.26-28.11-19.66-34.58-39.83-5.02-15.64-4.89-29.63-4.88-29.77v-.09s0-.09,0-.09c0-.13-.14-12.96,2.4-27.32,3.18-17.95,8.96-29.91,16.72-34.6,28.26-17.06,62.4-19.39,88.98-19.51,7.36-.03,15.38.13,25.22.51,30.6,1.18,58.15,6.49,81.89,15.81,5.02,1.97,8.07,4.26,9.58,7.19,1.19,2.31,1.78,5.3,1.85,9.42.32,19.07-.61,65.84-16.15,88.13Zm-246.09,88.51c-.65-5.07-2.42-10.31-4.33-15.03-4.59-11.37-12-21.44-20.88-29.83-3.37-3.18-7.22-6.98-12.03-7.71-.74-.11-1.5-.14-2.25-.12,0,0-14.1,1.29-11.77,25.23,2.33,23.93,6.34,37.77,24.58,45.53,6.44,2.74,13.65,2.74,19.44-1.48,5.6-4.09,8.13-9.68,7.25-16.59Zm-109.3-23.58c-7.67-22.79-21.06-18.2-21.06-18.2-.69.29-1.38.62-2.01,1.03-4.08,2.63-6.05,7.68-7.82,11.96-4.67,11.29-10.3,24.44-9.83,36.69.2,5.09.72,10.59,2.2,15.48,2.02,6.66,4.14,12.41,10.93,13.84,7.01,1.48,16.46-4.05,21.21-9.19,13.47-14.55,14.05-28.82,6.38-51.61Zm383.95-153.27c-.1-6.09-1.13-10.82-3.22-14.89-3.91-7.59-11.05-11.09-16.08-13.06-25.03-9.82-53.95-15.43-85.94-16.66-10.03-.39-18.21-.55-25.75-.52-19,.09-34.49,1.4-48.73,4.13-17.94,3.44-33.19,9.06-46.62,17.16-11.07,6.69-18.65,21.17-22.53,43.06-2.66,15.04-2.6,28.27-2.59,29.57-.02,1.48-.02,16.31,5.36,33.3,3.31,10.44,7.98,19.56,13.88,27.11,7.52,9.61,17.01,16.64,28.22,20.9,18.37,6.98,35.4,10.78,53.58,11.95,4.29.28,8.51.39,12.66.39,11.32,0,22.17-.86,32.76-1.71,4.01-.32,8.15-.65,12.29-.93,17.26-1.18,31.84-5.78,44.56-14.06,10.8-7.03,20.26-16.66,29.77-30.3,16.98-24.35,18.81-70.24,18.38-95.43Zm-28.57,88.33c-18.02,25.84-36.85,37.16-64.99,39.08-4.21.29-8.39.62-12.43.94-28.75,2.29-55.9,4.46-93.6-9.87-16.47-6.26-28.11-19.66-34.58-39.83-5.02-15.64-4.89-29.63-4.88-29.77v-.09s0-.09,0-.09c0-.13-.14-12.96,2.4-27.32,3.18-17.95,8.96-29.91,16.72-34.6,28.26-17.06,62.4-19.39,88.98-19.51,7.36-.03,15.38.13,25.22.51,30.6,1.18,58.15,6.49,81.89,15.81,5.02,1.97,8.07,4.26,9.58,7.19,1.19,2.31,1.78,5.3,1.85,9.42.32,19.07-.61,65.84-16.15,88.13Zm28.57-88.33c-.1-6.09-1.13-10.82-3.22-14.89-3.91-7.59-11.05-11.09-16.08-13.06-25.03-9.82-53.95-15.43-85.94-16.66-10.03-.39-18.21-.55-25.75-.52-19,.09-34.49,1.4-48.73,4.13-17.94,3.44-33.19,9.06-46.62,17.16-11.07,6.69-18.65,21.17-22.53,43.06-2.66,15.04-2.6,28.27-2.59,29.57-.02,1.48-.02,16.31,5.36,33.3,3.31,10.44,7.98,19.56,13.88,27.11,7.52,9.61,17.01,16.64,28.22,20.9,18.37,6.98,35.4,10.78,53.58,11.95,4.29.28,8.51.39,12.66.39,11.32,0,22.17-.86,32.76-1.71,4.01-.32,8.15-.65,12.29-.93,17.26-1.18,31.84-5.78,44.56-14.06,10.8-7.03,20.26-16.66,29.77-30.3,16.98-24.35,18.81-70.24,18.38-95.43Zm-28.57,88.33c-18.02,25.84-36.85,37.16-64.99,39.08-4.21.29-8.39.62-12.43.94-28.75,2.29-55.9,4.46-93.6-9.87-16.47-6.26-28.11-19.66-34.58-39.83-5.02-15.64-4.89-29.63-4.88-29.77v-.09s0-.09,0-.09c0-.13-.14-12.96,2.4-27.32,3.18-17.95,8.96-29.91,16.72-34.6,28.26-17.06,62.4-19.39,88.98-19.51,7.36-.03,15.38.13,25.22.51,30.6,1.18,58.15,6.49,81.89,15.81,5.02,1.97,8.07,4.26,9.58,7.19,1.19,2.31,1.78,5.3,1.85,9.42.32,19.07-.61,65.84-16.15,88.13Z"></path>
  <path class="cls-16" d="m648.48,769.1l-9.83,18.82c-58.8-44.24-81.3-2.33-81.3-2.33-41.14-30.27-74.96,27.1-74.96,27.1l-15.2-15.59c90.82-107.89,181.3-28.01,181.3-28.01Z"></path>
  <path class="cls-21" d="m638.65,787.92c-69.47,96.63-156.27,24.77-156.27,24.77,0,0,33.83-57.37,74.96-27.1,0,0,22.51-41.91,81.3,2.33Z"></path>
  <path class="cls-10" d="m389.15,697.67c3.1,2.97,20.95,18.69,52.82,20.34,0,0-7.17,70.47,55.82,107.93,63,37.46,116.26-5.35,116.26-5.35,0,0,32.59-23.11,38.67-63.73,6.08-40.62-1.95-62.26-1.95-62.26,0,0,37.6-9.93,53.46-34.81"></path>
  <g>
    <path class="cls-13" d="m800.15,481.69c-.56-2.51-1.46-4.71-2.69-6.63-1.23-1.91-2.5-3.63-3.82-5.15-1.32-1.51-3.02-2.87-5.09-4.06-2.08-1.19-3.92-2.19-5.52-3.02-1.6-.82-3.68-1.61-6.23-2.37-2.55-.76-4.58-1.32-6.08-1.68-.02,0-.04-.01-.06-.02v-17.4c5.04,1.45,10.12,4.01,15.26,7.67l13.21-19.09c-8.72-6.73-18.21-10.96-28.46-12.67v-14.91h-8.04v14.08c-.91-.04-1.83-.06-2.75-.06-.29,0-.57,0-.86,0v-14.03h-8.04v14.6c-4.2.57-8.1,1.57-11.72,2.98-6.07,2.37-10.98,6.12-14.72,11.23-3.74,5.11-5.61,11.26-5.61,18.45,0,2.64.27,5.11.8,7.42.53,2.31,1.18,4.34,1.93,6.08.75,1.75,1.84,3.41,3.26,5,1.42,1.58,2.74,2.92,3.96,4.01,1.23,1.09,2.84,2.14,4.86,3.17s3.71,1.83,5.09,2.42c1.38.6,3.24,1.24,5.57,1.93,2.33.69,4.14,1.2,5.43,1.53.35.09.73.18,1.16.29v19.14c-8.02-1.19-15.37-4.77-22.06-10.73l-13.11,19.09c10.27,8.86,21.99,13.95,35.17,15.28v12.51h8.04v-12.16c1.22-.01,2.43-.06,3.61-.13v12.29h8.04v-13.34c6.97-1.4,13.05-4.06,18.23-7.96,8.08-6.1,12.12-14.62,12.12-25.57,0-2.97-.28-5.7-.85-8.21Zm-49.19-28.59c-.23-.13-.44-.26-.64-.39-.88-.6-1.64-1.35-2.26-2.28-.63-.92-.94-1.94-.94-3.07,0-2.51,1.27-4.37,3.82-5.59,0,0,.02,0,.02-.01v11.33Zm8.04-13.11c.58-.03,1.18-.04,1.8-.04s1.21.02,1.81.05v16.86c-1.45-.35-2.65-.64-3.61-.87v-16Zm0,61.05v-17.59c1.35.35,2.47.66,3.36.91.08.02.17.05.25.08v16.25c-1.12.17-2.33.29-3.61.35Zm11.65-3.57v-9.36c.38.32.7.66.96,1.01.79,1.06,1.18,2.27,1.18,3.66,0,1.86-.71,3.43-2.14,4.7Z"></path>
    <path class="cls-5" d="m719.29,454.87s1.58-30.14,32.37-37.04h-5.78l-11.52,4.48-10.34,9.58-3.61,7.42-2.13,10.94,1.01,4.61Z"></path>
    <path class="cls-5" d="m758.4,403.71s-4.95.45-5.29,1.12c-.34.67-.97,13.23-.97,13.23l-.99-15.69,7.26,1.33Z"></path>
    <path class="cls-5" d="m770.23,403.47s-4.95.45-5.29,1.12c-.34.67-.97,13.23-.97,13.23l-.99-15.69,7.26,1.33Z"></path>
    <path class="cls-20" d="m719.86,453.4c.27-.36,4.2,21.47,32.4,25.47l-.04,3.16-18.5-6.72-10.5-9.31-3.52-8.95.15-3.66Z"></path>
    <polygon class="cls-20" points="757.74 482.21 757.74 479.3 763.94 480.9 763.84 484.48 757.74 482.21"></polygon>
    <path class="cls-20" d="m718.29,506.05s15.01,11.55,33.91,14.04v3.36h-1.23l-13.47-2-11.97-5.43-9.73-6.07,2.49-3.89Z"></path>
    <path class="cls-20" d="m763.84,520.33v3.11h-6.08v-2.91c2,.06,4.03,0,6.08-.2Z"></path>
    <path class="cls-20" d="m799.74,496.22l-3.25,11.01-8.13,8.26-7.76,4.53-9.94,3.42h-1.21v-4c5.68.89,21.33-4.29,30.3-23.22Z"></path>
    <path class="cls-12" d="m800.15,481.69c-.56-2.51-1.46-4.71-2.69-6.63-1.23-1.91-2.5-3.63-3.82-5.15-1.32-1.51-3.02-2.87-5.09-4.06-2.08-1.19-3.92-2.19-5.52-3.02-1.6-.82-3.68-1.61-6.23-2.37-2.55-.76-4.58-1.32-6.08-1.68-.02,0-.04-.01-.06-.02v-17.4c5.04,1.45,10.12,4.01,15.26,7.67l13.21-19.09c-8.72-6.73-18.21-10.96-28.46-12.67v-14.91h-8.04v14.08c-.91-.04-1.83-.06-2.75-.06-.29,0-.57,0-.86,0v-14.03h-8.04v14.6c-4.2.57-8.1,1.57-11.72,2.98-6.07,2.37-10.98,6.12-14.72,11.23-3.74,5.11-5.61,11.26-5.61,18.45,0,2.64.27,5.11.8,7.42.53,2.31,1.18,4.34,1.93,6.08.75,1.75,1.84,3.41,3.26,5,1.42,1.58,2.74,2.92,3.96,4.01,1.23,1.09,2.84,2.14,4.86,3.17s3.71,1.83,5.09,2.42c1.38.6,3.24,1.24,5.57,1.93,2.33.69,4.14,1.2,5.43,1.53.35.09.73.18,1.16.29v19.14c-8.02-1.19-15.37-4.77-22.06-10.73l-13.11,19.09c10.27,8.86,21.99,13.95,35.17,15.28v12.51h8.04v-12.16c1.22-.01,2.43-.06,3.61-.13v12.29h8.04v-13.34c6.97-1.4,13.05-4.06,18.23-7.96,8.08-6.1,12.12-14.62,12.12-25.57,0-2.97-.28-5.7-.85-8.21Zm-49.19-28.59c-.23-.13-.44-.26-.64-.39-.88-.6-1.64-1.35-2.26-2.28-.63-.92-.94-1.94-.94-3.07,0-2.51,1.27-4.37,3.82-5.59,0,0,.02,0,.02-.01v11.33Zm8.04-13.11c.58-.03,1.18-.04,1.8-.04s1.21.02,1.81.05v16.86c-1.45-.35-2.65-.64-3.61-.87v-16Zm0,61.05v-17.59c1.35.35,2.47.66,3.36.91.08.02.17.05.25.08v16.25c-1.12.17-2.33.29-3.61.35Zm11.65-3.57v-9.36c.38.32.7.66.96,1.01.79,1.06,1.18,2.27,1.18,3.66,0,1.86-.71,3.43-2.14,4.7Z"></path>
  </g>
  <g>
    <path class="cls-1" d="m354.63,514.14c-.89-2.41-2.07-4.48-3.53-6.22-1.47-1.74-2.96-3.27-4.46-4.6-1.51-1.33-3.37-2.45-5.58-3.36-2.21-.9-4.17-1.66-5.87-2.27-1.7-.61-3.86-1.12-6.48-1.54-2.63-.42-4.71-.71-6.25-.87-.02,0-.04,0-.06,0l-2.27-17.25c5.18.78,10.56,2.65,16.13,5.61l10.6-20.66c-9.52-5.53-19.48-8.48-29.88-8.84l-1.95-14.78-7.97,1.05,1.84,13.96c-.91.08-1.82.18-2.73.3-.28.04-.57.08-.85.12l-1.83-13.91-7.97,1.05,1.91,14.48c-4.08,1.11-7.83,2.61-11.23,4.49-5.71,3.15-10.09,7.5-13.13,13.05-3.04,5.56-4.09,11.9-3.16,19.03.34,2.62.93,5.03,1.77,7.25.83,2.22,1.73,4.15,2.71,5.78.98,1.64,2.27,3.15,3.88,4.53,1.61,1.38,3.1,2.54,4.45,3.46,1.36.92,3.1,1.75,5.23,2.5,2.13.75,3.92,1.33,5.37,1.74,1.45.41,3.37.8,5.77,1.19,2.4.38,4.26.65,5.58.81.36.04.75.09,1.18.14l2.5,18.98c-8.11-.14-15.86-2.72-23.27-7.75l-10.51,20.64c11.34,7.44,23.63,10.96,36.87,10.55l1.63,12.4,7.97-1.05-1.59-12.06c1.21-.17,2.4-.37,3.56-.6l1.61,12.19,7.97-1.05-1.74-13.23c6.73-2.3,12.41-5.73,17.03-10.28,7.22-7.1,10.11-16.08,8.68-26.94-.39-2.94-1.02-5.62-1.91-8.03Zm-52.5-21.92c-.25-.1-.47-.2-.68-.3-.95-.48-1.8-1.13-2.54-1.96-.75-.83-1.19-1.8-1.34-2.92-.33-2.48.69-4.5,3.06-6.04,0,0,.01,0,.02-.01l1.48,11.23Zm6.26-14.05c.57-.1,1.16-.2,1.78-.28.6-.08,1.2-.14,1.8-.19l2.2,16.72c-1.48-.16-2.71-.29-3.69-.39l-2.09-15.87Zm7.98,60.53l-2.3-17.44c1.39.17,2.54.33,3.45.47.09.01.17.03.26.04l2.12,16.11c-1.09.32-2.27.59-3.53.82Zm11.08-5.06l-1.22-9.28c.42.27.78.56,1.08.87.92.94,1.47,2.1,1.65,3.48.24,1.85-.26,3.49-1.51,4.94Z"></path>
    <path class="cls-5" d="m270.95,498.11s-2.37-30.09,27.25-40.95l-5.73.75-10.83,5.95-9,10.85-2.61,7.83-.68,11.12,1.6,4.44Z"></path>
    <path class="cls-5" d="m303.04,442.28s-4.84,1.1-5.1,1.8c-.25.71.76,13.24.76,13.24l-3.03-15.42,7.37.37Z"></path>
    <path class="cls-5" d="m314.75,440.5s-4.84,1.1-5.1,1.8c-.25.71.76,13.24.76,13.24l-3.03-15.42,7.37.37Z"></path>
    <path class="cls-20" d="m271.33,496.58c.22-.39,6.97,20.74,35.45,21.02l.37,3.14-19.22-4.24-11.62-7.85-4.65-8.41-.33-3.65Z"></path>
    <polygon class="cls-20" points="312.65 520.2 312.27 517.31 318.62 518.09 318.99 521.65 312.65 520.2"></polygon>
    <path class="cls-20" d="m276.64,548.98s16.39,9.49,35.46,9.49l.44,3.33-1.22.16-13.62-.22-12.57-3.82-10.44-4.75,1.96-4.18Z"></path>
    <path class="cls-20" d="m323.67,557.19l.41,3.08-6.03.79-.38-2.88c1.99-.21,4-.53,6-1Z"></path>
    <path class="cls-20" d="m356.11,528.6l-1.79,11.34-6.98,9.25-7.1,5.5-9.41,4.69-1.2.16-.52-3.97c5.75.14,20.59-7.04,27.01-26.98Z"></path>
    <path class="cls-12" d="m354.63,514.14c-.89-2.41-2.07-4.48-3.53-6.22-1.47-1.74-2.96-3.27-4.46-4.6-1.51-1.33-3.37-2.45-5.58-3.36-2.21-.9-4.17-1.66-5.87-2.27-1.7-.61-3.86-1.12-6.48-1.54-2.63-.42-4.71-.71-6.25-.87-.02,0-.04,0-.06,0l-2.27-17.25c5.18.78,10.56,2.65,16.13,5.61l10.6-20.66c-9.52-5.53-19.48-8.48-29.88-8.84l-1.95-14.78-7.97,1.05,1.84,13.96c-.91.08-1.82.18-2.73.3-.28.04-.57.08-.85.12l-1.83-13.91-7.97,1.05,1.91,14.48c-4.08,1.11-7.83,2.61-11.23,4.49-5.71,3.15-10.09,7.5-13.13,13.05-3.04,5.56-4.09,11.9-3.16,19.03.34,2.62.93,5.03,1.77,7.25.83,2.22,1.73,4.15,2.71,5.78.98,1.64,2.27,3.15,3.88,4.53,1.61,1.38,3.1,2.54,4.45,3.46,1.36.92,3.1,1.75,5.23,2.5,2.13.75,3.92,1.33,5.37,1.74,1.45.41,3.37.8,5.77,1.19,2.4.38,4.26.65,5.58.81.36.04.75.09,1.18.14l2.5,18.98c-8.11-.14-15.86-2.72-23.27-7.75l-10.51,20.64c11.34,7.44,23.63,10.96,36.87,10.55l1.63,12.4,7.97-1.05-1.59-12.06c1.21-.17,2.4-.37,3.56-.6l1.61,12.19,7.97-1.05-1.74-13.23c6.73-2.3,12.41-5.73,17.03-10.28,7.22-7.1,10.11-16.08,8.68-26.94-.39-2.94-1.02-5.62-1.91-8.03Zm-52.5-21.92c-.25-.1-.47-.2-.68-.3-.95-.48-1.8-1.13-2.54-1.96-.75-.83-1.19-1.8-1.34-2.92-.33-2.48.69-4.5,3.06-6.04,0,0,.01,0,.02-.01l1.48,11.23Zm6.26-14.05c.57-.1,1.16-.2,1.78-.28.6-.08,1.2-.14,1.8-.19l2.2,16.72c-1.48-.16-2.71-.29-3.69-.39l-2.09-15.87Zm7.98,60.53l-2.3-17.44c1.39.17,2.54.33,3.45.47.09.01.17.03.26.04l2.12,16.11c-1.09.32-2.27.59-3.53.82Zm11.08-5.06l-1.22-9.28c.42.27.78.56,1.08.87.92.94,1.47,2.1,1.65,3.48.24,1.85-.26,3.49-1.51,4.94Z"></path>
    <line class="cls-11" x1="312.54" y1="561.8" x2="312.1" y2="558.47"></line>
    <line class="cls-11" x1="318.05" y1="561.07" x2="317.67" y2="558.19"></line>
    <line class="cls-11" x1="324.08" y1="560.27" x2="323.67" y2="557.19"></line>
    <line class="cls-11" x1="329.63" y1="559.54" x2="329.1" y2="555.58"></line>
  </g>
</svg><style>@media (prefers-color-scheme: light) { :root { filter: none; } }
@media (prefers-color-scheme: dark) { :root { filter: none; } }
</style></svg>