<?xml version="1.0" encoding="UTF-8"?>
<svg id="Capa_1" data-name="Capa 1" xmlns="http://www.w3.org/2000/svg" xmlns:xlink="http://www.w3.org/1999/xlink" viewBox="0 0 1080 1080">
  <defs>
    <style>
      .cls-1 {
        fill: url(#Degradado_sin_nombre_11-7);
      }

      .cls-2 {
        fill: url(#Degradado_sin_nombre_11-5);
      }

      .cls-3 {
        fill: url(#Degradado_sin_nombre_11-4);
      }

      .cls-4 {
        fill: #ff9597;
      }

      .cls-5 {
        fill: #a9e6a0;
      }

      .cls-6 {
        fill: #fff;
        opacity: .5;
      }

      .cls-7 {
        fill: url(#Degradado_sin_nombre_11);
      }

      .cls-8 {
        fill: url(#Degradado_sin_nombre_5-2);
      }

      .cls-9 {
        fill: url(#Degradado_sin_nombre_11-3);
      }

      .cls-10 {
        stroke-width: 2px;
      }

      .cls-10, .cls-11, .cls-12 {
        fill: none;
      }

      .cls-10, .cls-12 {
        stroke: #000;
        stroke-miterlimit: 10;
      }

      .cls-13 {
        fill: url(#Degradado_sin_nombre_11-6);
      }

      .cls-14 {
        fill: #fcfdef;
      }

      .cls-15 {
        fill: url(#Degradado_sin_nombre_5);
      }

      .cls-16 {
        fill: #c55569;
      }

      .cls-17 {
        fill: #d76682;
      }

      .cls-18 {
        fill: #da7386;
      }

      .cls-19 {
        fill: #fbd5c8;
      }

      .cls-20 {
        fill: #17412d;
      }

      .cls-21 {
        fill: #fd9385;
      }

      .cls-22 {
        fill: #ffebe6;
      }

      .cls-23 {
        fill: url(#Degradado_sin_nombre_11-2);
      }

      .cls-12 {
        stroke-width: .5px;
      }

      .cls-24 {
        fill: #d88da2;
      }
    </style>
    <linearGradient id="Degradado_sin_nombre_5" data-name="Degradado sin nombre 5" x1="333.63" y1="451.57" x2="431.56" y2="561.83" gradientUnits="userSpaceOnUse">
      <stop offset="0" stop-color="#c4cad6"/>
      <stop offset="1" stop-color="#302a44"/>
    </linearGradient>
    <linearGradient id="Degradado_sin_nombre_5-2" data-name="Degradado sin nombre 5" x1="123.86" y1="470.15" x2="221.92" y2="580.56" xlink:href="#Degradado_sin_nombre_5"/>
    <linearGradient id="Degradado_sin_nombre_11" data-name="Degradado sin nombre 11" x1="462.51" y1="471.31" x2="463.23" y2="540.22" gradientUnits="userSpaceOnUse">
      <stop offset="0" stop-color="#70d560"/>
      <stop offset="1" stop-color="#326d3c"/>
    </linearGradient>
    <linearGradient id="Degradado_sin_nombre_11-2" data-name="Degradado sin nombre 11" x1="378.64" y1="406.88" x2="380.45" y2="600.2" xlink:href="#Degradado_sin_nombre_11"/>
    <linearGradient id="Degradado_sin_nombre_11-3" data-name="Degradado sin nombre 11" x1="221.65" y1="412.29" x2="226" y2="622.66" xlink:href="#Degradado_sin_nombre_11"/>
    <linearGradient id="Degradado_sin_nombre_11-4" data-name="Degradado sin nombre 11" x1="157.12" y1="413.62" x2="161.47" y2="623.99" xlink:href="#Degradado_sin_nombre_11"/>
    <linearGradient id="Degradado_sin_nombre_11-5" data-name="Degradado sin nombre 11" x1="271.7" y1="469.98" x2="272.83" y2="524.59" xlink:href="#Degradado_sin_nombre_11"/>
    <linearGradient id="Degradado_sin_nombre_11-6" data-name="Degradado sin nombre 11" x1="377.72" y1="463.87" x2="378.81" y2="555.63" xlink:href="#Degradado_sin_nombre_11"/>
    <linearGradient id="Degradado_sin_nombre_11-7" data-name="Degradado sin nombre 11" x1="219.1" y1="481.25" x2="220.18" y2="573.02" gradientTransform="translate(-116.77 33.58) rotate(-7.51)" xlink:href="#Degradado_sin_nombre_11"/>
  </defs>
  <g>
    <path class="cls-19" d="m459.54,518.57l-7.71-9.26-1.54,6.36-15.96,37-6.35,5.62-49.59,6.71-39.82-2.53,1.09,15.05-7.25,15.41-11.79,10.88-38.81,10.16-29.38,1.09-16.87-2.72-18.77-13.24-6.26-11.06-.36-14.33-42.62,8.7-16.5.54-23.21.54-12.69-5.98-13.06-22.31-5.7-16.43-14.07,12.58-3.08,8.43-2.54,15.18v30.83l6.17,24.85,9.25,26.84,17.41,22.85,31.74,24.12,46.43,21.4,35.54,9.12,43.71,3.21,49.15-3.21,35.18-8.94,37.9-12.33,39.53-23.94,24.3-25.03,16.5-26.48,8.52-28.65,1.27-26.3s-.73-28.11-.73-30.83-10.06-25.75-10.06-25.75l-8.98-8.16Z"/>
    <path class="cls-19" d="m276.34,370.95l43.29,4.35,18.59,6.53,14.51-11.61,32.65-16.32s24.84-9.43,26.83-9.43,32.46-3.26,33.01-2.9c.54.36,21.58,2.54,22.12,2.9s13.96,26.11,13.96,26.11l6.53,15.78,9.07,18.5,6.32,15.96,3.84,13.06-1.45,8.7.18,5.44-4.44,19.86-8.25,13.6s-8.8,9.25-9.16,9.52-13.06,6.08-13.06,6.08c0,0-16.16-12.6-16.44-12.97s0-18.38,0-18.38l-18.53-11.24-49.33-9.55-31.07,1.57-29.14,6.89-10.76,7.62-7.25,7.74-4.23,15.48-31.21-3.39-34.23,8.83-11.46-19.1-24.91-10.28-33.98,1.33-33.24,6.05-19.83,7.13-18.14,11.6-8.95,8.84,1.81,16.56s-8.46-1.33-8.95-1.33-20.55-13.69-20.55-13.69l-13.78-20.4,1.57-22.25,9.79-40.26,8.1-24.66,24.55-8.22,24.42-4.11,31.07-.97,26.84,5.08,21.64,10.76s29.38-12.88,29.74-12.73c.36.15,51.89-8.07,51.89-8.07Z"/>
    <path class="cls-19" d="m242.95,513.69c-.56.15.52,9.6.52,9.6l24.39-7.25,36.21,3.36-.57-9.7-29.29-4.17-31.25,8.18Z"/>
    <polygon class="cls-4" points="212.89 569.53 212.04 591.76 224 607.8 254.62 614.97 288.53 613.24 315.43 605.17 330.6 595.97 338.36 583.8 338.58 562.46 335.07 556.78 324.03 537.79 313.19 526.64 290.89 516.21 267.68 514.54 238.69 526.4 226.39 539.07 216.48 552.55 212.89 569.53"/>
    <path class="cls-24" d="m83.56,555.04s-12.5,117.46,113.93,146.69c126.43,29.23,199.85-21.4,214.36-33.37,14.51-11.97,55.59-51.25,59.16-132.14l4.72,9.33,2.02,10.54,1.57,31.88-1.81,21.16-7.09,26.14-15.04,28.87-23.23,22.1-24.54,14.41-42.18,23.45-33.61,9.19-56.54,4.35-52.27-1.93-42.56-12.45-26.04-11.49-30.87-20.79-14.44-11.22-16.42-22.72-9.16-21.04-4.26-15.51-2.54-36.9,3.9-20.04,2.95-8.5"/>
    <path class="cls-24" d="m167.49,411s-44.15,47.49-49.69,62.9l-.58-12.76,7.37-30.35,8.58-11.12,9.43-7.28s11.61-1.91,12.33-2.27,12.55.87,12.55.87Z"/>
    <path class="cls-24" d="m84.42,551.31s-.45,30.65,37.54,37.9c37.99,7.25,88.54-3.28,88.54-3.28v-13.43l-43.11,11.36s-37.36-.6-38.69-.6-9.53-3.85-9.53-3.85l-14.23-19.35-8.4-22.25-9.31,7.74-2.81,5.77Z"/>
    <path class="cls-24" d="m328.88,606.98s16.41-10.61,18.32-31.74c0,0,40.96,3.66,69.25-3.48,28.29-7.13,45.64-22.66,50.36-41.68l-7.8-14.33-7.16-4.72-5.62,22.12-15.6,24.3-30.33,4.56-46.04,1.42-16.76-.27,1.9,15.05-6.08,14.42-11.06,7.89-4.44,3.17,4.08,3.26h6.98Z"/>
    <path class="cls-24" d="m477.86,364s-5.62,14.21-2.17,44.49c3.45,30.29-13.24,31.92-22.49,20.86l-6.35-17.95-13.42-17.77-14.42-10.43s-6.62-6.53-23.12.18c-16.5,6.71-16.14,18.68-20.86,19.95-4.72,1.27-43.58-22.46-43.58-22.46l-12.57-2.42s15.35,5.68,45.46,28.17c30.1,22.49,37,26.48,50.29,41.23l25.02,8.92,15.72,8.97-.93,18.38,17.49,14.02,14.87-7.74,13.78-23.09,4.78-17.43,1.68-16.78-6.13-18.07-11.58-21.94-11.49-29.08Z"/>
    <path class="cls-18" d="m55.54,424.39s-2.17,68.95,32.66,70.84l2.54,16.56-7.37-1.02-14.09-7.35-17.41-17.03-5.8-13.35,1.54-24.66,7.93-23.99"/>
    <path class="cls-14" d="m342.09,381.11s25.03-14.27,48.84-15.84c23.82-1.57,21.88-13.3,40.74-14.39,18.86-1.09,37.36-1.57,37.36-1.57l-8.83-6.77-43.07,1.52-33.94,10.93-33.86,15.96-7.25,10.16Z"/>
    <path class="cls-14" d="m422.72,356.87c.9.14,1.78.37,2.64.72,2.03.82,3.74,2.42,2.73,4.74-1.99,4.59-8.22,4.78-11.06,3.63-2.84-1.15-5.86-8.4,0-9.07,1.89-.21,3.81-.31,5.69-.02Z"/>
    <path class="cls-14" d="m61.3,408.92s6.47-12.39,10.58-14.51c4.11-2.12,10.46-5.02,25.87-5.2,15.41-.18,32.17,5.68,44.6,3.14,12.43-2.54,41.28-2.99,47.07-1.9l-17.14-9.07-23.76-4.17-14.24-1.99-39.26,2.63-25.03,8.61-4.41,4.58-4.3,17.88Z"/>
    <path class="cls-14" d="m118.66,395.13c-.93.68-1.63,1.65-1.98,3.02-.34,1.36,0,2.69,1.02,3.67,1.46,1.39,3.61,1.02,5.27.22,1.07-.52,2.07-1.21,2.93-2.03,1.25-1.18,1.39-2.74.73-4.28-.63-1.46-1.98-2.28-3.57-2.09-1.65.2-3.21.61-4.4,1.49Z"/>
    <path class="cls-14" d="m204.34,408.43s-5.24,1.89-2.38,4.51c2.86,2.62,6.77-1.61,6.89-2.94s-2.22-2.46-4.51-1.57Z"/>
    <path class="cls-14" d="m329.7,399.3s3.69,1.45,1.78,4.29c-1.9,2.84-6.35-.03-5.83-1.75.51-1.72.79-3.17,4.05-2.54Z"/>
    <path class="cls-14" d="m299.84,380.08s13.78,3.57,14.08,13.24c.3,9.67-18.07,5.08-18.07,5.08,0,0-10.46-3.32-12.33-10.94-1.87-7.62,7.8-10.76,16.32-7.37Z"/>
    <path class="cls-14" d="m245.28,380.93s-32.92,5.71-31.92,16.5c1,10.79,9.16,10.02,14.87,7.37,5.71-2.65,25.75-7.46,39.44-6.64,13.69.82,15.05-7.53,11.24-12.97-3.81-5.44-20.67-6.8-33.64-4.26Z"/>
    <path class="cls-17" d="m216.53,559.01s-11.11,44.61,43.5,39.72c54.61-4.9,78.14-16.18,75.1-37.66l3.81,7.74-2.56,20.49-21.74,17.68-41.73,7.99h-31.9l-14.63-6.61-11.79-13.17-4.1-14.23,6.04-21.94Z"/>
    <path class="cls-22" d="m212.04,568.38s22.66-45.04,58.81-48.36c36.15-3.32,59.63,30.59,66.77,48.36l-8.17-21.92-20.19-21.66-20.72-8.16-16.47-1.78-11.32,3.29-23.54,9.78-13.21,14.2-10.5,15.97-1.45,10.29Z"/>
    <path class="cls-15" d="m435.3,488.93l-.37,2.55-1.46,10.04-2.11,14.52-10.81,18.13-7.64,5.73-5.9,4.42-.43.07-6.59,1.11-4.45.75-8.85,1.48s-1.58.02-3.96.04c-7.07.06-21.19.16-21.91-.04-.68-.19-11.39-3.97-17.61-6.17-2.58-.92-4.39-1.56-4.39-1.56l-.47-.56-2.52-3.06-7.27-8.81-3.13-3.8s-1.79-9.54-2.82-15.48c-.42-2.41-.71-4.24-.71-4.59,0-1.21,3.87-17.84,4.59-18.35.73-.51,7.25-11.15,7.25-11.15l8.69-2.91,5.34-1.79,12.58-1.26,12.68-1.27,4.4-.44,2.99-.3,2.99.34,26.27,2.95,13.15,3.45.15.04,8.4,6.04.08.2,1.72,4.33,2.13,5.36Z"/>
    <path class="cls-6" d="m342.44,471.29l-19.82,37c-.42-2.41-.71-4.24-.71-4.59,0-1.21,3.87-17.84,4.59-18.35.73-.51,7.25-11.15,7.25-11.15l8.69-2.91Z"/>
    <polygon class="cls-6" points="373.02 466.96 335.84 536.38 328.56 527.57 360.35 468.24 373.02 466.96"/>
    <path class="cls-6" d="m431.45,479.24l-35.9,67.01-8.85,1.48s-1.58.02-3.96.04l40.08-74.82.15.04,8.4,6.04.08.2Z"/>
    <polygon class="cls-6" points="435.3 488.93 434.93 491.48 406.58 544.4 399.99 545.5 433.17 483.57 435.3 488.93"/>
    <path class="cls-6" d="m383.4,466.56l-40.18,75c-2.58-.92-4.39-1.56-4.39-1.56l-.47-.56,39.06-72.91,2.99-.3,2.99.34Z"/>
    <polygon class="cls-6" points="433.48 501.51 431.37 516.03 420.55 534.17 412.91 539.9 433.48 501.51"/>
    <polygon class="cls-8" points="226.39 537.79 219.13 545.55 206.8 555.58 199.46 558.1 194.66 559.74 187.31 562.26 182.36 563.95 179.96 564.78 169.63 565.34 151.43 566.34 134.99 562.46 130.53 558.33 126.52 554.63 125.32 553.51 124.06 551.45 118.78 542.81 117.96 540.44 112.98 526.09 112.18 520.84 110.81 511.8 112.02 503.61 121.93 494.64 126.95 493.28 145.98 488.14 147.46 487.74 159.3 485.66 163.9 484.86 170.52 483.69 181.9 481.7 204.87 484.24 211.09 487.94 213.49 489.36 217.96 497.5 220.01 501.24 221.31 503.61 222.21 508.31 223.25 513.69 224.21 518.69 224.63 522.32 226.39 537.79"/>
    <polygon class="cls-6" points="126.95 493.28 112.18 520.84 110.81 511.8 112.02 503.61 121.93 494.64 126.95 493.28"/>
    <polygon class="cls-6" points="159.3 485.66 124.06 551.45 118.78 542.81 117.96 540.44 145.98 488.14 147.46 487.74 159.3 485.66"/>
    <polygon class="cls-6" points="217.96 497.5 182.36 563.95 179.96 564.78 169.63 565.34 211.09 487.94 213.49 489.36 217.96 497.5"/>
    <polygon class="cls-6" points="222.21 508.31 194.66 559.74 187.31 562.26 220.01 501.24 221.31 503.61 222.21 508.31"/>
    <polygon class="cls-6" points="170.52 483.69 130.53 558.33 126.52 554.63 163.9 484.86 170.52 483.69"/>
    <polygon class="cls-6" points="224.63 522.32 206.8 555.58 199.46 558.1 223.25 513.69 224.21 518.69 224.63 522.32"/>
    <polygon class="cls-7" points="454.44 486.4 453.14 507.99 468.16 526.4 471.57 517.79 472.6 503.04 464.03 491.73 454.44 486.4"/>
    <path class="cls-23" d="m442.68,457.03l-35.58-8.2-35.52-3.13-11.23,1.78s-26.31,4.11-27.13,4.3c-.82.2-18.69,8.99-18.69,8.99l-9.31,14.63-1.81,32.68.85,14.32,16.68,10.43,10.28,16.44,6.41,12.45,26.46,2.35,41.85-1.99,24.69-4.63,10.76-16.76,6.56-14.31,3.9-20.73,2.51-23.25,1.03-16.68-12.69-8.7Zm-8.46,40.38l-2.49,16.16-7.18,16.84-6.89,7.38-13.42,7.13-15.6,2.84-20.79.08-22.37-3.41-14.63-10.28-7.5-17.77v-21.76l4.72-14.51,17.41-8.83,20.92-3.5,30.71-.24,23.82,5.4s11.61,4.15,11.61,4.51,1.69,5.68,1.69,6.78v13.17Z"/>
    <path class="cls-9" d="m224.65,541.29l-.03.27s-.23.21-.63.57l.66-.84Z"/>
    <path class="cls-3" d="m242.29,521.01l-1.27,5.63-12.15,9.25-4.21,5.39,1.04-9.54-3.49-23.44-6.4-18.52s-7.56-6.64-9.25-6.09c-1.69.55-19.4.42-20.49-.03-1.09-.45-33.37,2-33.37,2,0,0-23.99,7.14-24.5,7.28-.51.14-15.22,6.95-15.22,6.95l-2.18,10.34,2.18,15.86,7.47,19.46,3.59,8.2,11.79,8.5,6.04,1.83s8.29,3.64,9.38,3.64,26.11-1.86,26.66-1.38c.54.47,18.13-3.01,18.86-4.08.73-1.07,12.59-8.87,13.73-8.87.99,0,10.89-8.9,13.5-11.26l-7.28,9.32-4.67,22.07-15.1,2.54-33.37,7.73-22.29-.62-15.49-.66-13.64-10.14-6.79-14.29-8.59-19.67-11.73,7.12-2.1,5.25-6.24-14.42.91-11.58,13.01-13.75-2.85-16.96,6.53-7.69,19.85-8.27s15.69-5.8,16.24-5.98c.54-.18,21.21-7.47,21.21-7.47l26.48-4.68s15.76-.55,16.87,0c1.11.55,23.94,3.71,23.94,3.71l9.69,9.12,6.99,8.87,5.44,23.26,1.27,16.06Z"/>
    <polygon class="cls-2" points="239.48 488.83 268.7 481.94 304.64 485.76 304.13 509.78 274.2 505.51 240.47 514.34 239.48 488.83"/>
    <path class="cls-5" d="m238.69,491.56l.99,2.45c-.01-.27,26.46-13.89,63.09-4.82l.64-3.84-17.41-3.41-30.1,1.63-17.2,7.99Z"/>
    <path class="cls-5" d="m453.14,465.8l-.6,2.84s-5.14-3.57-10.28-6.29c-5.14-2.72-21.75-10.34-42.26-11.06,0,0-22.6-2.18-43.55-.73-20.95,1.45-34.18,10.52-34.18,10.52,0,0-13.15,9.34-15.87,18.32l5.53-16.87,16.64-9.65,26.43-6.77h36.36l25.66,3.9,35.38,13.68.74,2.1Z"/>
    <path class="cls-5" d="m88.68,493.71l1.49,3.59s5.32-5.6,8.66-8.02c3.34-2.42,8.23-5.65,15.32-8.55,0,0,18.21-7.62,31.11-10.48,12.9-2.86,24.07-5.96,42.05-6.5,17.98-.54,30.65,4.33,30.65,4.33l8.43,2.69-18.56-9.58-29.83.45-25.5,2.89-22.56,6.82-17.85,5.52-23.41,16.86Z"/>
    <path class="cls-5" d="m117.25,545.41s.45,17.32,25.75,23.67c25.3,6.35,62.92-5.17,70.5-13.24,7.57-8.07-.34-1.11-.34-1.11l-4.53,1.57-14.82,4.52-24.95,5.51-22.85,1.08-18.5-8.83-10.25-13.18Z"/>
    <path class="cls-5" d="m323.35,525.89s2.6,12.27,14.27,18.8c8.69,4.86,26.11,9.02,46.59,6.9,6.73-.7,13.73-.79,20.51-2.67,26.6-7.37,27.01-35.34,27.01-35.34l-14.68,24.7-19.71,8.83-26.36,1.93-20.19-3.54-15.84-5.6-11.61-14.01Z"/>
    <path class="cls-20" d="m326.8,478.86c3.87-12.33,32.65-16.09,32.65-16.09,17.31-2.13,43.1.08,55.73,2.8,12.63,2.72,19.8,8.31,19.8,8.31,3.32,2.9,1.54,13.42,1.54,13.42l-5.89-10.34s-21.67-6.44-22.03-6.8-22.67-2.18-24.03-2.18-22.67-.42-22.67-.42l-25.93,6.14-9.16,5.17Z"/>
    <path class="cls-20" d="m218.69,491.57s-4.24-11.51-11.77-12.34c-7.53-.83-18.04-1.83-26.11-1.19-8.07.63-22.31.73-37.45,5.17-15.14,4.44-29.47,10.28-33.91,14.93-4.44,4.65.54,22.45.54,22.45l3.08-19.97,19.68-9.43,40.17-7.49s27.38.06,28.02.06,17.75,7.82,17.75,7.82Z"/>
    <path class="cls-20" d="m242.53,508.29s30.04-13.36,60.33-3.4v3.2l-12.03-1.48-35,2.18-13.3,3.02v-3.51Z"/>
    <path d="m437.15,484.79c-.05-2.85-.53-5.06-1.51-6.96-1.83-3.55-5.16-5.18-7.51-6.1-11.7-4.59-25.21-7.21-40.16-7.78-4.69-.18-8.51-.26-12.03-.24-8.88.04-16.12.65-22.77,1.93-8.38,1.61-15.51,4.23-21.78,8.02-5.17,3.12-8.72,9.89-10.53,20.12-1.24,7.03-1.22,13.21-1.21,13.82,0,.69-.01,7.62,2.5,15.56,1.55,4.88,3.73,9.14,6.49,12.67,3.51,4.49,7.95,7.78,13.19,9.77,8.59,3.26,16.54,5.04,25.04,5.59,2.01.13,3.98.18,5.92.18,5.29,0,10.36-.4,15.31-.8,1.87-.15,3.81-.3,5.74-.44,8.07-.55,14.88-2.7,20.82-6.57,5.05-3.29,9.47-7.78,13.91-14.16,7.94-11.38,8.79-32.82,8.59-44.6Zm-13.35,41.28c-8.42,12.07-17.22,17.36-30.37,18.26-1.97.13-3.92.29-5.81.44-13.43,1.07-26.12,2.08-43.74-4.61-7.7-2.93-13.14-9.19-16.16-18.61-2.35-7.31-2.28-13.85-2.28-13.91v-.04s0-.04,0-.04c0-.06-.07-6.06,1.12-12.77,1.49-8.39,4.19-13.98,7.81-16.17,13.21-7.97,29.16-9.06,41.58-9.12,3.44-.01,7.19.06,11.79.24,14.3.55,27.18,3.03,38.27,7.39,2.35.92,3.77,1.99,4.48,3.36.56,1.08.83,2.48.86,4.4.15,8.91-.29,30.77-7.55,41.18Zm13.35-41.28c-.05-2.85-.53-5.06-1.51-6.96-1.83-3.55-5.16-5.18-7.51-6.1-11.7-4.59-25.21-7.21-40.16-7.78-4.69-.18-8.51-.26-12.03-.24-8.88.04-16.12.65-22.77,1.93-8.38,1.61-15.51,4.23-21.78,8.02-5.17,3.12-8.72,9.89-10.53,20.12-1.24,7.03-1.22,13.21-1.21,13.82,0,.69-.01,7.62,2.5,15.56,1.55,4.88,3.73,9.14,6.49,12.67,3.51,4.49,7.95,7.78,13.19,9.77,8.59,3.26,16.54,5.04,25.04,5.59,2.01.13,3.98.18,5.92.18,5.29,0,10.36-.4,15.31-.8,1.87-.15,3.81-.3,5.74-.44,8.07-.55,14.88-2.7,20.82-6.57,5.05-3.29,9.47-7.78,13.91-14.16,7.94-11.38,8.79-32.82,8.59-44.6Zm-13.35,41.28c-8.42,12.07-17.22,17.36-30.37,18.26-1.97.13-3.92.29-5.81.44-13.43,1.07-26.12,2.08-43.74-4.61-7.7-2.93-13.14-9.19-16.16-18.61-2.35-7.31-2.28-13.85-2.28-13.91v-.04s0-.04,0-.04c0-.06-.07-6.06,1.12-12.77,1.49-8.39,4.19-13.98,7.81-16.17,13.21-7.97,29.16-9.06,41.58-9.12,3.44-.01,7.19.06,11.79.24,14.3.55,27.18,3.03,38.27,7.39,2.35.92,3.77,1.99,4.48,3.36.56,1.08.83,2.48.86,4.4.15,8.91-.29,30.77-7.55,41.18Zm-166.08,30.34c-3.58-10.65-9.84-8.51-9.84-8.51-.32.13-.64.29-.94.48-1.91,1.23-2.83,3.59-3.65,5.59-2.18,5.28-4.81,11.42-4.6,17.14.09,2.38.34,4.95,1.03,7.24.94,3.11,1.94,5.8,5.11,6.47,3.28.69,7.69-1.89,9.91-4.29,6.29-6.8,6.57-13.47,2.98-24.12Zm51.08,11.02c-.3-2.37-1.13-4.82-2.02-7.02-2.14-5.31-5.61-10.02-9.76-13.94-1.57-1.49-3.38-3.26-5.62-3.6-.35-.05-.7-.06-1.05-.05,0,0-6.59.6-5.5,11.79,1.09,11.18,2.96,17.65,11.49,21.28,3.01,1.28,6.38,1.28,9.08-.69,2.62-1.91,3.8-4.52,3.39-7.75Zm128.35-82.64c-.05-2.85-.53-5.06-1.51-6.96-1.83-3.55-5.16-5.18-7.51-6.1-11.7-4.59-25.21-7.21-40.16-7.78-4.69-.18-8.51-.26-12.03-.24-8.88.04-16.12.65-22.77,1.93-8.38,1.61-15.51,4.23-21.78,8.02-5.17,3.12-8.72,9.89-10.53,20.12-1.24,7.03-1.22,13.21-1.21,13.82,0,.69-.01,7.62,2.5,15.56,1.55,4.88,3.73,9.14,6.49,12.67,3.51,4.49,7.95,7.78,13.19,9.77,8.59,3.26,16.54,5.04,25.04,5.59,2.01.13,3.98.18,5.92.18,5.29,0,10.36-.4,15.31-.8,1.87-.15,3.81-.3,5.74-.44,8.07-.55,14.88-2.7,20.82-6.57,5.05-3.29,9.47-7.78,13.91-14.16,7.94-11.38,8.79-32.82,8.59-44.6Zm-13.35,41.28c-8.42,12.07-17.22,17.36-30.37,18.26-1.97.13-3.92.29-5.81.44-13.43,1.07-26.12,2.08-43.74-4.61-7.7-2.93-13.14-9.19-16.16-18.61-2.35-7.31-2.28-13.85-2.28-13.91v-.04s0-.04,0-.04c0-.06-.07-6.06,1.12-12.77,1.49-8.39,4.19-13.98,7.81-16.17,13.21-7.97,29.16-9.06,41.58-9.12,3.44-.01,7.19.06,11.79.24,14.3.55,27.18,3.03,38.27,7.39,2.35.92,3.77,1.99,4.48,3.36.56,1.08.83,2.48.86,4.4.15,8.91-.29,30.77-7.55,41.18Zm13.35-41.28c-.05-2.85-.53-5.06-1.51-6.96-1.83-3.55-5.16-5.18-7.51-6.1-11.7-4.59-25.21-7.21-40.16-7.78-4.69-.18-8.51-.26-12.03-.24-8.88.04-16.12.65-22.77,1.93-8.38,1.61-15.51,4.23-21.78,8.02-5.17,3.12-8.72,9.89-10.53,20.12-1.24,7.03-1.22,13.21-1.21,13.82,0,.69-.01,7.62,2.5,15.56,1.55,4.88,3.73,9.14,6.49,12.67,3.51,4.49,7.95,7.78,13.19,9.77,8.59,3.26,16.54,5.04,25.04,5.59,2.01.13,3.98.18,5.92.18,5.29,0,10.36-.4,15.31-.8,1.87-.15,3.81-.3,5.74-.44,8.07-.55,14.88-2.7,20.82-6.57,5.05-3.29,9.47-7.78,13.91-14.16,7.94-11.38,8.79-32.82,8.59-44.6Zm-13.35,41.28c-8.42,12.07-17.22,17.36-30.37,18.26-1.97.13-3.92.29-5.81.44-13.43,1.07-26.12,2.08-43.74-4.61-7.7-2.93-13.14-9.19-16.16-18.61-2.35-7.31-2.28-13.85-2.28-13.91v-.04s0-.04,0-.04c0-.06-.07-6.06,1.12-12.77,1.49-8.39,4.19-13.98,7.81-16.17,13.21-7.97,29.16-9.06,41.58-9.12,3.44-.01,7.19.06,11.79.24,14.3.55,27.18,3.03,38.27,7.39,2.35.92,3.77,1.99,4.48,3.36.56,1.08.83,2.48.86,4.4.15,8.91-.29,30.77-7.55,41.18Zm-115,41.36c-.3-2.37-1.13-4.82-2.02-7.02-2.14-5.31-5.61-10.02-9.76-13.94-1.57-1.49-3.38-3.26-5.62-3.6-.35-.05-.7-.06-1.05-.05,0,0-6.59.6-5.5,11.79,1.09,11.18,2.96,17.65,11.49,21.28,3.01,1.28,6.38,1.28,9.08-.69,2.62-1.91,3.8-4.52,3.39-7.75Zm-51.08-11.02c-3.58-10.65-9.84-8.51-9.84-8.51-.32.13-.64.29-.94.48-1.91,1.23-2.83,3.59-3.65,5.59-2.18,5.28-4.81,11.42-4.6,17.14.09,2.38.34,4.95,1.03,7.24.94,3.11,1.94,5.8,5.11,6.47,3.28.69,7.69-1.89,9.91-4.29,6.29-6.8,6.57-13.47,2.98-24.12Zm0,0c-3.58-10.65-9.84-8.51-9.84-8.51-.32.13-.64.29-.94.48-1.91,1.23-2.83,3.59-3.65,5.59-2.18,5.28-4.81,11.42-4.6,17.14.09,2.38.34,4.95,1.03,7.24.94,3.11,1.94,5.8,5.11,6.47,3.28.69,7.69-1.89,9.91-4.29,6.29-6.8,6.57-13.47,2.98-24.12Zm51.08,11.02c-.3-2.37-1.13-4.82-2.02-7.02-2.14-5.31-5.61-10.02-9.76-13.94-1.57-1.49-3.38-3.26-5.62-3.6-.35-.05-.7-.06-1.05-.05,0,0-6.59.6-5.5,11.79,1.09,11.18,2.96,17.65,11.49,21.28,3.01,1.28,6.38,1.28,9.08-.69,2.62-1.91,3.8-4.52,3.39-7.75Zm128.35-82.64c-.05-2.85-.53-5.06-1.51-6.96-1.83-3.55-5.16-5.18-7.51-6.1-11.7-4.59-25.21-7.21-40.16-7.78-4.69-.18-8.51-.26-12.03-.24-8.88.04-16.12.65-22.77,1.93-8.38,1.61-15.51,4.23-21.78,8.02-5.17,3.12-8.72,9.89-10.53,20.12-1.24,7.03-1.22,13.21-1.21,13.82,0,.69-.01,7.62,2.5,15.56,1.55,4.88,3.73,9.14,6.49,12.67,3.51,4.49,7.95,7.78,13.19,9.77,8.59,3.26,16.54,5.04,25.04,5.59,2.01.13,3.98.18,5.92.18,5.29,0,10.36-.4,15.31-.8,1.87-.15,3.81-.3,5.74-.44,8.07-.55,14.88-2.7,20.82-6.57,5.05-3.29,9.47-7.78,13.91-14.16,7.94-11.38,8.79-32.82,8.59-44.6Zm-13.35,41.28c-8.42,12.07-17.22,17.36-30.37,18.26-1.97.13-3.92.29-5.81.44-13.43,1.07-26.12,2.08-43.74-4.61-7.7-2.93-13.14-9.19-16.16-18.61-2.35-7.31-2.28-13.85-2.28-13.91v-.04s0-.04,0-.04c0-.06-.07-6.06,1.12-12.77,1.49-8.39,4.19-13.98,7.81-16.17,13.21-7.97,29.16-9.06,41.58-9.12,3.44-.01,7.19.06,11.79.24,14.3.55,27.18,3.03,38.27,7.39,2.35.92,3.77,1.99,4.48,3.36.56,1.08.83,2.48.86,4.4.15,8.91-.29,30.77-7.55,41.18Zm13.35-41.28c-.05-2.85-.53-5.06-1.51-6.96-1.83-3.55-5.16-5.18-7.51-6.1-11.7-4.59-25.21-7.21-40.16-7.78-4.69-.18-8.51-.26-12.03-.24-8.88.04-16.12.65-22.77,1.93-8.38,1.61-15.51,4.23-21.78,8.02-5.17,3.12-8.72,9.89-10.53,20.12-1.24,7.03-1.22,13.21-1.21,13.82,0,.69-.01,7.62,2.5,15.56,1.55,4.88,3.73,9.14,6.49,12.67,3.51,4.49,7.95,7.78,13.19,9.77,8.59,3.26,16.54,5.04,25.04,5.59,2.01.13,3.98.18,5.92.18,5.29,0,10.36-.4,15.31-.8,1.87-.15,3.81-.3,5.74-.44,8.07-.55,14.88-2.7,20.82-6.57,5.05-3.29,9.47-7.78,13.91-14.16,7.94-11.38,8.79-32.82,8.59-44.6Zm-13.35,41.28c-8.42,12.07-17.22,17.36-30.37,18.26-1.97.13-3.92.29-5.81.44-13.43,1.07-26.12,2.08-43.74-4.61-7.7-2.93-13.14-9.19-16.16-18.61-2.35-7.31-2.28-13.85-2.28-13.91v-.04s0-.04,0-.04c0-.06-.07-6.06,1.12-12.77,1.49-8.39,4.19-13.98,7.81-16.17,13.21-7.97,29.16-9.06,41.58-9.12,3.44-.01,7.19.06,11.79.24,14.3.55,27.18,3.03,38.27,7.39,2.35.92,3.77,1.99,4.48,3.36.56,1.08.83,2.48.86,4.4.15,8.91-.29,30.77-7.55,41.18Zm-115,41.36c-.3-2.37-1.13-4.82-2.02-7.02-2.14-5.31-5.61-10.02-9.76-13.94-1.57-1.49-3.38-3.26-5.62-3.6-.35-.05-.7-.06-1.05-.05,0,0-6.59.6-5.5,11.79,1.09,11.18,2.96,17.65,11.49,21.28,3.01,1.28,6.38,1.28,9.08-.69,2.62-1.91,3.8-4.52,3.39-7.75Zm-51.08-11.02c-3.58-10.65-9.84-8.51-9.84-8.51-.32.13-.64.29-.94.48-1.91,1.23-2.83,3.59-3.65,5.59-2.18,5.28-4.81,11.42-4.6,17.14.09,2.38.34,4.95,1.03,7.24.94,3.11,1.94,5.8,5.11,6.47,3.28.69,7.69-1.89,9.91-4.29,6.29-6.8,6.57-13.47,2.98-24.12Zm0,0c-3.58-10.65-9.84-8.51-9.84-8.51-.32.13-.64.29-.94.48-1.91,1.23-2.83,3.59-3.65,5.59-2.18,5.28-4.81,11.42-4.6,17.14.09,2.38.34,4.95,1.03,7.24.94,3.11,1.94,5.8,5.11,6.47,3.28.69,7.69-1.89,9.91-4.29,6.29-6.8,6.57-13.47,2.98-24.12Zm51.08,11.02c-.3-2.37-1.13-4.82-2.02-7.02-2.14-5.31-5.61-10.02-9.76-13.94-1.57-1.49-3.38-3.26-5.62-3.6-.35-.05-.7-.06-1.05-.05,0,0-6.59.6-5.5,11.79,1.09,11.18,2.96,17.65,11.49,21.28,3.01,1.28,6.38,1.28,9.08-.69,2.62-1.91,3.8-4.52,3.39-7.75Zm128.35-82.64c-.05-2.85-.53-5.06-1.51-6.96-1.83-3.55-5.16-5.18-7.51-6.1-11.7-4.59-25.21-7.21-40.16-7.78-4.69-.18-8.51-.26-12.03-.24-8.88.04-16.12.65-22.77,1.93-8.38,1.61-15.51,4.23-21.78,8.02-5.17,3.12-8.72,9.89-10.53,20.12-1.24,7.03-1.22,13.21-1.21,13.82,0,.69-.01,7.62,2.5,15.56,1.55,4.88,3.73,9.14,6.49,12.67,3.51,4.49,7.95,7.78,13.19,9.77,8.59,3.26,16.54,5.04,25.04,5.59,2.01.13,3.98.18,5.92.18,5.29,0,10.36-.4,15.31-.8,1.87-.15,3.81-.3,5.74-.44,8.07-.55,14.88-2.7,20.82-6.57,5.05-3.29,9.47-7.78,13.91-14.16,7.94-11.38,8.79-32.82,8.59-44.6Zm-13.35,41.28c-8.42,12.07-17.22,17.36-30.37,18.26-1.97.13-3.92.29-5.81.44-13.43,1.07-26.12,2.08-43.74-4.61-7.7-2.93-13.14-9.19-16.16-18.61-2.35-7.31-2.28-13.85-2.28-13.91v-.04s0-.04,0-.04c0-.06-.07-6.06,1.12-12.77,1.49-8.39,4.19-13.98,7.81-16.17,13.21-7.97,29.16-9.06,41.58-9.12,3.44-.01,7.19.06,11.79.24,14.3.55,27.18,3.03,38.27,7.39,2.35.92,3.77,1.99,4.48,3.36.56,1.08.83,2.48.86,4.4.15,8.91-.29,30.77-7.55,41.18Zm13.35-41.28c-.05-2.85-.53-5.06-1.51-6.96-1.83-3.55-5.16-5.18-7.51-6.1-11.7-4.59-25.21-7.21-40.16-7.78-4.69-.18-8.51-.26-12.03-.24-8.88.04-16.12.65-22.77,1.93-8.38,1.61-15.51,4.23-21.78,8.02-5.17,3.12-8.72,9.89-10.53,20.12-1.24,7.03-1.22,13.21-1.21,13.82,0,.69-.01,7.62,2.5,15.56,1.55,4.88,3.73,9.14,6.49,12.67,3.51,4.49,7.95,7.78,13.19,9.77,8.59,3.26,16.54,5.04,25.04,5.59,2.01.13,3.98.18,5.92.18,5.29,0,10.36-.4,15.31-.8,1.87-.15,3.81-.3,5.74-.44,8.07-.55,14.88-2.7,20.82-6.57,5.05-3.29,9.47-7.78,13.91-14.16,7.94-11.38,8.79-32.82,8.59-44.6Zm-13.35,41.28c-8.42,12.07-17.22,17.36-30.37,18.26-1.97.13-3.92.29-5.81.44-13.43,1.07-26.12,2.08-43.74-4.61-7.7-2.93-13.14-9.19-16.16-18.61-2.35-7.31-2.28-13.85-2.28-13.91v-.04s0-.04,0-.04c0-.06-.07-6.06,1.12-12.77,1.49-8.39,4.19-13.98,7.81-16.17,13.21-7.97,29.16-9.06,41.58-9.12,3.44-.01,7.19.06,11.79.24,14.3.55,27.18,3.03,38.27,7.39,2.35.92,3.77,1.99,4.48,3.36.56,1.08.83,2.48.86,4.4.15,8.91-.29,30.77-7.55,41.18Zm-115,41.36c-.3-2.37-1.13-4.82-2.02-7.02-2.14-5.31-5.61-10.02-9.76-13.94-1.57-1.49-3.38-3.26-5.62-3.6-.35-.05-.7-.06-1.05-.05,0,0-6.59.6-5.5,11.79,1.09,11.18,2.96,17.65,11.49,21.28,3.01,1.28,6.38,1.28,9.08-.69,2.62-1.91,3.8-4.52,3.39-7.75Zm-51.08-11.02c-3.58-10.65-9.84-8.51-9.84-8.51-.32.13-.64.29-.94.48-1.91,1.23-2.83,3.59-3.65,5.59-2.18,5.28-4.81,11.42-4.6,17.14.09,2.38.34,4.95,1.03,7.24.94,3.11,1.94,5.8,5.11,6.47,3.28.69,7.69-1.89,9.91-4.29,6.29-6.8,6.57-13.47,2.98-24.12Zm0,0c-3.58-10.65-9.84-8.51-9.84-8.51-.32.13-.64.29-.94.48-1.91,1.23-2.83,3.59-3.65,5.59-2.18,5.28-4.81,11.42-4.6,17.14.09,2.38.34,4.95,1.03,7.24.94,3.11,1.94,5.8,5.11,6.47,3.28.69,7.69-1.89,9.91-4.29,6.29-6.8,6.57-13.47,2.98-24.12Zm51.08,11.02c-.3-2.37-1.13-4.82-2.02-7.02-2.14-5.31-5.61-10.02-9.76-13.94-1.57-1.49-3.38-3.26-5.62-3.6-.35-.05-.7-.06-1.05-.05,0,0-6.59.6-5.5,11.79,1.09,11.18,2.96,17.65,11.49,21.28,3.01,1.28,6.38,1.28,9.08-.69,2.62-1.91,3.8-4.52,3.39-7.75Zm128.35-82.64c-.05-2.85-.53-5.06-1.51-6.96-1.83-3.55-5.16-5.18-7.51-6.1-11.7-4.59-25.21-7.21-40.16-7.78-4.69-.18-8.51-.26-12.03-.24-8.88.04-16.12.65-22.77,1.93-8.38,1.61-15.51,4.23-21.78,8.02-5.17,3.12-8.72,9.89-10.53,20.12-1.24,7.03-1.22,13.21-1.21,13.82,0,.69-.01,7.62,2.5,15.56,1.55,4.88,3.73,9.14,6.49,12.67,3.51,4.49,7.95,7.78,13.19,9.77,8.59,3.26,16.54,5.04,25.04,5.59,2.01.13,3.98.18,5.92.18,5.29,0,10.36-.4,15.31-.8,1.87-.15,3.81-.3,5.74-.44,8.07-.55,14.88-2.7,20.82-6.57,5.05-3.29,9.47-7.78,13.91-14.16,7.94-11.38,8.79-32.82,8.59-44.6Zm-13.35,41.28c-8.42,12.07-17.22,17.36-30.37,18.26-1.97.13-3.92.29-5.81.44-13.43,1.07-26.12,2.08-43.74-4.61-7.7-2.93-13.14-9.19-16.16-18.61-2.35-7.31-2.28-13.85-2.28-13.91v-.04s0-.04,0-.04c0-.06-.07-6.06,1.12-12.77,1.49-8.39,4.19-13.98,7.81-16.17,13.21-7.97,29.16-9.06,41.58-9.12,3.44-.01,7.19.06,11.79.24,14.3.55,27.18,3.03,38.27,7.39,2.35.92,3.77,1.99,4.48,3.36.56,1.08.83,2.48.86,4.4.15,8.91-.29,30.77-7.55,41.18Zm13.35-41.28c-.05-2.85-.53-5.06-1.51-6.96-1.83-3.55-5.16-5.18-7.51-6.1-11.7-4.59-25.21-7.21-40.16-7.78-4.69-.18-8.51-.26-12.03-.24-8.88.04-16.12.65-22.77,1.93-8.38,1.61-15.51,4.23-21.78,8.02-5.17,3.12-8.72,9.89-10.53,20.12-1.24,7.03-1.22,13.21-1.21,13.82,0,.69-.01,7.62,2.5,15.56,1.55,4.88,3.73,9.14,6.49,12.67,3.51,4.49,7.95,7.78,13.19,9.77,8.59,3.26,16.54,5.04,25.04,5.59,2.01.13,3.98.18,5.92.18,5.29,0,10.36-.4,15.31-.8,1.87-.15,3.81-.3,5.74-.44,8.07-.55,14.88-2.7,20.82-6.57,5.05-3.29,9.47-7.78,13.91-14.16,7.94-11.38,8.79-32.82,8.59-44.6Zm-13.35,41.28c-8.42,12.07-17.22,17.36-30.37,18.26-1.97.13-3.92.29-5.81.44-13.43,1.07-26.12,2.08-43.74-4.61-7.7-2.93-13.14-9.19-16.16-18.61-2.35-7.31-2.28-13.85-2.28-13.91v-.04s0-.04,0-.04c0-.06-.07-6.06,1.12-12.77,1.49-8.39,4.19-13.98,7.81-16.17,13.21-7.97,29.16-9.06,41.58-9.12,3.44-.01,7.19.06,11.79.24,14.3.55,27.18,3.03,38.27,7.39,2.35.92,3.77,1.99,4.48,3.36.56,1.08.83,2.48.86,4.4.15,8.91-.29,30.77-7.55,41.18Zm-115,41.36c-.3-2.37-1.13-4.82-2.02-7.02-2.14-5.31-5.61-10.02-9.76-13.94-1.57-1.49-3.38-3.26-5.62-3.6-.35-.05-.7-.06-1.05-.05,0,0-6.59.6-5.5,11.79,1.09,11.18,2.96,17.65,11.49,21.28,3.01,1.28,6.38,1.28,9.08-.69,2.62-1.91,3.8-4.52,3.39-7.75Zm-60.92-19.52c-.32.13-.64.29-.94.48-1.91,1.23-2.83,3.59-3.65,5.59-2.18,5.28-4.81,11.42-4.6,17.14.09,2.38.34,4.95,1.03,7.24.94,3.11,1.94,5.8,5.11,6.47,3.28.69,7.69-1.89,9.91-4.29,6.29-6.8,6.57-13.47,2.98-24.12-3.58-10.65-9.84-8.51-9.84-8.51Zm259.81-122.71c-3.89-12.48-10.13-24.04-16.24-35.52-5.34-10.31-9.67-21.05-13.57-32-.47-1.26-1.01-2.78-1.52-4.02l-.34-.82c-.11-.27-.24-.56-.36-.84l-.38-.85-.13-.3-.07-.15s-.04-.11-.07-.16l-.13-.33c-.55-1.41-.94-2.69-1.8-4.03-.47-.76-1.05-1.44-1.69-2.06-.04-.04-.08-.07-.12-.1l-.23-.2c-.16-.13-.32-.27-.48-.39l-.49-.34-.25-.17c-.08-.06-.16-.11-.25-.16l-.49-.28-.25-.14c-.08-.05-.17-.09-.25-.13-.32-.15-.65-.31-.98-.46l-.96-.37c-.08-.03-.16-.06-.24-.09l-.24-.07-.47-.15-.47-.15c-.16-.05-.31-.08-.47-.12l-.93-.23c-.31-.07-.61-.13-.91-.19l-.46-.09c-.15-.03-.3-.06-.45-.08l-.9-.14c-.85-.14-1.81-.25-2.66-.34l-1.75-.16c-9.1-.66-18.22-.25-27.28.21l-3.37.2-.84.05-.42.03s-.42.03-.43.03c-30.41,2.24-58.86,16.21-82.82,34.46-1.24.96-2.49,1.96-3.71,2.97-10.12-3.65-20.6-6.39-31.22-8.1-35.58-5.71-72.71-.08-105.42,14.87-2.19,1.02-4.37,2.08-6.5,3.23-.57-.38-1.15-.75-1.73-1.11-15.35-9.41-33.34-14.28-51.29-14.73-1.2-.02-2.57-.02-3.77-.02-2.19.04-4.71.15-6.9.26-3.99.19-8.59.47-12.57.8-6.89.55-14.17,1.33-20.98,2.53-11.64,1.92-23.27,5.56-33.58,11.45-.26.54-.74,1.54-.98,2.06-4.02,8.83-7.22,18.03-10.02,27.31-3.87,13.03-6.74,26.37-8.6,39.83-.56,4.15-1.05,8.48-1.43,12.65-.11,1.41.05,2.8.25,4.18.4,2.53,1.18,5.01,2.13,7.38l.22.53.23.53.24.52c.33.76.91,1.85,1.27,2.57.64,1.16,1.3,2.3,2.02,3.43,4.24,6.56,9.73,12.16,15.73,17.11,3.41,2.83,7.11,5.45,10.8,7.9l.27.11.17.07.14.06.26.1c.33.13.66.24.99.36,1.41.47,2.86.86,4.31,1.16-1.13,1.03-2.2,2.12-3.2,3.28-2.2,2.56-4.06,5.49-5.04,8.75-.71,2.34-.79,4.94-.52,7.29.79,6.36,3.48,12.18,6.71,17.59,0,0,.04.06.06.1-.74,2.74-2.1,8.23-3.32,15.39-1.6,9.44-3.22,23.67-1.81,37.86,1.81,18.3,6.09,34.19,13.07,48.58,9.82,20.24,24.91,36.84,44.85,49.34,55.97,35.08,101.06,38.03,126.59,38.03,2.83,0,5.43-.04,7.76-.07,1.25-.02,2.42-.03,3.53-.04,1,.03,11.57.32,26.41-.7,14.11-.98,34.83-3.39,53.34-9.35,18.22-5.87,37.63-12.68,56.11-22.7,21.51-11.67,38.11-25.7,50.76-42.9,6.77-9.21,11.99-18.45,15.96-28.27,3.54-8.76,5.97-17.73,7.44-27.43,2.61-17.25,1.71-33.82.37-52.14-.49-6.73-2.27-13.64-5.28-20.56-1.29-2.96-2.81-5.92-4.54-8.87,2.17-2.7,3.71-6.32,4.49-10.58.78-4.25.8-9.12.07-13.73-.19-1.2-.65-2.47-1.36-3.82,7.42-2.52,13.76-6.77,18.88-12.67,4.73-5.44,8.41-12.27,10.93-20.3,3.36-10.67,3.78-20.49,3.8-24.4.08-.1.15-.2.22-.3.79-1.06,1.31-2.48,1.48-3.78.61-4.36-.76-9-2.01-12.95Zm-428.62,81.31c-3.86-2.59-7.68-5.38-11.18-8.43-4.92-4.25-9.49-9.11-12.94-14.61-.24-.39-.53-.89-.76-1.26l-.48-.85-.24-.43c-.15-.29-.5-.99-.66-1.3l-.41-.88-.2-.44c-.42-.98-.86-2.09-1.18-3.11-.58-1.84-1.01-3.75-1.05-5.68,0-.06,0-.13,0-.17,0-.05,0-.11,0-.13l.19-1.96c.17-1.93.47-4.31.68-6.24,1.03-8.29,2.44-16.54,4.26-24.69,1.57-7.11,3.48-14.23,5.65-21.18,2.49-7.86,5.28-15.66,8.7-23.17,4.37-2.31,8.89-4.26,13.59-5.77,12.86-4.09,26.65-5.52,40.09-6.46,2.59-.16,5.59-.36,8.24-.47,2.29-.11,4.83-.24,7.12-.25h1s1,.01,1,.01h.5s.25,0,.25,0h.25s2.01.08,2.01.08c.33.01.67.02,1,.04,1.86.11,4.16.3,6,.5l1,.13.99.13c.33.04.66.08.99.13,12.23,1.81,24.25,5.81,34.86,12.19-7.91,5.07-15.57,10.52-22.94,16.35-1.58-.67-6.39-2.44-12.55-2.15-6.82.31-16.65,3.25-24.72,15.52-3.4,5.16-6.33,11.22-8.7,18-1.88,5.38-3.43,11.24-4.58,17.4-1.42,7.56-1.91,13.66-2.08,16.6-1.41.6-2.8,1.21-4.17,1.84-8.51,3.9-16.21,9.43-22.28,15.98-1.2,1.3-1.7,3.1-1.32,4.83l2.56,11.76c-2.91-.23-5.8-.83-8.53-1.86Zm222.16-13.55c.04,2.38.15,7.43.27,12.68-6.51-2.02-13.37-3.14-20.47-3.34-6.84-.19-13.91.47-21,1.97-7.22,1.52-12.97,3.59-16.49,5.04-.17-1.83-.37-3.84-.61-6.04-.44-4.13-1.13-7.88-1.91-11.2,2.99-1.37,9.15-3.91,17.37-5.72,10.4-2.3,26.13-3.82,43.01,1.51-.14,1.7-.2,3.37-.17,5.09Zm.42,18.83c.05,2.08.1,4.03.14,5.68-.57-.26-1.15-.52-1.72-.76-7.98-3.38-16.34-5.01-24.84-4.84-10.48.21-21.06,3.25-30.84,8.73-.07-1.39-.17-3.11-.32-5.19,2.87-1.27,9.14-3.78,17.35-5.5,9.97-2.09,24.89-3.39,40.24,1.88Zm-26.31,5.88c.38,0,.75-.01,1.12-.01,18.04,0,31.45,8.81,39.59,16.28,9.86,9.06,17.34,21.4,19.52,32.18,3.57,17.72-5.32,25.48-10.1,29.65-.6.52-1.11.97-1.57,1.41-1.72,1.64-9.17,6.2-21.23,9.82-8.68,2.6-21.9,5.34-39.03,5.34-4.2,0-8.65-.17-13.31-.54-10-.8-17.82-3.07-23.9-6.94-9.14-5.81-14.21-16.77-12.63-27.28.18-1.2.41-2.38.65-3.63.06-.32.12-.63.18-.95.08-.41.16-.83.23-1.24.63-3.35,1.28-6.81,2.14-10.12,1.75-6.74,5.25-13.31,10.28-19.4.29-.23.55-.53.74-.88,2.17-2.53,4.6-4.97,7.29-7.3,11.87-10.29,26.09-16.12,40.04-16.4Zm35.1-44.21c2.33-7.61,9.61-12.58,9.9-12.77,17.36-11.02,36.28-13.63,77.8-10.75,20.28,1.41,34.07,6.15,42.07,9.87,6.22,2.9,9.99,5.65,11.63,6.98l-1.14,16.5h0l-1.72,20.27c-.11.91-2.19,18.25-7.76,31.44-4.47,10.58-9.76,17.05-11.83,19.34-.28.31-.64.55-1.03.69-12.92,4.65-26.77,5.43-41.01,5.86-12.69.38-23.89.23-34.25-.46-4.61-.31-9.38-.95-13.62-1.82-1.34-3.85-3.19-7.8-5.48-11.66-3.73-6.28-8.58-12.25-14.03-17.26-3.86-3.55-7.98-6.61-12.31-9.14-.13-5.41-.56-22.6-.63-27.66-.09-5.83.81-10.91,3.41-19.42Zm-113.65,83.94c-6.56,2.7-11.23,3.54-11.27,3.55l-.09.02c-.21.04-20.77,4.25-33.73,3.09-12.79-1.14-23.57-7.4-28.14-16.33-5.09-9.94-9.3-26.76-9.38-37.51-.01-1.71-.04-4.9.97-6.58,1.16-1.93,4.53-3.51,6.54-4.45,7.46-3.48,14.42-6.14,21.27-8.11,11.18-3.22,23.56-4.99,38.96-5.57,5.17-.2,11.26-.31,17.16.32,3.79.41,7.69,1.1,10.52,3.38,2.32,1.87,4.51,4.87,6.7,9.18,3.16,6.2,4.93,13.75,5.41,23.06.59,11.37.78,15.73.83,17.4-1.02,1.24-1.97,2.5-2.88,3.79-8.13,7.75-16.91,12.3-22.88,14.76Zm34.7-27.7c-1.18,1.02-2.31,2.06-3.4,3.13-.14-3-.34-6.91-.58-11.67-.53-10.14-2.5-18.45-6.03-25.39-2.57-5.05-5.27-8.67-8.23-11.06-3.99-3.22-8.87-4.13-13.54-4.63-6.27-.67-12.62-.56-18-.35-15.88.6-28.7,2.44-40.35,5.79-7.15,2.06-14.39,4.81-22.12,8.43-2.78,1.3-6.98,3.26-9.05,6.71-1.71,2.84-1.83,6.46-1.81,9.62.04,5.71,1.14,13.06,3.07,20.69,1.89,7.46,4.36,14.35,6.95,19.41,5.47,10.69,18.04,18.14,32.79,19.46,1.75.16,3.6.22,5.52.22,13.03,0,28.69-3.17,29.86-3.41.59-.11,5.47-1.04,12.27-3.82,3.86-1.58,8.82-3.97,14.06-7.43-.59,1.59-1.1,3.18-1.51,4.79-.9,3.48-1.57,7.02-2.22,10.45-.92.3-1.93.61-2.58.79-4.24,1.22-8.61,2.26-12.92,3.23-7.98,1.77-16.03,3.37-24.1,4.72-1.39.23-2.8.34-4.22.45-2.13.13-4.59.33-6.7.43-9.24.48-18.52.98-27.73.5-.98-.07-2.16-.16-3.11-.3l-.48-.08-.24-.04c-.37-.08-.85-.17-1.2-.3l-.19-.07-.19-.07c-.06-.02-.13-.06-.19-.08l-.39-.17-.39-.2-.2-.1-.2-.11-.4-.23-.4-.25c-5.48-3.56-11.87-12-14.66-17.97-.54-1.28-1.08-2.66-1.57-4.01-3.03-8.27-5.77-16.79-8.53-25.17l-7.85-36.04c5.53-5.93,12.55-10.94,20.3-14.5,15.52-7.13,33.28-12.34,54.3-15.96,10.68-1.83,20.06-2.5,28.68-2.05,11.41.6,25.62,2.6,34.24,12.74.63.74,1.09,1.35,1.43,1.92.27.47,5.79,10.44,7.48,26.16,1.26,11.74,1.49,17.77,1.52,20.23-2.47,1.69-4.88,3.55-7.2,5.56Zm-151.14-1.42c1.13-3.24,3.4-5.95,5.89-8.27,1.03-.96,2.14-1.87,3.29-2.72l3.84,17.61c-3.06,2.16-5.91,4.59-8.45,7.37-.5.55-.99,1.12-1.45,1.7-2.28-4.65-4.65-11.06-3.12-15.69Zm394.86,29.33c2.28,31.19,4.87,66.54-22.66,103.98-26.72,36.32-67.68,51.83-103.98,63.52-17.93,5.77-38.12,8.12-51.89,9.08-14.99,1.04-25.84.7-25.95.69h-.06s-.06,0-.06,0c-1.13,0-2.34.03-3.62.04-22.87.32-70.47.99-131.2-37.08-32.52-20.39-51.1-51.87-55.24-93.58-1.34-13.51.21-27.16,1.74-36.22,1.05-6.2,2.23-11.16,2.98-14.02.54-1.1,1.01-2.04,1.01-2.04.61-1.24,1.36-2.41,2.23-3.52,1.88-2.39,4.09-4.52,6.48-6.42,2.16,6.43,4.35,12.86,6.78,19.2.84,2.26,1.98,4.51,3.25,6.55,3.86,6.21,10,13.97,16.59,17.39l.61.3.65.28c.11.04.21.09.33.13l.34.12.34.12c.11.04.23.08.35.11l.72.19c.23.05.45.09.67.14l.33.07.32.05c1.67.29,3.76.41,5.41.5,10.67.36,21.23-.34,31.84-1.04,1.79-.15,2.67-.16,4.61-.38,3.05-.35,6.09-1,9.11-1.56,8.15-1.58,16.3-3.3,24.35-5.35,2.09-.53,4.25-1.12,6.39-1.76-.86,6.2.12,12.55,2.85,18.39,2.75,5.9,7.06,10.83,12.46,14.27,3.46,2.2,7.36,3.94,11.78,5.24-3.44.23-18.14.66-28.98-7.41.5-1.53.31-3.05-.67-4.02-1.57-1.57-4.58-1.12-6.71,1.02-2.13,2.13-2.59,5.14-1.02,6.71.85.85,2.13,1.11,3.46.82,1.54,1.48,10.41,9.29,26.25,10.11,0,0-3.57,35.03,27.75,53.65,31.31,18.62,57.79-2.66,57.79-2.66,0,0,16.2-11.49,19.22-31.68,3.02-20.19-.97-30.95-.97-30.95,0,0,18.69-4.94,26.57-17.31,1.53-.14,2.8-.88,3.32-2.1.88-2.04-.66-4.66-3.44-5.85-2.77-1.19-5.73-.5-6.61,1.55-.47,1.11-.24,2.38.51,3.51-2.6,3.35-12.78,12.75-29.26,14.81,2.83-1.59,4.68-2.95,5.58-3.81.36-.34.83-.76,1.38-1.23,2.65-2.31,6.64-5.79,9.52-11.43,3.44-6.74,4.27-14.73,2.45-23.74,0-.05-.02-.1-.03-.15,3.69.64,7.59,1.11,11.49,1.37,6.78.46,13.91.68,21.56.68,4.25,0,8.66-.07,13.26-.21,14.73-.45,29.08-1.26,42.8-6.2,1.29-.46,2.45-1.25,3.37-2.26,2.26-2.51,8.05-9.57,12.87-20.97,3.34-7.91,5.47-17,6.72-23.65,2.28,2.42,5.33,5.9,8.41,10.2,5.61,7.83,12.52,20.05,13.53,33.82Zm-20.77-51.09c.19-1.36.29-2.21.31-2.36v-.04s1.29-15.18,1.29-15.18c1.45,1.12,3.14,2.49,4.84,3.99,7.67,6.75,8.94,10.23,9.13,11.42.95,5.96.52,13.26-2.21,18.07-.49-.71-.98-1.43-1.49-2.14-4.95-6.88-9.72-11.72-11.87-13.77Zm44.17-41.47c-4.99,15.71-14.32,25.66-27.76,29.6-1.64-1.9-3.7-3.93-6.18-6.11-3.23-2.84-6.35-5.19-8.07-6.44l1.22-17.7-.95-.94c-.18-.17-4.45-4.32-13.84-8.75-5.04-2.38-10.63-4.41-16.65-6.04-.86-1.45-1.76-2.88-2.7-4.28-5.92-8.77-13.1-16.65-20.92-23.76-5.48-4.96-11.26-9.59-17.37-13.75,1.25-2.5,2.89-4.81,4.73-6.91,5.15-5.84,12.27-9.72,19.84-11.4,9.18-2.05,17.79,3.57,23.8,10.09,3.12,3.31,6.02,7.37,8.18,11.16,2.07,4.51,3.85,9.19,5.35,13.93.95,3.06,1.78,6.23,2.34,9.36.12.76.35,2.15.46,2.87.23,1.35.52,2.68.89,4.01,1.8,6.57,5.5,12.33,10.49,16.94,4.29,4,9.31,7.09,14.44,9.62,1.09.52,2.31.78,3.52.7,1.66-.09,3.3-.79,4.5-1.95.19-.18.41-.43.6-.62,1.59-1.78,2.9-3.71,4.25-5.51,3.22-4.15,8.48-6.47,12.52-10.04.2-.17.39-.34.58-.51-.41,4.46-1.31,10.34-3.24,16.42Zm4.59-28.4l-.03.31c-.02.33-.08.63-.19.9-.08.16-.22.36-.35.51-1.78,2.03-3.63,4.04-5.65,5.79-3.33,2.91-7.45,5-10.78,8.18-2.54,2.27-4.31,5.52-6.51,8l-.24.26s-.01.01-.02.02c-.02.02-.04.04-.06.06-.17.13-.42.16-.63.09-.02,0-.03-.02-.05-.02,0,0-.05-.02-.07-.03l-.36-.18-.72-.36c-5.22-2.67-10-5.83-13.9-10.1-3.99-4.36-6.51-9.67-7.41-15.51-.49-3.13-1.12-6.35-2.01-9.36-1.23-4.41-2.79-8.77-4.52-13.01-.75-1.78-1.48-3.56-2.33-5.3-4.87-8.41-11.76-16.57-20.41-21.28-6.05-3.32-13.34-4.43-20.03-2.42-2.88.77-5.69,1.81-8.37,3.13-8.11,3.98-14.97,10.65-18.81,18.87l-.19.43-.19.44-.18.45-.09.24-.05.13-.06.16-.75,2.13c7.4,4.62,14.43,9.83,21.23,15.29,8.85,7.12,17.26,14.83,24.89,23.24.17.19.34.39.52.58-8.1-2.09-16.97-3.49-26.35-4.14-21.67-1.5-36.66-1.45-48.62.15-12.81,1.72-22.9,5.27-32.72,11.51l-.03.02c-.38.25-9.29,6.16-12.28,15.94-1.21,3.95-2.08,7.27-2.67,10.29-7.41-2.25-15.16-3.46-23.07-3.61-7.25-.13-14.66.62-22.01,2.25-8.01,1.77-14.17,4.17-17.67,5.72-2.24-7.18-4.61-11.33-4.77-11.6l-.02-.04c-.51-.85-1.15-1.71-2-2.71-4.4-5.18-10.43-9.03-17.91-11.44-5.69-1.83-12.18-2.89-20.44-3.33-9.06-.48-18.86.21-29.97,2.12-17.09,2.94-32.11,6.93-45.57,12.12.27-3.18.79-7.84,1.81-13.21,1.73-9.17,5.29-22.37,12.41-33.18,5.35-8.12,12.04-12.46,19.9-12.9,2.82-.16,5.32.23,7.17.69-7.2,5.99-14.09,12.34-20.64,19.02-4.25,4.34-8.48,9.09-12.35,13.77-.61.76-2.03,2.53-2.67,3.32l1.92-2.1c1.03-1.15,2.83-3.01,3.9-4.13,4.89-5.01,10.21-9.96,15.53-14.5,14.73-12.45,30.68-23.52,47.68-32.62.36.27.77.57.77.57l2.15-1.24.43-.25c2.45-1.37,4.96-2.62,7.51-3.8,33.78-15.44,72.55-20.59,108.99-12.9,8.16,1.71,16.2,4.06,24.02,6.97l2.04.76c2.11-1.89,4.4-3.82,6.64-5.55,22.4-17.13,48.91-30.36,77.26-33.01l1.62-.12.4-.03.41-.03.83-.05,3.32-.21c8.74-.46,17.63-.9,26.33-.29.86.07,2.32.22,3.14.33,1.58.21,3.18.5,4.7.98.26.08.65.23.92.34.94.4,1.53.78,2.03,1.38.39.47.62,1.02.88,1.65.27.7.58,1.54.87,2.24.29.67.65,1.41.93,2.09l.3.73.15.36c.41,1.06.92,2.37,1.31,3.45,4.19,11.69,8.94,23.26,14.8,34.23,4.7,8.73,9.44,17.51,12.98,26.78.78,2.03,1.5,4.07,2.16,6.14.98,3.05,1.83,5.78,1.88,8.78,0,.22-.01.43-.02.64Zm-181.06,86.51c1.55,4.88,3.73,9.14,6.49,12.67,3.51,4.49,7.95,7.78,13.19,9.77,8.59,3.26,16.54,5.04,25.04,5.59,2.01.13,3.98.18,5.92.18,5.29,0,10.36-.4,15.31-.8,1.87-.15,3.81-.3,5.74-.44,8.07-.55,14.88-2.7,20.82-6.57,5.05-3.29,9.47-7.78,13.91-14.16,7.94-11.38,8.79-32.82,8.59-44.6-.05-2.85-.53-5.06-1.51-6.96-1.83-3.55-5.16-5.18-7.51-6.1-11.7-4.59-25.21-7.21-40.16-7.78-4.69-.18-8.51-.26-12.03-.24-8.88.04-16.12.65-22.77,1.93-8.38,1.61-15.51,4.23-21.78,8.02-5.17,3.12-8.72,9.89-10.53,20.12-1.24,7.03-1.22,13.21-1.21,13.82,0,.69-.01,7.62,2.5,15.56Zm4.42-28.36c1.49-8.39,4.19-13.98,7.81-16.17,13.21-7.97,29.16-9.06,41.58-9.12,3.44-.01,7.19.06,11.79.24,14.3.55,27.18,3.03,38.27,7.39,2.35.92,3.77,1.99,4.48,3.36.56,1.08.83,2.48.86,4.4.15,8.91-.29,30.77-7.55,41.18-8.42,12.07-17.22,17.36-30.37,18.26-1.97.13-3.92.29-5.81.44-13.43,1.07-26.12,2.08-43.74-4.61-7.7-2.93-13.14-9.19-16.16-18.61-2.35-7.31-2.28-13.85-2.28-13.91v-.04s0-.04,0-.04c0-.06-.07-6.06,1.12-12.77Zm-30.23,81.09c3.01,1.28,6.38,1.28,9.08-.69,2.62-1.91,3.8-4.52,3.39-7.75-.3-2.37-1.13-4.82-2.02-7.02-2.14-5.31-5.61-10.02-9.76-13.94-1.57-1.49-3.38-3.26-5.62-3.6-.35-.05-.7-.06-1.05-.05,0,0-6.59.6-5.5,11.79,1.09,11.18,2.96,17.65,11.49,21.28Zm-56.61,2.48c.94,3.11,1.94,5.8,5.11,6.47,3.28.69,7.69-1.89,9.91-4.29,6.29-6.8,6.57-13.47,2.98-24.12-3.58-10.65-9.84-8.51-9.84-8.51-.32.13-.64.29-.94.48-1.91,1.23-2.83,3.59-3.65,5.59-2.18,5.28-4.81,11.42-4.6,17.14.09,2.38.34,4.95,1.03,7.24Zm18-21.94c-3.58-10.65-9.84-8.51-9.84-8.51-.32.13-.64.29-.94.48-1.91,1.23-2.83,3.59-3.65,5.59-2.18,5.28-4.81,11.42-4.6,17.14.09,2.38.34,4.95,1.03,7.24.94,3.11,1.94,5.8,5.11,6.47,3.28.69,7.69-1.89,9.91-4.29,6.29-6.8,6.57-13.47,2.98-24.12Zm51.08,11.02c-.3-2.37-1.13-4.82-2.02-7.02-2.14-5.31-5.61-10.02-9.76-13.94-1.57-1.49-3.38-3.26-5.62-3.6-.35-.05-.7-.06-1.05-.05,0,0-6.59.6-5.5,11.79,1.09,11.18,2.96,17.65,11.49,21.28,3.01,1.28,6.38,1.28,9.08-.69,2.62-1.91,3.8-4.52,3.39-7.75Zm128.35-82.64c-.05-2.85-.53-5.06-1.51-6.96-1.83-3.55-5.16-5.18-7.51-6.1-11.7-4.59-25.21-7.21-40.16-7.78-4.69-.18-8.51-.26-12.03-.24-8.88.04-16.12.65-22.77,1.93-8.38,1.61-15.51,4.23-21.78,8.02-5.17,3.12-8.72,9.89-10.53,20.12-1.24,7.03-1.22,13.21-1.21,13.82,0,.69-.01,7.62,2.5,15.56,1.55,4.88,3.73,9.14,6.49,12.67,3.51,4.49,7.95,7.78,13.19,9.77,8.59,3.26,16.54,5.04,25.04,5.59,2.01.13,3.98.18,5.92.18,5.29,0,10.36-.4,15.31-.8,1.87-.15,3.81-.3,5.74-.44,8.07-.55,14.88-2.7,20.82-6.57,5.05-3.29,9.47-7.78,13.91-14.16,7.94-11.38,8.79-32.82,8.59-44.6Zm-13.35,41.28c-8.42,12.07-17.22,17.36-30.37,18.26-1.97.13-3.92.29-5.81.44-13.43,1.07-26.12,2.08-43.74-4.61-7.7-2.93-13.14-9.19-16.16-18.61-2.35-7.31-2.28-13.85-2.28-13.91v-.04s0-.04,0-.04c0-.06-.07-6.06,1.12-12.77,1.49-8.39,4.19-13.98,7.81-16.17,13.21-7.97,29.16-9.06,41.58-9.12,3.44-.01,7.19.06,11.79.24,14.3.55,27.18,3.03,38.27,7.39,2.35.92,3.77,1.99,4.48,3.36.56,1.08.83,2.48.86,4.4.15,8.91-.29,30.77-7.55,41.18Zm13.35-41.28c-.05-2.85-.53-5.06-1.51-6.96-1.83-3.55-5.16-5.18-7.51-6.1-11.7-4.59-25.21-7.21-40.16-7.78-4.69-.18-8.51-.26-12.03-.24-8.88.04-16.12.65-22.77,1.93-8.38,1.61-15.51,4.23-21.78,8.02-5.17,3.12-8.72,9.89-10.53,20.12-1.24,7.03-1.22,13.21-1.21,13.82,0,.69-.01,7.62,2.5,15.56,1.55,4.88,3.73,9.14,6.49,12.67,3.51,4.49,7.95,7.78,13.19,9.77,8.59,3.26,16.54,5.04,25.04,5.59,2.01.13,3.98.18,5.92.18,5.29,0,10.36-.4,15.31-.8,1.87-.15,3.81-.3,5.74-.44,8.07-.55,14.88-2.7,20.82-6.57,5.05-3.29,9.47-7.78,13.91-14.16,7.94-11.38,8.79-32.82,8.59-44.6Zm-13.35,41.28c-8.42,12.07-17.22,17.36-30.37,18.26-1.97.13-3.92.29-5.81.44-13.43,1.07-26.12,2.08-43.74-4.61-7.7-2.93-13.14-9.19-16.16-18.61-2.35-7.31-2.28-13.85-2.28-13.91v-.04s0-.04,0-.04c0-.06-.07-6.06,1.12-12.77,1.49-8.39,4.19-13.98,7.81-16.17,13.21-7.97,29.16-9.06,41.58-9.12,3.44-.01,7.19.06,11.79.24,14.3.55,27.18,3.03,38.27,7.39,2.35.92,3.77,1.99,4.48,3.36.56,1.08.83,2.48.86,4.4.15,8.91-.29,30.77-7.55,41.18Zm-115,41.36c-.3-2.37-1.13-4.82-2.02-7.02-2.14-5.31-5.61-10.02-9.76-13.94-1.57-1.49-3.38-3.26-5.62-3.6-.35-.05-.7-.06-1.05-.05,0,0-6.59.6-5.5,11.79,1.09,11.18,2.96,17.65,11.49,21.28,3.01,1.28,6.38,1.28,9.08-.69,2.62-1.91,3.8-4.52,3.39-7.75Zm-51.08-11.02c-3.58-10.65-9.84-8.51-9.84-8.51-.32.13-.64.29-.94.48-1.91,1.23-2.83,3.59-3.65,5.59-2.18,5.28-4.81,11.42-4.6,17.14.09,2.38.34,4.95,1.03,7.24.94,3.11,1.94,5.8,5.11,6.47,3.28.69,7.69-1.89,9.91-4.29,6.29-6.8,6.57-13.47,2.98-24.12Zm0,0c-3.58-10.65-9.84-8.51-9.84-8.51-.32.13-.64.29-.94.48-1.91,1.23-2.83,3.59-3.65,5.59-2.18,5.28-4.81,11.42-4.6,17.14.09,2.38.34,4.95,1.03,7.24.94,3.11,1.94,5.8,5.11,6.47,3.28.69,7.69-1.89,9.91-4.29,6.29-6.8,6.57-13.47,2.98-24.12Zm51.08,11.02c-.3-2.37-1.13-4.82-2.02-7.02-2.14-5.31-5.61-10.02-9.76-13.94-1.57-1.49-3.38-3.26-5.62-3.6-.35-.05-.7-.06-1.05-.05,0,0-6.59.6-5.5,11.79,1.09,11.18,2.96,17.65,11.49,21.28,3.01,1.28,6.38,1.28,9.08-.69,2.62-1.91,3.8-4.52,3.39-7.75Zm128.35-82.64c-.05-2.85-.53-5.06-1.51-6.96-1.83-3.55-5.16-5.18-7.51-6.1-11.7-4.59-25.21-7.21-40.16-7.78-4.69-.18-8.51-.26-12.03-.24-8.88.04-16.12.65-22.77,1.93-8.38,1.61-15.51,4.23-21.78,8.02-5.17,3.12-8.72,9.89-10.53,20.12-1.24,7.03-1.22,13.21-1.21,13.82,0,.69-.01,7.62,2.5,15.56,1.55,4.88,3.73,9.14,6.49,12.67,3.51,4.49,7.95,7.78,13.19,9.77,8.59,3.26,16.54,5.04,25.04,5.59,2.01.13,3.98.18,5.92.18,5.29,0,10.36-.4,15.31-.8,1.87-.15,3.81-.3,5.74-.44,8.07-.55,14.88-2.7,20.82-6.57,5.05-3.29,9.47-7.78,13.91-14.16,7.94-11.38,8.79-32.82,8.59-44.6Zm-13.35,41.28c-8.42,12.07-17.22,17.36-30.37,18.26-1.97.13-3.92.29-5.81.44-13.43,1.07-26.12,2.08-43.74-4.61-7.7-2.93-13.14-9.19-16.16-18.61-2.35-7.31-2.28-13.85-2.28-13.91v-.04s0-.04,0-.04c0-.06-.07-6.06,1.12-12.77,1.49-8.39,4.19-13.98,7.81-16.17,13.21-7.97,29.16-9.06,41.58-9.12,3.44-.01,7.19.06,11.79.24,14.3.55,27.18,3.03,38.27,7.39,2.35.92,3.77,1.99,4.48,3.36.56,1.08.83,2.48.86,4.4.15,8.91-.29,30.77-7.55,41.18Zm13.35-41.28c-.05-2.85-.53-5.06-1.51-6.96-1.83-3.55-5.16-5.18-7.51-6.1-11.7-4.59-25.21-7.21-40.16-7.78-4.69-.18-8.51-.26-12.03-.24-8.88.04-16.12.65-22.77,1.93-8.38,1.61-15.51,4.23-21.78,8.02-5.17,3.12-8.72,9.89-10.53,20.12-1.24,7.03-1.22,13.21-1.21,13.82,0,.69-.01,7.62,2.5,15.56,1.55,4.88,3.73,9.14,6.49,12.67,3.51,4.49,7.95,7.78,13.19,9.77,8.59,3.26,16.54,5.04,25.04,5.59,2.01.13,3.98.18,5.92.18,5.29,0,10.36-.4,15.31-.8,1.87-.15,3.81-.3,5.74-.44,8.07-.55,14.88-2.7,20.82-6.57,5.05-3.29,9.47-7.78,13.91-14.16,7.94-11.38,8.79-32.82,8.59-44.6Zm-13.35,41.28c-8.42,12.07-17.22,17.36-30.37,18.26-1.97.13-3.92.29-5.81.44-13.43,1.07-26.12,2.08-43.74-4.61-7.7-2.93-13.14-9.19-16.16-18.61-2.35-7.31-2.28-13.85-2.28-13.91v-.04s0-.04,0-.04c0-.06-.07-6.06,1.12-12.77,1.49-8.39,4.19-13.98,7.81-16.17,13.21-7.97,29.16-9.06,41.58-9.12,3.44-.01,7.19.06,11.79.24,14.3.55,27.18,3.03,38.27,7.39,2.35.92,3.77,1.99,4.48,3.36.56,1.08.83,2.48.86,4.4.15,8.91-.29,30.77-7.55,41.18Zm-115,41.36c-.3-2.37-1.13-4.82-2.02-7.02-2.14-5.31-5.61-10.02-9.76-13.94-1.57-1.49-3.38-3.26-5.62-3.6-.35-.05-.7-.06-1.05-.05,0,0-6.59.6-5.5,11.79,1.09,11.18,2.96,17.65,11.49,21.28,3.01,1.28,6.38,1.28,9.08-.69,2.62-1.91,3.8-4.52,3.39-7.75Zm-51.08-11.02c-3.58-10.65-9.84-8.51-9.84-8.51-.32.13-.64.29-.94.48-1.91,1.23-2.83,3.59-3.65,5.59-2.18,5.28-4.81,11.42-4.6,17.14.09,2.38.34,4.95,1.03,7.24.94,3.11,1.94,5.8,5.11,6.47,3.28.69,7.69-1.89,9.91-4.29,6.29-6.8,6.57-13.47,2.98-24.12Zm0,0c-3.58-10.65-9.84-8.51-9.84-8.51-.32.13-.64.29-.94.48-1.91,1.23-2.83,3.59-3.65,5.59-2.18,5.28-4.81,11.42-4.6,17.14.09,2.38.34,4.95,1.03,7.24.94,3.11,1.94,5.8,5.11,6.47,3.28.69,7.69-1.89,9.91-4.29,6.29-6.8,6.57-13.47,2.98-24.12Zm51.08,11.02c-.3-2.37-1.13-4.82-2.02-7.02-2.14-5.31-5.61-10.02-9.76-13.94-1.57-1.49-3.38-3.26-5.62-3.6-.35-.05-.7-.06-1.05-.05,0,0-6.59.6-5.5,11.79,1.09,11.18,2.96,17.65,11.49,21.28,3.01,1.28,6.38,1.28,9.08-.69,2.62-1.91,3.8-4.52,3.39-7.75Zm128.35-82.64c-.05-2.85-.53-5.06-1.51-6.96-1.83-3.55-5.16-5.18-7.51-6.1-11.7-4.59-25.21-7.21-40.16-7.78-4.69-.18-8.51-.26-12.03-.24-8.88.04-16.12.65-22.77,1.93-8.38,1.61-15.51,4.23-21.78,8.02-5.17,3.12-8.72,9.89-10.53,20.12-1.24,7.03-1.22,13.21-1.21,13.82,0,.69-.01,7.62,2.5,15.56,1.55,4.88,3.73,9.14,6.49,12.67,3.51,4.49,7.95,7.78,13.19,9.77,8.59,3.26,16.54,5.04,25.04,5.59,2.01.13,3.98.18,5.92.18,5.29,0,10.36-.4,15.31-.8,1.87-.15,3.81-.3,5.74-.44,8.07-.55,14.88-2.7,20.82-6.57,5.05-3.29,9.47-7.78,13.91-14.16,7.94-11.38,8.79-32.82,8.59-44.6Zm-13.35,41.28c-8.42,12.07-17.22,17.36-30.37,18.26-1.97.13-3.92.29-5.81.44-13.43,1.07-26.12,2.08-43.74-4.61-7.7-2.93-13.14-9.19-16.16-18.61-2.35-7.31-2.28-13.85-2.28-13.91v-.04s0-.04,0-.04c0-.06-.07-6.06,1.12-12.77,1.49-8.39,4.19-13.98,7.81-16.17,13.21-7.97,29.16-9.06,41.58-9.12,3.44-.01,7.19.06,11.79.24,14.3.55,27.18,3.03,38.27,7.39,2.35.92,3.77,1.99,4.48,3.36.56,1.08.83,2.48.86,4.4.15,8.91-.29,30.77-7.55,41.18Zm13.35-41.28c-.05-2.85-.53-5.06-1.51-6.96-1.83-3.55-5.16-5.18-7.51-6.1-11.7-4.59-25.21-7.21-40.16-7.78-4.69-.18-8.51-.26-12.03-.24-8.88.04-16.12.65-22.77,1.93-8.38,1.61-15.51,4.23-21.78,8.02-5.17,3.12-8.72,9.89-10.53,20.12-1.24,7.03-1.22,13.21-1.21,13.82,0,.69-.01,7.62,2.5,15.56,1.55,4.88,3.73,9.14,6.49,12.67,3.51,4.49,7.95,7.78,13.19,9.77,8.59,3.26,16.54,5.04,25.04,5.59,2.01.13,3.98.18,5.92.18,5.29,0,10.36-.4,15.31-.8,1.87-.15,3.81-.3,5.74-.44,8.07-.55,14.88-2.7,20.82-6.57,5.05-3.29,9.47-7.78,13.91-14.16,7.94-11.38,8.79-32.82,8.59-44.6Zm-13.35,41.28c-8.42,12.07-17.22,17.36-30.37,18.26-1.97.13-3.92.29-5.81.44-13.43,1.07-26.12,2.08-43.74-4.61-7.7-2.93-13.14-9.19-16.16-18.61-2.35-7.31-2.28-13.85-2.28-13.91v-.04s0-.04,0-.04c0-.06-.07-6.06,1.12-12.77,1.49-8.39,4.19-13.98,7.81-16.17,13.21-7.97,29.16-9.06,41.58-9.12,3.44-.01,7.19.06,11.79.24,14.3.55,27.18,3.03,38.27,7.39,2.35.92,3.77,1.99,4.48,3.36.56,1.08.83,2.48.86,4.4.15,8.91-.29,30.77-7.55,41.18Zm-115,41.36c-.3-2.37-1.13-4.82-2.02-7.02-2.14-5.31-5.61-10.02-9.76-13.94-1.57-1.49-3.38-3.26-5.62-3.6-.35-.05-.7-.06-1.05-.05,0,0-6.59.6-5.5,11.79,1.09,11.18,2.96,17.65,11.49,21.28,3.01,1.28,6.38,1.28,9.08-.69,2.62-1.91,3.8-4.52,3.39-7.75Zm-51.08-11.02c-3.58-10.65-9.84-8.51-9.84-8.51-.32.13-.64.29-.94.48-1.91,1.23-2.83,3.59-3.65,5.59-2.18,5.28-4.81,11.42-4.6,17.14.09,2.38.34,4.95,1.03,7.24.94,3.11,1.94,5.8,5.11,6.47,3.28.69,7.69-1.89,9.91-4.29,6.29-6.8,6.57-13.47,2.98-24.12Zm179.42-71.62c-.05-2.85-.53-5.06-1.51-6.96-1.83-3.55-5.16-5.18-7.51-6.1-11.7-4.59-25.21-7.21-40.16-7.78-4.69-.18-8.51-.26-12.03-.24-8.88.04-16.12.65-22.77,1.93-8.38,1.61-15.51,4.23-21.78,8.02-5.17,3.12-8.72,9.89-10.53,20.12-1.24,7.03-1.22,13.21-1.21,13.82,0,.69-.01,7.62,2.5,15.56,1.55,4.88,3.73,9.14,6.49,12.67,3.51,4.49,7.95,7.78,13.19,9.77,8.59,3.26,16.54,5.04,25.04,5.59,2.01.13,3.98.18,5.92.18,5.29,0,10.36-.4,15.31-.8,1.87-.15,3.81-.3,5.74-.44,8.07-.55,14.88-2.7,20.82-6.57,5.05-3.29,9.47-7.78,13.91-14.16,7.94-11.38,8.79-32.82,8.59-44.6Zm-13.35,41.28c-8.42,12.07-17.22,17.36-30.37,18.26-1.97.13-3.92.29-5.81.44-13.43,1.07-26.12,2.08-43.74-4.61-7.7-2.93-13.14-9.19-16.16-18.61-2.35-7.31-2.28-13.85-2.28-13.91v-.04s0-.04,0-.04c0-.06-.07-6.06,1.12-12.77,1.49-8.39,4.19-13.98,7.81-16.17,13.21-7.97,29.16-9.06,41.58-9.12,3.44-.01,7.19.06,11.79.24,14.3.55,27.18,3.03,38.27,7.39,2.35.92,3.77,1.99,4.48,3.36.56,1.08.83,2.48.86,4.4.15,8.91-.29,30.77-7.55,41.18Zm13.35-41.28c-.05-2.85-.53-5.06-1.51-6.96-1.83-3.55-5.16-5.18-7.51-6.1-11.7-4.59-25.21-7.21-40.16-7.78-4.69-.18-8.51-.26-12.03-.24-8.88.04-16.12.65-22.77,1.93-8.38,1.61-15.51,4.23-21.78,8.02-5.17,3.12-8.72,9.89-10.53,20.12-1.24,7.03-1.22,13.21-1.21,13.82,0,.69-.01,7.62,2.5,15.56,1.55,4.88,3.73,9.14,6.49,12.67,3.51,4.49,7.95,7.78,13.19,9.77,8.59,3.26,16.54,5.04,25.04,5.59,2.01.13,3.98.18,5.92.18,5.29,0,10.36-.4,15.31-.8,1.87-.15,3.81-.3,5.74-.44,8.07-.55,14.88-2.7,20.82-6.57,5.05-3.29,9.47-7.78,13.91-14.16,7.94-11.38,8.79-32.82,8.59-44.6Zm-13.35,41.28c-8.42,12.07-17.22,17.36-30.37,18.26-1.97.13-3.92.29-5.81.44-13.43,1.07-26.12,2.08-43.74-4.61-7.7-2.93-13.14-9.19-16.16-18.61-2.35-7.31-2.28-13.85-2.28-13.91v-.04s0-.04,0-.04c0-.06-.07-6.06,1.12-12.77,1.49-8.39,4.19-13.98,7.81-16.17,13.21-7.97,29.16-9.06,41.58-9.12,3.44-.01,7.19.06,11.79.24,14.3.55,27.18,3.03,38.27,7.39,2.35.92,3.77,1.99,4.48,3.36.56,1.08.83,2.48.86,4.4.15,8.91-.29,30.77-7.55,41.18Z"/>
    <path class="cls-16" d="m327.04,647.06l-4.59,8.8c-27.48-20.67-37.99-1.09-37.99-1.09-19.22-14.14-35.03,12.66-35.03,12.66l-7.1-7.28c42.44-50.42,84.72-13.09,84.72-13.09Z"/>
    <path class="cls-21" d="m322.44,655.85c-32.46,45.16-73.02,11.58-73.02,11.58,0,0,15.81-26.81,35.03-12.66,0,0,10.52-19.59,37.99,1.09Z"/>
    <path class="cls-10" d="m205.85,613.68c1.45,1.39,9.79,8.73,24.68,9.5,0,0-3.35,32.93,26.09,50.44,29.44,17.5,54.33-2.5,54.33-2.5,0,0,15.23-10.8,18.07-29.78,2.84-18.98-.91-29.1-.91-29.1,0,0,17.57-4.64,24.98-16.27"/>
    <g>
      <path class="cls-13" d="m397.91,512.75c-.26-1.17-.68-2.2-1.26-3.1-.57-.89-1.17-1.69-1.79-2.4-.62-.71-1.41-1.34-2.38-1.9-.97-.55-1.83-1.02-2.58-1.41-.75-.38-1.72-.75-2.91-1.11-1.19-.35-2.14-.62-2.84-.79,0,0-.02,0-.03,0v-8.13c2.35.68,4.73,1.87,7.13,3.59l6.17-8.92c-4.07-3.15-8.51-5.12-13.3-5.92v-6.97h-3.76v6.58c-.43-.02-.85-.03-1.29-.03-.13,0-.27,0-.4,0v-6.56h-3.76v6.82c-1.96.27-3.79.73-5.48,1.39-2.84,1.11-5.13,2.86-6.88,5.25-1.75,2.39-2.62,5.26-2.62,8.62,0,1.23.12,2.39.38,3.47.25,1.08.55,2.03.9,2.84.35.82.86,1.6,1.52,2.33.66.74,1.28,1.36,1.85,1.87s1.33,1,2.27,1.48,1.73.85,2.38,1.13c.65.28,1.51.58,2.6.9,1.09.32,1.93.56,2.54.72.16.04.34.09.54.13v8.95c-3.75-.56-7.18-2.23-10.31-5.01l-6.13,8.92c4.8,4.14,10.28,6.52,16.44,7.14v5.84h3.76v-5.68c.57,0,1.13-.03,1.69-.06v5.75h3.76v-6.23c3.26-.65,6.1-1.9,8.52-3.72,3.78-2.85,5.67-6.83,5.67-11.95,0-1.39-.13-2.67-.4-3.84Zm-22.98-13.36c-.11-.06-.21-.12-.3-.18-.41-.28-.76-.63-1.06-1.06-.29-.43-.44-.91-.44-1.43,0-1.17.6-2.04,1.79-2.61,0,0,0,0,.01,0v5.3Zm3.76-6.13c.27-.01.55-.02.84-.02s.56,0,.85.02v7.88c-.68-.16-1.24-.3-1.69-.41v-7.48Zm0,28.53v-8.22c.63.17,1.16.31,1.57.43.04.01.08.02.12.04v7.59c-.53.08-1.09.14-1.69.16Zm5.44-1.67v-4.38c.18.15.33.31.45.47.37.49.55,1.06.55,1.71,0,.87-.33,1.6-1,2.19Z"/>
      <path class="cls-5" d="m360.13,500.22s.74-14.09,15.13-17.31h-2.7l-5.38,2.1-4.83,4.48-1.69,3.47-.99,5.11.47,2.16Z"/>
      <path class="cls-5" d="m378.4,476.31s-2.31.21-2.47.52-.45,6.18-.45,6.18l-.46-7.33,3.39.62Z"/>
      <path class="cls-5" d="m383.93,476.2s-2.31.21-2.47.52c-.16.31-.45,6.18-.45,6.18l-.46-7.33,3.39.62Z"/>
      <path class="cls-20" d="m360.39,499.53c.12-.17,1.96,10.03,15.14,11.9l-.02,1.48-8.64-3.14-4.9-4.35-1.64-4.18.07-1.71Z"/>
      <polygon class="cls-20" points="378.1 513 378.1 511.64 380.99 512.38 380.95 514.05 378.1 513"/>
      <path class="cls-20" d="m359.66,524.13s7.02,5.4,15.85,6.56v1.57h-.58l-6.3-.93-5.59-2.54-4.55-2.84,1.16-1.82Z"/>
      <path class="cls-20" d="m380.94,530.81v1.45h-2.84v-1.36c.94.03,1.88,0,2.84-.09Z"/>
      <path class="cls-20" d="m397.72,519.54l-1.52,5.15-3.8,3.86-3.63,2.12-4.65,1.6h-.57v-1.87c2.65.42,9.97-2.01,14.16-10.85Z"/>
      <path class="cls-12" d="m397.91,512.75c-.26-1.17-.68-2.2-1.26-3.1-.57-.89-1.17-1.69-1.79-2.4-.62-.71-1.41-1.34-2.38-1.9-.97-.55-1.83-1.02-2.58-1.41-.75-.38-1.72-.75-2.91-1.11-1.19-.35-2.14-.62-2.84-.79,0,0-.02,0-.03,0v-8.13c2.35.68,4.73,1.87,7.13,3.59l6.17-8.92c-4.07-3.15-8.51-5.12-13.3-5.92v-6.97h-3.76v6.58c-.43-.02-.85-.03-1.29-.03-.13,0-.27,0-.4,0v-6.56h-3.76v6.82c-1.96.27-3.79.73-5.48,1.39-2.84,1.11-5.13,2.86-6.88,5.25-1.75,2.39-2.62,5.26-2.62,8.62,0,1.23.12,2.39.38,3.47.25,1.08.55,2.03.9,2.84.35.82.86,1.6,1.52,2.33.66.74,1.28,1.36,1.85,1.87s1.33,1,2.27,1.48,1.73.85,2.38,1.13c.65.28,1.51.58,2.6.9,1.09.32,1.93.56,2.54.72.16.04.34.09.54.13v8.95c-3.75-.56-7.18-2.23-10.31-5.01l-6.13,8.92c4.8,4.14,10.28,6.52,16.44,7.14v5.84h3.76v-5.68c.57,0,1.13-.03,1.69-.06v5.75h3.76v-6.23c3.26-.65,6.1-1.9,8.52-3.72,3.78-2.85,5.67-6.83,5.67-11.95,0-1.39-.13-2.67-.4-3.84Zm-22.98-13.36c-.11-.06-.21-.12-.3-.18-.41-.28-.76-.63-1.06-1.06-.29-.43-.44-.91-.44-1.43,0-1.17.6-2.04,1.79-2.61,0,0,0,0,.01,0v5.3Zm3.76-6.13c.27-.01.55-.02.84-.02s.56,0,.85.02v7.88c-.68-.16-1.24-.3-1.69-.41v-7.48Zm0,28.53v-8.22c.63.17,1.16.31,1.57.43.04.01.08.02.12.04v7.59c-.53.08-1.09.14-1.69.16Zm5.44-1.67v-4.38c.18.15.33.31.45.47.37.49.55,1.06.55,1.71,0,.87-.33,1.6-1,2.19Z"/>
    </g>
    <g>
      <path class="cls-1" d="m189.72,527.92c-.41-1.13-.96-2.09-1.65-2.91-.69-.81-1.38-1.53-2.09-2.15-.71-.62-1.57-1.14-2.61-1.57-1.03-.42-1.95-.78-2.74-1.06-.79-.28-1.8-.52-3.03-.72-1.23-.2-2.2-.33-2.92-.41,0,0-.02,0-.03,0l-1.06-8.06c2.42.36,4.93,1.24,7.54,2.62l4.95-9.65c-4.45-2.59-9.1-3.96-13.96-4.13l-.91-6.91-3.72.49.86,6.52c-.42.04-.85.09-1.28.14-.13.02-.27.04-.4.05l-.86-6.5-3.72.49.89,6.77c-1.91.52-3.66,1.22-5.25,2.1-2.67,1.47-4.71,3.5-6.13,6.1-1.42,2.6-1.91,5.56-1.47,8.89.16,1.22.44,2.35.82,3.39.39,1.04.81,1.94,1.27,2.7.46.76,1.06,1.47,1.81,2.12.75.65,1.45,1.18,2.08,1.61.63.43,1.45.82,2.44,1.17,1,.35,1.83.62,2.51.81.68.19,1.58.38,2.7.55,1.12.18,1.99.3,2.61.38.17.02.35.04.55.06l1.17,8.87c-3.79-.06-7.41-1.27-10.87-3.62l-4.91,9.65c5.3,3.48,11.04,5.12,17.23,4.93l.76,5.79,3.72-.49-.74-5.63c.57-.08,1.12-.18,1.66-.28l.75,5.7,3.72-.49-.81-6.18c3.15-1.07,5.8-2.68,7.96-4.8,3.37-3.32,4.72-7.52,4.06-12.59-.18-1.38-.48-2.63-.89-3.75Zm-24.53-10.24c-.12-.05-.22-.09-.32-.14-.44-.22-.84-.53-1.19-.92-.35-.39-.56-.84-.62-1.36-.15-1.16.32-2.1,1.43-2.82,0,0,0,0,0,0l.69,5.25Zm2.92-6.56c.27-.05.54-.09.83-.13s.56-.07.84-.09l1.03,7.81c-.69-.07-1.27-.13-1.72-.18l-.98-7.41Zm3.73,28.29l-1.07-8.15c.65.08,1.19.16,1.61.22.04,0,.08.01.12.02l.99,7.53c-.51.15-1.06.28-1.65.38Zm5.18-2.37l-.57-4.34c.2.13.36.26.51.41.43.44.69.98.77,1.62.11.86-.12,1.63-.7,2.31Z"/>
      <path class="cls-5" d="m150.62,520.42s-1.11-14.06,12.74-19.14l-2.68.35-5.06,2.78-4.2,5.07-1.22,3.66-.32,5.2.75,2.08Z"/>
      <path class="cls-5" d="m165.61,494.33s-2.26.51-2.38.84.36,6.19.36,6.19l-1.42-7.21,3.44.17Z"/>
      <path class="cls-5" d="m171.08,493.5s-2.26.51-2.38.84.36,6.19.36,6.19l-1.42-7.21,3.44.17Z"/>
      <path class="cls-20" d="m150.79,519.71c.1-.18,3.26,9.69,16.57,9.82l.17,1.47-8.98-1.98-5.43-3.67-2.17-3.93-.15-1.71Z"/>
      <polygon class="cls-20" points="170.1 530.75 169.92 529.4 172.89 529.76 173.06 531.42 170.1 530.75"/>
      <path class="cls-20" d="m153.28,544.2s7.66,4.44,16.57,4.43l.2,1.56-.57.08-6.36-.1-5.88-1.79-4.88-2.22.92-1.95Z"/>
      <path class="cls-20" d="m175.25,548.03l.19,1.44-2.82.37-.18-1.35c.93-.1,1.87-.25,2.8-.47Z"/>
      <path class="cls-20" d="m190.41,534.67l-.83,5.3-3.26,4.32-3.32,2.57-4.4,2.19-.56.07-.24-1.85c2.69.07,9.62-3.29,12.62-12.61Z"/>
      <path class="cls-12" d="m189.72,527.92c-.41-1.13-.96-2.09-1.65-2.91-.69-.81-1.38-1.53-2.09-2.15-.71-.62-1.57-1.14-2.61-1.57-1.03-.42-1.95-.78-2.74-1.06-.79-.28-1.8-.52-3.03-.72-1.23-.2-2.2-.33-2.92-.41,0,0-.02,0-.03,0l-1.06-8.06c2.42.36,4.93,1.24,7.54,2.62l4.95-9.65c-4.45-2.59-9.1-3.96-13.96-4.13l-.91-6.91-3.72.49.86,6.52c-.42.04-.85.09-1.28.14-.13.02-.27.04-.4.05l-.86-6.5-3.72.49.89,6.77c-1.91.52-3.66,1.22-5.25,2.1-2.67,1.47-4.71,3.5-6.13,6.1-1.42,2.6-1.91,5.56-1.47,8.89.16,1.22.44,2.35.82,3.39.39,1.04.81,1.94,1.27,2.7.46.76,1.06,1.47,1.81,2.12.75.65,1.45,1.18,2.08,1.61.63.43,1.45.82,2.44,1.17,1,.35,1.83.62,2.51.81.68.19,1.58.38,2.7.55,1.12.18,1.99.3,2.61.38.17.02.35.04.55.06l1.17,8.87c-3.79-.06-7.41-1.27-10.87-3.62l-4.91,9.65c5.3,3.48,11.04,5.12,17.23,4.93l.76,5.79,3.72-.49-.74-5.63c.57-.08,1.12-.18,1.66-.28l.75,5.7,3.72-.49-.81-6.18c3.15-1.07,5.8-2.68,7.96-4.8,3.37-3.32,4.72-7.52,4.06-12.59-.18-1.38-.48-2.63-.89-3.75Zm-24.53-10.24c-.12-.05-.22-.09-.32-.14-.44-.22-.84-.53-1.19-.92-.35-.39-.56-.84-.62-1.36-.15-1.16.32-2.1,1.43-2.82,0,0,0,0,0,0l.69,5.25Zm2.92-6.56c.27-.05.54-.09.83-.13s.56-.07.84-.09l1.03,7.81c-.69-.07-1.27-.13-1.72-.18l-.98-7.41Zm3.73,28.29l-1.07-8.15c.65.08,1.19.16,1.61.22.04,0,.08.01.12.02l.99,7.53c-.51.15-1.06.28-1.65.38Zm5.18-2.37l-.57-4.34c.2.13.36.26.51.41.43.44.69.98.77,1.62.11.86-.12,1.63-.7,2.31Z"/>
      <line class="cls-11" x1="170.05" y1="550.19" x2="169.84" y2="548.63"/>
      <line class="cls-11" x1="172.63" y1="549.85" x2="172.45" y2="548.5"/>
      <line class="cls-11" x1="175.44" y1="549.47" x2="175.25" y2="548.03"/>
      <line class="cls-11" x1="178.04" y1="549.13" x2="177.79" y2="547.28"/>
    </g>
  </g>
  <g>
    <path class="cls-20" d="m659.98,437.64c-2.74-.34-5.66-.4-8.68-.12-3.72.31-7.69,1.11-11.75,2.34-6.34,1.94-12.12,5.78-17.23,11.35-5.41,5.97-11.79,15.08-11.42,24.65.34,7.82,4.46,14.92,10.56,18.09,3.69,1.91,8.31,2.77,12.8,3.63l1.84.34c14.31,2.74,40.06,2.8,52.46-8.4,3.08-2.77,5.05-6.74,5.57-11.17,2.27-18.89-17.23-38.49-34.16-40.71Zm-17.94,31.85c-1.26,12.37-12.37,10.95-14.31,9.35-1.14-.95-1.39-3.08-1.54-4.46-.25-2.25-.22-4.77.34-6.98.77-2.92,2.22-5.63,3.97-8.09,1.45-1.97,3.69-5.51,6.65-4.43,0,0,6.15,2.25,4.89,14.62Zm35.05,3.48c-.09,1.14-.31,2.31-.93,3.29-1.66,2.58-6.49,2.22-8.98,1.17-3.75-1.51-5.63-5.26-6.21-9.11-1.94-12.25,4.06-14.83,4.06-14.83,2.89-1.26,5.35,2.15,6.86,4.06,3.6,4.37,5.69,9.69,5.2,15.42Zm-17.11-35.32c-2.74-.34-5.66-.4-8.68-.12-3.72.31-7.69,1.11-11.75,2.34-6.34,1.94-12.12,5.78-17.23,11.35-5.41,5.97-11.79,15.08-11.42,24.65.34,7.82,4.46,14.92,10.56,18.09,3.69,1.91,8.31,2.77,12.8,3.63l1.84.34c14.31,2.74,40.06,2.8,52.46-8.4,3.08-2.77,5.05-6.74,5.57-11.17,2.27-18.89-17.23-38.49-34.16-40.71Zm-17.94,31.85c-1.26,12.37-12.37,10.95-14.31,9.35-1.14-.95-1.39-3.08-1.54-4.46-.25-2.25-.22-4.77.34-6.98.77-2.92,2.22-5.63,3.97-8.09,1.45-1.97,3.69-5.51,6.65-4.43,0,0,6.15,2.25,4.89,14.62Zm35.05,3.48c-.09,1.14-.31,2.31-.93,3.29-1.66,2.58-6.49,2.22-8.98,1.17-3.75-1.51-5.63-5.26-6.21-9.11-1.94-12.25,4.06-14.83,4.06-14.83,2.89-1.26,5.35,2.15,6.86,4.06,3.6,4.37,5.69,9.69,5.2,15.42Zm40.98-42.74c-6.74-11.51-16-20.55-27.78-27.14-11.79-6.55-24.86-9.85-39.23-9.85-10.8,0-20.99,1.94-30.56,5.79-9.54,3.85-17.72,9.11-24.52,15.78-6.8,6.68-12.18,14.65-16.09,23.97-3.91,9.32-5.87,19.26-5.87,29.85s1.97,20.55,5.87,29.88c3.91,9.29,9.29,17.29,16.09,23.97,6.8,6.68,14.99,11.94,24.52,15.82,9.57,3.91,19.75,5.85,30.56,5.85s20.92-1.94,30.46-5.85c9.51-3.88,17.69-9.14,24.56-15.82,6.83-6.68,12.21-14.68,16.18-23.97,3.94-9.32,5.91-19.29,5.91-29.88,0-14.09-3.35-26.89-10.09-38.4Zm-14.52,49.23c-.8,6.71-3.88,12.77-8.68,17.11-10.58,9.54-27.42,12.31-41.63,12.31-7.45,0-14.16-.77-18.92-1.69l-1.81-.34c-4.89-.92-10.43-1.97-15.38-4.52-9.05-4.68-15.2-14.92-15.66-26.09-.49-12.77,7.26-24.09,13.85-31.35,6.28-6.89,13.48-11.6,21.48-14.03,4.71-1.45,9.32-2.37,13.72-2.74,1.54-.15,3.08-.22,4.59-.22,2.09,0,4.12.12,6.09.4,24.09,3.11,45.05,28.46,42.37,51.17Zm-43.57-41.82c-2.74-.34-5.66-.4-8.68-.12-3.72.31-7.69,1.11-11.75,2.34-6.34,1.94-12.12,5.78-17.23,11.35-5.41,5.97-11.79,15.08-11.42,24.65.34,7.82,4.46,14.92,10.56,18.09,3.69,1.91,8.31,2.77,12.8,3.63l1.84.34c14.31,2.74,40.06,2.8,52.46-8.4,3.08-2.77,5.05-6.74,5.57-11.17,2.27-18.89-17.23-38.49-34.16-40.71Zm-17.94,31.85c-1.26,12.37-12.37,10.95-14.31,9.35-1.14-.95-1.39-3.08-1.54-4.46-.25-2.25-.22-4.77.34-6.98.77-2.92,2.22-5.63,3.97-8.09,1.45-1.97,3.69-5.51,6.65-4.43,0,0,6.15,2.25,4.89,14.62Zm35.05,3.48c-.09,1.14-.31,2.31-.93,3.29-1.66,2.58-6.49,2.22-8.98,1.17-3.75-1.51-5.63-5.26-6.21-9.11-1.94-12.25,4.06-14.83,4.06-14.83,2.89-1.26,5.35,2.15,6.86,4.06,3.6,4.37,5.69,9.69,5.2,15.42Zm-17.11-35.32c-2.74-.34-5.66-.4-8.68-.12-3.72.31-7.69,1.11-11.75,2.34-6.34,1.94-12.12,5.78-17.23,11.35-5.41,5.97-11.79,15.08-11.42,24.65.34,7.82,4.46,14.92,10.56,18.09,3.69,1.91,8.31,2.77,12.8,3.63l1.84.34c14.31,2.74,40.06,2.8,52.46-8.4,3.08-2.77,5.05-6.74,5.57-11.17,2.27-18.89-17.23-38.49-34.16-40.71Zm-17.94,31.85c-1.26,12.37-12.37,10.95-14.31,9.35-1.14-.95-1.39-3.08-1.54-4.46-.25-2.25-.22-4.77.34-6.98.77-2.92,2.22-5.63,3.97-8.09,1.45-1.97,3.69-5.51,6.65-4.43,0,0,6.15,2.25,4.89,14.62Zm35.05,3.48c-.09,1.14-.31,2.31-.93,3.29-1.66,2.58-6.49,2.22-8.98,1.17-3.75-1.51-5.63-5.26-6.21-9.11-1.94-12.25,4.06-14.83,4.06-14.83,2.89-1.26,5.35,2.15,6.86,4.06,3.6,4.37,5.69,9.69,5.2,15.42Zm-17.11-35.32c-2.74-.34-5.66-.4-8.68-.12-3.72.31-7.69,1.11-11.75,2.34-6.34,1.94-12.12,5.78-17.23,11.35-5.41,5.97-11.79,15.08-11.42,24.65.34,7.82,4.46,14.92,10.56,18.09,3.69,1.91,8.31,2.77,12.8,3.63l1.84.34c14.31,2.74,40.06,2.8,52.46-8.4,3.08-2.77,5.05-6.74,5.57-11.17,2.27-18.89-17.23-38.49-34.16-40.71Zm-17.94,31.85c-1.26,12.37-12.37,10.95-14.31,9.35-1.14-.95-1.39-3.08-1.54-4.46-.25-2.25-.22-4.77.34-6.98.77-2.92,2.22-5.63,3.97-8.09,1.45-1.97,3.69-5.51,6.65-4.43,0,0,6.15,2.25,4.89,14.62Zm35.05,3.48c-.09,1.14-.31,2.31-.93,3.29-1.66,2.58-6.49,2.22-8.98,1.17-3.75-1.51-5.63-5.26-6.21-9.11-1.94-12.25,4.06-14.83,4.06-14.83,2.89-1.26,5.35,2.15,6.86,4.06,3.6,4.37,5.69,9.69,5.2,15.42Z"/>
    <path class="cls-20" d="m776.08,387.67c-3.66-3.57-8.25-5.35-13.76-5.35s-9.88,1.78-13.51,5.35c-3.66,3.6-5.48,8.06-5.48,13.42s1.81,9.94,5.48,13.57c3.63,3.6,8.16,5.42,13.51,5.42s10.09-1.81,13.76-5.42c3.69-3.63,5.54-8.12,5.54-13.57s-1.85-9.82-5.54-13.42Zm-29.11,46.22v107.66h30.83v-107.66h-30.83Z"/>
    <path class="cls-20" d="m895.65,442.5c-7.54-7.48-17.51-11.2-29.91-11.2-13.11,0-24,4.43-32.68,13.29v-10.71h-30.83v107.66h30.83v-58.46c0-6.62,2.03-11.94,6.12-15.94,4.09-4.03,9.45-6.03,16.06-6.03s11.39,1.94,15.2,5.88c3.82,3.91,5.72,9.14,5.72,15.66v58.89h30.83v-69.29c0-12.4-3.79-22.31-11.36-29.75Z"/>
    <path class="cls-20" d="m990.11,483.49l45.6-49.6h-39.91l-35.48,40.12v-84.59h-30.83v152.13h30.83v-26l8.03-8.65,28.28,34.65h40.52l-47.05-58.06Z"/>
    <path class="cls-20" d="m647.37,630.57c-4.31-6.98-9.85-11.82-16.68-14.43,4.74-3.02,8.61-7.32,11.6-12.89,3.02-5.57,4.5-11.6,4.5-18.15,0-10.77-3.73-19.69-11.17-26.74-7.48-7.05-16.71-10.58-27.69-10.58h-70.55v145.73h75.17c11.85,0,21.66-3.72,29.51-11.14,7.85-7.42,11.75-16.89,11.75-28.37,0-8.58-2.15-16.4-6.43-23.42Zm-78.34-53.2h30.65c3.85,0,7.05,1.29,9.63,3.88,2.58,2.55,3.88,5.85,3.88,9.85s-1.32,7.17-3.94,9.78c-2.62,2.62-5.82,3.94-9.57,3.94h-30.65v-27.45Zm46.68,82.03c-2.98,2.98-6.74,4.49-11.2,4.49h-35.48v-31.45h35.48c4.4,0,8.12,1.51,11.14,4.58,3.01,3.05,4.52,6.83,4.52,11.29s-1.48,8.09-4.46,11.08Z"/>
    <path class="cls-20" d="m750.02,585.83v10.71c-8.65-8.86-19.51-13.29-32.58-13.29-14.77,0-27.14,5.38-37.08,16.18-9.94,10.8-14.89,24.22-14.89,40.22s4.96,29.45,14.89,40.22c9.94,10.8,22.31,16.22,37.08,16.22,13.08,0,23.94-4.43,32.58-13.32v10.74h30.83v-107.66h-30.83Zm-7.54,72.8c-5.02,5.08-11.29,7.63-18.86,7.63s-13.72-2.55-18.71-7.63c-4.99-5.08-7.48-11.42-7.48-18.99s2.49-13.88,7.48-18.95c4.99-5.11,11.23-7.63,18.71-7.63s13.85,2.52,18.86,7.63c5.02,5.08,7.54,11.42,7.54,18.95s-2.52,13.91-7.54,18.99Z"/>
    <path class="cls-20" d="m898.73,594.44c-7.57-7.48-17.54-11.2-29.91-11.2-13.14,0-24.03,4.43-32.68,13.29v-10.71h-30.83v107.66h30.83v-58.46c0-6.62,2.03-11.94,6.12-15.94,4.09-4.03,9.45-6.03,16.03-6.03s11.42,1.94,15.23,5.88c3.82,3.91,5.72,9.14,5.72,15.66v58.89h30.83v-69.29c0-12.4-3.78-22.31-11.35-29.75Z"/>
    <path class="cls-20" d="m990.05,639.62l45.57-49.6h-39.91l-35.48,40.12v-84.59h-30.83v152.13h30.83v-26l8.06-8.65,28.25,34.65h40.52l-47.02-58.06Z"/>
  </g>
</svg>