<?xml version="1.0" encoding="UTF-8"?>
<svg id="Capa_1" data-name="Capa 1" xmlns="http://www.w3.org/2000/svg" xmlns:xlink="http://www.w3.org/1999/xlink" viewBox="0 0 1080 1080">
  <defs>
    <style>
      .cls-1 {
        fill: #70d560;
      }

      .cls-2 {
        fill: url(#Degradado_sin_nombre_11-7);
      }

      .cls-3 {
        fill: url(#Degradado_sin_nombre_11-5);
      }

      .cls-4 {
        fill: url(#Degradado_sin_nombre_11-4);
      }

      .cls-5 {
        fill: #ff9597;
      }

      .cls-6 {
        fill: #a9e6a0;
      }

      .cls-7 {
        fill: #fff;
        opacity: .5;
      }

      .cls-8 {
        fill: url(#Degradado_sin_nombre_11);
      }

      .cls-9 {
        fill: url(#Degradado_sin_nombre_5-2);
      }

      .cls-10 {
        fill: url(#Degradado_sin_nombre_11-3);
      }

      .cls-11 {
        stroke-width: 2px;
      }

      .cls-11, .cls-12, .cls-13 {
        fill: none;
      }

      .cls-11, .cls-13 {
        stroke: #000;
        stroke-miterlimit: 10;
      }

      .cls-14 {
        fill: url(#Degradado_sin_nombre_11-6);
      }

      .cls-15 {
        fill: #fcfdef;
      }

      .cls-16 {
        fill: url(#Degradado_sin_nombre_5);
      }

      .cls-17 {
        fill: #c55569;
      }

      .cls-18 {
        fill: #d76682;
      }

      .cls-19 {
        fill: #da7386;
      }

      .cls-20 {
        fill: #fbd5c8;
      }

      .cls-21 {
        fill: #17412d;
      }

      .cls-22 {
        fill: #fd9385;
      }

      .cls-23 {
        fill: #ffebe6;
      }

      .cls-24 {
        fill: url(#Degradado_sin_nombre_11-2);
      }

      .cls-13 {
        stroke-width: .5px;
      }

      .cls-25 {
        fill: #d88da2;
      }
    </style>
    <linearGradient id="Degradado_sin_nombre_5" data-name="Degradado sin nombre 5" x1="330.07" y1="450.04" x2="429.69" y2="562.2" gradientUnits="userSpaceOnUse">
      <stop offset="0" stop-color="#c4cad6"/>
      <stop offset="1" stop-color="#302a44"/>
    </linearGradient>
    <linearGradient id="Degradado_sin_nombre_5-2" data-name="Degradado sin nombre 5" x1="116.69" y1="468.95" x2="216.44" y2="581.26" xlink:href="#Degradado_sin_nombre_5"/>
    <linearGradient id="Degradado_sin_nombre_11" data-name="Degradado sin nombre 11" x1="461.17" y1="470.13" x2="461.91" y2="540.23" gradientUnits="userSpaceOnUse">
      <stop offset="0" stop-color="#70d560"/>
      <stop offset="1" stop-color="#326d3c"/>
    </linearGradient>
    <linearGradient id="Degradado_sin_nombre_11-2" data-name="Degradado sin nombre 11" x1="375.86" y1="404.59" x2="377.7" y2="601.24" xlink:href="#Degradado_sin_nombre_11"/>
    <linearGradient id="Degradado_sin_nombre_11-3" data-name="Degradado sin nombre 11" x1="216.16" y1="410.09" x2="220.59" y2="624.08" xlink:href="#Degradado_sin_nombre_11"/>
    <linearGradient id="Degradado_sin_nombre_11-4" data-name="Degradado sin nombre 11" x1="150.52" y1="411.45" x2="154.95" y2="625.44" xlink:href="#Degradado_sin_nombre_11"/>
    <linearGradient id="Degradado_sin_nombre_11-5" data-name="Degradado sin nombre 11" x1="267.08" y1="468.78" x2="268.23" y2="524.32" xlink:href="#Degradado_sin_nombre_11"/>
    <linearGradient id="Degradado_sin_nombre_11-6" data-name="Degradado sin nombre 11" x1="374.93" y1="462.55" x2="376.04" y2="555.9" xlink:href="#Degradado_sin_nombre_11"/>
    <linearGradient id="Degradado_sin_nombre_11-7" data-name="Degradado sin nombre 11" x1="222.22" y1="335.73" x2="223.33" y2="429.07" gradientTransform="translate(-107.34 177.27) rotate(-7.51)" xlink:href="#Degradado_sin_nombre_11"/>
  </defs>
  <g>
    <path class="cls-20" d="m458.16,518.2l-7.84-9.42-1.57,6.47-16.23,37.63-6.46,5.72-50.44,6.82-40.5-2.58,1.11,15.31-7.38,15.68-11.99,11.07-39.48,10.33-29.88,1.11-17.16-2.76-19.09-13.47-6.36-11.25-.37-14.57-43.35,8.85-16.79.55-23.61.55-12.91-6.09-13.28-22.69-5.8-16.71-14.31,12.8-3.14,8.58-2.58,15.45v31.36l6.27,25.27,9.41,27.3,17.71,23.24,32.28,24.54,47.23,21.77,36.16,9.28,44.46,3.27,49.99-3.27,35.79-9.09,38.56-12.54,40.22-24.35,24.72-25.46,16.79-26.93,8.67-29.15,1.29-26.75s-.74-28.59-.74-31.36-10.24-26.2-10.24-26.2l-9.13-8.3Z"/>
    <path class="cls-20" d="m271.8,368.04l44.03,4.43,18.91,6.64,14.76-11.81,33.21-16.6s25.27-9.59,27.29-9.59,33.02-3.32,33.57-2.95c.55.37,21.95,2.58,22.51,2.95.55.37,14.2,26.56,14.2,26.56l6.64,16.05,9.22,18.82,6.43,16.23,3.9,13.28-1.48,8.85.18,5.53-4.52,20.2-8.39,13.84s-8.95,9.41-9.32,9.68-13.28,6.18-13.28,6.18c0,0-16.43-12.82-16.72-13.19-.28-.37,0-18.69,0-18.69l-18.85-11.44-50.18-9.72-31.61,1.6-29.64,7.01-10.95,7.75-7.38,7.87-4.3,15.75-31.74-3.45-34.82,8.98-11.65-19.43-25.33-10.45-34.57,1.35-33.81,6.15-20.17,7.26-18.45,11.8-9.1,8.99,1.84,16.85s-8.61-1.35-9.1-1.35-20.91-13.93-20.91-13.93l-14.02-20.75,1.6-22.63,9.96-40.95,8.24-25.09,24.97-8.36,24.84-4.18,31.61-.98,27.3,5.17,22.01,10.95s29.88-13.11,30.25-12.95c.37.16,52.78-8.21,52.78-8.21Z"/>
    <path class="cls-20" d="m237.83,513.24c-.57.15.52,9.76.52,9.76l24.81-7.38,36.84,3.42-.58-9.87-29.8-4.24-31.79,8.32Z"/>
    <polygon class="cls-5" points="207.25 570.04 206.39 592.65 218.55 608.96 249.7 616.26 284.2 614.5 311.57 606.29 327 596.94 334.89 584.55 335.11 562.85 331.54 557.07 320.31 537.76 309.29 526.41 286.6 515.8 262.98 514.1 233.5 526.17 220.99 539.05 210.91 552.77 207.25 570.04"/>
    <path class="cls-25" d="m75.7,555.3s-12.72,119.49,115.89,149.22c128.61,29.73,203.29-21.77,218.05-33.94,14.76-12.18,56.55-52.13,60.18-134.42l4.8,9.49,2.05,10.72,1.6,32.43-1.84,21.52-7.21,26.59-15.3,29.37-23.63,22.48-24.97,14.66-42.9,23.86-34.19,9.35-57.51,4.43-53.17-1.97-43.29-12.67-26.49-11.68-31.4-21.15-14.69-11.41-16.71-23.12-9.32-21.4-4.34-15.77-2.58-37.54,3.97-20.38,3-8.65"/>
    <path class="cls-25" d="m161.07,408.77s-44.91,48.31-50.54,63.99l-.59-12.98,7.5-30.87,8.73-11.31,9.59-7.4s11.81-1.94,12.54-2.31c.74-.37,12.77.89,12.77.89Z"/>
    <path class="cls-25" d="m76.57,551.5s-.46,31.18,38.19,38.56c38.65,7.38,90.06-3.34,90.06-3.34v-13.66l-43.85,11.56s-38-.61-39.35-.61-9.7-3.92-9.7-3.92l-14.47-19.68-8.54-22.64-9.47,7.87-2.86,5.87Z"/>
    <path class="cls-25" d="m325.25,608.13s16.69-10.79,18.63-32.28c0,0,41.66,3.72,70.44-3.54,28.78-7.26,46.43-23.05,51.22-42.4l-7.93-14.57-7.29-4.8-5.72,22.51-15.86,24.72-30.85,4.64-46.83,1.45-17.05-.28,1.94,15.31-6.18,14.67-11.25,8.02-4.52,3.23,4.15,3.32h7.1Z"/>
    <path class="cls-25" d="m476.79,360.97s-5.72,14.45-2.21,45.26c3.51,30.81-13.47,32.47-22.87,21.21l-6.46-18.26-13.65-18.08-14.67-10.61s-6.73-6.64-23.52.18c-16.79,6.83-16.42,19-21.21,20.29-4.8,1.29-44.34-22.84-44.34-22.84l-12.79-2.46s15.62,5.78,46.24,28.66c30.62,22.87,37.63,26.93,51.16,41.94l25.45,9.07,15.99,9.13-.95,18.69,17.79,14.27,15.13-7.87,14.02-23.49,4.87-17.73,1.71-17.07-6.24-18.38-11.78-22.32-11.69-29.58Z"/>
    <path class="cls-19" d="m47.19,422.4s-2.2,70.13,33.23,72.06l2.59,16.85-7.5-1.04-14.34-7.48-17.71-17.32-5.9-13.58,1.57-25.09,8.07-24.41"/>
    <path class="cls-15" d="m338.68,378.37s25.46-14.51,49.69-16.11c24.23-1.6,22.26-13.53,41.45-14.63,19.19-1.11,38-1.6,38-1.6l-8.98-6.89-43.81,1.55-34.52,11.12-34.44,16.23-7.38,10.33Z"/>
    <path class="cls-15" d="m420.7,353.71c.91.14,1.81.38,2.69.73,2.06.83,3.8,2.46,2.78,4.83-2.03,4.67-8.36,4.86-11.25,3.69-2.89-1.17-5.96-8.55,0-9.22,1.92-.22,3.88-.32,5.79-.02Z"/>
    <path class="cls-15" d="m53.05,406.66s6.58-12.61,10.76-14.76c4.18-2.15,10.64-5.1,26.32-5.29s32.72,5.78,45.37,3.2c12.65-2.58,41.99-3.04,47.88-1.94l-17.43-9.22-24.17-4.24-14.48-2.03-39.94,2.67-25.46,8.76-4.48,4.66-4.37,18.19Z"/>
    <path class="cls-15" d="m111.4,392.64c-.95.7-1.66,1.68-2.01,3.08-.35,1.38,0,2.74,1.04,3.73,1.49,1.41,3.67,1.04,5.36.22,1.09-.53,2.1-1.23,2.98-2.06,1.27-1.2,1.42-2.79.74-4.35-.64-1.49-2.01-2.32-3.63-2.13-1.68.21-3.27.62-4.48,1.52Z"/>
    <path class="cls-15" d="m198.56,406.17s-5.33,1.93-2.42,4.59c2.91,2.66,6.89-1.64,7.01-2.99.12-1.35-2.25-2.5-4.59-1.6Z"/>
    <path class="cls-15" d="m326.08,396.88s3.75,1.48,1.81,4.37c-1.94,2.89-6.46-.03-5.93-1.78.52-1.75.8-3.23,4.12-2.58Z"/>
    <path class="cls-15" d="m295.7,377.33s14.02,3.63,14.33,13.47c.31,9.84-18.39,5.17-18.39,5.17,0,0-10.64-3.38-12.54-11.13-1.91-7.75,7.93-10.95,16.6-7.5Z"/>
    <path class="cls-15" d="m240.2,378.19s-33.48,5.81-32.47,16.79c1.01,10.98,9.32,10.19,15.13,7.49s26.2-7.59,40.12-6.76,15.31-7.66,11.44-13.19c-3.87-5.53-21.03-6.92-34.22-4.34Z"/>
    <path class="cls-18" d="m210.96,559.34s-11.3,45.38,44.25,40.4c55.55-4.98,79.49-16.46,76.4-38.31l3.87,7.87-2.61,20.85-22.11,17.99-42.44,8.13h-32.45l-14.88-6.73-11.99-13.4-4.17-14.48,6.14-22.31Z"/>
    <path class="cls-23" d="m206.39,568.87s23.05-45.81,59.82-49.19c36.77-3.38,60.66,31.11,67.92,49.19l-8.31-22.3-20.54-22.04-21.08-8.3-16.76-1.81-11.51,3.35-23.94,9.95-13.44,14.44-10.68,16.24-1.48,10.46Z"/>
    <path class="cls-16" d="m433.5,488.05l-.38,2.59-1.48,10.21-2.14,14.77-11,18.45-7.77,5.83-6,4.5-.44.07-6.7,1.12-4.52.76-9,1.51s-1.61.02-4.03.04c-7.19.06-21.55.16-22.29-.04-.69-.19-11.58-4.04-17.91-6.28-2.63-.93-4.47-1.58-4.47-1.58l-.47-.57-2.57-3.11-7.4-8.96-3.19-3.86s-1.82-9.7-2.87-15.75c-.43-2.46-.73-4.31-.73-4.67,0-1.23,3.94-18.15,4.67-18.67.74-.52,7.38-11.34,7.38-11.34l8.84-2.96,5.43-1.82,12.79-1.29,12.89-1.3,4.48-.45,3.04-.31,3.04.34,26.72,3,13.38,3.51.15.04,8.54,6.15.08.21,1.75,4.41,2.17,5.45Z"/>
    <path class="cls-7" d="m339.03,470.11l-20.16,37.63c-.43-2.46-.73-4.31-.73-4.67,0-1.23,3.94-18.15,4.67-18.67.74-.52,7.38-11.34,7.38-11.34l8.84-2.96Z"/>
    <polygon class="cls-7" points="370.15 465.71 332.32 536.32 324.92 527.35 357.26 467 370.15 465.71"/>
    <path class="cls-7" d="m429.58,478.19l-36.52,68.16-9,1.51s-1.61.02-4.03.04l40.77-76.11.15.04,8.54,6.15.08.21Z"/>
    <polygon class="cls-7" points="433.5 488.05 433.12 490.64 404.29 544.47 397.58 545.6 431.33 482.6 433.5 488.05"/>
    <path class="cls-7" d="m380.7,465.29l-40.87,76.29c-2.63-.93-4.47-1.58-4.47-1.58l-.47-.57,39.74-74.17,3.04-.31,3.04.34Z"/>
    <polygon class="cls-7" points="431.64 500.85 429.5 515.62 418.5 534.07 410.72 539.9 431.64 500.85"/>
    <polygon class="cls-9" points="220.99 537.76 213.61 545.65 201.06 555.85 193.59 558.41 188.71 560.08 181.24 562.64 176.2 564.37 173.76 565.2 163.25 565.78 144.74 566.79 128.01 562.85 123.48 558.65 119.4 554.88 118.17 553.75 116.89 551.65 111.53 542.86 110.69 540.45 105.63 525.85 104.81 520.51 103.41 511.32 104.64 502.99 114.73 493.86 119.83 492.48 139.2 487.25 140.7 486.84 152.75 484.73 157.42 483.91 164.15 482.72 175.73 480.69 199.1 483.28 205.43 487.04 207.87 488.49 212.41 496.77 214.5 500.57 215.82 502.99 216.74 507.76 217.79 513.24 218.77 518.33 219.19 522.01 220.99 537.76"/>
    <polygon class="cls-7" points="119.83 492.48 104.81 520.51 103.41 511.32 104.64 502.99 114.73 493.86 119.83 492.48"/>
    <polygon class="cls-7" points="152.75 484.73 116.89 551.65 111.53 542.86 110.69 540.45 139.2 487.25 140.7 486.84 152.75 484.73"/>
    <polygon class="cls-7" points="212.41 496.77 176.2 564.37 173.76 565.2 163.25 565.78 205.43 487.04 207.87 488.49 212.41 496.77"/>
    <polygon class="cls-7" points="216.74 507.76 188.71 560.08 181.24 562.64 214.5 500.57 215.82 502.99 216.74 507.76"/>
    <polygon class="cls-7" points="164.15 482.72 123.48 558.65 119.4 554.88 157.42 483.91 164.15 482.72"/>
    <polygon class="cls-7" points="219.19 522.01 201.06 555.85 193.59 558.41 217.79 513.24 218.77 518.33 219.19 522.01"/>
    <polygon class="cls-8" points="452.97 485.48 451.64 507.44 466.92 526.17 470.4 517.4 471.44 502.4 462.73 490.9 452.97 485.48"/>
    <path class="cls-24" d="m441,455.6l-36.2-8.34-36.13-3.19-11.42,1.81s-26.76,4.18-27.6,4.38c-.84.2-19.02,9.15-19.02,9.15l-9.47,14.88-1.84,33.24.86,14.57,16.97,10.61,10.45,16.73,6.52,12.67,26.91,2.39,42.57-2.02,25.12-4.7,10.94-17.05,6.67-14.56,3.97-21.09,2.55-23.65,1.05-16.97-12.91-8.85Zm-8.61,41.08l-2.53,16.44-7.3,17.13-7.01,7.5-13.65,7.26-15.86,2.89-21.15.08-22.75-3.47-14.88-10.45-7.63-18.08v-22.13l4.8-14.76,17.71-8.99,21.28-3.56,31.24-.25,24.23,5.49s11.81,4.22,11.81,4.59,1.72,5.78,1.72,6.89v13.4Z"/>
    <path class="cls-10" d="m219.22,541.31l-.03.28s-.23.21-.64.58l.67-.86Z"/>
    <path class="cls-4" d="m237.16,520.69l-1.29,5.72-12.36,9.41-4.28,5.49,1.06-9.7-3.55-23.84-6.51-18.84s-7.69-6.76-9.41-6.2c-1.72.56-19.74.43-20.84-.03-1.11-.46-33.94,2.04-33.94,2.04,0,0-24.4,7.27-24.92,7.41-.52.14-15.48,7.07-15.48,7.07l-2.21,10.52,2.21,16.13,7.6,19.79,3.65,8.35,11.99,8.65,6.14,1.86s8.43,3.7,9.54,3.7,26.56-1.89,27.12-1.41c.55.48,18.45-3.07,19.19-4.15.74-1.08,12.8-9.02,13.97-9.02,1.01,0,11.08-9.05,13.73-11.46l-7.41,9.48-4.75,22.45-15.36,2.59-33.95,7.86-22.67-.63-15.76-.67-13.87-10.31-6.91-14.53-8.73-20.01-11.93,7.24-2.14,5.34-6.35-14.67.92-11.78,13.23-13.99-2.9-17.25,6.64-7.82,20.19-8.41s15.96-5.9,16.52-6.09c.55-.19,21.58-7.6,21.58-7.6l26.94-4.76s16.03-.56,17.16,0c1.13.56,24.35,3.77,24.35,3.77l9.86,9.28,7.11,9.03,5.54,23.66,1.29,16.34Z"/>
    <polygon class="cls-3" points="234.3 487.95 264.02 480.94 300.59 484.83 300.06 509.26 269.63 504.92 235.31 513.9 234.3 487.95"/>
    <path class="cls-6" d="m233.5,490.73l1.01,2.49c-.01-.28,26.91-14.13,64.18-4.9l.65-3.91-17.71-3.47-30.62,1.66-17.49,8.13Z"/>
    <path class="cls-6" d="m451.64,464.52l-.61,2.89s-5.23-3.63-10.45-6.4c-5.23-2.77-22.12-10.52-42.99-11.25,0,0-22.99-2.21-44.3-.74s-34.77,10.7-34.77,10.7c0,0-13.37,9.5-16.14,18.63l5.63-17.16,16.93-9.81,26.89-6.88h36.99l26.1,3.97,35.99,13.92.75,2.13Z"/>
    <path class="cls-6" d="m80.91,492.91l1.52,3.65s5.41-5.7,8.81-8.16c3.4-2.46,8.37-5.74,15.58-8.7,0,0,18.52-7.75,31.64-10.66,13.12-2.91,24.49-6.06,42.78-6.62,18.29-.55,31.17,4.4,31.17,4.4l8.57,2.73-18.88-9.75-30.35.46-25.94,2.94-22.95,6.93-18.16,5.61-23.81,17.15Z"/>
    <path class="cls-6" d="m109.96,545.5s.46,17.62,26.2,24.07c25.73,6.46,64.01-5.26,71.71-13.47,7.7-8.21-.35-1.13-.35-1.13l-4.61,1.6-15.08,4.6-25.38,5.61-23.24,1.1-18.82-8.98-10.42-13.41Z"/>
    <path class="cls-6" d="m319.62,525.64s2.64,12.48,14.51,19.12c8.84,4.95,26.56,9.18,47.39,7.02,6.85-.71,13.97-.81,20.87-2.72,27.06-7.5,27.47-35.95,27.47-35.95l-14.93,25.13-20.05,8.98-26.81,1.97-20.54-3.6-16.11-5.7-11.81-14.25Z"/>
    <path class="cls-21" d="m323.12,477.8c3.94-12.54,33.21-16.37,33.21-16.37,17.61-2.17,43.84.08,56.69,2.84,12.85,2.77,20.14,8.46,20.14,8.46,3.38,2.95,1.57,13.65,1.57,13.65l-6-10.52s-22.04-6.55-22.41-6.92c-.37-.37-23.06-2.21-24.44-2.21s-23.06-.43-23.06-.43l-26.38,6.24-9.32,5.26Z"/>
    <path class="cls-21" d="m213.16,490.74s-4.31-11.7-11.97-12.55c-7.66-.85-18.36-1.86-26.56-1.21-8.21.65-22.69.74-38.09,5.26s-29.98,10.45-34.5,15.19c-4.52,4.73.55,22.84.55,22.84l3.14-20.32,20.02-9.59,40.86-7.62s27.86.06,28.5.06,18.06,7.95,18.06,7.95Z"/>
    <path class="cls-21" d="m237.4,507.74s30.56-13.59,61.37-3.45v3.25l-12.24-1.51-35.6,2.21-13.53,3.07v-3.57Z"/>
    <path d="m435.37,483.84c-.05-2.89-.54-5.14-1.53-7.08-1.86-3.61-5.25-5.27-7.64-6.21-11.9-4.67-25.64-7.33-40.85-7.92-4.77-.18-8.66-.26-12.24-.25-9.03.04-16.4.66-23.16,1.96-8.53,1.64-15.78,4.31-22.16,8.16-5.26,3.18-8.87,10.06-10.71,20.47-1.27,7.15-1.24,13.44-1.23,14.05,0,.7-.01,7.75,2.55,15.83,1.57,4.96,3.79,9.3,6.6,12.89,3.57,4.57,8.09,7.91,13.42,9.93,8.73,3.32,16.83,5.12,25.47,5.68,2.04.13,4.04.19,6.02.19,5.38,0,10.54-.41,15.57-.81,1.91-.15,3.88-.31,5.84-.44,8.21-.56,15.14-2.75,21.18-6.69,5.13-3.34,9.63-7.92,14.15-14.4,8.07-11.57,8.94-33.39,8.74-45.36Zm-13.58,41.99c-8.57,12.28-17.52,17.66-30.89,18.58-2,.14-3.99.29-5.91.45-13.67,1.09-26.57,2.12-44.5-4.69-7.83-2.98-13.36-9.34-16.44-18.93-2.39-7.44-2.32-14.09-2.32-14.15v-.04s0-.04,0-.04c0-.06-.07-6.16,1.14-12.99,1.51-8.53,4.26-14.22,7.95-16.45,13.43-8.11,29.66-9.22,42.3-9.27,3.5-.01,7.31.06,11.99.24,14.55.56,27.64,3.09,38.92,7.51,2.39.94,3.83,2.02,4.55,3.42.57,1.1.85,2.52.88,4.48.15,9.07-.29,31.3-7.68,41.89Zm13.58-41.99c-.05-2.89-.54-5.14-1.53-7.08-1.86-3.61-5.25-5.27-7.64-6.21-11.9-4.67-25.64-7.33-40.85-7.92-4.77-.18-8.66-.26-12.24-.25-9.03.04-16.4.66-23.16,1.96-8.53,1.64-15.78,4.31-22.16,8.16-5.26,3.18-8.87,10.06-10.71,20.47-1.27,7.15-1.24,13.44-1.23,14.05,0,.7-.01,7.75,2.55,15.83,1.57,4.96,3.79,9.3,6.6,12.89,3.57,4.57,8.09,7.91,13.42,9.93,8.73,3.32,16.83,5.12,25.47,5.68,2.04.13,4.04.19,6.02.19,5.38,0,10.54-.41,15.57-.81,1.91-.15,3.88-.31,5.84-.44,8.21-.56,15.14-2.75,21.18-6.69,5.13-3.34,9.63-7.92,14.15-14.4,8.07-11.57,8.94-33.39,8.74-45.36Zm-13.58,41.99c-8.57,12.28-17.52,17.66-30.89,18.58-2,.14-3.99.29-5.91.45-13.67,1.09-26.57,2.12-44.5-4.69-7.83-2.98-13.36-9.34-16.44-18.93-2.39-7.44-2.32-14.09-2.32-14.15v-.04s0-.04,0-.04c0-.06-.07-6.16,1.14-12.99,1.51-8.53,4.26-14.22,7.95-16.45,13.43-8.11,29.66-9.22,42.3-9.27,3.5-.01,7.31.06,11.99.24,14.55.56,27.64,3.09,38.92,7.51,2.39.94,3.83,2.02,4.55,3.42.57,1.1.85,2.52.88,4.48.15,9.07-.29,31.3-7.68,41.89Zm-168.94,30.87c-3.65-10.83-10.01-8.65-10.01-8.65-.33.14-.65.3-.95.49-1.94,1.25-2.87,3.65-3.72,5.68-2.22,5.37-4.9,11.62-4.67,17.44.09,2.42.34,5.04,1.05,7.36.96,3.17,1.97,5.9,5.19,6.58,3.33.7,7.82-1.92,10.08-4.37,6.4-6.91,6.68-13.7,3.03-24.53Zm51.96,11.21c-.31-2.41-1.15-4.9-2.06-7.14-2.18-5.41-5.7-10.19-9.93-14.18-1.6-1.51-3.43-3.32-5.72-3.67-.35-.05-.71-.07-1.07-.06,0,0-6.7.62-5.6,11.99,1.11,11.38,3.01,17.95,11.68,21.64,3.06,1.3,6.49,1.3,9.24-.71,2.66-1.94,3.87-4.6,3.45-7.89Zm130.56-84.06c-.05-2.89-.54-5.14-1.53-7.08-1.86-3.61-5.25-5.27-7.64-6.21-11.9-4.67-25.64-7.33-40.85-7.92-4.77-.18-8.66-.26-12.24-.25-9.03.04-16.4.66-23.16,1.96-8.53,1.64-15.78,4.31-22.16,8.16-5.26,3.18-8.87,10.06-10.71,20.47-1.27,7.15-1.24,13.44-1.23,14.05,0,.7-.01,7.75,2.55,15.83,1.57,4.96,3.79,9.3,6.6,12.89,3.57,4.57,8.09,7.91,13.42,9.93,8.73,3.32,16.83,5.12,25.47,5.68,2.04.13,4.04.19,6.02.19,5.38,0,10.54-.41,15.57-.81,1.91-.15,3.88-.31,5.84-.44,8.21-.56,15.14-2.75,21.18-6.69,5.13-3.34,9.63-7.92,14.15-14.4,8.07-11.57,8.94-33.39,8.74-45.36Zm-13.58,41.99c-8.57,12.28-17.52,17.66-30.89,18.58-2,.14-3.99.29-5.91.45-13.67,1.09-26.57,2.12-44.5-4.69-7.83-2.98-13.36-9.34-16.44-18.93-2.39-7.44-2.32-14.09-2.32-14.15v-.04s0-.04,0-.04c0-.06-.07-6.16,1.14-12.99,1.51-8.53,4.26-14.22,7.95-16.45,13.43-8.11,29.66-9.22,42.3-9.27,3.5-.01,7.31.06,11.99.24,14.55.56,27.64,3.09,38.92,7.51,2.39.94,3.83,2.02,4.55,3.42.57,1.1.85,2.52.88,4.48.15,9.07-.29,31.3-7.68,41.89Zm13.58-41.99c-.05-2.89-.54-5.14-1.53-7.08-1.86-3.61-5.25-5.27-7.64-6.21-11.9-4.67-25.64-7.33-40.85-7.92-4.77-.18-8.66-.26-12.24-.25-9.03.04-16.4.66-23.16,1.96-8.53,1.64-15.78,4.31-22.16,8.16-5.26,3.18-8.87,10.06-10.71,20.47-1.27,7.15-1.24,13.44-1.23,14.05,0,.7-.01,7.75,2.55,15.83,1.57,4.96,3.79,9.3,6.6,12.89,3.57,4.57,8.09,7.91,13.42,9.93,8.73,3.32,16.83,5.12,25.47,5.68,2.04.13,4.04.19,6.02.19,5.38,0,10.54-.41,15.57-.81,1.91-.15,3.88-.31,5.84-.44,8.21-.56,15.14-2.75,21.18-6.69,5.13-3.34,9.63-7.92,14.15-14.4,8.07-11.57,8.94-33.39,8.74-45.36Zm-13.58,41.99c-8.57,12.28-17.52,17.66-30.89,18.58-2,.14-3.99.29-5.91.45-13.67,1.09-26.57,2.12-44.5-4.69-7.83-2.98-13.36-9.34-16.44-18.93-2.39-7.44-2.32-14.09-2.32-14.15v-.04s0-.04,0-.04c0-.06-.07-6.16,1.14-12.99,1.51-8.53,4.26-14.22,7.95-16.45,13.43-8.11,29.66-9.22,42.3-9.27,3.5-.01,7.31.06,11.99.24,14.55.56,27.64,3.09,38.92,7.51,2.39.94,3.83,2.02,4.55,3.42.57,1.1.85,2.52.88,4.48.15,9.07-.29,31.3-7.68,41.89Zm-116.98,42.08c-.31-2.41-1.15-4.9-2.06-7.14-2.18-5.41-5.7-10.19-9.93-14.18-1.6-1.51-3.43-3.32-5.72-3.67-.35-.05-.71-.07-1.07-.06,0,0-6.7.62-5.6,11.99,1.11,11.38,3.01,17.95,11.68,21.64,3.06,1.3,6.49,1.3,9.24-.71,2.66-1.94,3.87-4.6,3.45-7.89Zm-51.96-11.21c-3.65-10.83-10.01-8.65-10.01-8.65-.33.14-.65.3-.95.49-1.94,1.25-2.87,3.65-3.72,5.68-2.22,5.37-4.9,11.62-4.67,17.44.09,2.42.34,5.04,1.05,7.36.96,3.17,1.97,5.9,5.19,6.58,3.33.7,7.82-1.92,10.08-4.37,6.4-6.91,6.68-13.7,3.03-24.53Zm0,0c-3.65-10.83-10.01-8.65-10.01-8.65-.33.14-.65.3-.95.49-1.94,1.25-2.87,3.65-3.72,5.68-2.22,5.37-4.9,11.62-4.67,17.44.09,2.42.34,5.04,1.05,7.36.96,3.17,1.97,5.9,5.19,6.58,3.33.7,7.82-1.92,10.08-4.37,6.4-6.91,6.68-13.7,3.03-24.53Zm51.96,11.21c-.31-2.41-1.15-4.9-2.06-7.14-2.18-5.41-5.7-10.19-9.93-14.18-1.6-1.51-3.43-3.32-5.72-3.67-.35-.05-.71-.07-1.07-.06,0,0-6.7.62-5.6,11.99,1.11,11.38,3.01,17.95,11.68,21.64,3.06,1.3,6.49,1.3,9.24-.71,2.66-1.94,3.87-4.6,3.45-7.89Zm130.56-84.06c-.05-2.89-.54-5.14-1.53-7.08-1.86-3.61-5.25-5.27-7.64-6.21-11.9-4.67-25.64-7.33-40.85-7.92-4.77-.18-8.66-.26-12.24-.25-9.03.04-16.4.66-23.16,1.96-8.53,1.64-15.78,4.31-22.16,8.16-5.26,3.18-8.87,10.06-10.71,20.47-1.27,7.15-1.24,13.44-1.23,14.05,0,.7-.01,7.75,2.55,15.83,1.57,4.96,3.79,9.3,6.6,12.89,3.57,4.57,8.09,7.91,13.42,9.93,8.73,3.32,16.83,5.12,25.47,5.68,2.04.13,4.04.19,6.02.19,5.38,0,10.54-.41,15.57-.81,1.91-.15,3.88-.31,5.84-.44,8.21-.56,15.14-2.75,21.18-6.69,5.13-3.34,9.63-7.92,14.15-14.4,8.07-11.57,8.94-33.39,8.74-45.36Zm-13.58,41.99c-8.57,12.28-17.52,17.66-30.89,18.58-2,.14-3.99.29-5.91.45-13.67,1.09-26.57,2.12-44.5-4.69-7.83-2.98-13.36-9.34-16.44-18.93-2.39-7.44-2.32-14.09-2.32-14.15v-.04s0-.04,0-.04c0-.06-.07-6.16,1.14-12.99,1.51-8.53,4.26-14.22,7.95-16.45,13.43-8.11,29.66-9.22,42.3-9.27,3.5-.01,7.31.06,11.99.24,14.55.56,27.64,3.09,38.92,7.51,2.39.94,3.83,2.02,4.55,3.42.57,1.1.85,2.52.88,4.48.15,9.07-.29,31.3-7.68,41.89Zm13.58-41.99c-.05-2.89-.54-5.14-1.53-7.08-1.86-3.61-5.25-5.27-7.64-6.21-11.9-4.67-25.64-7.33-40.85-7.92-4.77-.18-8.66-.26-12.24-.25-9.03.04-16.4.66-23.16,1.96-8.53,1.64-15.78,4.31-22.16,8.16-5.26,3.18-8.87,10.06-10.71,20.47-1.27,7.15-1.24,13.44-1.23,14.05,0,.7-.01,7.75,2.55,15.83,1.57,4.96,3.79,9.3,6.6,12.89,3.57,4.57,8.09,7.91,13.42,9.93,8.73,3.32,16.83,5.12,25.47,5.68,2.04.13,4.04.19,6.02.19,5.38,0,10.54-.41,15.57-.81,1.91-.15,3.88-.31,5.84-.44,8.21-.56,15.14-2.75,21.18-6.69,5.13-3.34,9.63-7.92,14.15-14.4,8.07-11.57,8.94-33.39,8.74-45.36Zm-13.58,41.99c-8.57,12.28-17.52,17.66-30.89,18.58-2,.14-3.99.29-5.91.45-13.67,1.09-26.57,2.12-44.5-4.69-7.83-2.98-13.36-9.34-16.44-18.93-2.39-7.44-2.32-14.09-2.32-14.15v-.04s0-.04,0-.04c0-.06-.07-6.16,1.14-12.99,1.51-8.53,4.26-14.22,7.95-16.45,13.43-8.11,29.66-9.22,42.3-9.27,3.5-.01,7.31.06,11.99.24,14.55.56,27.64,3.09,38.92,7.51,2.39.94,3.83,2.02,4.55,3.42.57,1.1.85,2.52.88,4.48.15,9.07-.29,31.3-7.68,41.89Zm-116.98,42.08c-.31-2.41-1.15-4.9-2.06-7.14-2.18-5.41-5.7-10.19-9.93-14.18-1.6-1.51-3.43-3.32-5.72-3.67-.35-.05-.71-.07-1.07-.06,0,0-6.7.62-5.6,11.99,1.11,11.38,3.01,17.95,11.68,21.64,3.06,1.3,6.49,1.3,9.24-.71,2.66-1.94,3.87-4.6,3.45-7.89Zm-51.96-11.21c-3.65-10.83-10.01-8.65-10.01-8.65-.33.14-.65.3-.95.49-1.94,1.25-2.87,3.65-3.72,5.68-2.22,5.37-4.9,11.62-4.67,17.44.09,2.42.34,5.04,1.05,7.36.96,3.17,1.97,5.9,5.19,6.58,3.33.7,7.82-1.92,10.08-4.37,6.4-6.91,6.68-13.7,3.03-24.53Zm0,0c-3.65-10.83-10.01-8.65-10.01-8.65-.33.14-.65.3-.95.49-1.94,1.25-2.87,3.65-3.72,5.68-2.22,5.37-4.9,11.62-4.67,17.44.09,2.42.34,5.04,1.05,7.36.96,3.17,1.97,5.9,5.19,6.58,3.33.7,7.82-1.92,10.08-4.37,6.4-6.91,6.68-13.7,3.03-24.53Zm51.96,11.21c-.31-2.41-1.15-4.9-2.06-7.14-2.18-5.41-5.7-10.19-9.93-14.18-1.6-1.51-3.43-3.32-5.72-3.67-.35-.05-.71-.07-1.07-.06,0,0-6.7.62-5.6,11.99,1.11,11.38,3.01,17.95,11.68,21.64,3.06,1.3,6.49,1.3,9.24-.71,2.66-1.94,3.87-4.6,3.45-7.89Zm130.56-84.06c-.05-2.89-.54-5.14-1.53-7.08-1.86-3.61-5.25-5.27-7.64-6.21-11.9-4.67-25.64-7.33-40.85-7.92-4.77-.18-8.66-.26-12.24-.25-9.03.04-16.4.66-23.16,1.96-8.53,1.64-15.78,4.31-22.16,8.16-5.26,3.18-8.87,10.06-10.71,20.47-1.27,7.15-1.24,13.44-1.23,14.05,0,.7-.01,7.75,2.55,15.83,1.57,4.96,3.79,9.3,6.6,12.89,3.57,4.57,8.09,7.91,13.42,9.93,8.73,3.32,16.83,5.12,25.47,5.68,2.04.13,4.04.19,6.02.19,5.38,0,10.54-.41,15.57-.81,1.91-.15,3.88-.31,5.84-.44,8.21-.56,15.14-2.75,21.18-6.69,5.13-3.34,9.63-7.92,14.15-14.4,8.07-11.57,8.94-33.39,8.74-45.36Zm-13.58,41.99c-8.57,12.28-17.52,17.66-30.89,18.58-2,.14-3.99.29-5.91.45-13.67,1.09-26.57,2.12-44.5-4.69-7.83-2.98-13.36-9.34-16.44-18.93-2.39-7.44-2.32-14.09-2.32-14.15v-.04s0-.04,0-.04c0-.06-.07-6.16,1.14-12.99,1.51-8.53,4.26-14.22,7.95-16.45,13.43-8.11,29.66-9.22,42.3-9.27,3.5-.01,7.31.06,11.99.24,14.55.56,27.64,3.09,38.92,7.51,2.39.94,3.83,2.02,4.55,3.42.57,1.1.85,2.52.88,4.48.15,9.07-.29,31.3-7.68,41.89Zm13.58-41.99c-.05-2.89-.54-5.14-1.53-7.08-1.86-3.61-5.25-5.27-7.64-6.21-11.9-4.67-25.64-7.33-40.85-7.92-4.77-.18-8.66-.26-12.24-.25-9.03.04-16.4.66-23.16,1.96-8.53,1.64-15.78,4.31-22.16,8.16-5.26,3.18-8.87,10.06-10.71,20.47-1.27,7.15-1.24,13.44-1.23,14.05,0,.7-.01,7.75,2.55,15.83,1.57,4.96,3.79,9.3,6.6,12.89,3.57,4.57,8.09,7.91,13.42,9.93,8.73,3.32,16.83,5.12,25.47,5.68,2.04.13,4.04.19,6.02.19,5.38,0,10.54-.41,15.57-.81,1.91-.15,3.88-.31,5.84-.44,8.21-.56,15.14-2.75,21.18-6.69,5.13-3.34,9.63-7.92,14.15-14.4,8.07-11.57,8.94-33.39,8.74-45.36Zm-13.58,41.99c-8.57,12.28-17.52,17.66-30.89,18.58-2,.14-3.99.29-5.91.45-13.67,1.09-26.57,2.12-44.5-4.69-7.83-2.98-13.36-9.34-16.44-18.93-2.39-7.44-2.32-14.09-2.32-14.15v-.04s0-.04,0-.04c0-.06-.07-6.16,1.14-12.99,1.51-8.53,4.26-14.22,7.95-16.45,13.43-8.11,29.66-9.22,42.3-9.27,3.5-.01,7.31.06,11.99.24,14.55.56,27.64,3.09,38.92,7.51,2.39.94,3.83,2.02,4.55,3.42.57,1.1.85,2.52.88,4.48.15,9.07-.29,31.3-7.68,41.89Zm-116.98,42.08c-.31-2.41-1.15-4.9-2.06-7.14-2.18-5.41-5.7-10.19-9.93-14.18-1.6-1.51-3.43-3.32-5.72-3.67-.35-.05-.71-.07-1.07-.06,0,0-6.7.62-5.6,11.99,1.11,11.38,3.01,17.95,11.68,21.64,3.06,1.3,6.49,1.3,9.24-.71,2.66-1.94,3.87-4.6,3.45-7.89Zm-51.96-11.21c-3.65-10.83-10.01-8.65-10.01-8.65-.33.14-.65.3-.95.49-1.94,1.25-2.87,3.65-3.72,5.68-2.22,5.37-4.9,11.62-4.67,17.44.09,2.42.34,5.04,1.05,7.36.96,3.17,1.97,5.9,5.19,6.58,3.33.7,7.82-1.92,10.08-4.37,6.4-6.91,6.68-13.7,3.03-24.53Zm0,0c-3.65-10.83-10.01-8.65-10.01-8.65-.33.14-.65.3-.95.49-1.94,1.25-2.87,3.65-3.72,5.68-2.22,5.37-4.9,11.62-4.67,17.44.09,2.42.34,5.04,1.05,7.36.96,3.17,1.97,5.9,5.19,6.58,3.33.7,7.82-1.92,10.08-4.37,6.4-6.91,6.68-13.7,3.03-24.53Zm51.96,11.21c-.31-2.41-1.15-4.9-2.06-7.14-2.18-5.41-5.7-10.19-9.93-14.18-1.6-1.51-3.43-3.32-5.72-3.67-.35-.05-.71-.07-1.07-.06,0,0-6.7.62-5.6,11.99,1.11,11.38,3.01,17.95,11.68,21.64,3.06,1.3,6.49,1.3,9.24-.71,2.66-1.94,3.87-4.6,3.45-7.89Zm130.56-84.06c-.05-2.89-.54-5.14-1.53-7.08-1.86-3.61-5.25-5.27-7.64-6.21-11.9-4.67-25.64-7.33-40.85-7.92-4.77-.18-8.66-.26-12.24-.25-9.03.04-16.4.66-23.16,1.96-8.53,1.64-15.78,4.31-22.16,8.16-5.26,3.18-8.87,10.06-10.71,20.47-1.27,7.15-1.24,13.44-1.23,14.05,0,.7-.01,7.75,2.55,15.83,1.57,4.96,3.79,9.3,6.6,12.89,3.57,4.57,8.09,7.91,13.42,9.93,8.73,3.32,16.83,5.12,25.47,5.68,2.04.13,4.04.19,6.02.19,5.38,0,10.54-.41,15.57-.81,1.91-.15,3.88-.31,5.84-.44,8.21-.56,15.14-2.75,21.18-6.69,5.13-3.34,9.63-7.92,14.15-14.4,8.07-11.57,8.94-33.39,8.74-45.36Zm-13.58,41.99c-8.57,12.28-17.52,17.66-30.89,18.58-2,.14-3.99.29-5.91.45-13.67,1.09-26.57,2.12-44.5-4.69-7.83-2.98-13.36-9.34-16.44-18.93-2.39-7.44-2.32-14.09-2.32-14.15v-.04s0-.04,0-.04c0-.06-.07-6.16,1.14-12.99,1.51-8.53,4.26-14.22,7.95-16.45,13.43-8.11,29.66-9.22,42.3-9.27,3.5-.01,7.31.06,11.99.24,14.55.56,27.64,3.09,38.92,7.51,2.39.94,3.83,2.02,4.55,3.42.57,1.1.85,2.52.88,4.48.15,9.07-.29,31.3-7.68,41.89Zm13.58-41.99c-.05-2.89-.54-5.14-1.53-7.08-1.86-3.61-5.25-5.27-7.64-6.21-11.9-4.67-25.64-7.33-40.85-7.92-4.77-.18-8.66-.26-12.24-.25-9.03.04-16.4.66-23.16,1.96-8.53,1.64-15.78,4.31-22.16,8.16-5.26,3.18-8.87,10.06-10.71,20.47-1.27,7.15-1.24,13.44-1.23,14.05,0,.7-.01,7.75,2.55,15.83,1.57,4.96,3.79,9.3,6.6,12.89,3.57,4.57,8.09,7.91,13.42,9.93,8.73,3.32,16.83,5.12,25.47,5.68,2.04.13,4.04.19,6.02.19,5.38,0,10.54-.41,15.57-.81,1.91-.15,3.88-.31,5.84-.44,8.21-.56,15.14-2.75,21.18-6.69,5.13-3.34,9.63-7.92,14.15-14.4,8.07-11.57,8.94-33.39,8.74-45.36Zm-13.58,41.99c-8.57,12.28-17.52,17.66-30.89,18.58-2,.14-3.99.29-5.91.45-13.67,1.09-26.57,2.12-44.5-4.69-7.83-2.98-13.36-9.34-16.44-18.93-2.39-7.44-2.32-14.09-2.32-14.15v-.04s0-.04,0-.04c0-.06-.07-6.16,1.14-12.99,1.51-8.53,4.26-14.22,7.95-16.45,13.43-8.11,29.66-9.22,42.3-9.27,3.5-.01,7.31.06,11.99.24,14.55.56,27.64,3.09,38.92,7.51,2.39.94,3.83,2.02,4.55,3.42.57,1.1.85,2.52.88,4.48.15,9.07-.29,31.3-7.68,41.89Zm-116.98,42.08c-.31-2.41-1.15-4.9-2.06-7.14-2.18-5.41-5.7-10.19-9.93-14.18-1.6-1.51-3.43-3.32-5.72-3.67-.35-.05-.71-.07-1.07-.06,0,0-6.7.62-5.6,11.99,1.11,11.38,3.01,17.95,11.68,21.64,3.06,1.3,6.49,1.3,9.24-.71,2.66-1.94,3.87-4.6,3.45-7.89Zm-61.97-19.86c-.33.14-.65.3-.95.49-1.94,1.25-2.87,3.65-3.72,5.68-2.22,5.37-4.9,11.62-4.67,17.44.09,2.42.34,5.04,1.05,7.36.96,3.17,1.97,5.9,5.19,6.58,3.33.7,7.82-1.92,10.08-4.37,6.4-6.91,6.68-13.7,3.03-24.53-3.65-10.83-10.01-8.65-10.01-8.65Zm264.28-124.82c-3.95-12.7-10.3-24.45-16.52-36.14-5.43-10.49-9.84-21.41-13.8-32.55-.48-1.28-1.03-2.83-1.55-4.09l-.34-.84c-.11-.27-.24-.57-.37-.85l-.39-.86-.13-.3-.07-.15c-.02-.05-.04-.11-.07-.16l-.13-.33c-.56-1.43-.96-2.74-1.83-4.1-.48-.77-1.07-1.46-1.72-2.09-.04-.04-.08-.07-.12-.1l-.24-.2c-.16-.13-.32-.27-.48-.4l-.49-.35-.25-.17c-.08-.06-.17-.11-.25-.16l-.5-.29-.25-.14c-.08-.05-.17-.1-.25-.13-.33-.16-.66-.31-1-.46l-.98-.37c-.08-.03-.16-.06-.24-.09l-.24-.08-.48-.15-.48-.15c-.16-.05-.32-.08-.47-.12l-.94-.24c-.31-.07-.62-.13-.93-.19l-.46-.09c-.15-.03-.31-.06-.46-.08l-.91-.15c-.87-.14-1.84-.26-2.71-.35l-1.78-.17c-9.26-.67-18.53-.25-27.75.21l-3.43.2-.86.05-.43.03s-.42.03-.44.03c-30.94,2.28-59.87,16.49-84.25,35.06-1.26.98-2.53,1.99-3.77,3.03-10.3-3.71-20.95-6.5-31.76-8.24-36.2-5.81-73.97-.08-107.24,15.13-2.23,1.04-4.44,2.12-6.61,3.29-.58-.39-1.17-.76-1.76-1.13-15.61-9.57-33.91-14.53-52.17-14.99-1.22-.03-2.61-.02-3.83-.03-2.23.04-4.79.15-7.02.27-4.06.19-8.73.48-12.78.82-7.01.56-14.41,1.35-21.34,2.57-11.84,1.96-23.67,5.65-34.15,11.64-.27.55-.75,1.57-1,2.1-4.09,8.98-7.35,18.34-10.19,27.78-3.93,13.25-6.85,26.82-8.75,40.51-.57,4.22-1.07,8.63-1.45,12.87-.11,1.43.05,2.85.25,4.25.41,2.58,1.2,5.1,2.17,7.51l.23.54.23.54.25.53c.34.78.92,1.88,1.3,2.62.65,1.18,1.32,2.34,2.06,3.49,4.32,6.67,9.9,12.37,16,17.4,3.47,2.88,7.24,5.55,10.99,8.04l.28.12.17.07.14.06.26.1c.34.13.67.25,1.01.36,1.44.48,2.9.87,4.39,1.18-1.15,1.05-2.24,2.16-3.26,3.34-2.24,2.6-4.13,5.59-5.13,8.9-.72,2.38-.81,5.02-.53,7.41.81,6.47,3.54,12.39,6.83,17.89,0,0,.04.07.06.1-.75,2.79-2.14,8.37-3.38,15.65-1.63,9.6-3.27,24.08-1.84,38.51,1.84,18.62,6.19,34.78,13.3,49.42,9.99,20.59,25.34,37.47,45.63,50.19,56.93,35.69,102.8,38.69,128.77,38.69,2.88,0,5.52-.04,7.9-.07,1.27-.02,2.47-.03,3.59-.04,1.02.03,11.77.33,26.86-.71,14.36-.99,35.43-3.45,54.26-9.51,18.54-5.97,38.28-12.9,57.07-23.09,21.88-11.87,38.77-26.14,51.64-43.64,6.89-9.36,12.2-18.77,16.23-28.76,3.6-8.91,6.08-18.04,7.57-27.9,2.66-17.55,1.74-34.4.38-53.03-.5-6.84-2.31-13.88-5.37-20.91-1.31-3.01-2.86-6.03-4.61-9.02,2.2-2.75,3.77-6.42,4.57-10.77.79-4.32.82-9.28.07-13.96-.2-1.22-.66-2.51-1.39-3.89,7.55-2.57,13.99-6.89,19.2-12.89,4.81-5.54,8.55-12.49,11.12-20.65,3.42-10.85,3.85-20.85,3.87-24.82.08-.1.15-.2.23-.31.8-1.08,1.34-2.52,1.51-3.84.62-4.44-.77-9.16-2.04-13.17Zm-436.01,82.71c-3.93-2.64-7.81-5.47-11.37-8.58-5-4.32-9.65-9.27-13.16-14.86-.25-.39-.53-.9-.77-1.28l-.48-.87-.24-.43c-.16-.3-.51-1.01-.67-1.32l-.41-.89-.21-.45c-.42-1-.88-2.13-1.2-3.17-.59-1.87-1.03-3.82-1.07-5.78,0-.06,0-.13,0-.18,0-.05,0-.11,0-.14l.2-1.99c.17-1.97.47-4.39.69-6.34,1.05-8.43,2.49-16.83,4.33-25.12,1.6-7.23,3.54-14.48,5.75-21.55,2.53-8,5.37-15.93,8.85-23.57,4.45-2.35,9.04-4.33,13.83-5.87,13.08-4.16,27.11-5.61,40.78-6.57,2.63-.16,5.68-.37,8.38-.48,2.33-.12,4.92-.25,7.24-.26h1.02s1.02.01,1.02.01h.51s.25,0,.25,0h.26s2.04.08,2.04.08c.34.01.68.02,1.02.04,1.89.11,4.23.3,6.1.51l1.01.13,1.01.13c.34.05.68.08,1.01.14,12.44,1.84,24.67,5.92,35.46,12.4-8.04,5.15-15.84,10.7-23.33,16.63-1.6-.68-6.51-2.48-12.76-2.19-6.94.32-16.94,3.31-25.15,15.78-3.46,5.25-6.43,11.41-8.85,18.31-1.92,5.48-3.48,11.43-4.66,17.7-1.45,7.69-1.94,13.89-2.11,16.89-1.43.61-2.84,1.24-4.24,1.88-8.65,3.97-16.49,9.59-22.66,16.25-1.22,1.32-1.72,3.16-1.34,4.91l2.61,11.96c-2.96-.23-5.9-.84-8.68-1.89Zm225.99-13.79c.04,2.42.15,7.56.27,12.9-6.62-2.05-13.6-3.19-20.82-3.4-6.96-.19-14.14.48-21.36,2.01-7.35,1.55-13.19,3.65-16.77,5.13-.17-1.86-.38-3.9-.62-6.15-.45-4.2-1.15-8.01-1.95-11.39,3.04-1.4,9.31-3.97,17.67-5.82,10.58-2.34,26.58-3.89,43.75,1.54-.15,1.73-.2,3.43-.17,5.18Zm.42,19.16c.05,2.12.1,4.1.14,5.77-.58-.27-1.17-.53-1.75-.77-8.12-3.44-16.62-5.1-25.27-4.92-10.66.22-21.43,3.3-31.37,8.88-.07-1.42-.17-3.16-.33-5.27,2.92-1.3,9.29-3.85,17.65-5.59,10.15-2.12,25.32-3.44,40.93,1.91Zm-26.76,5.98c.38,0,.76-.01,1.14-.01,18.35,0,31.99,8.96,40.27,16.56,10.03,9.22,17.64,21.76,19.85,32.73,3.64,18.03-5.42,25.92-10.28,30.16-.61.53-1.13.99-1.6,1.43-1.75,1.67-9.33,6.31-21.59,9.98-8.83,2.65-22.27,5.44-39.7,5.44-4.28,0-8.8-.17-13.54-.55-10.17-.81-18.13-3.12-24.32-7.06-9.3-5.91-14.46-17.06-12.85-27.74.18-1.22.41-2.42.66-3.69.06-.32.12-.65.19-.97.08-.42.16-.84.24-1.26.64-3.41,1.3-6.93,2.18-10.29,1.78-6.85,5.34-13.54,10.46-19.73.3-.24.56-.53.75-.89,2.21-2.57,4.68-5.06,7.42-7.43,12.07-10.47,26.54-16.4,40.73-16.68Zm35.71-44.98c2.37-7.75,9.77-12.79,10.07-12.99,17.66-11.21,36.9-13.87,79.14-10.94,20.63,1.43,34.65,6.25,42.79,10.04,6.33,2.95,10.17,5.75,11.83,7.1l-1.15,16.78h0l-1.75,20.62c-.11.92-2.23,18.56-7.9,31.98-4.55,10.76-9.93,17.34-12.03,19.67-.29.32-.65.56-1.05.71-13.14,4.73-27.23,5.52-41.72,5.96-12.91.39-24.3.24-34.84-.47-4.69-.32-9.54-.97-13.85-1.85-1.36-3.92-3.25-7.93-5.58-11.86-3.79-6.39-8.72-12.46-14.27-17.56-3.93-3.61-8.12-6.72-12.52-9.3-.14-5.5-.57-22.99-.64-28.13-.09-5.93.82-11.1,3.47-19.75Zm-115.61,85.38c-6.67,2.75-11.42,3.6-11.47,3.61l-.1.02c-.21.04-21.13,4.33-34.31,3.15-13.01-1.16-23.98-7.52-28.63-16.61-5.18-10.11-9.46-27.22-9.55-38.16-.01-1.74-.04-4.98.99-6.69,1.18-1.97,4.61-3.57,6.65-4.52,7.59-3.54,14.66-6.24,21.64-8.25,11.37-3.27,23.97-5.07,39.64-5.66,5.26-.2,11.45-.32,17.46.33,3.86.41,7.83,1.12,10.7,3.43,2.36,1.9,4.59,4.95,6.82,9.34,3.21,6.31,5.01,13.98,5.5,23.46.6,11.56.79,16,.85,17.7-1.03,1.26-2.01,2.55-2.93,3.85-8.27,7.88-17.21,12.51-23.27,15.01Zm35.3-28.18c-1.2,1.04-2.35,2.1-3.46,3.18-.14-3.06-.34-7.03-.59-11.87-.53-10.32-2.54-18.77-6.14-25.83-2.62-5.14-5.36-8.82-8.38-11.25-4.06-3.27-9.02-4.2-13.78-4.71-6.38-.68-12.84-.56-18.31-.36-16.16.61-29.2,2.48-41.04,5.89-7.27,2.09-14.63,4.9-22.5,8.57-2.83,1.32-7.1,3.32-9.21,6.82-1.74,2.89-1.86,6.57-1.84,9.78.05,5.81,1.15,13.28,3.12,21.05,1.92,7.58,4.43,14.6,7.07,19.75,5.57,10.87,18.35,18.45,33.36,19.79,1.78.16,3.67.23,5.61.23,13.26,0,29.19-3.22,30.38-3.47.6-.11,5.56-1.05,12.48-3.88,3.93-1.61,8.97-4.04,14.3-7.56-.6,1.61-1.11,3.24-1.54,4.88-.92,3.54-1.6,7.14-2.25,10.63-.94.3-1.96.62-2.62.81-4.31,1.24-8.76,2.3-13.14,3.28-8.12,1.8-16.31,3.42-24.51,4.8-1.42.23-2.85.35-4.29.45-2.17.13-4.67.33-6.82.43-9.4.49-18.84,1-28.2.51-.99-.07-2.19-.16-3.16-.31l-.49-.08-.24-.04c-.37-.08-.87-.18-1.22-.3l-.19-.07-.19-.07c-.07-.02-.13-.06-.2-.08l-.4-.17-.4-.2-.2-.1-.2-.12-.41-.23-.4-.26c-5.58-3.62-12.08-12.2-14.91-18.28-.55-1.31-1.1-2.71-1.59-4.08-3.08-8.41-5.86-17.08-8.68-25.6l-7.99-36.66c5.63-6.03,12.77-11.13,20.65-14.75,15.79-7.25,33.86-12.56,55.23-16.23,10.86-1.87,20.4-2.55,29.17-2.08,11.61.62,26.06,2.64,34.83,12.96.64.75,1.1,1.38,1.45,1.95.27.48,5.89,10.62,7.6,26.61,1.28,11.94,1.52,18.07,1.55,20.58-2.52,1.72-4.96,3.61-7.33,5.65Zm-153.74-1.45c1.15-3.29,3.46-6.05,5.99-8.41,1.05-.97,2.18-1.9,3.35-2.77l3.9,17.91c-3.11,2.2-6.01,4.67-8.59,7.49-.51.56-1,1.14-1.48,1.73-2.32-4.73-4.73-11.25-3.17-15.96Zm401.66,29.84c2.32,31.73,4.96,67.69-23.05,105.77-27.18,36.95-68.85,52.73-105.77,64.61-18.24,5.87-38.77,8.26-52.78,9.24-15.24,1.06-26.29.71-26.4.71h-.06s-.06,0-.06,0c-1.15,0-2.38.03-3.68.04-23.27.33-71.68,1-133.46-37.72-33.08-20.74-51.98-52.76-56.19-95.19-1.36-13.74.21-27.62,1.77-36.85,1.07-6.3,2.27-11.35,3.03-14.26.55-1.12,1.02-2.07,1.02-2.07.62-1.26,1.39-2.45,2.27-3.58,1.91-2.43,4.17-4.59,6.6-6.53,2.19,6.54,4.42,13.08,6.9,19.53.85,2.3,2.01,4.59,3.31,6.66,3.93,6.32,10.17,14.21,16.87,17.69l.62.31.66.28c.11.04.22.1.33.14l.35.12.35.12c.11.04.23.08.36.11l.74.2c.23.05.45.1.68.14l.34.07.32.05c1.7.29,3.83.42,5.51.5,10.85.37,21.59-.34,32.39-1.06,1.82-.15,2.71-.16,4.69-.38,3.11-.36,6.2-1.02,9.27-1.59,8.29-1.61,16.58-3.36,24.77-5.44,2.12-.54,4.33-1.13,6.5-1.79-.87,6.3.12,12.76,2.89,18.71,2.8,6,7.18,11.02,12.67,14.51,3.52,2.24,7.49,4.01,11.98,5.33-3.5.23-18.45.67-29.47-7.54.51-1.55.31-3.1-.68-4.09-1.6-1.6-4.65-1.14-6.83,1.03-2.17,2.17-2.63,5.23-1.04,6.83.87.87,2.16,1.13,3.52.84,1.57,1.5,10.59,9.45,26.71,10.28,0,0-3.63,35.63,28.23,54.57,31.85,18.94,58.79-2.71,58.79-2.71,0,0,16.48-11.68,19.55-32.22,3.07-20.54-.98-31.48-.98-31.48,0,0,19.01-5.02,27.03-17.6,1.55-.14,2.85-.9,3.38-2.14.89-2.08-.67-4.74-3.5-5.95-2.82-1.21-5.83-.5-6.72,1.57-.48,1.12-.24,2.42.52,3.57-2.64,3.41-13,12.97-29.76,15.07,2.88-1.62,4.76-3,5.68-3.88.37-.35.85-.77,1.4-1.25,2.69-2.35,6.76-5.89,9.69-11.63,3.5-6.86,4.34-14.98,2.49-24.15,0-.05-.02-.1-.03-.16,3.76.65,7.72,1.13,11.69,1.4,6.9.46,14.15.7,21.93.7,4.32,0,8.81-.07,13.49-.21,14.98-.45,29.58-1.28,43.54-6.31,1.31-.47,2.5-1.27,3.43-2.3,2.3-2.55,8.19-9.74,13.09-21.33,3.4-8.05,5.56-17.29,6.83-24.06,2.32,2.46,5.42,6.01,8.55,10.38,5.71,7.96,12.73,20.4,13.76,34.4Zm-21.13-51.97c.2-1.39.29-2.24.31-2.4v-.04s1.31-15.44,1.31-15.44c1.47,1.14,3.19,2.53,4.92,4.06,7.8,6.86,9.09,10.41,9.28,11.62.96,6.06.53,13.49-2.24,18.38-.49-.73-1-1.45-1.52-2.17-5.03-7-9.89-11.92-12.07-14Zm44.93-42.18c-5.08,15.98-14.57,26.1-28.24,30.11-1.67-1.93-3.76-4-6.29-6.22-3.29-2.89-6.46-5.28-8.21-6.55l1.24-18-.97-.95c-.18-.18-4.53-4.39-14.08-8.9-5.13-2.42-10.82-4.48-16.93-6.15-.88-1.48-1.79-2.93-2.74-4.35-6.02-8.92-13.32-16.94-21.28-24.17-5.57-5.05-11.45-9.76-17.67-13.98,1.27-2.54,2.94-4.89,4.81-7.03,5.24-5.94,12.48-9.88,20.18-11.59,9.34-2.08,18.1,3.63,24.21,10.26,3.17,3.37,6.12,7.49,8.32,11.35,2.1,4.59,3.91,9.35,5.44,14.17.97,3.11,1.81,6.34,2.38,9.52.13.77.35,2.18.46,2.92.23,1.37.53,2.73.9,4.08,1.83,6.69,5.59,12.54,10.67,17.23,4.36,4.07,9.47,7.21,14.69,9.79,1.11.53,2.35.79,3.58.71,1.69-.09,3.36-.81,4.58-1.99.19-.18.42-.43.61-.63,1.62-1.81,2.95-3.77,4.33-5.61,3.28-4.22,8.63-6.58,12.73-10.21.2-.17.39-.34.59-.52-.42,4.53-1.33,10.51-3.3,16.7Zm4.67-28.89l-.03.32c-.02.34-.08.64-.19.91-.08.16-.22.36-.36.52-1.81,2.07-3.69,4.11-5.75,5.89-3.39,2.96-7.58,5.08-10.97,8.32-2.58,2.31-4.39,5.62-6.62,8.13l-.24.26s-.01.01-.02.02c-.02.02-.04.04-.06.06-.17.13-.43.17-.64.09-.02,0-.03-.02-.05-.02,0,0-.05-.03-.07-.03l-.36-.18-.73-.37c-5.31-2.71-10.17-5.93-14.14-10.27-4.06-4.43-6.62-9.84-7.53-15.78-.5-3.18-1.14-6.46-2.04-9.52-1.25-4.49-2.83-8.92-4.6-13.23-.76-1.81-1.51-3.62-2.37-5.39-4.95-8.55-11.97-16.86-20.76-21.65-6.16-3.38-13.57-4.51-20.37-2.46-2.93.79-5.79,1.84-8.52,3.19-8.25,4.05-15.23,10.83-19.13,19.2l-.19.43-.19.44-.19.46-.09.24-.05.13-.06.16-.76,2.17c7.52,4.7,14.68,10,21.6,15.55,9,7.24,17.55,15.08,25.32,23.64.17.2.35.39.53.59-8.24-2.13-17.26-3.55-26.8-4.21-22.04-1.53-37.29-1.48-49.46.15-13.03,1.75-23.3,5.36-33.28,11.71l-.03.02c-.38.25-9.45,6.26-12.49,16.21-1.23,4.02-2.11,7.39-2.71,10.47-7.54-2.29-15.42-3.52-23.47-3.67-7.38-.13-14.91.63-22.39,2.29-8.15,1.8-14.42,4.24-17.97,5.82-2.27-7.31-4.69-11.52-4.85-11.8l-.02-.04c-.52-.87-1.17-1.74-2.03-2.76-4.48-5.27-10.61-9.19-18.22-11.64-5.79-1.87-12.39-2.94-20.79-3.39-9.22-.49-19.19.22-30.49,2.16-17.39,2.99-32.66,7.05-46.36,12.33.27-3.24.81-7.97,1.84-13.43,1.76-9.33,5.38-22.75,12.62-33.75,5.44-8.26,12.25-12.67,20.24-13.12,2.87-.16,5.41.24,7.3.7-7.32,6.09-14.34,12.55-21,19.35-4.32,4.42-8.63,9.25-12.56,14.01-.62.77-2.06,2.57-2.72,3.38l1.95-2.13c1.05-1.17,2.88-3.06,3.96-4.2,4.98-5.1,10.38-10.13,15.8-14.75,14.98-12.66,31.21-23.93,48.51-33.19.37.28.78.58.78.58l2.19-1.26.44-.25c2.49-1.4,5.05-2.66,7.64-3.87,34.36-15.71,73.8-20.94,110.86-13.13,8.3,1.74,16.48,4.13,24.43,7.09l2.07.77c2.15-1.92,4.48-3.89,6.75-5.64,22.79-17.42,49.76-30.89,78.59-33.58l1.64-.13.41-.03.42-.03.85-.05,3.38-.21c8.9-.47,17.93-.91,26.78-.3.87.07,2.36.22,3.2.33,1.61.22,3.24.51,4.78,1,.26.08.66.24.94.34.95.41,1.56.79,2.07,1.4.39.47.63,1.03.89,1.68.28.71.59,1.57.89,2.27.3.68.66,1.43.95,2.12l.3.74.15.37c.41,1.08.94,2.41,1.33,3.51,4.26,11.89,9.09,23.66,15.05,34.82,4.78,8.88,9.6,17.81,13.2,27.24.79,2.07,1.52,4.14,2.2,6.25.99,3.1,1.86,5.88,1.91,8.93,0,.22-.01.44-.02.65Zm-184.18,88c1.57,4.96,3.79,9.3,6.6,12.89,3.57,4.57,8.09,7.91,13.42,9.93,8.73,3.32,16.83,5.12,25.47,5.68,2.04.13,4.04.19,6.02.19,5.38,0,10.54-.41,15.57-.81,1.91-.15,3.88-.31,5.84-.44,8.21-.56,15.14-2.75,21.18-6.69,5.13-3.34,9.63-7.92,14.15-14.4,8.07-11.57,8.94-33.39,8.74-45.36-.05-2.89-.54-5.14-1.53-7.08-1.86-3.61-5.25-5.27-7.64-6.21-11.9-4.67-25.64-7.33-40.85-7.92-4.77-.18-8.66-.26-12.24-.25-9.03.04-16.4.66-23.16,1.96-8.53,1.64-15.78,4.31-22.16,8.16-5.26,3.18-8.87,10.06-10.71,20.47-1.27,7.15-1.24,13.44-1.23,14.05,0,.7-.01,7.75,2.55,15.83Zm4.49-28.85c1.51-8.53,4.26-14.22,7.95-16.45,13.43-8.11,29.66-9.22,42.3-9.27,3.5-.01,7.31.06,11.99.24,14.55.56,27.64,3.09,38.92,7.51,2.39.94,3.83,2.02,4.55,3.42.57,1.1.85,2.52.88,4.48.15,9.07-.29,31.3-7.68,41.89-8.57,12.28-17.52,17.66-30.89,18.58-2,.14-3.99.29-5.91.45-13.67,1.09-26.57,2.12-44.5-4.69-7.83-2.98-13.36-9.34-16.44-18.93-2.39-7.44-2.32-14.09-2.32-14.15v-.04s0-.04,0-.04c0-.06-.07-6.16,1.14-12.99Zm-30.75,82.49c3.06,1.3,6.49,1.3,9.24-.71,2.66-1.94,3.87-4.6,3.45-7.89-.31-2.41-1.15-4.9-2.06-7.14-2.18-5.41-5.7-10.19-9.93-14.18-1.6-1.51-3.43-3.32-5.72-3.67-.35-.05-.71-.07-1.07-.06,0,0-6.7.62-5.6,11.99,1.11,11.38,3.01,17.95,11.68,21.64Zm-57.59,2.52c.96,3.17,1.97,5.9,5.19,6.58,3.33.7,7.82-1.92,10.08-4.37,6.4-6.91,6.68-13.7,3.03-24.53-3.65-10.83-10.01-8.65-10.01-8.65-.33.14-.65.3-.95.49-1.94,1.25-2.87,3.65-3.72,5.68-2.22,5.37-4.9,11.62-4.67,17.44.09,2.42.34,5.04,1.05,7.36Zm18.31-22.32c-3.65-10.83-10.01-8.65-10.01-8.65-.33.14-.65.3-.95.49-1.94,1.25-2.87,3.65-3.72,5.68-2.22,5.37-4.9,11.62-4.67,17.44.09,2.42.34,5.04,1.05,7.36.96,3.17,1.97,5.9,5.19,6.58,3.33.7,7.82-1.92,10.08-4.37,6.4-6.91,6.68-13.7,3.03-24.53Zm51.96,11.21c-.31-2.41-1.15-4.9-2.06-7.14-2.18-5.41-5.7-10.19-9.93-14.18-1.6-1.51-3.43-3.32-5.72-3.67-.35-.05-.71-.07-1.07-.06,0,0-6.7.62-5.6,11.99,1.11,11.38,3.01,17.95,11.68,21.64,3.06,1.3,6.49,1.3,9.24-.71,2.66-1.94,3.87-4.6,3.45-7.89Zm130.56-84.06c-.05-2.89-.54-5.14-1.53-7.08-1.86-3.61-5.25-5.27-7.64-6.21-11.9-4.67-25.64-7.33-40.85-7.92-4.77-.18-8.66-.26-12.24-.25-9.03.04-16.4.66-23.16,1.96-8.53,1.64-15.78,4.31-22.16,8.16-5.26,3.18-8.87,10.06-10.71,20.47-1.27,7.15-1.24,13.44-1.23,14.05,0,.7-.01,7.75,2.55,15.83,1.57,4.96,3.79,9.3,6.6,12.89,3.57,4.57,8.09,7.91,13.42,9.93,8.73,3.32,16.83,5.12,25.47,5.68,2.04.13,4.04.19,6.02.19,5.38,0,10.54-.41,15.57-.81,1.91-.15,3.88-.31,5.84-.44,8.21-.56,15.14-2.75,21.18-6.69,5.13-3.34,9.63-7.92,14.15-14.4,8.07-11.57,8.94-33.39,8.74-45.36Zm-13.58,41.99c-8.57,12.28-17.52,17.66-30.89,18.58-2,.14-3.99.29-5.91.45-13.67,1.09-26.57,2.12-44.5-4.69-7.83-2.98-13.36-9.34-16.44-18.93-2.39-7.44-2.32-14.09-2.32-14.15v-.04s0-.04,0-.04c0-.06-.07-6.16,1.14-12.99,1.51-8.53,4.26-14.22,7.95-16.45,13.43-8.11,29.66-9.22,42.3-9.27,3.5-.01,7.31.06,11.99.24,14.55.56,27.64,3.09,38.92,7.51,2.39.94,3.83,2.02,4.55,3.42.57,1.1.85,2.52.88,4.48.15,9.07-.29,31.3-7.68,41.89Zm13.58-41.99c-.05-2.89-.54-5.14-1.53-7.08-1.86-3.61-5.25-5.27-7.64-6.21-11.9-4.67-25.64-7.33-40.85-7.92-4.77-.18-8.66-.26-12.24-.25-9.03.04-16.4.66-23.16,1.96-8.53,1.64-15.78,4.31-22.16,8.16-5.26,3.18-8.87,10.06-10.71,20.47-1.27,7.15-1.24,13.44-1.23,14.05,0,.7-.01,7.75,2.55,15.83,1.57,4.96,3.79,9.3,6.6,12.89,3.57,4.57,8.09,7.91,13.42,9.93,8.73,3.32,16.83,5.12,25.47,5.68,2.04.13,4.04.19,6.02.19,5.38,0,10.54-.41,15.57-.81,1.91-.15,3.88-.31,5.84-.44,8.21-.56,15.14-2.75,21.18-6.69,5.13-3.34,9.63-7.92,14.15-14.4,8.07-11.57,8.94-33.39,8.74-45.36Zm-13.58,41.99c-8.57,12.28-17.52,17.66-30.89,18.58-2,.14-3.99.29-5.91.45-13.67,1.09-26.57,2.12-44.5-4.69-7.83-2.98-13.36-9.34-16.44-18.93-2.39-7.44-2.32-14.09-2.32-14.15v-.04s0-.04,0-.04c0-.06-.07-6.16,1.14-12.99,1.51-8.53,4.26-14.22,7.95-16.45,13.43-8.11,29.66-9.22,42.3-9.27,3.5-.01,7.31.06,11.99.24,14.55.56,27.64,3.09,38.92,7.51,2.39.94,3.83,2.02,4.55,3.42.57,1.1.85,2.52.88,4.48.15,9.07-.29,31.3-7.68,41.89Zm-116.98,42.08c-.31-2.41-1.15-4.9-2.06-7.14-2.18-5.41-5.7-10.19-9.93-14.18-1.6-1.51-3.43-3.32-5.72-3.67-.35-.05-.71-.07-1.07-.06,0,0-6.7.62-5.6,11.99,1.11,11.38,3.01,17.95,11.68,21.64,3.06,1.3,6.49,1.3,9.24-.71,2.66-1.94,3.87-4.6,3.45-7.89Zm-51.96-11.21c-3.65-10.83-10.01-8.65-10.01-8.65-.33.14-.65.3-.95.49-1.94,1.25-2.87,3.65-3.72,5.68-2.22,5.37-4.9,11.62-4.67,17.44.09,2.42.34,5.04,1.05,7.36.96,3.17,1.97,5.9,5.19,6.58,3.33.7,7.82-1.92,10.08-4.37,6.4-6.91,6.68-13.7,3.03-24.53Zm0,0c-3.65-10.83-10.01-8.65-10.01-8.65-.33.14-.65.3-.95.49-1.94,1.25-2.87,3.65-3.72,5.68-2.22,5.37-4.9,11.62-4.67,17.44.09,2.42.34,5.04,1.05,7.36.96,3.17,1.97,5.9,5.19,6.58,3.33.7,7.82-1.92,10.08-4.37,6.4-6.91,6.68-13.7,3.03-24.53Zm51.96,11.21c-.31-2.41-1.15-4.9-2.06-7.14-2.18-5.41-5.7-10.19-9.93-14.18-1.6-1.51-3.43-3.32-5.72-3.67-.35-.05-.71-.07-1.07-.06,0,0-6.7.62-5.6,11.99,1.11,11.38,3.01,17.95,11.68,21.64,3.06,1.3,6.49,1.3,9.24-.71,2.66-1.94,3.87-4.6,3.45-7.89Zm130.56-84.06c-.05-2.89-.54-5.14-1.53-7.08-1.86-3.61-5.25-5.27-7.64-6.21-11.9-4.67-25.64-7.33-40.85-7.92-4.77-.18-8.66-.26-12.24-.25-9.03.04-16.4.66-23.16,1.96-8.53,1.64-15.78,4.31-22.16,8.16-5.26,3.18-8.87,10.06-10.71,20.47-1.27,7.15-1.24,13.44-1.23,14.05,0,.7-.01,7.75,2.55,15.83,1.57,4.96,3.79,9.3,6.6,12.89,3.57,4.57,8.09,7.91,13.42,9.93,8.73,3.32,16.83,5.12,25.47,5.68,2.04.13,4.04.19,6.02.19,5.38,0,10.54-.41,15.57-.81,1.91-.15,3.88-.31,5.84-.44,8.21-.56,15.14-2.75,21.18-6.69,5.13-3.34,9.63-7.92,14.15-14.4,8.07-11.57,8.94-33.39,8.74-45.36Zm-13.58,41.99c-8.57,12.28-17.52,17.66-30.89,18.58-2,.14-3.99.29-5.91.45-13.67,1.09-26.57,2.12-44.5-4.69-7.83-2.98-13.36-9.34-16.44-18.93-2.39-7.44-2.32-14.09-2.32-14.15v-.04s0-.04,0-.04c0-.06-.07-6.16,1.14-12.99,1.51-8.53,4.26-14.22,7.95-16.45,13.43-8.11,29.66-9.22,42.3-9.27,3.5-.01,7.31.06,11.99.24,14.55.56,27.64,3.09,38.92,7.51,2.39.94,3.83,2.02,4.55,3.42.57,1.1.85,2.52.88,4.48.15,9.07-.29,31.3-7.68,41.89Zm13.58-41.99c-.05-2.89-.54-5.14-1.53-7.08-1.86-3.61-5.25-5.27-7.64-6.21-11.9-4.67-25.64-7.33-40.85-7.92-4.77-.18-8.66-.26-12.24-.25-9.03.04-16.4.66-23.16,1.96-8.53,1.64-15.78,4.31-22.16,8.16-5.26,3.18-8.87,10.06-10.71,20.47-1.27,7.15-1.24,13.44-1.23,14.05,0,.7-.01,7.75,2.55,15.83,1.57,4.96,3.79,9.3,6.6,12.89,3.57,4.57,8.09,7.91,13.42,9.93,8.73,3.32,16.83,5.12,25.47,5.68,2.04.13,4.04.19,6.02.19,5.38,0,10.54-.41,15.57-.81,1.91-.15,3.88-.31,5.84-.44,8.21-.56,15.14-2.75,21.18-6.69,5.13-3.34,9.63-7.92,14.15-14.4,8.07-11.57,8.94-33.39,8.74-45.36Zm-13.58,41.99c-8.57,12.28-17.52,17.66-30.89,18.58-2,.14-3.99.29-5.91.45-13.67,1.09-26.57,2.12-44.5-4.69-7.83-2.98-13.36-9.34-16.44-18.93-2.39-7.44-2.32-14.09-2.32-14.15v-.04s0-.04,0-.04c0-.06-.07-6.16,1.14-12.99,1.51-8.53,4.26-14.22,7.95-16.45,13.43-8.11,29.66-9.22,42.3-9.27,3.5-.01,7.31.06,11.99.24,14.55.56,27.64,3.09,38.92,7.51,2.39.94,3.83,2.02,4.55,3.42.57,1.1.85,2.52.88,4.48.15,9.07-.29,31.3-7.68,41.89Zm-116.98,42.08c-.31-2.41-1.15-4.9-2.06-7.14-2.18-5.41-5.7-10.19-9.93-14.18-1.6-1.51-3.43-3.32-5.72-3.67-.35-.05-.71-.07-1.07-.06,0,0-6.7.62-5.6,11.99,1.11,11.38,3.01,17.95,11.68,21.64,3.06,1.3,6.49,1.3,9.24-.71,2.66-1.94,3.87-4.6,3.45-7.89Zm-51.96-11.21c-3.65-10.83-10.01-8.65-10.01-8.65-.33.14-.65.3-.95.49-1.94,1.25-2.87,3.65-3.72,5.68-2.22,5.37-4.9,11.62-4.67,17.44.09,2.42.34,5.04,1.05,7.36.96,3.17,1.97,5.9,5.19,6.58,3.33.7,7.82-1.92,10.08-4.37,6.4-6.91,6.68-13.7,3.03-24.53Zm0,0c-3.65-10.83-10.01-8.65-10.01-8.65-.33.14-.65.3-.95.49-1.94,1.25-2.87,3.65-3.72,5.68-2.22,5.37-4.9,11.62-4.67,17.44.09,2.42.34,5.04,1.05,7.36.96,3.17,1.97,5.9,5.19,6.58,3.33.7,7.82-1.92,10.08-4.37,6.4-6.91,6.68-13.7,3.03-24.53Zm51.96,11.21c-.31-2.41-1.15-4.9-2.06-7.14-2.18-5.41-5.7-10.19-9.93-14.18-1.6-1.51-3.43-3.32-5.72-3.67-.35-.05-.71-.07-1.07-.06,0,0-6.7.62-5.6,11.99,1.11,11.38,3.01,17.95,11.68,21.64,3.06,1.3,6.49,1.3,9.24-.71,2.66-1.94,3.87-4.6,3.45-7.89Zm130.56-84.06c-.05-2.89-.54-5.14-1.53-7.08-1.86-3.61-5.25-5.27-7.64-6.21-11.9-4.67-25.64-7.33-40.85-7.92-4.77-.18-8.66-.26-12.24-.25-9.03.04-16.4.66-23.16,1.96-8.53,1.64-15.78,4.31-22.16,8.16-5.26,3.18-8.87,10.06-10.71,20.47-1.27,7.15-1.24,13.44-1.23,14.05,0,.7-.01,7.75,2.55,15.83,1.57,4.96,3.79,9.3,6.6,12.89,3.57,4.57,8.09,7.91,13.42,9.93,8.73,3.32,16.83,5.12,25.47,5.68,2.04.13,4.04.19,6.02.19,5.38,0,10.54-.41,15.57-.81,1.91-.15,3.88-.31,5.84-.44,8.21-.56,15.14-2.75,21.18-6.69,5.13-3.34,9.63-7.92,14.15-14.4,8.07-11.57,8.94-33.39,8.74-45.36Zm-13.58,41.99c-8.57,12.28-17.52,17.66-30.89,18.58-2,.14-3.99.29-5.91.45-13.67,1.09-26.57,2.12-44.5-4.69-7.83-2.98-13.36-9.34-16.44-18.93-2.39-7.44-2.32-14.09-2.32-14.15v-.04s0-.04,0-.04c0-.06-.07-6.16,1.14-12.99,1.51-8.53,4.26-14.22,7.95-16.45,13.43-8.11,29.66-9.22,42.3-9.27,3.5-.01,7.31.06,11.99.24,14.55.56,27.64,3.09,38.92,7.51,2.39.94,3.83,2.02,4.55,3.42.57,1.1.85,2.52.88,4.48.15,9.07-.29,31.3-7.68,41.89Zm13.58-41.99c-.05-2.89-.54-5.14-1.53-7.08-1.86-3.61-5.25-5.27-7.64-6.21-11.9-4.67-25.64-7.33-40.85-7.92-4.77-.18-8.66-.26-12.24-.25-9.03.04-16.4.66-23.16,1.96-8.53,1.64-15.78,4.31-22.16,8.16-5.26,3.18-8.87,10.06-10.71,20.47-1.27,7.15-1.24,13.44-1.23,14.05,0,.7-.01,7.75,2.55,15.83,1.57,4.96,3.79,9.3,6.6,12.89,3.57,4.57,8.09,7.91,13.42,9.93,8.73,3.32,16.83,5.12,25.47,5.68,2.04.13,4.04.19,6.02.19,5.38,0,10.54-.41,15.57-.81,1.91-.15,3.88-.31,5.84-.44,8.21-.56,15.14-2.75,21.18-6.69,5.13-3.34,9.63-7.92,14.15-14.4,8.07-11.57,8.94-33.39,8.74-45.36Zm-13.58,41.99c-8.57,12.28-17.52,17.66-30.89,18.58-2,.14-3.99.29-5.91.45-13.67,1.09-26.57,2.12-44.5-4.69-7.83-2.98-13.36-9.34-16.44-18.93-2.39-7.44-2.32-14.09-2.32-14.15v-.04s0-.04,0-.04c0-.06-.07-6.16,1.14-12.99,1.51-8.53,4.26-14.22,7.95-16.45,13.43-8.11,29.66-9.22,42.3-9.27,3.5-.01,7.31.06,11.99.24,14.55.56,27.64,3.09,38.92,7.51,2.39.94,3.83,2.02,4.55,3.42.57,1.1.85,2.52.88,4.48.15,9.07-.29,31.3-7.68,41.89Zm-116.98,42.08c-.31-2.41-1.15-4.9-2.06-7.14-2.18-5.41-5.7-10.19-9.93-14.18-1.6-1.51-3.43-3.32-5.72-3.67-.35-.05-.71-.07-1.07-.06,0,0-6.7.62-5.6,11.99,1.11,11.38,3.01,17.95,11.68,21.64,3.06,1.3,6.49,1.3,9.24-.71,2.66-1.94,3.87-4.6,3.45-7.89Zm-51.96-11.21c-3.65-10.83-10.01-8.65-10.01-8.65-.33.14-.65.3-.95.49-1.94,1.25-2.87,3.65-3.72,5.68-2.22,5.37-4.9,11.62-4.67,17.44.09,2.42.34,5.04,1.05,7.36.96,3.17,1.97,5.9,5.19,6.58,3.33.7,7.82-1.92,10.08-4.37,6.4-6.91,6.68-13.7,3.03-24.53Zm182.51-72.86c-.05-2.89-.54-5.14-1.53-7.08-1.86-3.61-5.25-5.27-7.64-6.21-11.9-4.67-25.64-7.33-40.85-7.92-4.77-.18-8.66-.26-12.24-.25-9.03.04-16.4.66-23.16,1.96-8.53,1.64-15.78,4.31-22.16,8.16-5.26,3.18-8.87,10.06-10.71,20.47-1.27,7.15-1.24,13.44-1.23,14.05,0,.7-.01,7.75,2.55,15.83,1.57,4.96,3.79,9.3,6.6,12.89,3.57,4.57,8.09,7.91,13.42,9.93,8.73,3.32,16.83,5.12,25.47,5.68,2.04.13,4.04.19,6.02.19,5.38,0,10.54-.41,15.57-.81,1.91-.15,3.88-.31,5.84-.44,8.21-.56,15.14-2.75,21.18-6.69,5.13-3.34,9.63-7.92,14.15-14.4,8.07-11.57,8.94-33.39,8.74-45.36Zm-13.58,41.99c-8.57,12.28-17.52,17.66-30.89,18.58-2,.14-3.99.29-5.91.45-13.67,1.09-26.57,2.12-44.5-4.69-7.83-2.98-13.36-9.34-16.44-18.93-2.39-7.44-2.32-14.09-2.32-14.15v-.04s0-.04,0-.04c0-.06-.07-6.16,1.14-12.99,1.51-8.53,4.26-14.22,7.95-16.45,13.43-8.11,29.66-9.22,42.3-9.27,3.5-.01,7.31.06,11.99.24,14.55.56,27.64,3.09,38.92,7.51,2.39.94,3.83,2.02,4.55,3.42.57,1.1.85,2.52.88,4.48.15,9.07-.29,31.3-7.68,41.89Zm13.58-41.99c-.05-2.89-.54-5.14-1.53-7.08-1.86-3.61-5.25-5.27-7.64-6.21-11.9-4.67-25.64-7.33-40.85-7.92-4.77-.18-8.66-.26-12.24-.25-9.03.04-16.4.66-23.16,1.96-8.53,1.64-15.78,4.31-22.16,8.16-5.26,3.18-8.87,10.06-10.71,20.47-1.27,7.15-1.24,13.44-1.23,14.05,0,.7-.01,7.75,2.55,15.83,1.57,4.96,3.79,9.3,6.6,12.89,3.57,4.57,8.09,7.91,13.42,9.93,8.73,3.32,16.83,5.12,25.47,5.68,2.04.13,4.04.19,6.02.19,5.38,0,10.54-.41,15.57-.81,1.91-.15,3.88-.31,5.84-.44,8.21-.56,15.14-2.75,21.18-6.69,5.13-3.34,9.63-7.92,14.15-14.4,8.07-11.57,8.94-33.39,8.74-45.36Zm-13.58,41.99c-8.57,12.28-17.52,17.66-30.89,18.58-2,.14-3.99.29-5.91.45-13.67,1.09-26.57,2.12-44.5-4.69-7.83-2.98-13.36-9.34-16.44-18.93-2.39-7.44-2.32-14.09-2.32-14.15v-.04s0-.04,0-.04c0-.06-.07-6.16,1.14-12.99,1.51-8.53,4.26-14.22,7.95-16.45,13.43-8.11,29.66-9.22,42.3-9.27,3.5-.01,7.31.06,11.99.24,14.55.56,27.64,3.09,38.92,7.51,2.39.94,3.83,2.02,4.55,3.42.57,1.1.85,2.52.88,4.48.15,9.07-.29,31.3-7.68,41.89Z"/>
    <path class="cls-17" d="m323.37,648.9l-4.67,8.95c-27.95-21.03-38.65-1.11-38.65-1.11-19.55-14.39-35.63,12.88-35.63,12.88l-7.23-7.41c43.17-51.28,86.18-13.31,86.18-13.31Z"/>
    <path class="cls-22" d="m318.7,657.85c-33.02,45.93-74.28,11.78-74.28,11.78,0,0,16.08-27.27,35.63-12.88,0,0,10.7-19.92,38.65,1.11Z"/>
    <path class="cls-11" d="m200.09,614.95c1.47,1.41,9.96,8.88,25.11,9.67,0,0-3.41,33.5,26.54,51.31,29.95,17.8,55.27-2.54,55.27-2.54,0,0,15.49-10.98,18.38-30.29,2.89-19.31-.92-29.6-.92-29.6,0,0,17.87-4.72,25.41-16.55"/>
    <g>
      <path class="cls-14" d="m395.47,512.28c-.27-1.19-.69-2.24-1.28-3.15-.58-.91-1.19-1.72-1.82-2.45-.63-.72-1.44-1.36-2.42-1.93-.99-.56-1.86-1.04-2.63-1.43-.76-.39-1.75-.77-2.96-1.13-1.21-.36-2.17-.63-2.89-.8,0,0-.02,0-.03,0v-8.27c2.4.69,4.81,1.91,7.25,3.65l6.28-9.08c-4.14-3.2-8.65-5.21-13.53-6.02v-7.09h-3.82v6.69c-.43-.02-.87-.03-1.31-.03-.14,0-.27,0-.41,0v-6.67h-3.82v6.94c-1.99.27-3.85.74-5.57,1.42-2.89,1.13-5.22,2.91-7,5.34-1.78,2.43-2.67,5.35-2.67,8.77,0,1.25.13,2.43.38,3.53.25,1.1.56,2.06.92,2.89.36.83.88,1.62,1.55,2.37.67.75,1.3,1.39,1.88,1.91s1.35,1.02,2.31,1.51,1.76.87,2.42,1.15c.66.28,1.54.59,2.65.92,1.11.33,1.97.57,2.58.73.16.04.35.09.55.14v9.1c-3.81-.57-7.31-2.27-10.49-5.1l-6.23,9.07c4.88,4.21,10.45,6.63,16.72,7.26v5.95h3.82v-5.78c.58,0,1.15-.03,1.71-.06v5.84h3.82v-6.34c3.32-.67,6.2-1.93,8.66-3.79,3.84-2.9,5.76-6.95,5.76-12.16,0-1.41-.13-2.71-.4-3.9Zm-23.38-13.59c-.11-.06-.21-.12-.3-.19-.42-.28-.78-.64-1.08-1.08-.3-.44-.45-.92-.45-1.46,0-1.19.61-2.08,1.82-2.66,0,0,0,0,.01,0v5.39Zm3.82-6.23c.28-.01.56-.02.85-.02s.57,0,.86.02v8.02c-.69-.17-1.26-.3-1.71-.41v-7.61Zm0,29.02v-8.36c.64.17,1.18.31,1.6.43.04.01.08.02.12.04v7.72c-.53.08-1.11.14-1.71.17Zm5.54-1.7v-4.45c.18.15.33.31.46.48.37.5.56,1.08.56,1.74,0,.89-.34,1.63-1.02,2.23Z"/>
      <path class="cls-6" d="m357.03,499.53s.75-14.33,15.39-17.61h-2.75l-5.48,2.13-4.91,4.55-1.72,3.53-1.01,5.2.48,2.19Z"/>
      <path class="cls-6" d="m375.62,475.21s-2.35.22-2.52.53c-.16.32-.46,6.29-.46,6.29l-.47-7.46,3.45.63Z"/>
      <path class="cls-6" d="m381.24,475.1s-2.35.22-2.52.53c-.16.32-.46,6.29-.46,6.29l-.47-7.46,3.45.63Z"/>
      <path class="cls-21" d="m357.3,498.83c.13-.17,2,10.21,15.4,12.11l-.02,1.5-8.79-3.19-4.99-4.42-1.67-4.25.07-1.74Z"/>
      <polygon class="cls-21" points="375.31 512.53 375.31 511.15 378.25 511.91 378.21 513.61 375.31 512.53"/>
      <path class="cls-21" d="m356.55,523.86s7.14,5.49,16.12,6.67v1.6h-.59l-6.4-.95-5.69-2.58-4.63-2.89,1.18-1.85Z"/>
      <path class="cls-21" d="m378.21,530.65v1.48h-2.89v-1.38c.95.03,1.92,0,2.89-.1Z"/>
      <path class="cls-21" d="m395.27,519.19l-1.55,5.24-3.87,3.93-3.69,2.15-4.73,1.63h-.58v-1.9c2.7.42,10.14-2.04,14.4-11.04Z"/>
      <path class="cls-13" d="m395.47,512.28c-.27-1.19-.69-2.24-1.28-3.15-.58-.91-1.19-1.72-1.82-2.45-.63-.72-1.44-1.36-2.42-1.93-.99-.56-1.86-1.04-2.63-1.43-.76-.39-1.75-.77-2.96-1.13-1.21-.36-2.17-.63-2.89-.8,0,0-.02,0-.03,0v-8.27c2.4.69,4.81,1.91,7.25,3.65l6.28-9.08c-4.14-3.2-8.65-5.21-13.53-6.02v-7.09h-3.82v6.69c-.43-.02-.87-.03-1.31-.03-.14,0-.27,0-.41,0v-6.67h-3.82v6.94c-1.99.27-3.85.74-5.57,1.42-2.89,1.13-5.22,2.91-7,5.34-1.78,2.43-2.67,5.35-2.67,8.77,0,1.25.13,2.43.38,3.53.25,1.1.56,2.06.92,2.89.36.83.88,1.62,1.55,2.37.67.75,1.3,1.39,1.88,1.91s1.35,1.02,2.31,1.51,1.76.87,2.42,1.15c.66.28,1.54.59,2.65.92,1.11.33,1.97.57,2.58.73.16.04.35.09.55.14v9.1c-3.81-.57-7.31-2.27-10.49-5.1l-6.23,9.07c4.88,4.21,10.45,6.63,16.72,7.26v5.95h3.82v-5.78c.58,0,1.15-.03,1.71-.06v5.84h3.82v-6.34c3.32-.67,6.2-1.93,8.66-3.79,3.84-2.9,5.76-6.95,5.76-12.16,0-1.41-.13-2.71-.4-3.9Zm-23.38-13.59c-.11-.06-.21-.12-.3-.19-.42-.28-.78-.64-1.08-1.08-.3-.44-.45-.92-.45-1.46,0-1.19.61-2.08,1.82-2.66,0,0,0,0,.01,0v5.39Zm3.82-6.23c.28-.01.56-.02.85-.02s.57,0,.86.02v8.02c-.69-.17-1.26-.3-1.71-.41v-7.61Zm0,29.02v-8.36c.64.17,1.18.31,1.6.43.04.01.08.02.12.04v7.72c-.53.08-1.11.14-1.71.17Zm5.54-1.7v-4.45c.18.15.33.31.46.48.37.5.56,1.08.56,1.74,0,.89-.34,1.63-1.02,2.23Z"/>
    </g>
    <g>
      <path class="cls-2" d="m183.68,527.71c-.42-1.15-.98-2.13-1.68-2.96-.7-.83-1.4-1.55-2.12-2.19-.72-.63-1.6-1.16-2.65-1.6-1.05-.43-1.98-.79-2.79-1.08-.81-.29-1.83-.53-3.08-.73-1.25-.2-2.24-.34-2.97-.41,0,0-.02,0-.03,0l-1.08-8.2c2.46.37,5.02,1.26,7.67,2.67l5.04-9.82c-4.53-2.63-9.26-4.03-14.2-4.2l-.93-7.02-3.79.5.87,6.64c-.43.04-.87.09-1.3.14-.13.02-.27.04-.4.06l-.87-6.61-3.79.5.91,6.88c-1.94.53-3.72,1.24-5.34,2.13-2.71,1.5-4.79,3.56-6.24,6.21-1.45,2.64-1.95,5.66-1.5,9.04.16,1.24.44,2.39.84,3.45.39,1.05.82,1.97,1.29,2.75.46.78,1.08,1.5,1.84,2.15.77.66,1.47,1.21,2.12,1.64.65.44,1.47.83,2.49,1.19,1.01.36,1.86.63,2.55.83.69.19,1.6.38,2.74.56,1.14.18,2.02.31,2.65.39.17.02.36.04.56.06l1.19,9.02c-3.85-.06-7.54-1.29-11.06-3.69l-5,9.81c5.39,3.54,11.23,5.21,17.52,5.02l.78,5.89,3.79-.5-.76-5.73c.58-.08,1.14-.18,1.69-.29l.76,5.79,3.79-.5-.83-6.29c3.2-1.09,5.9-2.72,8.1-4.89,3.43-3.38,4.81-7.65,4.13-12.8-.18-1.4-.49-2.67-.91-3.82Zm-24.96-10.42c-.12-.05-.23-.1-.32-.14-.45-.23-.86-.54-1.21-.93-.35-.4-.57-.86-.64-1.39-.16-1.18.33-2.14,1.45-2.87,0,0,0,0,.01,0l.7,5.34Zm2.97-6.68c.27-.05.55-.09.84-.13s.57-.07.86-.09l1.05,7.95c-.7-.07-1.29-.14-1.75-.19l-.99-7.54Zm3.79,28.77l-1.09-8.29c.66.08,1.21.16,1.64.22.04,0,.08.01.12.02l1.01,7.66c-.52.15-1.08.28-1.68.39Zm5.27-2.41l-.58-4.41c.2.13.37.27.51.41.44.45.7,1,.78,1.65.12.88-.12,1.66-.72,2.35Z"/>
      <path class="cls-6" d="m143.91,520.09s-1.13-14.3,12.95-19.47l-2.72.36-5.15,2.83-4.28,5.16-1.24,3.72-.32,5.29.76,2.11Z"/>
      <path class="cls-6" d="m159.16,493.55s-2.3.52-2.42.86.36,6.3.36,6.3l-1.44-7.33,3.5.18Z"/>
      <path class="cls-6" d="m164.73,492.7s-2.3.52-2.42.86.36,6.3.36,6.3l-1.44-7.33,3.5.18Z"/>
      <path class="cls-21" d="m144.09,519.36c.1-.19,3.31,9.86,16.85,9.99l.18,1.49-9.13-2.02-5.52-3.73-2.21-4-.16-1.73Z"/>
      <polygon class="cls-21" points="163.73 530.59 163.55 529.21 166.57 529.58 166.74 531.28 163.73 530.59"/>
      <path class="cls-21" d="m146.61,544.27s7.79,4.51,16.85,4.51l.21,1.58-.58.08-6.47-.11-5.98-1.82-4.96-2.26.93-1.99Z"/>
      <path class="cls-21" d="m168.97,548.17l.19,1.47-2.87.38-.18-1.37c.95-.1,1.9-.25,2.85-.47Z"/>
      <path class="cls-21" d="m184.39,534.58l-.85,5.39-3.32,4.4-3.38,2.62-4.47,2.23-.57.08-.25-1.89c2.73.07,9.79-3.35,12.84-12.83Z"/>
      <path class="cls-13" d="m183.68,527.71c-.42-1.15-.98-2.13-1.68-2.96-.7-.83-1.4-1.55-2.12-2.19-.72-.63-1.6-1.16-2.65-1.6-1.05-.43-1.98-.79-2.79-1.08-.81-.29-1.83-.53-3.08-.73-1.25-.2-2.24-.34-2.97-.41,0,0-.02,0-.03,0l-1.08-8.2c2.46.37,5.02,1.26,7.67,2.67l5.04-9.82c-4.53-2.63-9.26-4.03-14.2-4.2l-.93-7.02-3.79.5.87,6.64c-.43.04-.87.09-1.3.14-.13.02-.27.04-.4.06l-.87-6.61-3.79.5.91,6.88c-1.94.53-3.72,1.24-5.34,2.13-2.71,1.5-4.79,3.56-6.24,6.21-1.45,2.64-1.95,5.66-1.5,9.04.16,1.24.44,2.39.84,3.45.39,1.05.82,1.97,1.29,2.75.46.78,1.08,1.5,1.84,2.15.77.66,1.47,1.21,2.12,1.64.65.44,1.47.83,2.49,1.19,1.01.36,1.86.63,2.55.83.69.19,1.6.38,2.74.56,1.14.18,2.02.31,2.65.39.17.02.36.04.56.06l1.19,9.02c-3.85-.06-7.54-1.29-11.06-3.69l-5,9.81c5.39,3.54,11.23,5.21,17.52,5.02l.78,5.89,3.79-.5-.76-5.73c.58-.08,1.14-.18,1.69-.29l.76,5.79,3.79-.5-.83-6.29c3.2-1.09,5.9-2.72,8.1-4.89,3.43-3.38,4.81-7.65,4.13-12.8-.18-1.4-.49-2.67-.91-3.82Zm-24.96-10.42c-.12-.05-.23-.1-.32-.14-.45-.23-.86-.54-1.21-.93-.35-.4-.57-.86-.64-1.39-.16-1.18.33-2.14,1.45-2.87,0,0,0,0,.01,0l.7,5.34Zm2.97-6.68c.27-.05.55-.09.84-.13s.57-.07.86-.09l1.05,7.95c-.7-.07-1.29-.14-1.75-.19l-.99-7.54Zm3.79,28.77l-1.09-8.29c.66.08,1.21.16,1.64.22.04,0,.08.01.12.02l1.01,7.66c-.52.15-1.08.28-1.68.39Zm5.27-2.41l-.58-4.41c.2.13.37.27.51.41.44.45.7,1,.78,1.65.12.88-.12,1.66-.72,2.35Z"/>
      <line class="cls-12" x1="163.68" y1="550.36" x2="163.47" y2="548.78"/>
      <line class="cls-12" x1="166.3" y1="550.02" x2="166.12" y2="548.64"/>
      <line class="cls-12" x1="169.16" y1="549.64" x2="168.97" y2="548.17"/>
      <line class="cls-12" x1="171.8" y1="549.29" x2="171.55" y2="547.4"/>
    </g>
  </g>
  <g>
    <path class="cls-5" d="m662.05,435.88c-2.78-.34-5.76-.41-8.83-.12-3.79.31-7.82,1.13-11.95,2.38-6.45,1.97-12.33,5.88-17.53,11.55-5.51,6.07-11.99,15.34-11.61,25.07.35,7.95,4.54,15.18,10.74,18.4,3.75,1.94,8.45,2.82,13.02,3.69l1.88.34c14.56,2.79,40.75,2.85,53.37-8.54,3.13-2.82,5.13-6.85,5.67-11.36,2.31-19.22-17.53-39.16-34.74-41.41Zm-18.25,32.4c-1.28,12.58-12.58,11.14-14.55,9.52-1.16-.97-1.41-3.13-1.56-4.54-.25-2.28-.22-4.85.34-7.11.78-2.97,2.26-5.73,4.04-8.23,1.47-2,3.76-5.6,6.76-4.51,0,0,6.26,2.28,4.98,14.87Zm35.65,3.54c-.09,1.16-.31,2.35-.94,3.35-1.69,2.63-6.6,2.25-9.14,1.19-3.82-1.53-5.73-5.35-6.32-9.26-1.97-12.46,4.13-15.09,4.13-15.09,2.94-1.28,5.44,2.19,6.98,4.13,3.66,4.44,5.79,9.86,5.29,15.68Zm-17.4-35.93c-2.78-.34-5.76-.41-8.83-.12-3.79.31-7.82,1.13-11.95,2.38-6.45,1.97-12.33,5.88-17.53,11.55-5.51,6.07-11.99,15.34-11.61,25.07.35,7.95,4.54,15.18,10.74,18.4,3.75,1.94,8.45,2.82,13.02,3.69l1.88.34c14.56,2.79,40.75,2.85,53.37-8.54,3.13-2.82,5.13-6.85,5.67-11.36,2.31-19.22-17.53-39.16-34.74-41.41Zm-18.25,32.4c-1.28,12.58-12.58,11.14-14.55,9.52-1.16-.97-1.41-3.13-1.56-4.54-.25-2.28-.22-4.85.34-7.11.78-2.97,2.26-5.73,4.04-8.23,1.47-2,3.76-5.6,6.76-4.51,0,0,6.26,2.28,4.98,14.87Zm35.65,3.54c-.09,1.16-.31,2.35-.94,3.35-1.69,2.63-6.6,2.25-9.14,1.19-3.82-1.53-5.73-5.35-6.32-9.26-1.97-12.46,4.13-15.09,4.13-15.09,2.94-1.28,5.44,2.19,6.98,4.13,3.66,4.44,5.79,9.86,5.29,15.68Zm41.69-43.48c-6.85-11.71-16.28-20.91-28.26-27.61-11.99-6.67-25.29-10.02-39.91-10.02-10.99,0-21.35,1.97-31.08,5.88-9.7,3.91-18.03,9.26-24.95,16.06-6.92,6.79-12.39,14.9-16.37,24.38-3.97,9.48-5.98,19.59-5.98,30.36s2,20.91,5.98,30.39c3.98,9.45,9.45,17.59,16.37,24.38,6.92,6.79,15.24,12.14,24.95,16.09,9.74,3.97,20.09,5.95,31.08,5.95s21.28-1.97,30.99-5.95c9.67-3.94,18-9.3,24.98-16.09,6.95-6.79,12.43-14.93,16.46-24.38,4.01-9.48,6.01-19.63,6.01-30.39,0-14.34-3.41-27.36-10.27-39.06Zm-14.77,50.08c-.81,6.82-3.94,12.99-8.83,17.4-10.77,9.7-27.89,12.52-42.35,12.52-7.57,0-14.4-.78-19.25-1.72l-1.85-.34c-4.98-.94-10.61-2-15.65-4.6-9.2-4.76-15.46-15.18-15.93-26.54-.5-12.99,7.38-24.51,14.08-31.89,6.39-7.01,13.71-11.8,21.85-14.27,4.79-1.47,9.48-2.41,13.96-2.79,1.56-.16,3.13-.22,4.66-.22,2.13,0,4.19.13,6.2.41,24.51,3.16,45.82,28.95,43.1,52.05Zm-44.32-42.54c-2.78-.34-5.76-.41-8.83-.12-3.79.31-7.82,1.13-11.95,2.38-6.45,1.97-12.33,5.88-17.53,11.55-5.51,6.07-11.99,15.34-11.61,25.07.35,7.95,4.54,15.18,10.74,18.4,3.75,1.94,8.45,2.82,13.02,3.69l1.88.34c14.56,2.79,40.75,2.85,53.37-8.54,3.13-2.82,5.13-6.85,5.67-11.36,2.31-19.22-17.53-39.16-34.74-41.41Zm-18.25,32.4c-1.28,12.58-12.58,11.14-14.55,9.52-1.16-.97-1.41-3.13-1.56-4.54-.25-2.28-.22-4.85.34-7.11.78-2.97,2.26-5.73,4.04-8.23,1.47-2,3.76-5.6,6.76-4.51,0,0,6.26,2.28,4.98,14.87Zm35.65,3.54c-.09,1.16-.31,2.35-.94,3.35-1.69,2.63-6.6,2.25-9.14,1.19-3.82-1.53-5.73-5.35-6.32-9.26-1.97-12.46,4.13-15.09,4.13-15.09,2.94-1.28,5.44,2.19,6.98,4.13,3.66,4.44,5.79,9.86,5.29,15.68Zm-17.4-35.93c-2.78-.34-5.76-.41-8.83-.12-3.79.31-7.82,1.13-11.95,2.38-6.45,1.97-12.33,5.88-17.53,11.55-5.51,6.07-11.99,15.34-11.61,25.07.35,7.95,4.54,15.18,10.74,18.4,3.75,1.94,8.45,2.82,13.02,3.69l1.88.34c14.56,2.79,40.75,2.85,53.37-8.54,3.13-2.82,5.13-6.85,5.67-11.36,2.31-19.22-17.53-39.16-34.74-41.41Zm-18.25,32.4c-1.28,12.58-12.58,11.14-14.55,9.52-1.16-.97-1.41-3.13-1.56-4.54-.25-2.28-.22-4.85.34-7.11.78-2.97,2.26-5.73,4.04-8.23,1.47-2,3.76-5.6,6.76-4.51,0,0,6.26,2.28,4.98,14.87Zm35.65,3.54c-.09,1.16-.31,2.35-.94,3.35-1.69,2.63-6.6,2.25-9.14,1.19-3.82-1.53-5.73-5.35-6.32-9.26-1.97-12.46,4.13-15.09,4.13-15.09,2.94-1.28,5.44,2.19,6.98,4.13,3.66,4.44,5.79,9.86,5.29,15.68Zm-17.4-35.93c-2.78-.34-5.76-.41-8.83-.12-3.79.31-7.82,1.13-11.95,2.38-6.45,1.97-12.33,5.88-17.53,11.55-5.51,6.07-11.99,15.34-11.61,25.07.35,7.95,4.54,15.18,10.74,18.4,3.75,1.94,8.45,2.82,13.02,3.69l1.88.34c14.56,2.79,40.75,2.85,53.37-8.54,3.13-2.82,5.13-6.85,5.67-11.36,2.31-19.22-17.53-39.16-34.74-41.41Zm-18.25,32.4c-1.28,12.58-12.58,11.14-14.55,9.52-1.16-.97-1.41-3.13-1.56-4.54-.25-2.28-.22-4.85.34-7.11.78-2.97,2.26-5.73,4.04-8.23,1.47-2,3.76-5.6,6.76-4.51,0,0,6.26,2.28,4.98,14.87Zm35.65,3.54c-.09,1.16-.31,2.35-.94,3.35-1.69,2.63-6.6,2.25-9.14,1.19-3.82-1.53-5.73-5.35-6.32-9.26-1.97-12.46,4.13-15.09,4.13-15.09,2.94-1.28,5.44,2.19,6.98,4.13,3.66,4.44,5.79,9.86,5.29,15.68Z"/>
    <path class="cls-5" d="m780.15,385.05c-3.73-3.63-8.39-5.45-13.99-5.45s-10.05,1.81-13.74,5.45c-3.73,3.66-5.57,8.2-5.57,13.65s1.85,10.11,5.57,13.8c3.69,3.66,8.3,5.51,13.74,5.51s10.27-1.85,13.99-5.51c3.75-3.69,5.63-8.26,5.63-13.8s-1.88-9.98-5.63-13.65Zm-29.61,47.01v109.52h31.36v-109.52h-31.36Z"/>
    <path class="cls-5" d="m901.77,440.82c-7.67-7.61-17.81-11.39-30.42-11.39-13.33,0-24.41,4.51-33.24,13.52v-10.89h-31.36v109.52h31.36v-59.47c0-6.73,2.07-12.14,6.23-16.21,4.16-4.1,9.61-6.13,16.34-6.13s11.58,1.97,15.46,5.98c3.88,3.98,5.82,9.3,5.82,15.93v59.91h31.36v-70.49c0-12.61-3.85-22.69-11.55-30.27Z"/>
    <path class="cls-5" d="m997.87,482.51l46.39-50.46h-40.6l-36.09,40.81v-86.04h-31.36v154.75h31.36v-26.45l8.17-8.8,28.77,35.24h41.22l-47.86-59.06Z"/>
    <path class="cls-1" d="m649.22,632.13c-4.38-7.11-10.02-12.02-16.96-14.68,4.82-3.07,8.76-7.45,11.8-13.11,3.07-5.67,4.57-11.8,4.57-18.47,0-10.95-3.79-20.03-11.36-27.2-7.6-7.17-16.99-10.77-28.17-10.77h-71.77v148.24h76.46c12.05,0,22.04-3.79,30.02-11.33,7.98-7.54,11.95-17.18,11.95-28.86,0-8.73-2.19-16.68-6.54-23.82Zm-79.69-54.12h31.17c3.91,0,7.17,1.31,9.8,3.94,2.63,2.6,3.94,5.95,3.94,10.02s-1.34,7.29-4,9.95c-2.66,2.66-5.92,4.01-9.74,4.01h-31.17v-27.92Zm47.48,83.45c-3.04,3.04-6.85,4.57-11.39,4.57h-36.09v-31.99h36.09c4.47,0,8.26,1.53,11.33,4.66,3.07,3.1,4.6,6.95,4.6,11.49s-1.5,8.23-4.54,11.27Z"/>
    <path class="cls-1" d="m753.64,586.62v10.89c-8.8-9.01-19.84-13.52-33.15-13.52-15.03,0-27.61,5.48-37.72,16.46-10.11,10.99-15.15,24.63-15.15,40.91s5.04,29.95,15.15,40.91c10.11,10.99,22.69,16.5,37.72,16.5,13.3,0,24.35-4.51,33.15-13.55v10.92h31.36v-109.52h-31.36Zm-7.67,74.06c-5.1,5.16-11.49,7.76-19.19,7.76s-13.96-2.6-19.03-7.76c-5.07-5.16-7.6-11.61-7.6-19.31s2.53-14.12,7.6-19.28c5.07-5.2,11.42-7.76,19.03-7.76s14.08,2.57,19.19,7.76c5.1,5.16,7.67,11.61,7.67,19.28s-2.57,14.15-7.67,19.31Z"/>
    <path class="cls-1" d="m904.91,595.38c-7.7-7.61-17.84-11.39-30.43-11.39-13.36,0-24.44,4.51-33.24,13.52v-10.89h-31.36v109.52h31.36v-59.47c0-6.73,2.07-12.14,6.23-16.21,4.16-4.1,9.61-6.13,16.31-6.13s11.61,1.97,15.49,5.98c3.88,3.98,5.82,9.3,5.82,15.93v59.91h31.36v-70.49c0-12.61-3.85-22.69-11.55-30.27Z"/>
    <path class="cls-1" d="m997.8,641.34l46.36-50.46h-40.6l-36.09,40.81v-86.04h-31.36v154.75h31.36v-26.45l8.2-8.8,28.73,35.24h41.22l-47.83-59.06Z"/>
  </g>
</svg>