<?xml version="1.0" encoding="UTF-8"?>
<svg id="Capa_1" data-name="Capa 1" xmlns="http://www.w3.org/2000/svg" viewBox="0 0 1080 1080">
  <defs>
    <style>
      .cls-1 {
        fill: #17412d;
      }
    </style>
  </defs>
  <path class="cls-1" d="m123.52,512.61c-2.84-.35-5.88-.42-9.01-.13-3.86.32-7.99,1.15-12.2,2.43-6.58,2.01-12.59,6-17.89,11.79-5.62,6.2-12.23,15.65-11.85,25.58.35,8.11,4.63,15.49,10.96,18.78,3.83,1.98,8.62,2.88,13.29,3.77l1.92.35c14.85,2.84,41.58,2.91,54.46-8.72,3.19-2.87,5.24-6.99,5.78-11.59,2.36-19.61-17.89-39.96-35.46-42.26Zm-18.62,33.06c-1.31,12.84-12.84,11.37-14.85,9.71-1.18-.99-1.44-3.19-1.6-4.63-.26-2.33-.22-4.95.35-7.25.8-3.03,2.3-5.85,4.12-8.4,1.5-2.04,3.83-5.72,6.9-4.6,0,0,6.39,2.33,5.08,15.17Zm36.38,3.61c-.1,1.18-.32,2.4-.96,3.42-1.72,2.68-6.74,2.3-9.33,1.21-3.9-1.57-5.85-5.46-6.45-9.45-2.01-12.71,4.22-15.4,4.22-15.4,3-1.31,5.56,2.24,7.12,4.22,3.74,4.54,5.91,10.06,5.4,16Zm-17.76-36.67c-2.84-.35-5.88-.42-9.01-.13-3.86.32-7.99,1.15-12.2,2.43-6.58,2.01-12.59,6-17.89,11.79-5.62,6.2-12.23,15.65-11.85,25.58.35,8.11,4.63,15.49,10.96,18.78,3.83,1.98,8.62,2.88,13.29,3.77l1.92.35c14.85,2.84,41.58,2.91,54.46-8.72,3.19-2.87,5.24-6.99,5.78-11.59,2.36-19.61-17.89-39.96-35.46-42.26Zm-18.62,33.06c-1.31,12.84-12.84,11.37-14.85,9.71-1.18-.99-1.44-3.19-1.6-4.63-.26-2.33-.22-4.95.35-7.25.8-3.03,2.3-5.85,4.12-8.4,1.5-2.04,3.83-5.72,6.9-4.6,0,0,6.39,2.33,5.08,15.17Zm36.38,3.61c-.1,1.18-.32,2.4-.96,3.42-1.72,2.68-6.74,2.3-9.33,1.21-3.9-1.57-5.85-5.46-6.45-9.45-2.01-12.71,4.22-15.4,4.22-15.4,3-1.31,5.56,2.24,7.12,4.22,3.74,4.54,5.91,10.06,5.4,16Zm42.54-44.37c-6.99-11.95-16.61-21.34-28.84-28.17-12.23-6.8-25.81-10.22-40.72-10.22-11.21,0-21.78,2.01-31.72,6.01-9.9,3.99-18.4,9.45-25.46,16.38-7.06,6.93-12.65,15.2-16.71,24.88-4.05,9.68-6.1,19.99-6.1,30.98s2.04,21.34,6.1,31.01c4.06,9.65,9.65,17.95,16.71,24.88,7.06,6.93,15.56,12.39,25.46,16.42,9.93,4.06,20.51,6.07,31.72,6.07s21.72-2.01,31.62-6.07c9.87-4.02,18.37-9.49,25.49-16.42,7.09-6.93,12.68-15.24,16.8-24.88,4.09-9.68,6.13-20.03,6.13-31.01,0-14.63-3.48-27.92-10.48-39.86Zm-15.07,51.1c-.83,6.96-4.02,13.26-9.01,17.76-10.99,9.9-28.46,12.78-43.21,12.78-7.73,0-14.69-.8-19.64-1.76l-1.88-.35c-5.08-.96-10.83-2.04-15.97-4.7-9.39-4.85-15.78-15.49-16.26-27.09-.51-13.25,7.54-25.01,14.37-32.55,6.52-7.15,13.99-12.04,22.29-14.56,4.89-1.5,9.68-2.46,14.25-2.84,1.6-.16,3.19-.22,4.76-.22,2.17,0,4.28.13,6.33.42,25.01,3.23,46.76,29.54,43.98,53.12Zm-45.23-43.41c-2.84-.35-5.88-.42-9.01-.13-3.86.32-7.99,1.15-12.2,2.43-6.58,2.01-12.59,6-17.89,11.79-5.62,6.2-12.23,15.65-11.85,25.58.35,8.11,4.63,15.49,10.96,18.78,3.83,1.98,8.62,2.88,13.29,3.77l1.92.35c14.85,2.84,41.58,2.91,54.46-8.72,3.19-2.87,5.24-6.99,5.78-11.59,2.36-19.61-17.89-39.96-35.46-42.26Zm-18.62,33.06c-1.31,12.84-12.84,11.37-14.85,9.71-1.18-.99-1.44-3.19-1.6-4.63-.26-2.33-.22-4.95.35-7.25.8-3.03,2.3-5.85,4.12-8.4,1.5-2.04,3.83-5.72,6.9-4.6,0,0,6.39,2.33,5.08,15.17Zm36.38,3.61c-.1,1.18-.32,2.4-.96,3.42-1.72,2.68-6.74,2.3-9.33,1.21-3.9-1.57-5.85-5.46-6.45-9.45-2.01-12.71,4.22-15.4,4.22-15.4,3-1.31,5.56,2.24,7.12,4.22,3.74,4.54,5.91,10.06,5.4,16Zm-17.76-36.67c-2.84-.35-5.88-.42-9.01-.13-3.86.32-7.99,1.15-12.2,2.43-6.58,2.01-12.59,6-17.89,11.79-5.62,6.2-12.23,15.65-11.85,25.58.35,8.11,4.63,15.49,10.96,18.78,3.83,1.98,8.62,2.88,13.29,3.77l1.92.35c14.85,2.84,41.58,2.91,54.46-8.72,3.19-2.87,5.24-6.99,5.78-11.59,2.36-19.61-17.89-39.96-35.46-42.26Zm-18.62,33.06c-1.31,12.84-12.84,11.37-14.85,9.71-1.18-.99-1.44-3.19-1.6-4.63-.26-2.33-.22-4.95.35-7.25.8-3.03,2.3-5.85,4.12-8.4,1.5-2.04,3.83-5.72,6.9-4.6,0,0,6.39,2.33,5.08,15.17Zm36.38,3.61c-.1,1.18-.32,2.4-.96,3.42-1.72,2.68-6.74,2.3-9.33,1.21-3.9-1.57-5.85-5.46-6.45-9.45-2.01-12.71,4.22-15.4,4.22-15.4,3-1.31,5.56,2.24,7.12,4.22,3.74,4.54,5.91,10.06,5.4,16Zm-17.76-36.67c-2.84-.35-5.88-.42-9.01-.13-3.86.32-7.99,1.15-12.2,2.43-6.58,2.01-12.59,6-17.89,11.79-5.62,6.2-12.23,15.65-11.85,25.58.35,8.11,4.63,15.49,10.96,18.78,3.83,1.98,8.62,2.88,13.29,3.77l1.92.35c14.85,2.84,41.58,2.91,54.46-8.72,3.19-2.87,5.24-6.99,5.78-11.59,2.36-19.61-17.89-39.96-35.46-42.26Zm-18.62,33.06c-1.31,12.84-12.84,11.37-14.85,9.71-1.18-.99-1.44-3.19-1.6-4.63-.26-2.33-.22-4.95.35-7.25.8-3.03,2.3-5.85,4.12-8.4,1.5-2.04,3.83-5.72,6.9-4.6,0,0,6.39,2.33,5.08,15.17Zm36.38,3.61c-.1,1.18-.32,2.4-.96,3.42-1.72,2.68-6.74,2.3-9.33,1.21-3.9-1.57-5.85-5.46-6.45-9.45-2.01-12.71,4.22-15.4,4.22-15.4,3-1.31,5.56,2.24,7.12,4.22,3.74,4.54,5.91,10.06,5.4,16Z"/>
  <path class="cls-1" d="m244.03,460.74c-3.8-3.7-8.56-5.56-14.28-5.56s-10.25,1.85-14.02,5.56c-3.8,3.74-5.69,8.37-5.69,13.93s1.88,10.32,5.69,14.09c3.77,3.74,8.47,5.62,14.02,5.62s10.48-1.88,14.28-5.62c3.83-3.77,5.75-8.43,5.75-14.09s-1.92-10.19-5.75-13.93Zm-30.22,47.97v111.76h32v-111.76h-32Z"/>
  <path class="cls-1" d="m368.15,517.65c-7.82-7.76-18.17-11.63-31.05-11.63-13.61,0-24.91,4.6-33.92,13.8v-11.12h-32v111.76h32v-60.69c0-6.87,2.11-12.39,6.36-16.55,4.25-4.18,9.81-6.26,16.67-6.26s11.82,2.01,15.78,6.1c3.96,4.06,5.94,9.49,5.94,16.26v61.13h32.01v-71.93c0-12.87-3.93-23.16-11.79-30.89Z"/>
  <path class="cls-1" d="m466.2,560.2l47.34-51.49h-41.43l-36.83,41.65v-87.8h-32.01v157.91h32.01v-26.99l8.33-8.98,29.35,35.96h42.07l-48.84-60.27Z"/>
  <path class="cls-1" d="m641.2,555.15c-4.47-7.25-10.22-12.26-17.31-14.98,4.92-3.13,8.94-7.6,12.04-13.38,3.13-5.78,4.67-12.04,4.67-18.85,0-11.18-3.87-20.44-11.6-27.76-7.76-7.31-17.34-10.99-28.75-10.99h-73.24v151.27h78.03c12.3,0,22.49-3.87,30.63-11.56,8.14-7.7,12.2-17.54,12.2-29.45,0-8.91-2.24-17.02-6.68-24.31Zm-81.32-55.22h31.81c3.99,0,7.31,1.34,10,4.02,2.68,2.65,4.02,6.07,4.02,10.22s-1.37,7.44-4.09,10.16c-2.72,2.71-6.04,4.09-9.93,4.09h-31.81v-28.49Zm48.45,85.15c-3.1,3.1-6.99,4.66-11.63,4.66h-36.83v-32.64h36.83c4.57,0,8.43,1.57,11.56,4.76,3.13,3.16,4.69,7.09,4.69,11.72s-1.53,8.4-4.63,11.5Z"/>
  <path class="cls-1" d="m747.76,508.71v11.12c-8.98-9.2-20.25-13.8-33.82-13.8-15.33,0-28.17,5.59-38.49,16.8-10.32,11.21-15.46,25.14-15.46,41.75s5.14,30.57,15.46,41.75c10.32,11.21,23.16,16.83,38.49,16.83,13.57,0,24.85-4.6,33.82-13.83v11.15h32v-111.76h-32Zm-7.83,75.57c-5.21,5.27-11.72,7.92-19.58,7.92s-14.25-2.65-19.42-7.92c-5.17-5.27-7.76-11.85-7.76-19.71s2.59-14.41,7.76-19.68c5.17-5.3,11.66-7.92,19.42-7.92s14.37,2.62,19.58,7.92c5.21,5.27,7.83,11.85,7.83,19.68s-2.62,14.44-7.83,19.71Z"/>
  <path class="cls-1" d="m902.13,517.65c-7.86-7.76-18.21-11.63-31.05-11.63-13.64,0-24.94,4.6-33.92,13.8v-11.12h-32v111.76h32v-60.69c0-6.87,2.11-12.39,6.36-16.55,4.25-4.18,9.81-6.26,16.64-6.26s11.85,2.01,15.81,6.1c3.96,4.06,5.94,9.49,5.94,16.26v61.13h32v-71.93c0-12.87-3.93-23.16-11.78-30.89Z"/>
  <path class="cls-1" d="m996.92,564.55l47.31-51.49h-41.43l-36.83,41.65v-87.8h-32.01v157.91h32.01v-26.99l8.37-8.98,29.32,35.96h42.07l-48.81-60.27Z"/>
</svg>