<?xml version="1.0" encoding="UTF-8"?>
<svg id="Capa_2" data-name="Capa 2" xmlns="http://www.w3.org/2000/svg" xmlns:xlink="http://www.w3.org/1999/xlink" viewBox="0 0 215.81 185.56">
  <defs>
    <style>
      .cls-1 {
        fill: url(#Degradado_sin_nombre_11-7);
      }

      .cls-2 {
        fill: url(#Degradado_sin_nombre_11-5);
      }

      .cls-3 {
        fill: url(#Degradado_sin_nombre_11-4);
      }

      .cls-4 {
        fill: #ff9597;
      }

      .cls-5 {
        fill: #a9e6a0;
      }

      .cls-6 {
        fill: #fff;
        opacity: .5;
      }

      .cls-7 {
        fill: url(#Degradado_sin_nombre_11);
      }

      .cls-8 {
        fill: url(#Degradado_sin_nombre_5-2);
      }

      .cls-9 {
        fill: url(#Degradado_sin_nombre_11-3);
      }

      .cls-10 {
        stroke-width: 2px;
      }

      .cls-10, .cls-11, .cls-12 {
        fill: none;
      }

      .cls-10, .cls-12 {
        stroke: #000;
        stroke-miterlimit: 10;
      }

      .cls-13 {
        fill: url(#Degradado_sin_nombre_11-6);
      }

      .cls-14 {
        fill: #fcfdef;
      }

      .cls-15 {
        fill: url(#Degradado_sin_nombre_5);
      }

      .cls-16 {
        fill: #c55569;
      }

      .cls-17 {
        fill: #d76682;
      }

      .cls-18 {
        fill: #da7386;
      }

      .cls-19 {
        fill: #fbd5c8;
      }

      .cls-20 {
        fill: #17412d;
      }

      .cls-21 {
        fill: #fd9385;
      }

      .cls-22 {
        fill: #ffebe6;
      }

      .cls-23 {
        fill: url(#Degradado_sin_nombre_11-2);
      }

      .cls-12 {
        stroke-width: .5px;
      }

      .cls-24 {
        fill: #d88da2;
      }
    </style>
    <linearGradient id="Degradado_sin_nombre_5" data-name="Degradado sin nombre 5" x1="134.37" y1="51.92" x2="179.63" y2="102.87" gradientUnits="userSpaceOnUse">
      <stop offset="0" stop-color="#c4cad6"/>
      <stop offset="1" stop-color="#302a44"/>
    </linearGradient>
    <linearGradient id="Degradado_sin_nombre_5-2" data-name="Degradado sin nombre 5" x1="37.44" y1="60.5" x2="82.75" y2="111.52" xlink:href="#Degradado_sin_nombre_5"/>
    <linearGradient id="Degradado_sin_nombre_11" data-name="Degradado sin nombre 11" x1="193.93" y1="61.04" x2="194.27" y2="92.88" gradientUnits="userSpaceOnUse">
      <stop offset="0" stop-color="#70d560"/>
      <stop offset="1" stop-color="#326d3c"/>
    </linearGradient>
    <linearGradient id="Degradado_sin_nombre_11-2" data-name="Degradado sin nombre 11" x1="155.17" y1="31.26" x2="156.01" y2="120.6" xlink:href="#Degradado_sin_nombre_11"/>
    <linearGradient id="Degradado_sin_nombre_11-3" data-name="Degradado sin nombre 11" x1="82.63" y1="33.76" x2="84.64" y2="130.98" xlink:href="#Degradado_sin_nombre_11"/>
    <linearGradient id="Degradado_sin_nombre_11-4" data-name="Degradado sin nombre 11" x1="52.81" y1="34.38" x2="54.82" y2="131.59" xlink:href="#Degradado_sin_nombre_11"/>
    <linearGradient id="Degradado_sin_nombre_11-5" data-name="Degradado sin nombre 11" x1="105.76" y1="60.43" x2="106.28" y2="85.66" xlink:href="#Degradado_sin_nombre_11"/>
    <linearGradient id="Degradado_sin_nombre_11-6" data-name="Degradado sin nombre 11" x1="154.75" y1="57.6" x2="155.25" y2="100" xlink:href="#Degradado_sin_nombre_11"/>
    <linearGradient id="Degradado_sin_nombre_11-7" data-name="Degradado sin nombre 11" x1="897.26" y1="769.46" x2="897.76" y2="811.87" gradientTransform="translate(-934.41 -579.65) rotate(-7.51)" xlink:href="#Degradado_sin_nombre_11"/>
  </defs>
  <g id="Capa_2-2" data-name="Capa 2">
    <g>
      <path class="cls-19" d="m192.56,82.88l-3.56-4.28-.71,2.94-7.37,17.1-2.93,2.6-22.91,3.1-18.4-1.17.5,6.96-3.35,7.12-5.45,5.03-17.93,4.69-13.58.5-7.79-1.25-8.67-6.12-2.89-5.11-.17-6.62-19.69,4.02-7.63.25-10.73.25-5.87-2.77-6.03-10.31-2.63-7.59-6.5,5.81-1.42,3.9-1.17,7.02v14.25l2.85,11.48,4.27,12.4,8.05,10.56,14.67,11.15,21.45,9.89,16.43,4.21,20.2,1.48,22.71-1.48,16.26-4.13,17.51-5.7,18.27-11.06,11.23-11.56,7.63-12.24,3.94-13.24.59-12.15s-.34-12.99-.34-14.25-4.65-11.9-4.65-11.9l-4.15-3.77Z"/>
      <path class="cls-19" d="m107.9,14.66l20,2.01,8.59,3.02,6.7-5.36,15.09-7.54s11.48-4.36,12.4-4.36,15-1.51,15.25-1.34,9.97,1.17,10.22,1.34,6.45,12.07,6.45,12.07l3.02,7.29,4.19,8.55,2.92,7.37,1.77,6.03-.67,4.02.08,2.51-2.05,9.18-3.81,6.29s-4.06,4.27-4.23,4.4-6.03,2.81-6.03,2.81c0,0-7.47-5.82-7.59-5.99s0-8.49,0-8.49l-8.57-5.2-22.79-4.41-14.36.73-13.46,3.18-4.97,3.52-3.35,3.58-1.96,7.15-14.42-1.57-15.82,4.08-5.29-8.83-11.51-4.75-15.7.61-15.36,2.79-9.16,3.3-8.38,5.36-4.13,4.08.84,7.65s-3.91-.61-4.13-.61-9.5-6.33-9.5-6.33l-6.37-9.43.73-10.28,4.53-18.6,3.74-11.4,11.34-3.8,11.28-1.9,14.36-.45,12.4,2.35,10,4.97s13.58-5.95,13.74-5.88,23.98-3.73,23.98-3.73Z"/>
      <path class="cls-19" d="m92.47,80.62c-.26.07.24,4.43.24,4.43l11.27-3.35,16.73,1.55-.26-4.48-13.54-1.93-14.44,3.78Z"/>
      <polygon class="cls-4" points="78.58 106.42 78.19 116.7 83.71 124.11 97.86 127.42 113.53 126.62 125.97 122.89 132.98 118.65 136.56 113.02 136.66 103.16 135.04 100.54 129.94 91.76 124.93 86.61 114.62 81.79 103.9 81.01 90.5 86.5 84.82 92.35 80.24 98.58 78.58 106.42"/>
      <path class="cls-24" d="m18.82,99.73s-5.78,54.28,52.65,67.79c58.43,13.51,92.35-9.89,99.06-15.42,6.7-5.53,25.69-23.68,27.34-61.06l2.18,4.31.93,4.87.73,14.73-.84,9.78-3.28,12.08-6.95,13.34-10.73,10.21-11.34,6.66-19.49,10.84-15.53,4.25-26.13,2.01-24.16-.89-19.67-5.75-12.03-5.31-14.26-9.61-6.67-5.18-7.59-10.5-4.23-9.72-1.97-7.17-1.17-17.05,1.8-9.26,1.36-3.93"/>
      <path class="cls-24" d="m57.6,33.17s-20.4,21.95-22.96,29.07l-.27-5.89,3.41-14.02,3.97-5.14,4.36-3.36s5.36-.88,5.7-1.05,5.8.4,5.8.4Z"/>
      <path class="cls-24" d="m19.21,98s-.21,14.16,17.35,17.51c17.56,3.35,40.91-1.52,40.91-1.52v-6.21l-19.92,5.25s-17.26-.28-17.88-.28-4.4-1.78-4.4-1.78l-6.58-8.94-3.88-10.28-4.3,3.58-1.3,2.67Z"/>
      <path class="cls-24" d="m132.18,123.73s7.58-4.9,8.46-14.67c0,0,18.93,1.69,32-1.61,13.07-3.3,21.09-10.47,23.27-19.26l-3.6-6.62-3.31-2.18-2.6,10.22-7.21,11.23-14.02,2.11-21.27.66-7.74-.13.88,6.96-2.81,6.66-5.11,3.65-2.05,1.47,1.89,1.51h3.23Z"/>
      <path class="cls-24" d="m201.02,11.45s-2.6,6.57-1,20.56c1.59,14-6.12,14.75-10.39,9.64l-2.93-8.3-6.2-8.21-6.66-4.82s-3.06-3.02-10.68.08c-7.63,3.1-7.46,8.63-9.64,9.22-2.18.59-20.14-10.38-20.14-10.38l-5.81-1.12s7.1,2.63,21.01,13.02c13.91,10.39,17.1,12.24,23.24,19.05l11.56,4.12,7.27,4.15-.43,8.49,8.08,6.48,6.87-3.58,6.37-10.67,2.21-8.06.78-7.75-2.83-8.35-5.35-10.14-5.31-13.44Z"/>
      <path class="cls-18" d="m5.87,39.36s-1,31.86,15.09,32.74l1.17,7.65-3.41-.47-6.51-3.4-8.05-7.87-2.68-6.17.71-11.4,3.66-11.09"/>
      <path class="cls-14" d="m138.28,19.36s11.56-6.59,22.57-7.32c11.01-.73,10.11-6.15,18.83-6.65,8.72-.5,17.26-.73,17.26-.73l-4.08-3.13-19.9.7-15.68,5.05-15.65,7.37-3.35,4.69Z"/>
      <path class="cls-14" d="m175.54,8.15c.41.06.82.17,1.22.33.94.38,1.73,1.12,1.26,2.19-.92,2.12-3.8,2.21-5.11,1.68s-2.71-3.88,0-4.19c.87-.1,1.76-.15,2.63-.01Z"/>
      <path class="cls-14" d="m8.53,32.2s2.99-5.73,4.89-6.7,4.83-2.32,11.96-2.4,14.86,2.63,20.61,1.45c5.75-1.17,19.08-1.38,21.75-.88l-7.92-4.19-10.98-1.93-6.58-.92-18.14,1.22-11.56,3.98-2.04,2.11-1.99,8.26Z"/>
      <path class="cls-14" d="m35.03,25.84c-.43.32-.75.76-.91,1.4-.16.63,0,1.24.47,1.69.68.64,1.67.47,2.44.1.5-.24.96-.56,1.36-.94.58-.55.64-1.27.34-1.98s-.91-1.06-1.65-.97c-.76.09-1.48.28-2.03.69Z"/>
      <path class="cls-14" d="m74.63,31.98s-2.42.88-1.1,2.09c1.32,1.21,3.13-.74,3.18-1.36s-1.02-1.14-2.09-.73Z"/>
      <path class="cls-14" d="m132.56,27.76s1.7.67.82,1.98c-.88,1.31-2.93-.01-2.7-.81s.36-1.47,1.87-1.17Z"/>
      <path class="cls-14" d="m118.76,18.88s6.37,1.65,6.51,6.12c.14,4.47-8.35,2.35-8.35,2.35,0,0-4.83-1.54-5.7-5.06-.87-3.52,3.6-4.97,7.54-3.41Z"/>
      <path class="cls-14" d="m93.55,19.27s-15.21,2.64-14.75,7.63,4.23,4.63,6.87,3.4c2.64-1.22,11.9-3.45,18.23-3.07s6.96-3.48,5.2-5.99-9.55-3.14-15.55-1.97Z"/>
      <path class="cls-17" d="m80.26,101.57s-5.13,20.62,20.1,18.35,36.11-7.48,34.71-17.4l1.76,3.57-1.18,9.47-10.05,8.17-19.28,3.69h-14.74l-6.76-3.06-5.45-6.09-1.89-6.58,2.79-10.14Z"/>
      <path class="cls-22" d="m78.19,105.9s10.47-20.81,27.17-22.35c16.7-1.54,27.56,14.13,30.85,22.35l-3.78-10.13-9.33-10.01-9.58-3.77-7.61-.82-5.23,1.52-10.88,4.52-6.1,6.56-4.85,7.38-.67,4.75Z"/>
      <path class="cls-15" d="m181.36,69.18l-.17,1.18-.67,4.64-.97,6.71-5,8.38-3.53,2.65-2.73,2.04-.2.03-3.04.51-2.05.35-4.09.69s-.73,0-1.83.02c-3.27.03-9.79.07-10.13-.02-.32-.09-5.26-1.84-8.14-2.85-1.19-.42-2.03-.72-2.03-.72l-.21-.26-1.17-1.41-3.36-4.07-1.45-1.75s-.83-4.41-1.3-7.15c-.19-1.12-.33-1.96-.33-2.12,0-.56,1.79-8.24,2.12-8.48.34-.24,3.35-5.15,3.35-5.15l4.01-1.35,2.47-.83,5.81-.58,5.86-.59,2.03-.2,1.38-.14,1.38.15,12.14,1.36,6.08,1.6.07.02,3.88,2.79.04.09.8,2,.98,2.48Z"/>
      <path class="cls-6" d="m138.44,61.03l-9.16,17.1c-.19-1.12-.33-1.96-.33-2.12,0-.56,1.79-8.24,2.12-8.48.34-.24,3.35-5.15,3.35-5.15l4.01-1.35Z"/>
      <polygon class="cls-6" points="152.58 59.03 135.39 91.11 132.03 87.03 146.72 59.62 152.58 59.03"/>
      <path class="cls-6" d="m179.58,64.7l-16.59,30.96-4.09.69s-.73,0-1.83.02l18.52-34.57.07.02,3.88,2.79.04.09Z"/>
      <polygon class="cls-6" points="181.36 69.18 181.19 70.36 168.09 94.81 165.04 95.32 180.37 66.71 181.36 69.18"/>
      <path class="cls-6" d="m157.38,58.84l-18.57,34.66c-1.19-.42-2.03-.72-2.03-.72l-.21-.26,18.05-33.69,1.38-.14,1.38.15Z"/>
      <polygon class="cls-6" points="180.51 75 179.54 81.7 174.54 90.08 171.01 92.73 180.51 75"/>
      <polygon class="cls-8" points="84.82 91.76 81.47 95.34 75.77 99.98 72.37 101.14 70.16 101.9 66.76 103.06 64.47 103.85 63.36 104.23 58.59 104.49 50.18 104.95 42.58 103.16 40.52 101.25 38.67 99.54 38.11 99.02 37.53 98.07 35.09 94.08 34.71 92.98 32.41 86.35 32.04 83.93 31.41 79.75 31.97 75.97 36.55 71.82 38.87 71.19 47.66 68.82 48.34 68.63 53.82 67.67 55.94 67.3 59 66.76 64.26 65.84 74.87 67.01 77.75 68.72 78.86 69.38 80.92 73.14 81.87 74.87 82.47 75.97 82.89 78.14 83.37 80.62 83.81 82.93 84 84.61 84.82 91.76"/>
      <polygon class="cls-6" points="38.87 71.19 32.04 83.93 31.41 79.75 31.97 75.97 36.55 71.82 38.87 71.19"/>
      <polygon class="cls-6" points="53.82 67.67 37.53 98.07 35.09 94.08 34.71 92.98 47.66 68.82 48.34 68.63 53.82 67.67"/>
      <polygon class="cls-6" points="80.92 73.14 64.47 103.85 63.36 104.23 58.59 104.49 77.75 68.72 78.86 69.38 80.92 73.14"/>
      <polygon class="cls-6" points="82.89 78.14 70.16 101.9 66.76 103.06 81.87 74.87 82.47 75.97 82.89 78.14"/>
      <polygon class="cls-6" points="59 66.76 40.52 101.25 38.67 99.54 55.94 67.3 59 66.76"/>
      <polygon class="cls-6" points="84 84.61 75.77 99.98 72.37 101.14 83.37 80.62 83.81 82.93 84 84.61"/>
      <polygon class="cls-7" points="190.2 68.01 189.6 77.99 196.54 86.5 198.12 82.51 198.59 75.7 194.64 70.47 190.2 68.01"/>
      <path class="cls-23" d="m184.77,54.44l-16.44-3.79-16.41-1.45-5.19.82s-12.16,1.9-12.54,1.99c-.38.09-8.64,4.16-8.64,4.16l-4.3,6.76-.84,15.1.39,6.62,7.71,4.82,4.75,7.6,2.96,5.75,12.23,1.09,19.34-.92,11.41-2.14,4.97-7.74,3.03-6.61,1.8-9.58,1.16-10.74.48-7.71-5.87-4.02Zm-3.91,18.66l-1.15,7.47-3.32,7.78-3.19,3.41-6.2,3.3-7.21,1.31-9.61.04-10.34-1.57-6.76-4.75-3.46-8.21v-10.05l2.18-6.71,8.04-4.08,9.67-1.62,14.19-.11,11.01,2.5s5.36,1.92,5.36,2.08.78,2.63.78,3.13v6.09Z"/>
      <path class="cls-9" d="m84.02,93.37v.13s-.12.1-.3.26l.3-.39Z"/>
      <path class="cls-3" d="m92.16,84.01l-.59,2.6-5.62,4.28-1.95,2.49.48-4.41-1.61-10.83-2.96-8.56s-3.49-3.07-4.27-2.82c-.78.25-8.97.2-9.47-.01-.5-.21-15.42.92-15.42.92,0,0-11.09,3.3-11.32,3.36-.23.06-7.03,3.21-7.03,3.21l-1.01,4.78,1.01,7.33,3.45,8.99,1.66,3.79,5.45,3.93,2.79.84s3.83,1.68,4.33,1.68,12.07-.86,12.32-.64c.25.22,8.38-1.39,8.72-1.89.34-.49,5.82-4.1,6.34-4.1.46,0,5.03-4.11,6.24-5.2l-3.36,4.31-2.16,10.2-6.98,1.18-15.42,3.57-10.3-.29-7.16-.3-6.3-4.69-3.14-6.6-3.97-9.09-5.42,3.29-.97,2.43-2.88-6.66.42-5.35,6.01-6.35-1.32-7.84,3.02-3.55,9.17-3.82s7.25-2.68,7.5-2.77c.25-.08,9.8-3.45,9.8-3.45l12.24-2.16s7.28-.25,7.79,0c.51.25,11.06,1.71,11.06,1.71l4.48,4.22,3.23,4.1,2.52,10.75.59,7.42Z"/>
      <polygon class="cls-2" points="90.87 69.13 104.37 65.95 120.98 67.72 120.74 78.81 106.91 76.84 91.33 80.92 90.87 69.13"/>
      <path class="cls-5" d="m90.5,70.4l.46,1.13c0-.13,12.23-6.42,29.15-2.23l.29-1.78-8.05-1.58-13.91.76-7.95,3.69Z"/>
      <path class="cls-5" d="m189.6,58.49l-.28,1.31s-2.37-1.65-4.75-2.91c-2.37-1.26-10.05-4.78-19.53-5.11,0,0-10.44-1.01-20.12-.34s-15.8,4.86-15.8,4.86c0,0-6.08,4.32-7.33,8.46l2.56-7.79,7.69-4.46,12.21-3.13h16.8l11.86,1.8,16.35,6.32.34.97Z"/>
      <path class="cls-5" d="m21.18,71.39l.69,1.66s2.46-2.59,4-3.71c1.55-1.12,3.8-2.61,7.08-3.95,0,0,8.42-3.52,14.37-4.84,5.96-1.32,11.12-2.75,19.43-3.01s14.16,2,14.16,2l3.89,1.24-8.58-4.43-13.79.21-11.78,1.33-10.42,3.15-8.25,2.55-10.82,7.79Z"/>
      <path class="cls-5" d="m34.38,95.28s.21,8,11.9,10.94,29.08-2.39,32.58-6.12c3.5-3.73-.16-.51-.16-.51l-2.1.73-6.85,2.09-11.53,2.55-10.56.5-8.55-4.08-4.73-6.09Z"/>
      <path class="cls-5" d="m129.63,86.26s1.2,5.67,6.59,8.69c4.02,2.25,12.07,4.17,21.53,3.19,3.11-.32,6.34-.37,9.48-1.23,12.29-3.41,12.48-16.33,12.48-16.33l-6.78,11.41-9.11,4.08-12.18.89-9.33-1.63-7.32-2.59-5.36-6.48Z"/>
      <path class="cls-20" d="m131.22,64.52c1.79-5.7,15.09-7.44,15.09-7.44,8-.98,19.92.03,25.75,1.29,5.84,1.26,9.15,3.84,9.15,3.84,1.54,1.34.71,6.2.71,6.2l-2.72-4.78s-10.01-2.98-10.18-3.14-10.48-1.01-11.1-1.01-10.48-.2-10.48-.2l-11.98,2.84-4.23,2.39Z"/>
      <path class="cls-20" d="m81.26,70.4s-1.96-5.32-5.44-5.7c-3.48-.38-8.34-.85-12.07-.55s-10.31.34-17.31,2.39c-7,2.05-13.62,4.75-15.67,6.9s.25,10.38.25,10.38l1.42-9.23,9.09-4.36,18.56-3.46s12.65.03,12.95.03,8.2,3.61,8.2,3.61Z"/>
      <path class="cls-20" d="m92.28,78.13s13.88-6.17,27.88-1.57v1.48l-5.56-.69-16.17,1.01-6.15,1.4v-1.62Z"/>
      <path d="m182.21,67.27c-.02-1.32-.24-2.34-.7-3.22-.84-1.64-2.39-2.39-3.47-2.82-5.4-2.12-11.65-3.33-18.56-3.6-2.17-.08-3.93-.12-5.56-.11-4.1.02-7.45.3-10.52.89-3.87.74-7.17,1.96-10.07,3.71-2.39,1.44-4.03,4.57-4.86,9.3-.57,3.25-.56,6.1-.56,6.38,0,.32,0,3.52,1.16,7.19.71,2.25,1.72,4.22,3,5.85,1.62,2.07,3.67,3.59,6.09,4.51,3.97,1.51,7.64,2.33,11.57,2.58.93.06,1.84.08,2.73.08,2.44,0,4.79-.19,7.07-.37.87-.07,1.76-.14,2.65-.2,3.73-.25,6.88-1.25,9.62-3.04,2.33-1.52,4.37-3.6,6.43-6.54,3.67-5.26,4.06-15.17,3.97-20.61Zm-6.17,19.07c-3.89,5.58-7.96,8.02-14.03,8.44-.91.06-1.81.13-2.68.2-6.21.5-12.07.96-20.21-2.13-3.56-1.35-6.07-4.25-7.47-8.6-1.08-3.38-1.06-6.4-1.05-6.43v-.02s0-.02,0-.02c0-.03-.03-2.8.52-5.9.69-3.88,1.94-6.46,3.61-7.47,6.1-3.68,13.47-4.19,19.22-4.21,1.59,0,3.32.03,5.45.11,6.61.25,12.56,1.4,17.68,3.41,1.08.43,1.74.92,2.07,1.55.26.5.38,1.15.4,2.03.07,4.12-.13,14.22-3.49,19.03Zm6.17-19.07c-.02-1.32-.24-2.34-.7-3.22-.84-1.64-2.39-2.39-3.47-2.82-5.4-2.12-11.65-3.33-18.56-3.6-2.17-.08-3.93-.12-5.56-.11-4.1.02-7.45.3-10.52.89-3.87.74-7.17,1.96-10.07,3.71-2.39,1.44-4.03,4.57-4.86,9.3-.57,3.25-.56,6.1-.56,6.38,0,.32,0,3.52,1.16,7.19.71,2.25,1.72,4.22,3,5.85,1.62,2.07,3.67,3.59,6.09,4.51,3.97,1.51,7.64,2.33,11.57,2.58.93.06,1.84.08,2.73.08,2.44,0,4.79-.19,7.07-.37.87-.07,1.76-.14,2.65-.2,3.73-.25,6.88-1.25,9.62-3.04,2.33-1.52,4.37-3.6,6.43-6.54,3.67-5.26,4.06-15.17,3.97-20.61Zm-6.17,19.07c-3.89,5.58-7.96,8.02-14.03,8.44-.91.06-1.81.13-2.68.2-6.21.5-12.07.96-20.21-2.13-3.56-1.35-6.07-4.25-7.47-8.6-1.08-3.38-1.06-6.4-1.05-6.43v-.02s0-.02,0-.02c0-.03-.03-2.8.52-5.9.69-3.88,1.94-6.46,3.61-7.47,6.1-3.68,13.47-4.19,19.22-4.21,1.59,0,3.32.03,5.45.11,6.61.25,12.56,1.4,17.68,3.41,1.08.43,1.74.92,2.07,1.55.26.5.38,1.15.4,2.03.07,4.12-.13,14.22-3.49,19.03Zm-76.74,14.02c-1.66-4.92-4.55-3.93-4.55-3.93-.15.06-.3.13-.43.22-.88.57-1.31,1.66-1.69,2.58-1.01,2.44-2.22,5.28-2.12,7.92.04,1.1.16,2.29.48,3.34.44,1.44.89,2.68,2.36,2.99,1.51.32,3.55-.87,4.58-1.98,2.91-3.14,3.03-6.22,1.38-11.14Zm23.6,5.09c-.14-1.09-.52-2.23-.93-3.25-.99-2.46-2.59-4.63-4.51-6.44-.73-.69-1.56-1.51-2.6-1.67-.16-.02-.32-.03-.49-.03,0,0-3.04.28-2.54,5.45.5,5.17,1.37,8.16,5.31,9.83,1.39.59,2.95.59,4.2-.32,1.21-.88,1.76-2.09,1.57-3.58Zm59.31-38.19c-.02-1.32-.24-2.34-.7-3.22-.84-1.64-2.39-2.39-3.47-2.82-5.4-2.12-11.65-3.33-18.56-3.6-2.17-.08-3.93-.12-5.56-.11-4.1.02-7.45.3-10.52.89-3.87.74-7.17,1.96-10.07,3.71-2.39,1.44-4.03,4.57-4.86,9.3-.57,3.25-.56,6.1-.56,6.38,0,.32,0,3.52,1.16,7.19.71,2.25,1.72,4.22,3,5.85,1.62,2.07,3.67,3.59,6.09,4.51,3.97,1.51,7.64,2.33,11.57,2.58.93.06,1.84.08,2.73.08,2.44,0,4.79-.19,7.07-.37.87-.07,1.76-.14,2.65-.2,3.73-.25,6.88-1.25,9.62-3.04,2.33-1.52,4.37-3.6,6.43-6.54,3.67-5.26,4.06-15.17,3.97-20.61Zm-6.17,19.07c-3.89,5.58-7.96,8.02-14.03,8.44-.91.06-1.81.13-2.68.2-6.21.5-12.07.96-20.21-2.13-3.56-1.35-6.07-4.25-7.47-8.6-1.08-3.38-1.06-6.4-1.05-6.43v-.02s0-.02,0-.02c0-.03-.03-2.8.52-5.9.69-3.88,1.94-6.46,3.61-7.47,6.1-3.68,13.47-4.19,19.22-4.21,1.59,0,3.32.03,5.45.11,6.61.25,12.56,1.4,17.68,3.41,1.08.43,1.74.92,2.07,1.55.26.5.38,1.15.4,2.03.07,4.12-.13,14.22-3.49,19.03Zm6.17-19.07c-.02-1.32-.24-2.34-.7-3.22-.84-1.64-2.39-2.39-3.47-2.82-5.4-2.12-11.65-3.33-18.56-3.6-2.17-.08-3.93-.12-5.56-.11-4.1.02-7.45.3-10.52.89-3.87.74-7.17,1.96-10.07,3.71-2.39,1.44-4.03,4.57-4.86,9.3-.57,3.25-.56,6.1-.56,6.38,0,.32,0,3.52,1.16,7.19.71,2.25,1.72,4.22,3,5.85,1.62,2.07,3.67,3.59,6.09,4.51,3.97,1.51,7.64,2.33,11.57,2.58.93.06,1.84.08,2.73.08,2.44,0,4.79-.19,7.07-.37.87-.07,1.76-.14,2.65-.2,3.73-.25,6.88-1.25,9.62-3.04,2.33-1.52,4.37-3.6,6.43-6.54,3.67-5.26,4.06-15.17,3.97-20.61Zm-6.17,19.07c-3.89,5.58-7.96,8.02-14.03,8.44-.91.06-1.81.13-2.68.2-6.21.5-12.07.96-20.21-2.13-3.56-1.35-6.07-4.25-7.47-8.6-1.08-3.38-1.06-6.4-1.05-6.43v-.02s0-.02,0-.02c0-.03-.03-2.8.52-5.9.69-3.88,1.94-6.46,3.61-7.47,6.1-3.68,13.47-4.19,19.22-4.21,1.59,0,3.32.03,5.45.11,6.61.25,12.56,1.4,17.68,3.41,1.08.43,1.74.92,2.07,1.55.26.5.38,1.15.4,2.03.07,4.12-.13,14.22-3.49,19.03Zm-53.14,19.11c-.14-1.09-.52-2.23-.93-3.25-.99-2.46-2.59-4.63-4.51-6.44-.73-.69-1.56-1.51-2.6-1.67-.16-.02-.32-.03-.49-.03,0,0-3.04.28-2.54,5.45.5,5.17,1.37,8.16,5.31,9.83,1.39.59,2.95.59,4.2-.32,1.21-.88,1.76-2.09,1.57-3.58Zm-23.6-5.09c-1.66-4.92-4.55-3.93-4.55-3.93-.15.06-.3.13-.43.22-.88.57-1.31,1.66-1.69,2.58-1.01,2.44-2.22,5.28-2.12,7.92.04,1.1.16,2.29.48,3.34.44,1.44.89,2.68,2.36,2.99,1.51.32,3.55-.87,4.58-1.98,2.91-3.14,3.03-6.22,1.38-11.14Zm0,0c-1.66-4.92-4.55-3.93-4.55-3.93-.15.06-.3.13-.43.22-.88.57-1.31,1.66-1.69,2.58-1.01,2.44-2.22,5.28-2.12,7.92.04,1.1.16,2.29.48,3.34.44,1.44.89,2.68,2.36,2.99,1.51.32,3.55-.87,4.58-1.98,2.91-3.14,3.03-6.22,1.38-11.14Zm23.6,5.09c-.14-1.09-.52-2.23-.93-3.25-.99-2.46-2.59-4.63-4.51-6.44-.73-.69-1.56-1.51-2.6-1.67-.16-.02-.32-.03-.49-.03,0,0-3.04.28-2.54,5.45.5,5.17,1.37,8.16,5.31,9.83,1.39.59,2.95.59,4.2-.32,1.21-.88,1.76-2.09,1.57-3.58Zm59.31-38.19c-.02-1.32-.24-2.34-.7-3.22-.84-1.64-2.39-2.39-3.47-2.82-5.4-2.12-11.65-3.33-18.56-3.6-2.17-.08-3.93-.12-5.56-.11-4.1.02-7.45.3-10.52.89-3.87.74-7.17,1.96-10.07,3.71-2.39,1.44-4.03,4.57-4.86,9.3-.57,3.25-.56,6.1-.56,6.38,0,.32,0,3.52,1.16,7.19.71,2.25,1.72,4.22,3,5.85,1.62,2.07,3.67,3.59,6.09,4.51,3.97,1.51,7.64,2.33,11.57,2.58.93.06,1.84.08,2.73.08,2.44,0,4.79-.19,7.07-.37.87-.07,1.76-.14,2.65-.2,3.73-.25,6.88-1.25,9.62-3.04,2.33-1.52,4.37-3.6,6.43-6.54,3.67-5.26,4.06-15.17,3.97-20.61Zm-6.17,19.07c-3.89,5.58-7.96,8.02-14.03,8.44-.91.06-1.81.13-2.68.2-6.21.5-12.07.96-20.21-2.13-3.56-1.35-6.07-4.25-7.47-8.6-1.08-3.38-1.06-6.4-1.05-6.43v-.02s0-.02,0-.02c0-.03-.03-2.8.52-5.9.69-3.88,1.94-6.46,3.61-7.47,6.1-3.68,13.47-4.19,19.22-4.21,1.59,0,3.32.03,5.45.11,6.61.25,12.56,1.4,17.68,3.41,1.08.43,1.74.92,2.07,1.55.26.5.38,1.15.4,2.03.07,4.12-.13,14.22-3.49,19.03Zm6.17-19.07c-.02-1.32-.24-2.34-.7-3.22-.84-1.64-2.39-2.39-3.47-2.82-5.4-2.12-11.65-3.33-18.56-3.6-2.17-.08-3.93-.12-5.56-.11-4.1.02-7.45.3-10.52.89-3.87.74-7.17,1.96-10.07,3.71-2.39,1.44-4.03,4.57-4.86,9.3-.57,3.25-.56,6.1-.56,6.38,0,.32,0,3.52,1.16,7.19.71,2.25,1.72,4.22,3,5.85,1.62,2.07,3.67,3.59,6.09,4.51,3.97,1.51,7.64,2.33,11.57,2.58.93.06,1.84.08,2.73.08,2.44,0,4.79-.19,7.07-.37.87-.07,1.76-.14,2.65-.2,3.73-.25,6.88-1.25,9.62-3.04,2.33-1.52,4.37-3.6,6.43-6.54,3.67-5.26,4.06-15.17,3.97-20.61Zm-6.17,19.07c-3.89,5.58-7.96,8.02-14.03,8.44-.91.06-1.81.13-2.68.2-6.21.5-12.07.96-20.21-2.13-3.56-1.35-6.07-4.25-7.47-8.6-1.08-3.38-1.06-6.4-1.05-6.43v-.02s0-.02,0-.02c0-.03-.03-2.8.52-5.9.69-3.88,1.94-6.46,3.61-7.47,6.1-3.68,13.47-4.19,19.22-4.21,1.59,0,3.32.03,5.45.11,6.61.25,12.56,1.4,17.68,3.41,1.08.43,1.74.92,2.07,1.55.26.5.38,1.15.4,2.03.07,4.12-.13,14.22-3.49,19.03Zm-53.14,19.11c-.14-1.09-.52-2.23-.93-3.25-.99-2.46-2.59-4.63-4.51-6.44-.73-.69-1.56-1.51-2.6-1.67-.16-.02-.32-.03-.49-.03,0,0-3.04.28-2.54,5.45.5,5.17,1.37,8.16,5.31,9.83,1.39.59,2.95.59,4.2-.32,1.21-.88,1.76-2.09,1.57-3.58Zm-23.6-5.09c-1.66-4.92-4.55-3.93-4.55-3.93-.15.06-.3.13-.43.22-.88.57-1.31,1.66-1.69,2.58-1.01,2.44-2.22,5.28-2.12,7.92.04,1.1.16,2.29.48,3.34.44,1.44.89,2.68,2.36,2.99,1.51.32,3.55-.87,4.58-1.98,2.91-3.14,3.03-6.22,1.38-11.14Zm0,0c-1.66-4.92-4.55-3.93-4.55-3.93-.15.06-.3.13-.43.22-.88.57-1.31,1.66-1.69,2.58-1.01,2.44-2.22,5.28-2.12,7.92.04,1.1.16,2.29.48,3.34.44,1.44.89,2.68,2.36,2.99,1.51.32,3.55-.87,4.58-1.98,2.91-3.14,3.03-6.22,1.38-11.14Zm23.6,5.09c-.14-1.09-.52-2.23-.93-3.25-.99-2.46-2.59-4.63-4.51-6.44-.73-.69-1.56-1.51-2.6-1.67-.16-.02-.32-.03-.49-.03,0,0-3.04.28-2.54,5.45.5,5.17,1.37,8.16,5.31,9.83,1.39.59,2.95.59,4.2-.32,1.21-.88,1.76-2.09,1.57-3.58Zm59.31-38.19c-.02-1.32-.24-2.34-.7-3.22-.84-1.64-2.39-2.39-3.47-2.82-5.4-2.12-11.65-3.33-18.56-3.6-2.17-.08-3.93-.12-5.56-.11-4.1.02-7.45.3-10.52.89-3.87.74-7.17,1.96-10.07,3.71-2.39,1.44-4.03,4.57-4.86,9.3-.57,3.25-.56,6.1-.56,6.38,0,.32,0,3.52,1.16,7.19.71,2.25,1.72,4.22,3,5.85,1.62,2.07,3.67,3.59,6.09,4.51,3.97,1.51,7.64,2.33,11.57,2.58.93.06,1.84.08,2.73.08,2.44,0,4.79-.19,7.07-.37.87-.07,1.76-.14,2.65-.2,3.73-.25,6.88-1.25,9.62-3.04,2.33-1.52,4.37-3.6,6.43-6.54,3.67-5.26,4.06-15.17,3.97-20.61Zm-6.17,19.07c-3.89,5.58-7.96,8.02-14.03,8.44-.91.06-1.81.13-2.68.2-6.21.5-12.07.96-20.21-2.13-3.56-1.35-6.07-4.25-7.47-8.6-1.08-3.38-1.06-6.4-1.05-6.43v-.02s0-.02,0-.02c0-.03-.03-2.8.52-5.9.69-3.88,1.94-6.46,3.61-7.47,6.1-3.68,13.47-4.19,19.22-4.21,1.59,0,3.32.03,5.45.11,6.61.25,12.56,1.4,17.68,3.41,1.08.43,1.74.92,2.07,1.55.26.5.38,1.15.4,2.03.07,4.12-.13,14.22-3.49,19.03Zm6.17-19.07c-.02-1.32-.24-2.34-.7-3.22-.84-1.64-2.39-2.39-3.47-2.82-5.4-2.12-11.65-3.33-18.56-3.6-2.17-.08-3.93-.12-5.56-.11-4.1.02-7.45.3-10.52.89-3.87.74-7.17,1.96-10.07,3.71-2.39,1.44-4.03,4.57-4.86,9.3-.57,3.25-.56,6.1-.56,6.38,0,.32,0,3.52,1.16,7.19.71,2.25,1.72,4.22,3,5.85,1.62,2.07,3.67,3.59,6.09,4.51,3.97,1.51,7.64,2.33,11.57,2.58.93.06,1.84.08,2.73.08,2.44,0,4.79-.19,7.07-.37.87-.07,1.76-.14,2.65-.2,3.73-.25,6.88-1.25,9.62-3.04,2.33-1.52,4.37-3.6,6.43-6.54,3.67-5.26,4.06-15.17,3.97-20.61Zm-6.17,19.07c-3.89,5.58-7.96,8.02-14.03,8.44-.91.06-1.81.13-2.68.2-6.21.5-12.07.96-20.21-2.13-3.56-1.35-6.07-4.25-7.47-8.6-1.08-3.38-1.06-6.4-1.05-6.43v-.02s0-.02,0-.02c0-.03-.03-2.8.52-5.9.69-3.88,1.94-6.46,3.61-7.47,6.1-3.68,13.47-4.19,19.22-4.21,1.59,0,3.32.03,5.45.11,6.61.25,12.56,1.4,17.68,3.41,1.08.43,1.74.92,2.07,1.55.26.5.38,1.15.4,2.03.07,4.12-.13,14.22-3.49,19.03Zm-53.14,19.11c-.14-1.09-.52-2.23-.93-3.25-.99-2.46-2.59-4.63-4.51-6.44-.73-.69-1.56-1.51-2.6-1.67-.16-.02-.32-.03-.49-.03,0,0-3.04.28-2.54,5.45.5,5.17,1.37,8.16,5.31,9.83,1.39.59,2.95.59,4.2-.32,1.21-.88,1.76-2.09,1.57-3.58Zm-23.6-5.09c-1.66-4.92-4.55-3.93-4.55-3.93-.15.06-.3.13-.43.22-.88.57-1.31,1.66-1.69,2.58-1.01,2.44-2.22,5.28-2.12,7.92.04,1.1.16,2.29.48,3.34.44,1.44.89,2.68,2.36,2.99,1.51.32,3.55-.87,4.58-1.98,2.91-3.14,3.03-6.22,1.38-11.14Zm0,0c-1.66-4.92-4.55-3.93-4.55-3.93-.15.06-.3.13-.43.22-.88.57-1.31,1.66-1.69,2.58-1.01,2.44-2.22,5.28-2.12,7.92.04,1.1.16,2.29.48,3.34.44,1.44.89,2.68,2.36,2.99,1.51.32,3.55-.87,4.58-1.98,2.91-3.14,3.03-6.22,1.38-11.14Zm23.6,5.09c-.14-1.09-.52-2.23-.93-3.25-.99-2.46-2.59-4.63-4.51-6.44-.73-.69-1.56-1.51-2.6-1.67-.16-.02-.32-.03-.49-.03,0,0-3.04.28-2.54,5.45.5,5.17,1.37,8.16,5.31,9.83,1.39.59,2.95.59,4.2-.32,1.21-.88,1.76-2.09,1.57-3.58Zm59.31-38.19c-.02-1.32-.24-2.34-.7-3.22-.84-1.64-2.39-2.39-3.47-2.82-5.4-2.12-11.65-3.33-18.56-3.6-2.17-.08-3.93-.12-5.56-.11-4.1.02-7.45.3-10.52.89-3.87.74-7.17,1.96-10.07,3.71-2.39,1.44-4.03,4.57-4.86,9.3-.57,3.25-.56,6.1-.56,6.38,0,.32,0,3.52,1.16,7.19.71,2.25,1.72,4.22,3,5.85,1.62,2.07,3.67,3.59,6.09,4.51,3.97,1.51,7.64,2.33,11.57,2.58.93.06,1.84.08,2.73.08,2.44,0,4.79-.19,7.07-.37.87-.07,1.76-.14,2.65-.2,3.73-.25,6.88-1.25,9.62-3.04,2.33-1.52,4.37-3.6,6.43-6.54,3.67-5.26,4.06-15.17,3.97-20.61Zm-6.17,19.07c-3.89,5.58-7.96,8.02-14.03,8.44-.91.06-1.81.13-2.68.2-6.21.5-12.07.96-20.21-2.13-3.56-1.35-6.07-4.25-7.47-8.6-1.08-3.38-1.06-6.4-1.05-6.43v-.02s0-.02,0-.02c0-.03-.03-2.8.52-5.9.69-3.88,1.94-6.46,3.61-7.47,6.1-3.68,13.47-4.19,19.22-4.21,1.59,0,3.32.03,5.45.11,6.61.25,12.56,1.4,17.68,3.41,1.08.43,1.74.92,2.07,1.55.26.5.38,1.15.4,2.03.07,4.12-.13,14.22-3.49,19.03Zm6.17-19.07c-.02-1.32-.24-2.34-.7-3.22-.84-1.64-2.39-2.39-3.47-2.82-5.4-2.12-11.65-3.33-18.56-3.6-2.17-.08-3.93-.12-5.56-.11-4.1.02-7.45.3-10.52.89-3.87.74-7.17,1.96-10.07,3.71-2.39,1.44-4.03,4.57-4.86,9.3-.57,3.25-.56,6.1-.56,6.38,0,.32,0,3.52,1.16,7.19.71,2.25,1.72,4.22,3,5.85,1.62,2.07,3.67,3.59,6.09,4.51,3.97,1.51,7.64,2.33,11.57,2.58.93.06,1.84.08,2.73.08,2.44,0,4.79-.19,7.07-.37.87-.07,1.76-.14,2.65-.2,3.73-.25,6.88-1.25,9.62-3.04,2.33-1.52,4.37-3.6,6.43-6.54,3.67-5.26,4.06-15.17,3.97-20.61Zm-6.17,19.07c-3.89,5.58-7.96,8.02-14.03,8.44-.91.06-1.81.13-2.68.2-6.21.5-12.07.96-20.21-2.13-3.56-1.35-6.07-4.25-7.47-8.6-1.08-3.38-1.06-6.4-1.05-6.43v-.02s0-.02,0-.02c0-.03-.03-2.8.52-5.9.69-3.88,1.94-6.46,3.61-7.47,6.1-3.68,13.47-4.19,19.22-4.21,1.59,0,3.32.03,5.45.11,6.61.25,12.56,1.4,17.68,3.41,1.08.43,1.74.92,2.07,1.55.26.5.38,1.15.4,2.03.07,4.12-.13,14.22-3.49,19.03Zm-53.14,19.11c-.14-1.09-.52-2.23-.93-3.25-.99-2.46-2.59-4.63-4.51-6.44-.73-.69-1.56-1.51-2.6-1.67-.16-.02-.32-.03-.49-.03,0,0-3.04.28-2.54,5.45.5,5.17,1.37,8.16,5.31,9.83,1.39.59,2.95.59,4.2-.32,1.21-.88,1.76-2.09,1.57-3.58Zm-28.15-9.02c-.15.06-.3.13-.43.22-.88.57-1.31,1.66-1.69,2.58-1.01,2.44-2.22,5.28-2.12,7.92.04,1.1.16,2.29.48,3.34.44,1.44.89,2.68,2.36,2.99,1.51.32,3.55-.87,4.58-1.98,2.91-3.14,3.03-6.22,1.38-11.14-1.66-4.92-4.55-3.93-4.55-3.93Zm120.06-56.7c-1.8-5.77-4.68-11.11-7.5-16.42-2.47-4.77-4.47-9.73-6.27-14.79-.22-.58-.47-1.28-.7-1.86l-.15-.38c-.05-.12-.11-.26-.17-.39l-.18-.39-.06-.14-.03-.07s-.02-.05-.03-.07l-.06-.15c-.25-.65-.44-1.24-.83-1.86-.22-.35-.49-.67-.78-.95-.02-.02-.04-.03-.05-.05l-.11-.09c-.07-.06-.15-.12-.22-.18l-.22-.16-.11-.08s-.08-.05-.11-.07l-.23-.13-.11-.06s-.08-.04-.11-.06c-.15-.07-.3-.14-.45-.21l-.44-.17s-.07-.03-.11-.04l-.11-.03-.22-.07-.22-.07c-.07-.02-.14-.04-.21-.06l-.43-.11c-.14-.03-.28-.06-.42-.09l-.21-.04c-.07-.01-.14-.03-.21-.04l-.41-.07c-.39-.06-.84-.12-1.23-.16l-.81-.08c-4.21-.31-8.42-.11-12.6.1l-1.56.09-.39.02h-.2s-.19.03-.2.03c-14.05,1.04-27.2,7.49-38.27,15.93-.57.45-1.15.91-1.71,1.37-4.68-1.68-9.52-2.95-14.43-3.74-16.44-2.64-33.6-.04-48.72,6.87-1.01.47-2.02.96-3,1.49-.26-.18-.53-.35-.8-.51-7.09-4.35-15.41-6.6-23.7-6.81-.55-.01-1.19,0-1.74-.01-1.01.02-2.18.07-3.19.12-1.84.09-3.97.22-5.81.37-3.19.25-6.55.61-9.69,1.17-5.38.89-10.75,2.57-15.52,5.29-.12.25-.34.71-.45.95-1.86,4.08-3.34,8.33-4.63,12.62-1.79,6.02-3.11,12.19-3.97,18.4-.26,1.92-.49,3.92-.66,5.85-.05.65.02,1.29.11,1.93.19,1.17.54,2.32.99,3.41l.1.25.1.25.11.24c.15.35.42.85.59,1.19.3.54.6,1.06.94,1.58,1.96,3.03,4.5,5.62,7.27,7.91,1.58,1.31,3.29,2.52,4.99,3.65l.13.05.08.03.06.03.12.05c.15.06.31.11.46.16.65.22,1.32.4,1.99.54-.52.48-1.02.98-1.48,1.52-1.02,1.18-1.88,2.54-2.33,4.04-.33,1.08-.37,2.28-.24,3.37.37,2.94,1.61,5.63,3.1,8.13,0,0,.02.03.03.05-.34,1.27-.97,3.8-1.53,7.11-.74,4.36-1.49,10.94-.84,17.49.84,8.46,2.81,15.8,6.04,22.45,4.54,9.35,11.51,17.02,20.73,22.8,25.86,16.21,46.7,17.58,58.5,17.58,1.31,0,2.51-.02,3.59-.03.58,0,1.12-.02,1.63-.02.46.01,5.35.15,12.2-.32,6.52-.45,16.09-1.57,24.65-4.32,8.42-2.71,17.39-5.86,25.93-10.49,9.94-5.39,17.61-11.88,23.46-19.83,3.13-4.25,5.54-8.53,7.37-13.06,1.64-4.05,2.76-8.2,3.44-12.68,1.21-7.97.79-15.63.17-24.09-.23-3.11-1.05-6.3-2.44-9.5-.6-1.37-1.3-2.74-2.1-4.1,1-1.25,1.71-2.92,2.07-4.89.36-1.96.37-4.22.03-6.34-.09-.55-.3-1.14-.63-1.77,3.43-1.17,6.36-3.13,8.72-5.86,2.18-2.52,3.88-5.67,5.05-9.38,1.55-4.93,1.75-9.47,1.76-11.28.04-.05.07-.09.1-.14.36-.49.61-1.14.68-1.75.28-2.02-.35-4.16-.93-5.98ZM16.74,77.3c-1.78-1.2-3.55-2.49-5.16-3.9-2.27-1.96-4.38-4.21-5.98-6.75-.11-.18-.24-.41-.35-.58l-.22-.39-.11-.2c-.07-.14-.23-.46-.31-.6l-.19-.4-.09-.2c-.19-.45-.4-.97-.54-1.44-.27-.85-.47-1.73-.49-2.63,0-.03,0-.06,0-.08,0-.02,0-.05,0-.06l.09-.9c.08-.89.21-1.99.31-2.88.48-3.83,1.13-7.64,1.97-11.41.73-3.28,1.61-6.58,2.61-9.79,1.15-3.63,2.44-7.24,4.02-10.71,2.02-1.07,4.11-1.97,6.28-2.67,5.94-1.89,12.31-2.55,18.53-2.99,1.2-.07,2.58-.17,3.81-.22,1.06-.05,2.23-.11,3.29-.12h.46s.46,0,.46,0h.23s.12,0,.12,0h.12s.93.04.93.04c.15,0,.31,0,.46.02.86.05,1.92.14,2.77.23l.46.06.46.06c.15.02.31.04.46.06,5.65.84,11.21,2.69,16.11,5.63-3.65,2.34-7.19,4.86-10.6,7.55-.73-.31-2.96-1.13-5.8-1-3.15.14-7.69,1.5-11.42,7.17-1.57,2.39-2.92,5.18-4.02,8.32-.87,2.49-1.58,5.19-2.12,8.04-.66,3.49-.88,6.31-.96,7.67-.65.28-1.29.56-1.93.85-3.93,1.8-7.49,4.36-10.29,7.38-.56.6-.78,1.43-.61,2.23l1.18,5.43c-1.35-.11-2.68-.38-3.94-.86Zm102.66-6.26c.02,1.1.07,3.43.12,5.86-3.01-.93-6.18-1.45-9.46-1.54-3.16-.09-6.43.22-9.7.91-3.34.7-5.99,1.66-7.62,2.33-.08-.84-.17-1.77-.28-2.79-.2-1.91-.52-3.64-.88-5.18,1.38-.63,4.23-1.8,8.03-2.64,4.81-1.06,12.07-1.77,19.87.7-.07.79-.09,1.56-.08,2.35Zm.19,8.7c.02.96.04,1.86.06,2.62-.26-.12-.53-.24-.8-.35-3.69-1.56-7.55-2.31-11.48-2.24-4.84.1-9.73,1.5-14.25,4.03-.03-.64-.08-1.44-.15-2.4,1.33-.59,4.22-1.75,8.02-2.54,4.61-.96,11.5-1.56,18.59.87Zm-12.16,2.72c.17,0,.35,0,.52,0,8.33,0,14.53,4.07,18.29,7.52,4.56,4.19,8.01,9.89,9.02,14.87,1.65,8.19-2.46,11.78-4.67,13.7-.28.24-.51.45-.72.65-.8.76-4.24,2.87-9.81,4.54-4.01,1.2-10.12,2.47-18.04,2.47-1.94,0-4-.08-6.15-.25-4.62-.37-8.23-1.42-11.05-3.21-4.22-2.69-6.57-7.75-5.84-12.6.08-.55.19-1.1.3-1.68.03-.15.06-.29.08-.44.04-.19.07-.38.11-.57.29-1.55.59-3.15.99-4.67.81-3.11,2.43-6.15,4.75-8.96.14-.11.25-.24.34-.41,1-1.17,2.13-2.3,3.37-3.38,5.49-4.76,12.06-7.45,18.5-7.58Zm16.22-20.43c1.08-3.52,4.44-5.81,4.57-5.9,8.02-5.09,16.76-6.3,35.95-4.97,9.37.65,15.74,2.84,19.44,4.56,2.87,1.34,4.62,2.61,5.37,3.22l-.52,7.62h0l-.79,9.37c-.05.42-1.01,8.43-3.59,14.53-2.07,4.89-4.51,7.88-5.47,8.94-.13.14-.3.26-.48.32-5.97,2.15-12.37,2.51-18.95,2.71-5.86.18-11.04.11-15.83-.21-2.13-.14-4.34-.44-6.29-.84-.62-1.78-1.47-3.6-2.53-5.39-1.72-2.9-3.96-5.66-6.48-7.98-1.78-1.64-3.69-3.05-5.69-4.22-.06-2.5-.26-10.45-.29-12.78-.04-2.69.37-5.04,1.58-8.97Zm-52.52,38.79c-3.03,1.25-5.19,1.64-5.21,1.64h-.04c-.1.03-9.6,1.97-15.59,1.44-5.91-.53-10.89-3.42-13-7.54-2.35-4.59-4.3-12.37-4.34-17.33,0-.79-.02-2.26.45-3.04.54-.89,2.09-1.62,3.02-2.05,3.45-1.61,6.66-2.84,9.83-3.75,5.17-1.49,10.89-2.3,18.01-2.57,2.39-.09,5.2-.14,7.93.15,1.75.19,3.56.51,4.86,1.56,1.07.86,2.08,2.25,3.1,4.24,1.46,2.87,2.28,6.35,2.5,10.66.27,5.25.36,7.27.38,8.04-.47.57-.91,1.16-1.33,1.75-3.75,3.58-7.82,5.68-10.57,6.82Zm16.04-12.8c-.54.47-1.07.95-1.57,1.45-.07-1.39-.16-3.19-.27-5.39-.24-4.69-1.15-8.53-2.79-11.73-1.19-2.33-2.43-4.01-3.8-5.11-1.85-1.49-4.1-1.91-6.26-2.14-2.9-.31-5.83-.26-8.32-.16-7.34.28-13.26,1.13-18.65,2.68-3.3.95-6.65,2.22-10.22,3.89-1.28.6-3.22,1.51-4.18,3.1-.79,1.31-.85,2.98-.83,4.44.02,2.64.52,6.04,1.42,9.56.87,3.45,2.01,6.63,3.21,8.97,2.53,4.94,8.34,8.38,15.15,8.99.81.07,1.67.1,2.55.1,6.02,0,13.26-1.46,13.8-1.57.27-.05,2.53-.48,5.67-1.76,1.78-.73,4.07-1.84,6.5-3.43-.27.73-.51,1.47-.7,2.22-.42,1.61-.73,3.24-1.02,4.83-.43.14-.89.28-1.19.37-1.96.56-3.98,1.05-5.97,1.49-3.69.82-7.41,1.56-11.13,2.18-.64.11-1.29.16-1.95.21-.99.06-2.12.15-3.1.2-4.27.22-8.56.46-12.81.23-.45-.03-1-.07-1.44-.14l-.22-.04-.11-.02c-.17-.04-.39-.08-.55-.14l-.09-.03-.09-.03s-.06-.03-.09-.04l-.18-.08-.18-.09-.09-.05-.09-.05-.18-.11-.18-.12c-2.53-1.64-5.49-5.54-6.77-8.3-.25-.59-.5-1.23-.72-1.85-1.4-3.82-2.66-7.76-3.94-11.63l-3.63-16.65c2.56-2.74,5.8-5.06,9.38-6.7,7.17-3.29,15.38-5.7,25.09-7.37,4.93-.85,9.27-1.16,13.25-.95,5.27.28,11.84,1.2,15.82,5.89.29.34.5.62.66.89.12.22,2.68,4.82,3.45,12.09.58,5.43.69,8.21.7,9.35-1.14.78-2.26,1.64-3.33,2.57Zm-69.84-.66c.52-1.5,1.57-2.75,2.72-3.82.48-.44.99-.86,1.52-1.26l1.77,8.14c-1.41,1-2.73,2.12-3.9,3.4-.23.26-.46.52-.67.79-1.06-2.15-2.15-5.11-1.44-7.25Zm182.47,13.55c1.06,14.41,2.25,30.75-10.47,48.05-12.35,16.79-31.28,23.95-48.05,29.35-8.29,2.67-17.61,3.75-23.98,4.2-6.93.48-11.94.32-11.99.32h-.03s-.03,0-.03,0c-.52,0-1.08.01-1.67.02-10.57.15-32.56.46-60.63-17.13-15.03-9.42-23.61-23.97-25.52-43.24-.62-6.24.1-12.55.8-16.74.48-2.86,1.03-5.16,1.38-6.48.25-.51.46-.94.46-.94.28-.57.63-1.11,1.03-1.63.87-1.1,1.89-2.09,3-2.97,1,2.97,2.01,5.94,3.13,8.87.39,1.05.91,2.08,1.5,3.03,1.78,2.87,4.62,6.46,7.67,8.03l.28.14.3.13c.05.02.1.04.15.06l.16.06.16.06c.05.02.11.04.16.05l.33.09c.11.02.21.04.31.06l.15.03.15.02c.77.13,1.74.19,2.5.23,4.93.17,9.81-.15,14.71-.48.82-.07,1.23-.07,2.13-.17,1.41-.16,2.82-.46,4.21-.72,3.77-.73,7.53-1.53,11.25-2.47.96-.24,1.97-.52,2.95-.81-.4,2.86.06,5.8,1.32,8.5,1.27,2.73,3.26,5.01,5.76,6.59,1.6,1.02,3.4,1.82,5.44,2.42-1.59.11-8.38.3-13.39-3.42.23-.71.14-1.41-.31-1.86-.73-.73-2.11-.52-3.1.47-.99.99-1.2,2.37-.47,3.1.39.39.98.51,1.6.38.71.68,4.81,4.29,12.13,4.67,0,0-1.65,16.19,12.82,24.79,14.47,8.6,26.71-1.23,26.71-1.23,0,0,7.49-5.31,8.88-14.64,1.4-9.33-.45-14.3-.45-14.3,0,0,8.64-2.28,12.28-8,.71-.07,1.29-.41,1.53-.97.4-.94-.31-2.16-1.59-2.7-1.28-.55-2.65-.23-3.05.71-.22.51-.11,1.1.24,1.62-1.2,1.55-5.91,5.89-13.52,6.84,1.31-.74,2.16-1.36,2.58-1.76.17-.16.38-.35.64-.57,1.22-1.07,3.07-2.68,4.4-5.28,1.59-3.11,1.97-6.81,1.13-10.97,0-.02,0-.05-.01-.07,1.71.3,3.51.51,5.31.63,3.13.21,6.43.32,9.96.32,1.96,0,4-.03,6.13-.1,6.8-.21,13.44-.58,19.78-2.86.6-.21,1.13-.58,1.56-1.05,1.05-1.16,3.72-4.42,5.95-9.69,1.54-3.66,2.53-7.86,3.1-10.93,1.05,1.12,2.46,2.73,3.88,4.71,2.59,3.62,5.79,9.27,6.25,15.63Zm-9.6-23.61c.09-.63.13-1.02.14-1.09v-.02s.6-7.01.6-7.01c.67.52,1.45,1.15,2.24,1.84,3.55,3.12,4.13,4.73,4.22,5.28.44,2.75.24,6.13-1.02,8.35-.22-.33-.45-.66-.69-.99-2.29-3.18-4.49-5.41-5.48-6.36Zm20.41-19.16c-2.31,7.26-6.62,11.86-12.83,13.68-.76-.88-1.71-1.82-2.86-2.82-1.49-1.31-2.94-2.4-3.73-2.97l.56-8.18-.44-.43c-.08-.08-2.06-2-6.4-4.04-2.33-1.1-4.91-2.04-7.69-2.79-.4-.67-.81-1.33-1.25-1.98-2.74-4.05-6.05-7.69-9.67-10.98-2.53-2.29-5.2-4.43-8.03-6.35.58-1.15,1.33-2.22,2.18-3.19,2.38-2.7,5.67-4.49,9.17-5.27,4.24-.95,8.22,1.65,11,4.66,1.44,1.53,2.78,3.4,3.78,5.16.96,2.09,1.78,4.25,2.47,6.44.44,1.41.82,2.88,1.08,4.33.06.35.16.99.21,1.33.11.62.24,1.24.41,1.85.83,3.04,2.54,5.7,4.85,7.83,1.98,1.85,4.3,3.27,6.67,4.45.5.24,1.07.36,1.63.32.77-.04,1.53-.37,2.08-.9.09-.08.19-.2.28-.29.74-.82,1.34-1.71,1.97-2.55,1.49-1.92,3.92-2.99,5.78-4.64.09-.08.18-.16.27-.23-.19,2.06-.6,4.78-1.5,7.59Zm2.12-13.12v.14c-.02.15-.05.29-.1.41-.04.07-.1.17-.16.23-.82.94-1.68,1.87-2.61,2.68-1.54,1.34-3.44,2.31-4.98,3.78-1.17,1.05-1.99,2.55-3.01,3.7l-.11.12s0,0,0,0c0,0-.02.02-.03.03-.08.06-.2.08-.29.04,0,0-.02,0-.02-.01,0,0-.02-.01-.03-.02l-.17-.08-.33-.17c-2.41-1.23-4.62-2.7-6.43-4.67-1.84-2.01-3.01-4.47-3.42-7.17-.23-1.45-.52-2.93-.93-4.32-.57-2.04-1.29-4.05-2.09-6.01-.35-.82-.68-1.64-1.08-2.45-2.25-3.89-5.44-7.66-9.43-9.84-2.8-1.54-6.17-2.05-9.26-1.12-1.33.36-2.63.83-3.87,1.45-3.75,1.84-6.92,4.92-8.69,8.72l-.09.2-.09.2-.08.21-.04.11-.02.06-.03.07-.34.99c3.42,2.14,6.67,4.54,9.81,7.06,4.09,3.29,7.97,6.85,11.5,10.74.08.09.16.18.24.27-3.74-.97-7.84-1.61-12.18-1.91-10.01-.69-16.94-.67-22.47.07-5.92.8-10.58,2.44-15.12,5.32h-.01c-.17.12-4.29,2.86-5.67,7.37-.56,1.82-.96,3.36-1.23,4.76-3.43-1.04-7-1.6-10.66-1.67-3.35-.06-6.77.29-10.17,1.04-3.7.82-6.55,1.93-8.17,2.64-1.03-3.32-2.13-5.24-2.2-5.36v-.02c-.25-.39-.54-.79-.93-1.25-2.04-2.39-4.82-4.17-8.28-5.29-2.63-.85-5.63-1.34-9.44-1.54-4.19-.22-8.72.1-13.85.98-7.9,1.36-14.84,3.2-21.06,5.6.12-1.47.37-3.62.83-6.1.8-4.24,2.44-10.34,5.73-15.33,2.47-3.75,5.56-5.76,9.2-5.96,1.3-.07,2.46.11,3.31.32-3.33,2.77-6.51,5.7-9.54,8.79-1.96,2.01-3.92,4.2-5.71,6.37-.28.35-.94,1.17-1.23,1.54l.89-.97c.48-.53,1.31-1.39,1.8-1.91,2.26-2.32,4.72-4.6,7.18-6.7,6.81-5.75,14.18-10.87,22.04-15.08.17.13.36.27.36.27l.99-.57.2-.12c1.13-.63,2.29-1.21,3.47-1.76,15.61-7.14,33.52-9.51,50.36-5.96,3.77.79,7.49,1.88,11.1,3.22l.94.35c.97-.87,2.04-1.77,3.07-2.56,10.35-7.91,22.6-14.03,35.7-15.25l.75-.06h.19s.19-.03.19-.03l.38-.02,1.54-.1c4.04-.21,8.14-.41,12.17-.13.4.03,1.07.1,1.45.15.73.1,1.47.23,2.17.45.12.04.3.11.43.15.43.19.71.36.94.64.18.21.29.47.41.76.13.32.27.71.4,1.03.14.31.3.65.43.96l.14.34.07.17c.19.49.43,1.09.61,1.59,1.94,5.4,4.13,10.75,6.84,15.82,2.17,4.03,4.36,8.09,6,12.37.36.94.69,1.88,1,2.84.45,1.41.85,2.67.87,4.06,0,.1,0,.2,0,.3Zm-83.67,39.98c.71,2.25,1.72,4.22,3,5.85,1.62,2.07,3.67,3.59,6.09,4.51,3.97,1.51,7.64,2.33,11.57,2.58.93.06,1.84.08,2.73.08,2.44,0,4.79-.19,7.07-.37.87-.07,1.76-.14,2.65-.2,3.73-.25,6.88-1.25,9.62-3.04,2.33-1.52,4.37-3.6,6.43-6.54,3.67-5.26,4.06-15.17,3.97-20.61-.02-1.32-.24-2.34-.7-3.22-.84-1.64-2.39-2.39-3.47-2.82-5.4-2.12-11.65-3.33-18.56-3.6-2.17-.08-3.93-.12-5.56-.11-4.1.02-7.45.3-10.52.89-3.87.74-7.17,1.96-10.07,3.71-2.39,1.44-4.03,4.57-4.86,9.3-.57,3.25-.56,6.1-.56,6.38,0,.32,0,3.52,1.16,7.19Zm2.04-13.11c.69-3.88,1.94-6.46,3.61-7.47,6.1-3.68,13.47-4.19,19.22-4.21,1.59,0,3.32.03,5.45.11,6.61.25,12.56,1.4,17.68,3.41,1.08.43,1.74.92,2.07,1.55.26.5.38,1.15.4,2.03.07,4.12-.13,14.22-3.49,19.03-3.89,5.58-7.96,8.02-14.03,8.44-.91.06-1.81.13-2.68.2-6.21.5-12.07.96-20.21-2.13-3.56-1.35-6.07-4.25-7.47-8.6-1.08-3.38-1.06-6.4-1.05-6.43v-.02s0-.02,0-.02c0-.03-.03-2.8.52-5.9Zm-13.97,37.47c1.39.59,2.95.59,4.2-.32,1.21-.88,1.76-2.09,1.57-3.58-.14-1.09-.52-2.23-.93-3.25-.99-2.46-2.59-4.63-4.51-6.44-.73-.69-1.56-1.51-2.6-1.67-.16-.02-.32-.03-.49-.03,0,0-3.04.28-2.54,5.45.5,5.17,1.37,8.16,5.31,9.83Zm-26.16,1.15c.44,1.44.89,2.68,2.36,2.99,1.51.32,3.55-.87,4.58-1.98,2.91-3.14,3.03-6.22,1.38-11.14-1.66-4.92-4.55-3.93-4.55-3.93-.15.06-.3.13-.43.22-.88.57-1.31,1.66-1.69,2.58-1.01,2.44-2.22,5.28-2.12,7.92.04,1.1.16,2.29.48,3.34Zm8.32-10.14c-1.66-4.92-4.55-3.93-4.55-3.93-.15.06-.3.13-.43.22-.88.57-1.31,1.66-1.69,2.58-1.01,2.44-2.22,5.28-2.12,7.92.04,1.1.16,2.29.48,3.34.44,1.44.89,2.68,2.36,2.99,1.51.32,3.55-.87,4.58-1.98,2.91-3.14,3.03-6.22,1.38-11.14Zm23.6,5.09c-.14-1.09-.52-2.23-.93-3.25-.99-2.46-2.59-4.63-4.51-6.44-.73-.69-1.56-1.51-2.6-1.67-.16-.02-.32-.03-.49-.03,0,0-3.04.28-2.54,5.45.5,5.17,1.37,8.16,5.31,9.83,1.39.59,2.95.59,4.2-.32,1.21-.88,1.76-2.09,1.57-3.58Zm59.31-38.19c-.02-1.32-.24-2.34-.7-3.22-.84-1.64-2.39-2.39-3.47-2.82-5.4-2.12-11.65-3.33-18.56-3.6-2.17-.08-3.93-.12-5.56-.11-4.1.02-7.45.3-10.52.89-3.87.74-7.17,1.96-10.07,3.71-2.39,1.44-4.03,4.57-4.86,9.3-.57,3.25-.56,6.1-.56,6.38,0,.32,0,3.52,1.16,7.19.71,2.25,1.72,4.22,3,5.85,1.62,2.07,3.67,3.59,6.09,4.51,3.97,1.51,7.64,2.33,11.57,2.58.93.06,1.84.08,2.73.08,2.44,0,4.79-.19,7.07-.37.87-.07,1.76-.14,2.65-.2,3.73-.25,6.88-1.25,9.62-3.04,2.33-1.52,4.37-3.6,6.43-6.54,3.67-5.26,4.06-15.17,3.97-20.61Zm-6.17,19.07c-3.89,5.58-7.96,8.02-14.03,8.44-.91.06-1.81.13-2.68.2-6.21.5-12.07.96-20.21-2.13-3.56-1.35-6.07-4.25-7.47-8.6-1.08-3.38-1.06-6.4-1.05-6.43v-.02s0-.02,0-.02c0-.03-.03-2.8.52-5.9.69-3.88,1.94-6.46,3.61-7.47,6.1-3.68,13.47-4.19,19.22-4.21,1.59,0,3.32.03,5.45.11,6.61.25,12.56,1.4,17.68,3.41,1.08.43,1.74.92,2.07,1.55.26.5.38,1.15.4,2.03.07,4.12-.13,14.22-3.49,19.03Zm6.17-19.07c-.02-1.32-.24-2.34-.7-3.22-.84-1.64-2.39-2.39-3.47-2.82-5.4-2.12-11.65-3.33-18.56-3.6-2.17-.08-3.93-.12-5.56-.11-4.1.02-7.45.3-10.52.89-3.87.74-7.17,1.96-10.07,3.71-2.39,1.44-4.03,4.57-4.86,9.3-.57,3.25-.56,6.1-.56,6.38,0,.32,0,3.52,1.16,7.19.71,2.25,1.72,4.22,3,5.85,1.62,2.07,3.67,3.59,6.09,4.51,3.97,1.51,7.64,2.33,11.57,2.58.93.06,1.84.08,2.73.08,2.44,0,4.79-.19,7.07-.37.87-.07,1.76-.14,2.65-.2,3.73-.25,6.88-1.25,9.62-3.04,2.33-1.52,4.37-3.6,6.43-6.54,3.67-5.26,4.06-15.17,3.97-20.61Zm-6.17,19.07c-3.89,5.58-7.96,8.02-14.03,8.44-.91.06-1.81.13-2.68.2-6.21.5-12.07.96-20.21-2.13-3.56-1.35-6.07-4.25-7.47-8.6-1.08-3.38-1.06-6.4-1.05-6.43v-.02s0-.02,0-.02c0-.03-.03-2.8.52-5.9.69-3.88,1.94-6.46,3.61-7.47,6.1-3.68,13.47-4.19,19.22-4.21,1.59,0,3.32.03,5.45.11,6.61.25,12.56,1.4,17.68,3.41,1.08.43,1.74.92,2.07,1.55.26.5.38,1.15.4,2.03.07,4.12-.13,14.22-3.49,19.03Zm-53.14,19.11c-.14-1.09-.52-2.23-.93-3.25-.99-2.46-2.59-4.63-4.51-6.44-.73-.69-1.56-1.51-2.6-1.67-.16-.02-.32-.03-.49-.03,0,0-3.04.28-2.54,5.45.5,5.17,1.37,8.16,5.31,9.83,1.39.59,2.95.59,4.2-.32,1.21-.88,1.76-2.09,1.57-3.58Zm-23.6-5.09c-1.66-4.92-4.55-3.93-4.55-3.93-.15.06-.3.13-.43.22-.88.57-1.31,1.66-1.69,2.58-1.01,2.44-2.22,5.28-2.12,7.92.04,1.1.16,2.29.48,3.34.44,1.44.89,2.68,2.36,2.99,1.51.32,3.55-.87,4.58-1.98,2.91-3.14,3.03-6.22,1.38-11.14Zm0,0c-1.66-4.92-4.55-3.93-4.55-3.93-.15.06-.3.13-.43.22-.88.57-1.31,1.66-1.69,2.58-1.01,2.44-2.22,5.28-2.12,7.92.04,1.1.16,2.29.48,3.34.44,1.44.89,2.68,2.36,2.99,1.51.32,3.55-.87,4.58-1.98,2.91-3.14,3.03-6.22,1.38-11.14Zm23.6,5.09c-.14-1.09-.52-2.23-.93-3.25-.99-2.46-2.59-4.63-4.51-6.44-.73-.69-1.56-1.51-2.6-1.67-.16-.02-.32-.03-.49-.03,0,0-3.04.28-2.54,5.45.5,5.17,1.37,8.16,5.31,9.83,1.39.59,2.95.59,4.2-.32,1.21-.88,1.76-2.09,1.57-3.58Zm59.31-38.19c-.02-1.32-.24-2.34-.7-3.22-.84-1.64-2.39-2.39-3.47-2.82-5.4-2.12-11.65-3.33-18.56-3.6-2.17-.08-3.93-.12-5.56-.11-4.1.02-7.45.3-10.52.89-3.87.74-7.17,1.96-10.07,3.71-2.39,1.44-4.03,4.57-4.86,9.3-.57,3.25-.56,6.1-.56,6.38,0,.32,0,3.52,1.16,7.19.71,2.25,1.72,4.22,3,5.85,1.62,2.07,3.67,3.59,6.09,4.51,3.97,1.51,7.64,2.33,11.57,2.58.93.06,1.84.08,2.73.08,2.44,0,4.79-.19,7.07-.37.87-.07,1.76-.14,2.65-.2,3.73-.25,6.88-1.25,9.62-3.04,2.33-1.52,4.37-3.6,6.43-6.54,3.67-5.26,4.06-15.17,3.97-20.61Zm-6.17,19.07c-3.89,5.58-7.96,8.02-14.03,8.44-.91.06-1.81.13-2.68.2-6.21.5-12.07.96-20.21-2.13-3.56-1.35-6.07-4.25-7.47-8.6-1.08-3.38-1.06-6.4-1.05-6.43v-.02s0-.02,0-.02c0-.03-.03-2.8.52-5.9.69-3.88,1.94-6.46,3.61-7.47,6.1-3.68,13.47-4.19,19.22-4.21,1.59,0,3.32.03,5.45.11,6.61.25,12.56,1.4,17.68,3.41,1.08.43,1.74.92,2.07,1.55.26.5.38,1.15.4,2.03.07,4.12-.13,14.22-3.49,19.03Zm6.17-19.07c-.02-1.32-.24-2.34-.7-3.22-.84-1.64-2.39-2.39-3.47-2.82-5.4-2.12-11.65-3.33-18.56-3.6-2.17-.08-3.93-.12-5.56-.11-4.1.02-7.45.3-10.52.89-3.87.74-7.17,1.96-10.07,3.71-2.39,1.44-4.03,4.57-4.86,9.3-.57,3.25-.56,6.1-.56,6.38,0,.32,0,3.52,1.16,7.19.71,2.25,1.72,4.22,3,5.85,1.62,2.07,3.67,3.59,6.09,4.51,3.97,1.51,7.64,2.33,11.57,2.58.93.06,1.84.08,2.73.08,2.44,0,4.79-.19,7.07-.37.87-.07,1.76-.14,2.65-.2,3.73-.25,6.88-1.25,9.62-3.04,2.33-1.52,4.37-3.6,6.43-6.54,3.67-5.26,4.06-15.17,3.97-20.61Zm-6.17,19.07c-3.89,5.58-7.96,8.02-14.03,8.44-.91.06-1.81.13-2.68.2-6.21.5-12.07.96-20.21-2.13-3.56-1.35-6.07-4.25-7.47-8.6-1.08-3.38-1.06-6.4-1.05-6.43v-.02s0-.02,0-.02c0-.03-.03-2.8.52-5.9.69-3.88,1.94-6.46,3.61-7.47,6.1-3.68,13.47-4.19,19.22-4.21,1.59,0,3.32.03,5.45.11,6.61.25,12.56,1.4,17.68,3.41,1.08.43,1.74.92,2.07,1.55.26.5.38,1.15.4,2.03.07,4.12-.13,14.22-3.49,19.03Zm-53.14,19.11c-.14-1.09-.52-2.23-.93-3.25-.99-2.46-2.59-4.63-4.51-6.44-.73-.69-1.56-1.51-2.6-1.67-.16-.02-.32-.03-.49-.03,0,0-3.04.28-2.54,5.45.5,5.17,1.37,8.16,5.31,9.83,1.39.59,2.95.59,4.2-.32,1.21-.88,1.76-2.09,1.57-3.58Zm-23.6-5.09c-1.66-4.92-4.55-3.93-4.55-3.93-.15.06-.3.13-.43.22-.88.57-1.31,1.66-1.69,2.58-1.01,2.44-2.22,5.28-2.12,7.92.04,1.1.16,2.29.48,3.34.44,1.44.89,2.68,2.36,2.99,1.51.32,3.55-.87,4.58-1.98,2.91-3.14,3.03-6.22,1.38-11.14Zm0,0c-1.66-4.92-4.55-3.93-4.55-3.93-.15.06-.3.13-.43.22-.88.57-1.31,1.66-1.69,2.58-1.01,2.44-2.22,5.28-2.12,7.92.04,1.1.16,2.29.48,3.34.44,1.44.89,2.68,2.36,2.99,1.51.32,3.55-.87,4.58-1.98,2.91-3.14,3.03-6.22,1.38-11.14Zm23.6,5.09c-.14-1.09-.52-2.23-.93-3.25-.99-2.46-2.59-4.63-4.51-6.44-.73-.69-1.56-1.51-2.6-1.67-.16-.02-.32-.03-.49-.03,0,0-3.04.28-2.54,5.45.5,5.17,1.37,8.16,5.31,9.83,1.39.59,2.95.59,4.2-.32,1.21-.88,1.76-2.09,1.57-3.58Zm59.31-38.19c-.02-1.32-.24-2.34-.7-3.22-.84-1.64-2.39-2.39-3.47-2.82-5.4-2.12-11.65-3.33-18.56-3.6-2.17-.08-3.93-.12-5.56-.11-4.1.02-7.45.3-10.52.89-3.87.74-7.17,1.96-10.07,3.71-2.39,1.44-4.03,4.57-4.86,9.3-.57,3.25-.56,6.1-.56,6.38,0,.32,0,3.52,1.16,7.19.71,2.25,1.72,4.22,3,5.85,1.62,2.07,3.67,3.59,6.09,4.51,3.97,1.51,7.64,2.33,11.57,2.58.93.06,1.84.08,2.73.08,2.44,0,4.79-.19,7.07-.37.87-.07,1.76-.14,2.65-.2,3.73-.25,6.88-1.25,9.62-3.04,2.33-1.52,4.37-3.6,6.43-6.54,3.67-5.26,4.06-15.17,3.97-20.61Zm-6.17,19.07c-3.89,5.58-7.96,8.02-14.03,8.44-.91.06-1.81.13-2.68.2-6.21.5-12.07.96-20.21-2.13-3.56-1.35-6.07-4.25-7.47-8.6-1.08-3.38-1.06-6.4-1.05-6.43v-.02s0-.02,0-.02c0-.03-.03-2.8.52-5.9.69-3.88,1.94-6.46,3.61-7.47,6.1-3.68,13.47-4.19,19.22-4.21,1.59,0,3.32.03,5.45.11,6.61.25,12.56,1.4,17.68,3.41,1.08.43,1.74.92,2.07,1.55.26.5.38,1.15.4,2.03.07,4.12-.13,14.22-3.49,19.03Zm6.17-19.07c-.02-1.32-.24-2.34-.7-3.22-.84-1.64-2.39-2.39-3.47-2.82-5.4-2.12-11.65-3.33-18.56-3.6-2.17-.08-3.93-.12-5.56-.11-4.1.02-7.45.3-10.52.89-3.87.74-7.17,1.96-10.07,3.71-2.39,1.44-4.03,4.57-4.86,9.3-.57,3.25-.56,6.1-.56,6.38,0,.32,0,3.52,1.16,7.19.71,2.25,1.72,4.22,3,5.85,1.62,2.07,3.67,3.59,6.09,4.51,3.97,1.51,7.64,2.33,11.57,2.58.93.06,1.84.08,2.73.08,2.44,0,4.79-.19,7.07-.37.87-.07,1.76-.14,2.65-.2,3.73-.25,6.88-1.25,9.62-3.04,2.33-1.52,4.37-3.6,6.43-6.54,3.67-5.26,4.06-15.17,3.97-20.61Zm-6.17,19.07c-3.89,5.58-7.96,8.02-14.03,8.44-.91.06-1.81.13-2.68.2-6.21.5-12.07.96-20.21-2.13-3.56-1.35-6.07-4.25-7.47-8.6-1.08-3.38-1.06-6.4-1.05-6.43v-.02s0-.02,0-.02c0-.03-.03-2.8.52-5.9.69-3.88,1.94-6.46,3.61-7.47,6.1-3.68,13.47-4.19,19.22-4.21,1.59,0,3.32.03,5.45.11,6.61.25,12.56,1.4,17.68,3.41,1.08.43,1.74.92,2.07,1.55.26.5.38,1.15.4,2.03.07,4.12-.13,14.22-3.49,19.03Zm-53.14,19.11c-.14-1.09-.52-2.23-.93-3.25-.99-2.46-2.59-4.63-4.51-6.44-.73-.69-1.56-1.51-2.6-1.67-.16-.02-.32-.03-.49-.03,0,0-3.04.28-2.54,5.45.5,5.17,1.37,8.16,5.31,9.83,1.39.59,2.95.59,4.2-.32,1.21-.88,1.76-2.09,1.57-3.58Zm-23.6-5.09c-1.66-4.92-4.55-3.93-4.55-3.93-.15.06-.3.13-.43.22-.88.57-1.31,1.66-1.69,2.58-1.01,2.44-2.22,5.28-2.12,7.92.04,1.1.16,2.29.48,3.34.44,1.44.89,2.68,2.36,2.99,1.51.32,3.55-.87,4.58-1.98,2.91-3.14,3.03-6.22,1.38-11.14Zm82.91-33.1c-.02-1.32-.24-2.34-.7-3.22-.84-1.64-2.39-2.39-3.47-2.82-5.4-2.12-11.65-3.33-18.56-3.6-2.17-.08-3.93-.12-5.56-.11-4.1.02-7.45.3-10.52.89-3.87.74-7.17,1.96-10.07,3.71-2.39,1.44-4.03,4.57-4.86,9.3-.57,3.25-.56,6.1-.56,6.38,0,.32,0,3.52,1.16,7.19.71,2.25,1.72,4.22,3,5.85,1.62,2.07,3.67,3.59,6.09,4.51,3.97,1.51,7.64,2.33,11.57,2.58.93.06,1.84.08,2.73.08,2.44,0,4.79-.19,7.07-.37.87-.07,1.76-.14,2.65-.2,3.73-.25,6.88-1.25,9.62-3.04,2.33-1.52,4.37-3.6,6.43-6.54,3.67-5.26,4.06-15.17,3.97-20.61Zm-6.17,19.07c-3.89,5.58-7.96,8.02-14.03,8.44-.91.06-1.81.13-2.68.2-6.21.5-12.07.96-20.21-2.13-3.56-1.35-6.07-4.25-7.47-8.6-1.08-3.38-1.06-6.4-1.05-6.43v-.02s0-.02,0-.02c0-.03-.03-2.8.52-5.9.69-3.88,1.94-6.46,3.61-7.47,6.1-3.68,13.47-4.19,19.22-4.21,1.59,0,3.32.03,5.45.11,6.61.25,12.56,1.4,17.68,3.41,1.08.43,1.74.92,2.07,1.55.26.5.38,1.15.4,2.03.07,4.12-.13,14.22-3.49,19.03Zm6.17-19.07c-.02-1.32-.24-2.34-.7-3.22-.84-1.64-2.39-2.39-3.47-2.82-5.4-2.12-11.65-3.33-18.56-3.6-2.17-.08-3.93-.12-5.56-.11-4.1.02-7.45.3-10.52.89-3.87.74-7.17,1.96-10.07,3.71-2.39,1.44-4.03,4.57-4.86,9.3-.57,3.25-.56,6.1-.56,6.38,0,.32,0,3.52,1.16,7.19.71,2.25,1.72,4.22,3,5.85,1.62,2.07,3.67,3.59,6.09,4.51,3.97,1.51,7.64,2.33,11.57,2.58.93.06,1.84.08,2.73.08,2.44,0,4.79-.19,7.07-.37.87-.07,1.76-.14,2.65-.2,3.73-.25,6.88-1.25,9.62-3.04,2.33-1.52,4.37-3.6,6.43-6.54,3.67-5.26,4.06-15.17,3.97-20.61Zm-6.17,19.07c-3.89,5.58-7.96,8.02-14.03,8.44-.91.06-1.81.13-2.68.2-6.21.5-12.07.96-20.21-2.13-3.56-1.35-6.07-4.25-7.47-8.6-1.08-3.38-1.06-6.4-1.05-6.43v-.02s0-.02,0-.02c0-.03-.03-2.8.52-5.9.69-3.88,1.94-6.46,3.61-7.47,6.1-3.68,13.47-4.19,19.22-4.21,1.59,0,3.32.03,5.45.11,6.61.25,12.56,1.4,17.68,3.41,1.08.43,1.74.92,2.07,1.55.26.5.38,1.15.4,2.03.07,4.12-.13,14.22-3.49,19.03Z"/>
      <path class="cls-16" d="m131.33,142.25l-2.12,4.06c-12.7-9.55-17.56-.5-17.56-.5-8.88-6.54-16.19,5.85-16.19,5.85l-3.28-3.37c19.61-23.3,39.15-6.05,39.15-6.05Z"/>
      <path class="cls-21" d="m129.21,146.32c-15,20.87-33.74,5.35-33.74,5.35,0,0,7.3-12.39,16.19-5.85,0,0,4.86-9.05,17.56.5Z"/>
      <path class="cls-10" d="m75.33,126.83c.67.64,4.52,4.04,11.41,4.39,0,0-1.55,15.22,12.05,23.31,13.6,8.09,25.11-1.16,25.11-1.16,0,0,7.04-4.99,8.35-13.76,1.31-8.77-.42-13.45-.42-13.45,0,0,8.12-2.15,11.54-7.52"/>
      <g>
        <path class="cls-13" d="m164.08,80.19c-.12-.54-.32-1.02-.58-1.43-.27-.41-.54-.78-.83-1.11-.29-.33-.65-.62-1.1-.88-.45-.26-.85-.47-1.19-.65-.35-.18-.79-.35-1.34-.51-.55-.16-.99-.28-1.31-.36,0,0,0,0-.01,0v-3.76c1.09.31,2.19.87,3.29,1.66l2.85-4.12c-1.88-1.45-3.93-2.37-6.15-2.74v-3.22h-1.74v3.04c-.2,0-.39-.01-.59-.01-.06,0-.12,0-.18,0v-3.03h-1.74v3.15c-.91.12-1.75.34-2.53.64-1.31.51-2.37,1.32-3.18,2.42-.81,1.1-1.21,2.43-1.21,3.98,0,.57.06,1.1.17,1.6.11.5.25.94.42,1.31.16.38.4.74.7,1.08.31.34.59.63.86.87s.61.46,1.05.68.8.39,1.1.52c.3.13.7.27,1.2.42.5.15.89.26,1.17.33.07.02.16.04.25.06v4.13c-1.73-.26-3.32-1.03-4.76-2.32l-2.83,4.12c2.22,1.91,4.75,3.01,7.6,3.3v2.7h1.74v-2.63c.26,0,.52-.01.78-.03v2.65h1.74v-2.88c1.51-.3,2.82-.88,3.94-1.72,1.75-1.32,2.62-3.16,2.62-5.52,0-.64-.06-1.23-.18-1.77Zm-10.62-6.17c-.05-.03-.1-.06-.14-.08-.19-.13-.35-.29-.49-.49-.14-.2-.2-.42-.2-.66,0-.54.28-.94.83-1.21,0,0,0,0,0,0v2.45Zm1.74-2.83c.13,0,.25,0,.39,0s.26,0,.39.01v3.64c-.31-.08-.57-.14-.78-.19v-3.46Zm0,13.18v-3.8c.29.08.53.14.72.2.02,0,.04.01.05.02v3.51c-.24.04-.5.06-.78.08Zm2.51-.77v-2.02c.08.07.15.14.21.22.17.23.25.49.25.79,0,.4-.15.74-.46,1.01Z"/>
        <path class="cls-5" d="m146.62,74.4s.34-6.51,6.99-8h-1.25l-2.49.97-2.23,2.07-.78,1.6-.46,2.36.22,1Z"/>
        <path class="cls-5" d="m155.06,63.35s-1.07.1-1.14.24-.21,2.86-.21,2.86l-.21-3.39,1.57.29Z"/>
        <path class="cls-5" d="m157.62,63.3s-1.07.1-1.14.24-.21,2.86-.21,2.86l-.21-3.39,1.57.29Z"/>
        <path class="cls-20" d="m146.74,74.08c.06-.08.91,4.64,7,5.5v.68s-4-1.45-4-1.45l-2.27-2.01-.76-1.93.03-.79Z"/>
        <polygon class="cls-20" points="154.92 80.3 154.92 79.67 156.26 80.02 156.24 80.79 154.92 80.3"/>
        <path class="cls-20" d="m146.4,85.45s3.24,2.49,7.32,3.03v.72h-.27l-2.91-.43-2.58-1.17-2.1-1.31.54-.84Z"/>
        <path class="cls-20" d="m156.24,88.53v.67h-1.31v-.63c.43.01.87,0,1.31-.04Z"/>
        <path class="cls-20" d="m163.99,83.33l-.7,2.38-1.76,1.78-1.68.98-2.15.74h-.26v-.86c1.23.19,4.61-.93,6.54-5.01Z"/>
        <path class="cls-12" d="m164.08,80.19c-.12-.54-.32-1.02-.58-1.43-.27-.41-.54-.78-.83-1.11-.29-.33-.65-.62-1.1-.88-.45-.26-.85-.47-1.19-.65-.35-.18-.79-.35-1.34-.51-.55-.16-.99-.28-1.31-.36,0,0,0,0-.01,0v-3.76c1.09.31,2.19.87,3.29,1.66l2.85-4.12c-1.88-1.45-3.93-2.37-6.15-2.74v-3.22h-1.74v3.04c-.2,0-.39-.01-.59-.01-.06,0-.12,0-.18,0v-3.03h-1.74v3.15c-.91.12-1.75.34-2.53.64-1.31.51-2.37,1.32-3.18,2.42-.81,1.1-1.21,2.43-1.21,3.98,0,.57.06,1.1.17,1.6.11.5.25.94.42,1.31.16.38.4.74.7,1.08.31.34.59.63.86.87s.61.46,1.05.68.8.39,1.1.52c.3.13.7.27,1.2.42.5.15.89.26,1.17.33.07.02.16.04.25.06v4.13c-1.73-.26-3.32-1.03-4.76-2.32l-2.83,4.12c2.22,1.91,4.75,3.01,7.6,3.3v2.7h1.74v-2.63c.26,0,.52-.01.78-.03v2.65h1.74v-2.88c1.51-.3,2.82-.88,3.94-1.72,1.75-1.32,2.62-3.16,2.62-5.52,0-.64-.06-1.23-.18-1.77Zm-10.62-6.17c-.05-.03-.1-.06-.14-.08-.19-.13-.35-.29-.49-.49-.14-.2-.2-.42-.2-.66,0-.54.28-.94.83-1.21,0,0,0,0,0,0v2.45Zm1.74-2.83c.13,0,.25,0,.39,0s.26,0,.39.01v3.64c-.31-.08-.57-.14-.78-.19v-3.46Zm0,13.18v-3.8c.29.08.53.14.72.2.02,0,.04.01.05.02v3.51c-.24.04-.5.06-.78.08Zm2.51-.77v-2.02c.08.07.15.14.21.22.17.23.25.49.25.79,0,.4-.15.74-.46,1.01Z"/>
      </g>
      <g>
        <path class="cls-1" d="m67.87,87.2c-.19-.52-.45-.97-.76-1.34-.32-.37-.64-.71-.96-.99-.33-.29-.73-.53-1.21-.72-.48-.2-.9-.36-1.27-.49-.37-.13-.83-.24-1.4-.33-.57-.09-1.02-.15-1.35-.19,0,0,0,0-.01,0l-.49-3.73c1.12.17,2.28.57,3.48,1.21l2.29-4.46c-2.06-1.2-4.21-1.83-6.45-1.91l-.42-3.19-1.72.23.4,3.01c-.2.02-.39.04-.59.07-.06,0-.12.02-.18.03l-.4-3-1.72.23.41,3.13c-.88.24-1.69.56-2.43.97-1.23.68-2.18,1.62-2.83,2.82-.66,1.2-.88,2.57-.68,4.11.07.57.2,1.09.38,1.57.18.48.37.9.59,1.25.21.35.49.68.84.98.35.3.67.55.96.75s.67.38,1.13.54.85.29,1.16.37c.31.09.73.17,1.25.26.52.08.92.14,1.2.18.08,0,.16.02.26.03l.54,4.1c-1.75-.03-3.42-.59-5.02-1.67l-2.27,4.46c2.45,1.61,5.1,2.37,7.96,2.28l.35,2.68,1.72-.23-.34-2.6c.26-.04.52-.08.77-.13l.35,2.63,1.72-.23-.38-2.86c1.45-.5,2.68-1.24,3.68-2.22,1.56-1.53,2.18-3.47,1.87-5.82-.08-.64-.22-1.21-.41-1.73Zm-11.34-4.73c-.05-.02-.1-.04-.15-.07-.21-.1-.39-.24-.55-.42-.16-.18-.26-.39-.29-.63-.07-.54.15-.97.66-1.3,0,0,0,0,0,0l.32,2.43Zm1.35-3.03c.12-.02.25-.04.38-.06s.26-.03.39-.04l.48,3.61c-.32-.03-.59-.06-.8-.08l-.45-3.43Zm1.72,13.07l-.5-3.77c.3.04.55.07.74.1.02,0,.04,0,.06,0l.46,3.48c-.24.07-.49.13-.76.18Zm2.39-1.09l-.26-2c.09.06.17.12.23.19.2.2.32.45.36.75.05.4-.06.75-.33,1.07Z"/>
        <path class="cls-5" d="m49.8,83.73s-.51-6.5,5.89-8.84l-1.24.16-2.34,1.29-1.94,2.34-.56,1.69-.15,2.4.35.96Z"/>
        <path class="cls-5" d="m56.73,71.68s-1.05.24-1.1.39.16,2.86.16,2.86l-.65-3.33,1.59.08Z"/>
        <path class="cls-5" d="m59.26,71.29s-1.05.24-1.1.39.16,2.86.16,2.86l-.65-3.33,1.59.08Z"/>
        <path class="cls-20" d="m49.88,83.4c.05-.08,1.51,4.48,7.66,4.54l.08.68-4.15-.92-2.51-1.7-1.01-1.82-.07-.79Z"/>
        <polygon class="cls-20" points="58.81 88.5 58.73 87.88 60.1 88.05 60.18 88.82 58.81 88.5"/>
        <path class="cls-20" d="m51.03,94.72s3.54,2.05,7.66,2.05l.09.72-.26.03-2.94-.05-2.72-.83-2.26-1.03.42-.9Z"/>
        <path class="cls-20" d="m61.19,96.49l.09.67-1.3.17-.08-.62c.43-.04.86-.11,1.3-.21Z"/>
        <path class="cls-20" d="m68.19,90.32l-.39,2.45-1.51,2-1.53,1.19-2.03,1.01-.26.03-.11-.86c1.24.03,4.45-1.52,5.83-5.83Z"/>
        <path class="cls-12" d="m67.87,87.2c-.19-.52-.45-.97-.76-1.34-.32-.37-.64-.71-.96-.99-.33-.29-.73-.53-1.21-.72-.48-.2-.9-.36-1.27-.49-.37-.13-.83-.24-1.4-.33-.57-.09-1.02-.15-1.35-.19,0,0,0,0-.01,0l-.49-3.73c1.12.17,2.28.57,3.48,1.21l2.29-4.46c-2.06-1.2-4.21-1.83-6.45-1.91l-.42-3.19-1.72.23.4,3.01c-.2.02-.39.04-.59.07-.06,0-.12.02-.18.03l-.4-3-1.72.23.41,3.13c-.88.24-1.69.56-2.43.97-1.23.68-2.18,1.62-2.83,2.82-.66,1.2-.88,2.57-.68,4.11.07.57.2,1.09.38,1.57.18.48.37.9.59,1.25.21.35.49.68.84.98.35.3.67.55.96.75s.67.38,1.13.54.85.29,1.16.37c.31.09.73.17,1.25.26.52.08.92.14,1.2.18.08,0,.16.02.26.03l.54,4.1c-1.75-.03-3.42-.59-5.02-1.67l-2.27,4.46c2.45,1.61,5.1,2.37,7.96,2.28l.35,2.68,1.72-.23-.34-2.6c.26-.04.52-.08.77-.13l.35,2.63,1.72-.23-.38-2.86c1.45-.5,2.68-1.24,3.68-2.22,1.56-1.53,2.18-3.47,1.87-5.82-.08-.64-.22-1.21-.41-1.73Zm-11.34-4.73c-.05-.02-.1-.04-.15-.07-.21-.1-.39-.24-.55-.42-.16-.18-.26-.39-.29-.63-.07-.54.15-.97.66-1.3,0,0,0,0,0,0l.32,2.43Zm1.35-3.03c.12-.02.25-.04.38-.06s.26-.03.39-.04l.48,3.61c-.32-.03-.59-.06-.8-.08l-.45-3.43Zm1.72,13.07l-.5-3.77c.3.04.55.07.74.1.02,0,.04,0,.06,0l.46,3.48c-.24.07-.49.13-.76.18Zm2.39-1.09l-.26-2c.09.06.17.12.23.19.2.2.32.45.36.75.05.4-.06.75-.33,1.07Z"/>
        <line class="cls-11" x1="58.78" y1="97.49" x2="58.69" y2="96.77"/>
        <line class="cls-11" x1="59.97" y1="97.33" x2="59.89" y2="96.71"/>
        <line class="cls-11" x1="61.28" y1="97.16" x2="61.19" y2="96.49"/>
        <line class="cls-11" x1="62.47" y1="97" x2="62.36" y2="96.14"/>
      </g>
    </g>
  </g>
</svg>