<?xml version="1.0" encoding="UTF-8"?>
<svg id="Capa_2" data-name="Capa 2" xmlns="http://www.w3.org/2000/svg" viewBox="0 0 316.67 53.11">
  <defs>
    <style>
      .cls-1 {
        fill: #70d560;
      }

      .cls-2 {
        fill: #ff9597;
      }
    </style>
  </defs>
  <g id="Capa_2-2" data-name="Capa 2">
    <g>
      <path class="cls-2" d="m27.94,17.98c-.89-.11-1.84-.13-2.82-.04-1.21.1-2.5.36-3.82.76-2.06.63-3.94,1.88-5.6,3.69-1.76,1.94-3.83,4.9-3.71,8.01.11,2.54,1.45,4.85,3.43,5.88,1.2.62,2.7.9,4.16,1.18l.6.11c4.65.89,13.02.91,17.05-2.73,1-.9,1.64-2.19,1.81-3.63.74-6.14-5.6-12.51-11.1-13.23Zm-5.83,10.35c-.41,4.02-4.02,3.56-4.65,3.04-.37-.31-.45-1-.5-1.45-.08-.73-.07-1.55.11-2.27.25-.95.72-1.83,1.29-2.63.47-.64,1.2-1.79,2.16-1.44,0,0,2,.73,1.59,4.75Zm11.39,1.13c-.03.37-.1.75-.3,1.07-.54.84-2.11.72-2.92.38-1.22-.49-1.83-1.71-2.02-2.96-.63-3.98,1.32-4.82,1.32-4.82.94-.41,1.74.7,2.23,1.32,1.17,1.42,1.85,3.15,1.69,5.01Zm-5.56-11.48c-.89-.11-1.84-.13-2.82-.04-1.21.1-2.5.36-3.82.76-2.06.63-3.94,1.88-5.6,3.69-1.76,1.94-3.83,4.9-3.71,8.01.11,2.54,1.45,4.85,3.43,5.88,1.2.62,2.7.9,4.16,1.18l.6.11c4.65.89,13.02.91,17.05-2.73,1-.9,1.64-2.19,1.81-3.63.74-6.14-5.6-12.51-11.1-13.23Zm-5.83,10.35c-.41,4.02-4.02,3.56-4.65,3.04-.37-.31-.45-1-.5-1.45-.08-.73-.07-1.55.11-2.27.25-.95.72-1.83,1.29-2.63.47-.64,1.2-1.79,2.16-1.44,0,0,2,.73,1.59,4.75Zm11.39,1.13c-.03.37-.1.75-.3,1.07-.54.84-2.11.72-2.92.38-1.22-.49-1.83-1.71-2.02-2.96-.63-3.98,1.32-4.82,1.32-4.82.94-.41,1.74.7,2.23,1.32,1.17,1.42,1.85,3.15,1.69,5.01Zm13.32-13.89c-2.19-3.74-5.2-6.68-9.03-8.82-3.83-2.13-8.08-3.2-12.75-3.2-3.51,0-6.82.63-9.93,1.88-3.1,1.25-5.76,2.96-7.97,5.13-2.21,2.17-3.96,4.76-5.23,7.79-1.27,3.03-1.91,6.26-1.91,9.7s.64,6.68,1.91,9.71c1.27,3.02,3.02,5.62,5.23,7.79,2.21,2.17,4.87,3.88,7.97,5.14,3.11,1.27,6.42,1.9,9.93,1.9s6.8-.63,9.9-1.9c3.09-1.26,5.75-2.97,7.98-5.14,2.22-2.17,3.97-4.77,5.26-7.79,1.28-3.03,1.92-6.27,1.92-9.71,0-4.58-1.09-8.74-3.28-12.48Zm-4.72,16c-.26,2.18-1.26,4.15-2.82,5.56-3.44,3.1-8.91,4-13.53,4-2.42,0-4.6-.25-6.15-.55l-.59-.11c-1.59-.3-3.39-.64-5-1.47-2.94-1.52-4.94-4.85-5.09-8.48-.16-4.15,2.36-7.83,4.5-10.19,2.04-2.24,4.38-3.77,6.98-4.56,1.53-.47,3.03-.77,4.46-.89.5-.05,1-.07,1.49-.07.68,0,1.34.04,1.98.13,7.83,1.01,14.64,9.25,13.77,16.63Zm-14.16-13.59c-.89-.11-1.84-.13-2.82-.04-1.21.1-2.5.36-3.82.76-2.06.63-3.94,1.88-5.6,3.69-1.76,1.94-3.83,4.9-3.71,8.01.11,2.54,1.45,4.85,3.43,5.88,1.2.62,2.7.9,4.16,1.18l.6.11c4.65.89,13.02.91,17.05-2.73,1-.9,1.64-2.19,1.81-3.63.74-6.14-5.6-12.51-11.1-13.23Zm-5.83,10.35c-.41,4.02-4.02,3.56-4.65,3.04-.37-.31-.45-1-.5-1.45-.08-.73-.07-1.55.11-2.27.25-.95.72-1.83,1.29-2.63.47-.64,1.2-1.79,2.16-1.44,0,0,2,.73,1.59,4.75Zm11.39,1.13c-.03.37-.1.75-.3,1.07-.54.84-2.11.72-2.92.38-1.22-.49-1.83-1.71-2.02-2.96-.63-3.98,1.32-4.82,1.32-4.82.94-.41,1.74.7,2.23,1.32,1.17,1.42,1.85,3.15,1.69,5.01Zm-5.56-11.48c-.89-.11-1.84-.13-2.82-.04-1.21.1-2.5.36-3.82.76-2.06.63-3.94,1.88-5.6,3.69-1.76,1.94-3.83,4.9-3.71,8.01.11,2.54,1.45,4.85,3.43,5.88,1.2.62,2.7.9,4.16,1.18l.6.11c4.65.89,13.02.91,17.05-2.73,1-.9,1.64-2.19,1.81-3.63.74-6.14-5.6-12.51-11.1-13.23Zm-5.83,10.35c-.41,4.02-4.02,3.56-4.65,3.04-.37-.31-.45-1-.5-1.45-.08-.73-.07-1.55.11-2.27.25-.95.72-1.83,1.29-2.63.47-.64,1.2-1.79,2.16-1.44,0,0,2,.73,1.59,4.75Zm11.39,1.13c-.03.37-.1.75-.3,1.07-.54.84-2.11.72-2.92.38-1.22-.49-1.83-1.71-2.02-2.96-.63-3.98,1.32-4.82,1.32-4.82.94-.41,1.74.7,2.23,1.32,1.17,1.42,1.85,3.15,1.69,5.01Zm-5.56-11.48c-.89-.11-1.84-.13-2.82-.04-1.21.1-2.5.36-3.82.76-2.06.63-3.94,1.88-5.6,3.69-1.76,1.94-3.83,4.9-3.71,8.01.11,2.54,1.45,4.85,3.43,5.88,1.2.62,2.7.9,4.16,1.18l.6.11c4.65.89,13.02.91,17.05-2.73,1-.9,1.64-2.19,1.81-3.63.74-6.14-5.6-12.51-11.1-13.23Zm-5.83,10.35c-.41,4.02-4.02,3.56-4.65,3.04-.37-.31-.45-1-.5-1.45-.08-.73-.07-1.55.11-2.27.25-.95.72-1.83,1.29-2.63.47-.64,1.2-1.79,2.16-1.44,0,0,2,.73,1.59,4.75Zm11.39,1.13c-.03.37-.1.75-.3,1.07-.54.84-2.11.72-2.92.38-1.22-.49-1.83-1.71-2.02-2.96-.63-3.98,1.32-4.82,1.32-4.82.94-.41,1.74.7,2.23,1.32,1.17,1.42,1.85,3.15,1.69,5.01Z"/>
      <path class="cls-2" d="m65.67,1.74c-1.19-1.16-2.68-1.74-4.47-1.74s-3.21.58-4.39,1.74c-1.19,1.17-1.78,2.62-1.78,4.36s.59,3.23,1.78,4.41c1.18,1.17,2.65,1.76,4.39,1.76s3.28-.59,4.47-1.76c1.2-1.18,1.8-2.64,1.8-4.41s-.6-3.19-1.8-4.36Zm-9.46,15.02v34.99h10.02V16.76h-10.02Z"/>
      <path class="cls-2" d="m104.53,19.56c-2.45-2.43-5.69-3.64-9.72-3.64-4.26,0-7.8,1.44-10.62,4.32v-3.48h-10.02v34.99h10.02v-19c0-2.15.66-3.88,1.99-5.18,1.33-1.31,3.07-1.96,5.22-1.96s3.7.63,4.94,1.91c1.24,1.27,1.86,2.97,1.86,5.09v19.14h10.02v-22.52c0-4.03-1.23-7.25-3.69-9.67Z"/>
      <path class="cls-2" d="m135.23,32.88l14.82-16.12h-12.97l-11.53,13.04V2.31h-10.02v49.44h10.02v-8.45l2.61-2.81,9.19,11.26h13.17l-15.29-18.87Z"/>
      <path class="cls-1" d="m190.02,31.3c-1.4-2.27-3.2-3.84-5.42-4.69,1.54-.98,2.8-2.38,3.77-4.19.98-1.81,1.46-3.77,1.46-5.9,0-3.5-1.21-6.4-3.63-8.69-2.43-2.29-5.43-3.44-9-3.44h-22.93v47.36h24.43c3.85,0,7.04-1.21,9.59-3.62,2.55-2.41,3.82-5.49,3.82-9.22,0-2.79-.7-5.33-2.09-7.61Zm-25.46-17.29h9.96c1.25,0,2.29.42,3.13,1.26.84.83,1.26,1.9,1.26,3.2s-.43,2.33-1.28,3.18c-.85.85-1.89,1.28-3.11,1.28h-9.96v-8.92Zm15.17,26.66c-.97.97-2.19,1.46-3.64,1.46h-11.53v-10.22h11.53c1.43,0,2.64.49,3.62,1.49.98.99,1.47,2.22,1.47,3.67s-.48,2.63-1.45,3.6Z"/>
      <path class="cls-1" d="m223.38,16.76v3.48c-2.81-2.88-6.34-4.32-10.59-4.32-4.8,0-8.82,1.75-12.05,5.26-3.23,3.51-4.84,7.87-4.84,13.07s1.61,9.57,4.84,13.07c3.23,3.51,7.25,5.27,12.05,5.27,4.25,0,7.78-1.44,10.59-4.33v3.49h10.02V16.76h-10.02Zm-2.45,23.66c-1.63,1.65-3.67,2.48-6.13,2.48s-4.46-.83-6.08-2.48c-1.62-1.65-2.43-3.71-2.43-6.17s.81-4.51,2.43-6.16c1.62-1.66,3.65-2.48,6.08-2.48s4.5.82,6.13,2.48c1.63,1.65,2.45,3.71,2.45,6.16s-.82,4.52-2.45,6.17Z"/>
      <path class="cls-1" d="m271.71,19.56c-2.46-2.43-5.7-3.64-9.72-3.64-4.27,0-7.81,1.44-10.62,4.32v-3.48h-10.02v34.99h10.02v-19c0-2.15.66-3.88,1.99-5.18,1.33-1.31,3.07-1.96,5.21-1.96s3.71.63,4.95,1.91c1.24,1.27,1.86,2.97,1.86,5.09v19.14h10.02v-22.52c0-4.03-1.23-7.25-3.69-9.67Z"/>
      <path class="cls-1" d="m301.39,34.24l14.81-16.12h-12.97l-11.53,13.04V3.67h-10.02v49.44h10.02v-8.45l2.62-2.81,9.18,11.26h13.17l-15.28-18.87Z"/>
    </g>
  </g>
</svg>