<?xml version="1.0" encoding="UTF-8"?>
<svg id="Capa_2" data-name="Capa 2" xmlns="http://www.w3.org/2000/svg" viewBox="0 0 5968.04 1000.96">
  <defs>
    <style>
      .cls-1 {
        fill: #fff;
      }
    </style>
  </defs>
  <g id="Capa_2-2" data-name="Capa 2">
    <g>
      <path class="cls-1" d="m526.56,338.85c-16.77-2.07-34.67-2.45-53.15-.75-22.8,1.88-47.12,6.78-71.98,14.32-38.83,11.87-74.26,35.43-105.55,69.54-33.17,36.56-72.18,92.35-69.92,150.96,2.08,47.87,27.33,91.4,64.66,110.81,22.6,11.69,50.87,16.96,78.4,22.24l11.3,2.07c87.64,16.77,245.37,17.15,321.33-51.45,18.85-16.96,30.9-41.27,34.12-68.41,13.93-115.72-105.55-235.77-209.21-249.34Zm-109.88,195.06c-7.73,75.76-75.75,67.09-87.62,57.29-6.98-5.84-8.48-18.85-9.42-27.33-1.51-13.76-1.33-29.21,2.06-42.78,4.71-17.9,13.58-34.49,24.31-49.57,8.87-12.06,22.62-33.73,40.71-27.14,0,0,37.69,13.76,29.96,89.52Zm214.67,21.3c-.57,6.97-1.9,14.13-5.67,20.16-10.18,15.83-39.75,13.57-55.03,7.16-22.99-9.23-34.49-32.23-38.06-55.78-11.87-75.01,24.88-90.84,24.88-90.84,17.71-7.73,32.78,13.19,42.02,24.88,22.05,26.76,34.86,59.36,31.86,94.42Zm-104.8-216.36c-16.77-2.07-34.67-2.45-53.15-.75-22.8,1.88-47.12,6.78-71.98,14.32-38.83,11.87-74.26,35.43-105.55,69.54-33.17,36.56-72.18,92.35-69.92,150.96,2.08,47.87,27.33,91.4,64.66,110.81,22.6,11.69,50.87,16.96,78.4,22.24l11.3,2.07c87.64,16.77,245.37,17.15,321.33-51.45,18.85-16.96,30.9-41.27,34.12-68.41,13.93-115.72-105.55-235.77-209.21-249.34Zm-109.88,195.06c-7.73,75.76-75.75,67.09-87.62,57.29-6.98-5.84-8.48-18.85-9.42-27.33-1.51-13.76-1.33-29.21,2.06-42.78,4.71-17.9,13.58-34.49,24.31-49.57,8.87-12.06,22.62-33.73,40.71-27.14,0,0,37.69,13.76,29.96,89.52Zm214.67,21.3c-.57,6.97-1.9,14.13-5.67,20.16-10.18,15.83-39.75,13.57-55.03,7.16-22.99-9.23-34.49-32.23-38.06-55.78-11.87-75.01,24.88-90.84,24.88-90.84,17.71-7.73,32.78,13.19,42.02,24.88,22.05,26.76,34.86,59.36,31.86,94.42Zm251.02-261.78c-41.26-70.49-98-125.89-170.17-166.22-72.18-40.15-152.28-60.31-240.29-60.31-66.16,0-128.54,11.88-187.16,35.43-58.42,23.56-108.55,55.78-150.2,96.68-41.65,40.9-74.63,89.71-98.58,146.81C12.06,402.93,0,463.81,0,528.64s12.06,125.89,35.98,183c23.94,56.91,56.93,105.92,98.58,146.81,41.65,40.9,91.78,73.13,150.2,96.87,58.62,23.93,120.99,35.81,187.16,35.81s128.15-11.87,186.57-35.81c58.23-23.75,108.37-55.98,150.4-96.87,41.83-40.9,74.81-89.9,99.13-146.81,24.13-57.11,36.18-118.17,36.18-183,0-86.32-20.54-164.72-61.82-235.2Zm-88.95,301.54c-4.9,41.09-23.74,78.21-53.15,104.79-64.82,58.42-167.92,75.39-254.98,75.39-45.61,0-86.7-4.71-115.91-10.37l-11.12-2.07c-29.96-5.65-63.9-12.06-94.23-27.7-55.42-28.65-93.11-91.4-95.93-159.82-3.02-78.21,44.47-147.56,84.81-192.04,38.45-42.22,82.54-71.05,131.54-85.94,28.84-8.86,57.11-14.51,84.05-16.77,9.42-.94,18.85-1.32,28.09-1.32,12.81,0,25.25.75,37.32,2.45,147.55,19.04,275.9,174.33,259.51,313.41Zm-266.87-256.12c-16.77-2.07-34.67-2.45-53.15-.75-22.8,1.88-47.12,6.78-71.98,14.32-38.83,11.87-74.26,35.43-105.55,69.54-33.17,36.56-72.18,92.35-69.92,150.96,2.08,47.87,27.33,91.4,64.66,110.81,22.6,11.69,50.87,16.96,78.4,22.24l11.3,2.07c87.64,16.77,245.37,17.15,321.33-51.45,18.85-16.96,30.9-41.27,34.12-68.41,13.93-115.72-105.55-235.77-209.21-249.34Zm-109.88,195.06c-7.73,75.76-75.75,67.09-87.62,57.29-6.98-5.84-8.48-18.85-9.42-27.33-1.51-13.76-1.33-29.21,2.06-42.78,4.71-17.9,13.58-34.49,24.31-49.57,8.87-12.06,22.62-33.73,40.71-27.14,0,0,37.69,13.76,29.96,89.52Zm214.67,21.3c-.57,6.97-1.9,14.13-5.67,20.16-10.18,15.83-39.75,13.57-55.03,7.16-22.99-9.23-34.49-32.23-38.06-55.78-11.87-75.01,24.88-90.84,24.88-90.84,17.71-7.73,32.78,13.19,42.02,24.88,22.05,26.76,34.86,59.36,31.86,94.42Zm-104.8-216.36c-16.77-2.07-34.67-2.45-53.15-.75-22.8,1.88-47.12,6.78-71.98,14.32-38.83,11.87-74.26,35.43-105.55,69.54-33.17,36.56-72.18,92.35-69.92,150.96,2.08,47.87,27.33,91.4,64.66,110.81,22.6,11.69,50.87,16.96,78.4,22.24l11.3,2.07c87.64,16.77,245.37,17.15,321.33-51.45,18.85-16.96,30.9-41.27,34.12-68.41,13.93-115.72-105.55-235.77-209.21-249.34Zm-109.88,195.06c-7.73,75.76-75.75,67.09-87.62,57.29-6.98-5.84-8.48-18.85-9.42-27.33-1.51-13.76-1.33-29.21,2.06-42.78,4.71-17.9,13.58-34.49,24.31-49.57,8.87-12.06,22.62-33.73,40.71-27.14,0,0,37.69,13.76,29.96,89.52Zm214.67,21.3c-.57,6.97-1.9,14.13-5.67,20.16-10.18,15.83-39.75,13.57-55.03,7.16-22.99-9.23-34.49-32.23-38.06-55.78-11.87-75.01,24.88-90.84,24.88-90.84,17.71-7.73,32.78,13.19,42.02,24.88,22.05,26.76,34.86,59.36,31.86,94.42Zm-104.8-216.36c-16.77-2.07-34.67-2.45-53.15-.75-22.8,1.88-47.12,6.78-71.98,14.32-38.83,11.87-74.26,35.43-105.55,69.54-33.17,36.56-72.18,92.35-69.92,150.96,2.08,47.87,27.33,91.4,64.66,110.81,22.6,11.69,50.87,16.96,78.4,22.24l11.3,2.07c87.64,16.77,245.37,17.15,321.33-51.45,18.85-16.96,30.9-41.27,34.12-68.41,13.93-115.72-105.55-235.77-209.21-249.34Zm-109.88,195.06c-7.73,75.76-75.75,67.09-87.62,57.29-6.98-5.84-8.48-18.85-9.42-27.33-1.51-13.76-1.33-29.21,2.06-42.78,4.71-17.9,13.58-34.49,24.31-49.57,8.87-12.06,22.62-33.73,40.71-27.14,0,0,37.69,13.76,29.96,89.52Zm214.67,21.3c-.57,6.97-1.9,14.13-5.67,20.16-10.18,15.83-39.75,13.57-55.03,7.16-22.99-9.23-34.49-32.23-38.06-55.78-11.87-75.01,24.88-90.84,24.88-90.84,17.71-7.73,32.78,13.19,42.02,24.88,22.05,26.76,34.86,59.36,31.86,94.42Z"/>
      <path class="cls-1" d="m1237.64,32.79c-22.44-21.86-50.52-32.79-84.26-32.79s-60.5,10.93-82.73,32.79c-22.44,22.05-33.55,49.38-33.55,82.17s11.12,60.87,33.55,83.11c22.23,22.05,49.95,33.17,82.73,33.17s61.82-11.12,84.26-33.17c22.6-22.24,33.92-49.75,33.92-83.11s-11.32-60.12-33.92-82.17Zm-178.29,283.07v659.43h188.83V315.86h-188.83Z"/>
      <path class="cls-1" d="m1970,368.63c-46.16-45.8-107.23-68.6-183.18-68.6-80.28,0-147,27.14-200.15,81.42v-65.58h-188.83v659.43h188.83v-358.08c0-40.52,12.44-73.12,37.51-97.63,25.07-24.69,57.86-36.94,98.37-36.94s69.74,11.87,93.11,35.99c23.37,23.94,35.04,55.98,35.04,95.93v360.72h188.85v-424.42c0-75.95-23.19-136.64-69.55-182.25Z"/>
      <path class="cls-1" d="m2548.58,619.67l279.31-303.8h-244.43l-217.3,245.75V43.53h-188.85v931.77h188.85v-159.25l49.18-52.96,173.21,212.21h248.21l-288.16-355.63Z"/>
      <path class="cls-1" d="m3581.18,589.89c-26.39-42.78-60.31-72.37-102.15-88.39,29.02-18.47,52.77-44.85,71.04-78.97,18.48-34.11,27.53-71.05,27.53-111.2,0-65.96-22.82-120.61-68.43-163.77-45.79-43.16-102.33-64.83-169.62-64.83h-432.14v892.56h460.41c72.57,0,132.68-22.81,180.75-68.22,48.05-45.42,71.98-103.47,71.98-173.76,0-52.58-13.2-100.45-39.39-143.42Zm-479.83-325.85h187.71c23.56,0,43.16,7.92,58.99,23.74,15.83,15.64,23.74,35.81,23.74,60.31s-8.1,43.91-24.11,59.93c-16.03,16.02-35.63,24.12-58.62,24.12h-187.71v-168.11Zm285.9,502.44c-18.28,18.28-41.26,27.51-68.59,27.51h-217.3v-192.61h217.3c26.94,0,49.75,9.23,68.23,28.08,18.46,18.66,27.7,41.84,27.7,69.16s-9.06,49.57-27.33,67.85Z"/>
      <path class="cls-1" d="m4209.9,315.86v65.58c-52.97-54.28-119.48-81.42-199.58-81.42-90.48,0-166.23,32.98-227.11,99.13-60.86,66.15-91.21,148.32-91.21,246.32s30.35,180.36,91.21,246.32c60.88,66.15,136.64,99.32,227.11,99.32,80.1,0,146.61-27.14,199.58-81.6v65.77h188.83V315.86h-188.83Zm-46.18,445.91c-30.72,31.09-69.16,46.74-115.53,46.74s-84.05-15.64-114.59-46.74c-30.53-31.1-45.79-69.92-45.79-116.28s15.26-85,45.79-116.09c30.53-31.28,68.78-46.74,114.59-46.74s84.81,15.46,115.53,46.74c30.72,31.1,46.18,69.92,46.18,116.09s-15.46,85.18-46.18,116.28Z"/>
      <path class="cls-1" d="m5120.74,368.63c-46.36-45.8-107.43-68.6-183.2-68.6-80.47,0-147.18,27.14-200.15,81.42v-65.58h-188.83v659.43h188.83v-358.08c0-40.52,12.44-73.12,37.51-97.63,25.07-24.69,57.86-36.94,98.19-36.94s69.92,11.87,93.29,35.99c23.37,23.94,35.06,55.98,35.06,95.93v360.72h188.83v-424.42c0-75.95-23.17-136.64-69.53-182.25Z"/>
      <path class="cls-1" d="m5680.06,645.33l279.12-303.8h-244.43l-217.3,245.75V69.19h-188.85v931.77h188.85v-159.25l49.38-52.96,173,212.21h248.21l-287.98-355.63Z"/>
    </g>
  </g>
</svg>